<?xml version="1.0" encoding="UTF-8"?>
<svg xmlns="http://www.w3.org/2000/svg" xmlns:xlink="http://www.w3.org/1999/xlink" version="1.2" >
<font id="A1 Serif">
<font-face  font-family="A1 Serif" units-per-em="2048" ascent="1536" descent="-512" font-style="normal" font-weight="400" font-stretch="normal" cap-height="1475" x-height="969" underline-position="-351" underline-thickness="142" />
<missing-glyph  horiz-adv-x="573" d="M57 0 L57 1475 L516 1475 L516 0 L57 0 Z M459 57 L459 1418 L114 1418 L114 57 L459 57 Z " />
<glyph glyph-name="space" unicode="&#x20;" horiz-adv-x="573" d="" />
<glyph glyph-name="exclam" unicode="&#x21;" horiz-adv-x="625" d="M207 0 L207 215 L411 215 L411 0 L207 0 Z M228 388 L205 1475 L409 1475 L386 388 L228 388 Z " />
<glyph glyph-name="quotedbl" unicode="&#x22;" horiz-adv-x="603" d="M95 908 L95 1475 L229 1475 L229 908 L95 908 Z M374 908 L374 1475 L508 1475 L508 908 L374 908 Z " />
<glyph glyph-name="numbersign" unicode="&#x23;" horiz-adv-x="1147" d="M245 464 L56 464 L75 601 L264 601 L299 848 L110 848 L129 985 L318 985 L385 1462 L543 1462 L476 985 L744 985 L811 1462 L968 1462 L901 985 L1091 985 L1071 848 L882 848 L847 601 L1037 601 L1017 464 L828 464 L763 0 L605 0 L671 464 L403 464 L337 0 L180 0 L245 464 Z M422 601 L690 601 L725 848 L457 848 L422 601 Z " />
<glyph glyph-name="dollar" unicode="&#x24;" horiz-adv-x="1147" d="M64 0 L64 440 L220 440 L220 406 Q220 267 318 205 Q392 158 515 141 L515 699 Q428 723 376 740 Q207 795 142 904 Q96 982 96 1096 Q96 1331 285 1434 Q367 1479 515 1486 L515 1641 L633 1641 L633 1481 Q644 1478 650 1477 Q741 1456 786 1429 Q813 1413 847 1385 L847 1475 L988 1475 L988 1044 L841 1044 L841 1071 Q841 1182 790 1239 Q742 1293 633 1324 L633 846 Q724 822 777 804 Q935 752 1011 637 Q1073 542 1073 412 Q1073 269 1001 162 Q897 7 633 -15 L633 -170 L515 -170 L515 -8 Q389 5 330 26 Q275 46 212 88 L212 0 L64 0 Z M515 879 L515 1338 Q410 1330 357 1292 Q267 1229 267 1112 Q267 989 364 936 Q416 908 515 879 Z M633 663 L633 135 Q749 155 796 189 Q900 265 900 399 Q900 525 809 591 Q768 620 675 649 Q644 659 633 663 Z " />
<glyph glyph-name="percent" unicode="&#x25;" horiz-adv-x="1685" d="M432 1506 Q591 1506 695 1395 Q789 1296 789 1155 Q789 1015 695 916 Q591 805 433 805 Q272 805 168 916 Q74 1016 74 1160 Q74 1298 168 1395 Q275 1506 432 1506 Z M431 1370 Q341 1370 282 1303 Q229 1242 229 1158 Q229 1070 282 1009 Q340 941 432 941 Q523 941 581 1009 Q634 1070 634 1156 Q634 1243 581 1303 Q522 1370 431 1370 Z M315 0 L1218 1475 L1370 1475 L467 0 L315 0 Z M1254 670 Q1413 670 1517 559 Q1611 460 1611 319 Q1611 180 1517 80 Q1413 -31 1254 -31 Q1094 -31 990 80 Q896 180 896 324 Q896 462 990 559 Q1097 670 1254 670 Z M1254 534 Q1162 534 1104 466 Q1051 406 1051 322 Q1051 233 1104 172 Q1162 105 1254 105 Q1345 105 1403 173 Q1456 234 1456 320 Q1456 406 1403 467 Q1344 534 1254 534 Z " />
<glyph glyph-name="ampersand" unicode="&#x26;" horiz-adv-x="1309" d="M648 844 L945 435 Q1003 589 1050 803 L1213 803 Q1167 604 1140 519 Q1099 389 1049 293 L1262 0 L1070 0 L953 163 Q942 150 937 144 Q871 70 848 53 Q730 -32 562 -32 Q364 -32 246 65 Q106 181 106 386 Q106 510 167 606 Q214 679 339 784 Q369 810 438 866 Q385 934 351 987 Q277 1100 277 1198 Q277 1329 365 1417 Q454 1506 592 1506 Q733 1506 823 1414 Q909 1327 909 1205 Q909 1079 788 964 Q757 935 648 844 Z M559 964 Q647 1032 683 1068 Q750 1136 750 1205 Q750 1269 707 1314 Q662 1360 592 1360 Q524 1360 480 1315 Q436 1271 436 1208 Q436 1146 485 1070 Q503 1041 559 964 Z M528 746 Q415 656 372 612 Q283 520 283 401 Q283 269 364 193 Q442 119 573 119 Q691 119 774 189 Q794 207 858 292 L528 746 Z " />
<glyph glyph-name="quotesingle" unicode="&#x27;" horiz-adv-x="321" d="M94 908 L94 1475 L228 1475 L228 908 L94 908 Z " />
<glyph glyph-name="parenleft" unicode="&#x28;" horiz-adv-x="819" d="M662 -432 L499 -432 Q211 37 211 531 Q211 1022 499 1485 L662 1485 Q540 1274 480 1091 Q390 820 390 531 Q390 220 493 -72 Q550 -236 662 -432 Z " />
<glyph glyph-name="parenright" unicode="&#x29;" horiz-adv-x="819" d="M320 -432 L157 -432 Q279 -217 339 -34 Q429 240 429 531 Q429 839 326 1129 Q269 1291 157 1485 L320 1485 Q608 1020 608 531 Q608 39 320 -432 Z " />
<glyph glyph-name="asterisk" unicode="&#x2a;" horiz-adv-x="1147" d="M168 1164 L219 1312 L502 1211 L497 1507 L649 1507 L644 1211 L926 1310 L979 1163 L685 1080 L883 833 L754 740 L573 999 L391 741 L262 832 L460 1080 L168 1164 Z " />
<glyph glyph-name="plus" unicode="&#x2b;" horiz-adv-x="1147" d="M142 661 L142 813 L498 813 L498 1188 L650 1188 L650 813 L1006 813 L1006 661 L650 661 L650 285 L498 285 L498 661 L142 661 Z " />
<glyph glyph-name="comma" unicode="&#x2c;" horiz-adv-x="573" d="M76 -273 L217 221 L426 221 L249 -273 L76 -273 Z " />
<glyph glyph-name="hyphen" unicode="&#x2d;" horiz-adv-x="716" d="M88 478 L88 629 L628 629 L628 478 L88 478 Z " />
<glyph glyph-name="period" unicode="&#x2e;" horiz-adv-x="573" d="M186 0 L186 221 L390 221 L390 0 L186 0 Z " />
<glyph glyph-name="slash" unicode="&#x2f;" horiz-adv-x="791" d="M63 -188 L590 1495 L722 1495 L195 -188 L63 -188 Z " />
<glyph glyph-name="zero" unicode="0" horiz-adv-x="1147" d="M573 1504 Q858 1504 988 1194 Q1064 1011 1064 738 Q1064 432 969 240 Q836 -29 573 -29 Q288 -29 159 281 Q82 465 82 744 Q82 1043 177 1235 Q310 1504 573 1504 Z M573 1349 Q393 1349 311 1116 Q259 970 259 743 Q259 480 323 327 Q407 126 573 126 Q753 126 835 359 Q887 506 887 738 Q887 995 823 1148 Q739 1349 573 1349 Z " />
<glyph glyph-name="one" unicode="1" horiz-adv-x="1147" d="M506 151 L506 1305 L202 1176 L152 1307 L534 1475 L680 1475 L680 151 L977 151 L977 0 L201 0 L201 151 L506 151 Z " />
<glyph glyph-name="two" unicode="2" horiz-adv-x="1147" d="M76 0 Q89 134 161 252 Q217 346 343 475 Q422 555 554 680 Q640 762 680 808 Q720 854 752 907 Q805 998 805 1090 Q805 1208 734 1280 Q662 1353 544 1353 Q291 1353 249 1030 L83 1030 Q106 1215 170 1313 Q293 1504 545 1504 Q734 1504 855 1399 Q987 1285 987 1093 Q987 922 882 784 Q808 686 618 510 Q429 336 384 277 Q344 225 310 151 L875 151 L875 408 L1031 408 L1031 0 L76 0 Z " />
<glyph glyph-name="three" unicode="3" horiz-adv-x="1147" d="M400 703 L400 841 Q576 840 669 878 Q824 941 824 1105 Q824 1223 738 1294 Q666 1352 556 1352 Q327 1352 280 1118 L110 1118 Q131 1264 208 1357 Q328 1504 560 1504 Q769 1504 888 1387 Q998 1279 998 1111 Q998 957 903 866 Q851 816 755 778 Q886 738 956 657 Q1047 554 1047 402 Q1047 195 901 75 Q776 -29 560 -29 Q117 -29 78 401 L248 401 Q260 301 309 234 Q390 124 560 124 Q686 124 764 186 Q867 267 867 406 Q867 599 666 669 Q574 702 400 703 Z " />
<glyph glyph-name="four" unicode="4" horiz-adv-x="1147" d="M460 0 L460 151 L691 151 L691 391 L90 391 L90 548 L486 1475 L673 1475 L268 543 L691 543 L691 1039 L858 1039 L858 543 L1095 543 L1095 391 L858 391 L858 151 L1072 151 L1072 0 L460 0 Z " />
<glyph glyph-name="five" unicode="5" horiz-adv-x="1147" d="M71 401 L241 401 Q253 301 302 234 Q382 124 541 124 Q687 124 775 224 Q855 315 855 448 Q855 594 767 683 Q684 769 548 769 Q455 769 377 726 Q335 704 269 646 L149 718 L197 1475 L953 1475 L953 1122 L797 1122 L797 1322 L356 1322 L322 847 Q441 922 576 922 Q759 922 879 821 Q1035 689 1035 452 Q1035 238 905 106 Q771 -29 539 -29 Q285 -29 163 130 Q87 228 71 401 Z " />
<glyph glyph-name="six" unicode="6" horiz-adv-x="1147" d="M293 799 Q340 849 374 874 Q466 939 596 939 Q780 939 899 826 Q1040 692 1040 462 Q1040 236 909 99 Q786 -29 578 -29 Q337 -29 211 152 Q109 300 109 605 Q109 1015 224 1253 Q345 1504 612 1504 Q846 1504 948 1336 Q999 1252 1010 1126 L841 1126 Q824 1219 792 1264 Q730 1351 608 1351 Q476 1351 403 1237 Q340 1139 310 950 Q306 921 293 799 Z M576 786 Q441 786 365 698 Q288 608 288 462 Q288 309 367 214 Q440 125 577 125 Q713 125 785 213 Q863 309 863 457 Q863 607 786 698 Q712 786 576 786 Z " />
<glyph glyph-name="seven" unicode="7" horiz-adv-x="1147" d="M846 1322 L294 1322 L294 1113 L138 1113 L138 1475 L1022 1475 L1022 1337 L514 0 L320 0 L846 1322 Z " />
<glyph glyph-name="eight" unicode="8" horiz-adv-x="1147" d="M352 783 Q261 824 213 881 Q139 970 139 1106 Q139 1290 262 1399 Q379 1504 573 1504 Q783 1504 902 1382 Q1006 1274 1006 1106 Q1006 962 922 870 Q877 821 793 783 Q898 744 966 669 Q1059 565 1059 404 Q1059 204 921 85 Q789 -29 573 -29 Q339 -29 206 101 Q86 219 86 403 Q86 574 191 682 Q256 748 352 783 Z M572 1352 Q430 1352 363 1273 Q307 1208 307 1103 Q307 981 378 915 Q448 851 572 851 Q707 851 777 926 Q838 990 838 1101 Q838 1219 772 1284 Q704 1352 572 1352 Z M572 701 Q425 701 342 620 Q264 544 264 420 Q264 276 354 198 Q435 127 572 127 Q722 127 805 210 Q881 287 881 417 Q881 554 791 631 Q709 701 572 701 Z " />
<glyph glyph-name="nine" unicode="9" horiz-adv-x="1147" d="M852 710 Q804 662 771 639 Q680 577 549 577 Q371 577 257 670 Q103 796 103 1034 Q103 1250 234 1381 Q358 1504 563 1504 Q807 1504 931 1332 Q992 1248 1017 1124 Q1036 1028 1036 879 Q1036 479 953 255 Q849 -29 538 -29 Q306 -29 198 118 Q131 208 117 349 L286 349 Q307 244 350 196 Q415 124 541 124 Q692 124 763 246 Q842 380 852 710 Z M567 1350 Q433 1350 359 1267 Q280 1180 280 1038 Q280 897 357 812 Q432 730 568 730 Q705 730 780 812 Q857 897 857 1034 Q857 1180 778 1267 Q703 1350 567 1350 Z " />
<glyph glyph-name="colon" unicode="&#x3a;" horiz-adv-x="574" d="M186 0 L186 221 L390 221 L390 0 L186 0 Z M186 636 L186 857 L390 857 L390 636 L186 636 Z " />
<glyph glyph-name="semicolon" unicode="&#x3b;" horiz-adv-x="574" d="M194 636 L194 857 L398 857 L398 636 L194 636 Z M53 -273 L194 221 L403 221 L226 -273 L53 -273 Z " />
<glyph glyph-name="less" unicode="&#x3c;" horiz-adv-x="1147" d="M317 737 L1005 364 L1005 196 L138 682 L138 792 L1005 1278 L1005 1110 L317 737 Z " />
<glyph glyph-name="equal" unicode="&#x3d;" horiz-adv-x="1147" d="M142 493 L142 646 L1006 646 L1006 493 L142 493 Z M142 827 L142 980 L1006 980 L1006 827 L142 827 Z " />
<glyph glyph-name="greater" unicode="&#x3e;" horiz-adv-x="1147" d="M830 737 L142 1110 L142 1278 L1009 792 L1009 682 L142 196 L142 364 L830 737 Z " />
<glyph glyph-name="question" unicode="&#x3f;" horiz-adv-x="1015" d="M367 0 L367 215 L571 215 L571 0 L367 0 Z M387 389 L387 797 Q545 798 630 842 Q768 914 768 1078 Q768 1197 692 1274 Q613 1353 497 1353 Q359 1353 284 1241 Q243 1179 224 1052 L59 1052 Q72 1162 92 1221 Q138 1352 239 1428 Q346 1508 501 1508 Q692 1508 815 1390 Q945 1267 945 1069 Q945 888 823 777 Q749 709 642 680 Q609 671 547 662 L547 389 L387 389 Z " />
<glyph glyph-name="at" unicode="&#x40;" horiz-adv-x="2139" d="M1343 374 Q1231 214 1026 214 Q850 214 741 331 Q636 444 636 625 Q636 807 741 920 Q848 1034 1022 1034 Q1172 1034 1267 953 Q1295 929 1328 884 L1334 1026 L1475 1026 L1475 498 Q1475 429 1490 397 Q1514 345 1598 345 Q1722 345 1784 453 Q1843 554 1843 717 Q1843 1027 1635 1201 Q1429 1373 1097 1373 Q691 1373 472 1108 Q297 897 297 583 Q297 271 472 104 Q696 -108 1149 -108 Q1497 -108 1812 13 L1864 -116 Q1736 -166 1635 -192 Q1414 -248 1149 -248 Q822 -248 606 -157 Q122 46 122 587 Q122 960 355 1215 Q627 1513 1095 1513 Q1459 1513 1703 1339 Q1874 1216 1956 1031 Q2017 890 2017 728 Q2017 492 1907 357 Q1850 287 1761 249 Q1676 213 1582 213 Q1450 213 1392 275 Q1358 311 1343 374 Z M1048 896 Q939 896 872 822 Q805 748 805 624 Q805 501 872 427 Q939 352 1050 352 Q1172 352 1247 437 Q1313 512 1313 621 Q1313 737 1247 811 Q1171 896 1048 896 Z " />
<glyph glyph-name="A" unicode="A" horiz-adv-x="1460" d="M1043 434 L410 434 L306 151 L467 151 L467 0 L0 0 L0 151 L122 151 L626 1475 L824 1475 L1334 151 L1460 151 L1460 0 L987 0 L987 151 L1149 151 L1043 434 Z M987 582 L723 1296 L465 582 L987 582 Z " />
<glyph glyph-name="B" unicode="B" horiz-adv-x="1332" d="M226 151 L226 1324 L82 1324 L82 1475 L665 1475 Q897 1475 1021 1383 Q1148 1289 1148 1109 Q1148 897 942 804 Q1062 777 1133 699 Q1229 593 1229 431 Q1229 201 1051 87 Q917 0 658 0 L82 0 L82 151 L226 151 Z M401 867 L661 867 Q805 867 882 921 Q968 980 968 1094 Q968 1220 867 1281 Q790 1328 659 1328 L401 1328 L401 867 Z M401 147 L618 147 Q826 147 924 208 Q1045 282 1045 434 Q1045 590 922 666 Q832 721 683 721 L401 721 L401 147 Z " />
<glyph glyph-name="C" unicode="C" horiz-adv-x="1476" d="M1263 348 L1377 227 Q1281 111 1173 54 Q1013 -31 798 -31 Q438 -31 257 190 Q92 390 92 722 Q92 1081 286 1297 Q472 1506 790 1506 Q1029 1506 1185 1391 L1185 1475 L1333 1475 L1333 1044 L1177 1044 L1177 1071 Q1177 1172 1128 1228 Q1079 1284 984 1317 Q900 1347 792 1347 Q538 1347 401 1161 Q276 991 276 723 Q276 451 417 286 Q549 130 803 130 Q982 130 1119 216 Q1170 249 1263 348 Z " />
<glyph glyph-name="D" unicode="D" horiz-adv-x="1496" d="M226 151 L226 1324 L82 1324 L82 1475 L613 1475 Q961 1475 1166 1307 Q1403 1112 1403 738 Q1403 363 1166 168 Q961 0 613 0 L82 0 L82 151 L226 151 Z M406 151 L601 151 Q873 151 1033 281 Q1219 432 1219 738 Q1219 1042 1034 1194 Q874 1324 601 1324 L406 1324 L406 151 Z " />
<glyph glyph-name="E" unicode="E" horiz-adv-x="1211" d="M226 151 L226 1324 L82 1324 L82 1475 L1104 1475 L1104 1116 L948 1116 L948 1324 L406 1324 L406 842 L892 842 L892 691 L406 691 L406 151 L958 151 L958 400 L1114 400 L1114 0 L82 0 L82 151 L226 151 Z " />
<glyph glyph-name="F" unicode="F" horiz-adv-x="1141" d="M226 151 L226 1324 L82 1324 L82 1475 L1103 1475 L1103 1116 L947 1116 L947 1324 L406 1324 L406 831 L892 831 L892 680 L406 680 L406 151 L589 151 L589 0 L82 0 L82 151 L226 151 Z " />
<glyph glyph-name="G" unicode="G" horiz-adv-x="1663" d="M806 571 L806 722 L1482 722 L1482 59 Q1220 -31 887 -31 Q625 -31 451 63 Q273 160 181 338 Q92 508 92 730 Q92 1106 346 1329 Q545 1505 861 1505 Q1121 1505 1284 1391 L1284 1475 L1432 1475 L1432 1044 L1276 1044 L1276 1071 Q1276 1170 1226 1226 Q1174 1285 1068 1320 Q985 1347 870 1347 Q596 1347 437 1177 Q276 1006 276 732 Q276 451 447 282 Q604 127 901 127 Q1105 127 1314 193 L1314 571 L806 571 Z " />
<glyph glyph-name="H" unicode="H" horiz-adv-x="1473" d="M226 151 L226 1324 L82 1324 L82 1475 L557 1475 L557 1324 L406 1324 L406 851 L1066 851 L1066 1324 L915 1324 L915 1475 L1390 1475 L1390 1324 L1246 1324 L1246 151 L1390 151 L1390 0 L915 0 L915 151 L1066 151 L1066 700 L406 700 L406 151 L557 151 L557 0 L82 0 L82 151 L226 151 Z " />
<glyph glyph-name="I" unicode="I" horiz-adv-x="639" d="M229 151 L229 1324 L85 1324 L85 1475 L554 1475 L554 1324 L409 1324 L409 151 L554 151 L554 0 L85 0 L85 151 L229 151 Z " />
<glyph glyph-name="J" unicode="J" horiz-adv-x="634" d="M230 1324 L79 1324 L79 1475 L554 1475 L554 1324 L410 1324 L410 135 Q410 -25 382 -103 Q334 -237 193 -279 Q137 -296 43 -300 L43 -149 Q152 -140 189 -91 Q216 -55 225 5 Q230 41 230 124 L230 1324 Z " />
<glyph glyph-name="K" unicode="K" horiz-adv-x="1264" d="M226 151 L226 1324 L82 1324 L82 1475 L543 1475 L543 1324 L406 1324 L406 791 L896 1324 L767 1324 L767 1475 L1211 1475 L1211 1324 L1104 1324 L603 784 L1131 151 L1270 151 L1270 0 L785 0 L785 151 L916 151 L406 761 L406 151 L537 151 L537 0 L82 0 L82 151 L226 151 Z " />
<glyph glyph-name="L" unicode="L" horiz-adv-x="1151" d="M226 151 L226 1324 L82 1324 L82 1475 L566 1475 L566 1324 L406 1324 L406 151 L922 151 L922 412 L1078 412 L1078 0 L82 0 L82 151 L226 151 Z " />
<glyph glyph-name="M" unicode="M" horiz-adv-x="1810" d="M191 151 L273 1324 L128 1324 L128 1475 L507 1475 L853 468 Q878 397 906 268 Q930 386 956 462 L1305 1475 L1680 1475 L1680 1324 L1535 1324 L1617 151 L1746 151 L1746 0 L1303 0 L1303 151 L1441 151 L1388 1023 Q1387 1047 1381 1246 Q1333 1068 1319 1028 L967 0 L842 0 L490 1026 Q481 1052 463 1118 Q451 1161 426 1246 Q421 1050 420 1024 L366 151 L506 151 L506 0 L62 0 L62 151 L191 151 Z " />
<glyph glyph-name="N" unicode="N" horiz-adv-x="1456" d="M226 151 L226 1324 L82 1324 L82 1475 L427 1475 L985 528 Q1002 498 1072 356 Q1067 487 1067 551 L1067 1324 L914 1324 L914 1475 L1379 1475 L1379 1324 L1235 1324 L1235 -24 L1110 -24 L463 1085 Q456 1098 388 1238 Q394 1107 394 1081 L394 151 L544 151 L544 0 L82 0 L82 151 L226 151 Z " />
<glyph glyph-name="O" unicode="O" horiz-adv-x="1714" d="M857 1506 Q1091 1506 1280 1382 Q1468 1259 1557 1055 Q1621 907 1621 738 Q1621 439 1431 223 Q1318 95 1163 30 Q1020 -31 858 -31 Q507 -31 283 223 Q92 439 92 747 Q92 938 182 1108 Q287 1307 490 1417 Q656 1506 857 1506 Z M857 1348 Q601 1348 432 1165 Q276 995 276 746 Q276 481 432 310 Q601 127 858 127 Q1112 127 1281 310 Q1437 481 1437 738 Q1437 999 1281 1165 Q1108 1348 857 1348 Z " />
<glyph glyph-name="P" unicode="P" horiz-adv-x="1238" d="M226 151 L226 1324 L82 1324 L82 1475 L574 1475 Q729 1475 831 1456 Q1005 1423 1096 1298 Q1177 1187 1177 1020 Q1177 858 1098 749 Q1012 630 831 594 Q713 571 575 571 L406 571 L406 151 L589 151 L589 0 L82 0 L82 151 L226 151 Z M406 719 L580 719 Q782 719 876 784 Q993 864 993 1024 Q993 1178 884 1257 Q791 1324 585 1324 L406 1324 L406 719 Z " />
<glyph glyph-name="Q" unicode="Q" horiz-adv-x="1714" d="M481 -302 L426 -156 Q521 -87 578 -61 Q646 -30 736 -21 Q533 10 379 132 Q232 249 157 421 Q92 569 92 738 Q92 1037 283 1252 Q396 1380 550 1445 Q693 1506 856 1506 Q1092 1506 1280 1383 Q1467 1260 1557 1055 Q1621 908 1621 738 Q1621 439 1431 224 Q1255 26 1004 -17 Q955 -25 864 -29 Q927 -44 1070 -107 Q1220 -174 1294 -174 Q1374 -174 1469 -120 L1520 -268 Q1399 -332 1285 -332 Q1217 -332 1142 -308 Q1099 -294 1012 -257 Q912 -215 879 -203 Q805 -176 753 -176 Q638 -176 481 -302 Z M857 1348 Q601 1348 432 1165 Q276 996 276 746 Q276 482 432 311 Q601 128 858 128 Q1112 128 1281 311 Q1437 482 1437 738 Q1437 1000 1281 1165 Q1108 1348 857 1348 Z " />
<glyph glyph-name="R" unicode="R" horiz-adv-x="1296" d="M226 151 L226 1324 L82 1324 L82 1475 L606 1475 Q748 1475 839 1460 Q1000 1433 1085 1322 Q1164 1219 1164 1064 Q1164 878 1042 773 Q1004 741 896 693 Q953 662 986 612 Q1016 566 1051 463 L1161 151 L1299 151 L1299 0 L1009 0 L888 371 Q855 472 829 515 Q782 591 723 615 Q667 637 550 637 L406 637 L406 151 L577 151 L577 0 L82 0 L82 151 L226 151 Z M406 785 L588 785 Q783 785 866 837 Q980 907 980 1056 Q980 1202 873 1272 Q793 1324 601 1324 L406 1324 L406 785 Z " />
<glyph glyph-name="S" unicode="S" horiz-adv-x="1234" d="M110 0 L110 440 L266 440 L266 406 Q266 302 316 242 Q363 187 456 154 Q532 127 633 127 Q805 127 896 206 Q980 279 980 398 Q980 512 891 583 Q848 617 768 645 Q712 664 582 697 Q403 741 336 773 Q202 834 156 941 Q126 1008 126 1097 Q126 1275 238 1385 Q360 1506 578 1506 Q785 1506 910 1391 L910 1475 L1058 1475 L1058 1044 L902 1044 L902 1071 Q902 1172 863 1231 Q826 1287 740 1321 Q672 1348 586 1348 Q450 1348 374 1278 Q303 1212 303 1112 Q303 1002 393 944 Q457 903 663 854 Q851 809 926 773 Q1160 660 1160 411 Q1160 216 1036 97 Q901 -31 637 -31 Q408 -31 258 84 L258 0 L110 0 Z " />
<glyph glyph-name="T" unicode="T" horiz-adv-x="1213" d="M516 151 L516 1324 L194 1324 L194 1085 L38 1085 L38 1475 L1174 1475 L1174 1085 L1018 1085 L1018 1324 L696 1324 L696 151 L892 151 L892 0 L321 0 L321 151 L516 151 Z " />
<glyph glyph-name="U" unicode="U" horiz-adv-x="1436" d="M72 1324 L72 1475 L547 1475 L547 1324 L396 1324 L396 566 Q396 367 445 271 Q517 130 718 130 Q918 130 991 271 Q1040 366 1040 566 L1040 1324 L889 1324 L889 1475 L1364 1475 L1364 1324 L1220 1324 L1220 623 Q1220 409 1196 300 Q1161 139 1038 53 Q916 -31 718 -31 Q413 -31 293 165 Q239 253 224 399 Q216 475 216 623 L216 1324 L72 1324 Z " />
<glyph glyph-name="V" unicode="V" horiz-adv-x="1257" d="M-10 1324 L-10 1475 L479 1475 L479 1324 L314 1324 L580 494 Q615 384 633 302 Q656 409 684 496 L950 1324 L787 1324 L787 1475 L1269 1475 L1269 1324 L1130 1324 L687 -33 L577 -33 L127 1324 L-10 1324 Z " />
<glyph glyph-name="W" unicode="W" horiz-adv-x="1907" d="M5 1324 L5 1475 L495 1475 L495 1324 L322 1324 L540 558 Q564 472 597 334 Q635 491 654 556 L917 1495 L1010 1495 L1275 554 Q1301 460 1328 334 Q1358 464 1388 572 L1600 1324 L1437 1324 L1437 1475 L1903 1475 L1903 1324 L1772 1324 L1380 -32 L1272 -32 L1008 910 Q985 992 962 1112 Q936 993 914 915 L645 -32 L534 -32 L138 1324 L5 1324 Z " />
<glyph glyph-name="X" unicode="X" horiz-adv-x="1292" d="M171 151 L545 761 L200 1324 L44 1324 L44 1475 L544 1475 L544 1324 L405 1324 L658 893 L904 1324 L763 1324 L763 1475 L1246 1475 L1246 1324 L1100 1324 L751 758 L1121 151 L1287 151 L1287 0 L772 0 L772 151 L917 151 L639 627 L367 151 L513 151 L513 0 L-2 0 L-2 151 L171 151 Z " />
<glyph glyph-name="Y" unicode="Y" horiz-adv-x="1153" d="M484 151 L484 671 L112 1324 L-16 1324 L-16 1475 L466 1475 L466 1324 L319 1324 L583 835 L846 1324 L701 1324 L701 1475 L1164 1475 L1164 1324 L1032 1324 L664 669 L664 151 L845 151 L845 0 L303 0 L303 151 L484 151 Z " />
<glyph glyph-name="Z" unicode="Z" horiz-adv-x="1143" d="M49 0 L49 143 L820 1324 L247 1324 L247 1085 L91 1085 L91 1475 L1051 1475 L1051 1359 L265 151 L897 151 L897 406 L1053 406 L1053 0 L49 0 Z " />
<glyph glyph-name="bracketleft" unicode="&#x5b;" horiz-adv-x="819" d="M287 -422 L287 1475 L649 1475 L649 1338 L466 1338 L466 -280 L649 -280 L649 -422 L287 -422 Z " />
<glyph glyph-name="backslash" unicode="&#x5c;" horiz-adv-x="791" d="M580 -188 L53 1495 L185 1495 L712 -188 L580 -188 Z " />
<glyph glyph-name="bracketright" unicode="&#x5d;" horiz-adv-x="819" d="M170 -422 L170 -280 L353 -280 L353 1338 L170 1338 L170 1475 L532 1475 L532 -422 L170 -422 Z " />
<glyph glyph-name="asciicircum" unicode="&#x5e;" horiz-adv-x="1147" d="M573 1334 L244 905 L59 905 L489 1475 L658 1475 L1088 905 L903 905 L573 1334 Z " />
<glyph glyph-name="underscore" unicode="&#x5f;" horiz-adv-x="1024" d="M-6 -422 L-6 -271 L1030 -271 L1030 -422 L-6 -422 Z " />
<glyph glyph-name="grave" unicode="&#x60;" horiz-adv-x="1024" d="M525 1118 L246 1467 L442 1467 L649 1118 L525 1118 Z " />
<glyph glyph-name="a" unicode="a" horiz-adv-x="1175" d="M792 582 L792 630 Q792 749 751 793 Q695 853 534 853 Q412 853 365 809 Q335 780 327 702 L164 702 Q168 852 244 920 Q330 998 536 998 Q799 998 895 888 Q945 831 961 733 Q969 685 969 593 L969 151 L1117 151 L1117 0 L806 0 L806 111 Q681 -29 443 -29 Q270 -29 173 45 Q75 120 75 277 Q75 469 221 545 Q311 592 523 592 Q610 592 792 582 Z M795 444 Q682 456 530 456 Q374 456 319 423 Q250 381 250 283 Q250 200 300 161 Q354 119 474 119 Q665 119 753 220 Q785 256 792 301 Q795 320 795 363 L795 444 Z " />
<glyph glyph-name="b" unicode="b" horiz-adv-x="1224" d="M160 0 L160 1324 L10 1324 L10 1475 L334 1475 L334 828 Q378 880 408 906 Q518 998 681 998 Q889 998 1018 852 Q1142 712 1142 485 Q1142 257 1018 117 Q889 -29 680 -29 Q461 -29 321 152 L314 0 L160 0 Z M654 847 Q504 847 414 733 Q334 632 334 489 Q334 338 414 236 Q503 122 654 122 Q805 122 891 235 Q965 332 965 485 Q965 650 881 746 Q793 847 654 847 Z " />
<glyph glyph-name="c" unicode="c" horiz-adv-x="1027" d="M897 248 L990 127 Q820 -29 559 -29 Q340 -29 215 95 Q80 229 80 475 Q80 712 203 854 Q327 998 537 998 Q686 998 796 914 L796 969 L933 969 L933 637 L785 637 L785 667 Q785 747 745 784 Q678 848 559 848 Q409 848 330 741 Q257 642 257 479 Q257 303 351 207 Q432 123 572 123 Q749 123 897 248 Z " />
<glyph glyph-name="d" unicode="d" horiz-adv-x="1274" d="M900 0 L900 151 Q850 93 821 68 Q708 -29 541 -29 Q333 -29 204 117 Q80 258 80 485 Q80 712 204 852 Q333 998 541 998 Q700 998 810 910 Q845 881 888 828 L888 1324 L718 1324 L718 1475 L1062 1475 L1062 151 L1210 151 L1210 0 L900 0 Z M567 847 Q428 847 341 746 Q257 648 257 485 Q257 332 331 235 Q418 122 568 122 Q719 122 808 236 Q888 338 888 480 Q888 634 808 733 Q716 847 567 847 Z " />
<glyph glyph-name="e" unicode="e" horiz-adv-x="1136" d="M1060 435 L260 435 Q273 328 311 267 Q401 122 593 122 Q718 122 836 176 Q884 197 955 243 L1041 113 Q826 -30 591 -30 Q355 -30 215 117 Q79 259 79 485 Q79 711 213 853 Q348 998 574 998 Q758 998 883 893 Q1058 746 1060 435 Z M875 574 Q858 672 816 731 Q730 851 570 851 Q394 851 311 708 Q279 652 264 574 L875 574 Z " />
<glyph glyph-name="f" unicode="f" horiz-adv-x="689" d="M219 151 L219 818 L65 818 L65 969 L219 975 L219 1102 Q219 1289 284 1380 Q362 1489 550 1489 Q632 1489 710 1475 L699 1330 Q623 1342 571 1342 Q496 1342 459 1315 Q393 1268 393 1096 L393 969 L637 969 L637 818 L393 818 L393 151 L598 151 L598 0 L65 0 L65 151 L219 151 Z " />
<glyph glyph-name="g" unicode="g" horiz-adv-x="1273" d="M888 154 Q842 102 811 77 Q702 -11 542 -11 Q333 -11 204 131 Q80 268 80 489 Q80 710 201 850 Q330 998 543 998 Q707 998 817 906 Q853 877 900 818 L900 969 L1224 969 L1224 818 L1062 818 L1062 95 Q1062 -157 990 -272 Q878 -452 574 -452 Q339 -452 240 -359 Q165 -288 158 -139 L322 -139 Q330 -214 366 -250 Q423 -306 579 -306 Q772 -306 840 -186 Q875 -126 884 -38 Q888 7 888 81 L888 154 Z M567 847 Q428 847 341 747 Q257 651 257 490 Q257 342 331 249 Q418 140 568 140 Q718 140 808 248 Q888 344 888 483 Q888 633 808 733 Q717 847 567 847 Z " />
<glyph glyph-name="h" unicode="h" horiz-adv-x="1267" d="M218 151 L218 1324 L68 1324 L68 1475 L392 1475 L392 816 Q472 890 527 926 Q638 998 762 998 Q942 998 1011 868 Q1046 803 1055 703 Q1060 654 1060 561 L1060 151 L1208 151 L1208 0 L751 0 L751 151 L886 151 L886 570 Q886 691 866 747 Q833 839 718 839 Q621 839 515 759 Q476 729 392 640 L392 151 L532 151 L532 0 L68 0 L68 151 L218 151 Z " />
<glyph glyph-name="i" unicode="i" horiz-adv-x="606" d="M230 151 L230 818 L79 818 L79 969 L404 969 L404 151 L551 151 L551 0 L73 0 L73 151 L230 151 Z M216 1164 L216 1368 L415 1368 L415 1164 L216 1164 Z " />
<glyph glyph-name="j" unicode="j" horiz-adv-x="581" d="M69 818 L69 969 L396 969 L396 -33 Q396 -177 369 -246 Q323 -364 189 -403 Q138 -418 51 -422 L51 -271 Q150 -263 185 -219 Q209 -188 217 -140 Q222 -108 222 -38 L222 818 L69 818 Z M208 1164 L208 1368 L407 1368 L407 1164 L208 1164 Z " />
<glyph glyph-name="k" unicode="k" horiz-adv-x="1085" d="M216 151 L216 1324 L65 1324 L65 1475 L390 1475 L390 562 L710 829 L588 829 L588 969 L1025 969 L1025 820 L912 820 L592 548 L989 151 L1098 151 L1098 0 L674 0 L674 143 L785 143 L390 544 L390 143 L517 143 L517 0 L65 0 L65 151 L216 151 Z " />
<glyph glyph-name="l" unicode="l" horiz-adv-x="603" d="M226 151 L226 1324 L75 1324 L75 1475 L400 1475 L400 151 L547 151 L547 0 L69 0 L69 151 L226 151 Z " />
<glyph glyph-name="m" unicode="m" horiz-adv-x="1834" d="M225 151 L225 818 L75 818 L75 969 L396 969 L396 813 Q486 900 526 927 Q631 998 740 998 Q873 998 939 913 Q967 877 991 796 Q1084 890 1132 923 Q1243 998 1355 998 Q1520 998 1582 868 Q1627 775 1627 561 L1627 151 L1775 151 L1775 0 L1324 0 L1324 151 L1453 151 L1453 570 Q1453 690 1436 746 Q1409 839 1310 839 Q1225 839 1129 760 Q1097 734 1013 640 L1013 151 L1156 151 L1156 0 L710 0 L710 151 L839 151 L839 570 Q839 690 822 746 Q795 839 696 839 Q611 839 515 760 Q473 726 399 639 L399 151 L533 151 L533 0 L75 0 L75 151 L225 151 Z " />
<glyph glyph-name="n" unicode="n" horiz-adv-x="1274" d="M225 151 L225 818 L75 818 L75 969 L399 969 L399 813 Q496 900 539 927 Q652 998 771 998 Q951 998 1019 868 Q1053 803 1063 702 Q1068 654 1068 561 L1068 151 L1216 151 L1216 0 L759 0 L759 151 L894 151 L894 570 Q894 691 874 747 Q841 839 726 839 Q629 839 525 760 Q478 724 399 639 L399 151 L539 151 L539 0 L75 0 L75 151 L225 151 Z " />
<glyph glyph-name="o" unicode="o" horiz-adv-x="1201" d="M600 998 Q833 998 979 852 Q1120 710 1120 485 Q1120 259 979 117 Q834 -29 602 -29 Q366 -29 222 117 Q80 259 80 492 Q80 714 222 852 Q371 998 600 998 Z M600 847 Q435 847 338 733 Q257 638 257 489 Q257 332 338 236 Q434 122 601 122 Q766 122 862 236 Q943 332 943 484 Q943 639 862 733 Q763 847 600 847 Z " />
<glyph glyph-name="p" unicode="p" horiz-adv-x="1275" d="M214 -271 L214 818 L65 818 L65 969 L375 969 L375 817 Q423 877 462 908 Q573 998 734 998 Q943 998 1072 852 Q1196 711 1196 484 Q1196 258 1072 117 Q943 -29 736 -29 Q578 -29 465 63 Q430 91 388 141 L388 -271 L564 -271 L564 -422 L65 -422 L65 -271 L214 -271 Z M708 847 Q558 847 468 733 Q388 632 388 489 Q388 338 468 236 Q557 122 708 122 Q858 122 945 235 Q1019 332 1019 485 Q1019 650 935 746 Q847 847 708 847 Z " />
<glyph glyph-name="q" unicode="q" horiz-adv-x="1277" d="M888 -271 L888 141 Q839 83 807 58 Q700 -29 540 -29 Q333 -29 204 117 Q80 257 80 484 Q80 711 204 852 Q333 998 543 998 Q758 998 900 818 L900 969 L1212 969 L1212 818 L1062 818 L1062 -271 L1212 -271 L1212 -422 L713 -422 L713 -271 L888 -271 Z M567 847 Q428 847 341 746 Q257 649 257 485 Q257 332 331 235 Q418 122 568 122 Q719 122 808 236 Q888 337 888 480 Q888 634 808 733 Q716 847 567 847 Z " />
<glyph glyph-name="r" unicode="r" horiz-adv-x="817" d="M225 151 L225 818 L75 818 L75 969 L394 969 L394 809 Q477 912 537 947 Q622 998 737 998 L778 998 L778 831 L741 831 Q658 831 610 814 Q531 787 460 699 Q444 678 399 611 L399 151 L554 151 L554 0 L75 0 L75 151 L225 151 Z " />
<glyph glyph-name="s" unicode="s" horiz-adv-x="983" d="M89 0 L89 319 L237 319 L237 285 Q237 210 287 173 Q367 113 522 113 Q626 113 683 150 Q744 189 744 268 Q744 333 689 370 Q661 389 601 402 Q592 404 462 426 Q328 448 268 472 Q95 539 95 710 Q95 840 188 921 Q278 998 435 998 Q541 998 620 962 Q651 947 696 916 L696 969 L833 969 L833 672 L685 672 L685 690 Q685 759 641 795 Q567 855 448 855 Q354 855 308 815 Q266 778 266 720 Q266 658 331 623 Q368 603 517 577 Q658 553 716 534 Q911 469 911 270 Q911 124 805 43 Q710 -29 528 -29 Q354 -29 226 53 L226 0 L89 0 Z " />
<glyph glyph-name="t" unicode="t" horiz-adv-x="688" d="M213 818 L59 818 L59 969 L213 969 L213 1326 L387 1326 L387 969 L631 969 L631 818 L387 818 L387 318 Q387 219 421 183 Q451 151 522 151 L643 151 L643 0 L516 0 Q213 0 213 291 L213 818 Z " />
<glyph glyph-name="u" unicode="u" horiz-adv-x="1215" d="M206 818 L58 818 L58 969 L380 969 L380 399 Q380 281 395 231 Q422 143 524 143 Q614 143 712 217 Q754 248 832 330 L832 818 L692 818 L692 969 L1006 969 L1006 151 L1156 151 L1156 0 L832 0 L832 156 Q737 73 699 50 Q591 -16 478 -16 Q313 -16 251 110 Q219 174 210 271 Q206 316 206 408 L206 818 Z " />
<glyph glyph-name="v" unicode="v" horiz-adv-x="1060" d="M125 818 L6 818 L6 969 L444 969 L444 818 L308 818 L487 354 Q506 304 532 211 Q564 319 578 355 L758 818 L621 818 L621 969 L1055 969 L1055 818 L936 818 L590 -26 L464 -26 L125 818 Z " />
<glyph glyph-name="w" unicode="w" horiz-adv-x="1610" d="M131 818 L16 818 L16 969 L453 969 L453 818 L304 818 L459 385 Q483 318 505 235 Q531 325 556 392 L771 969 L842 969 L1054 387 Q1079 318 1102 235 Q1130 329 1149 380 L1310 818 L1156 818 L1156 969 L1591 969 L1591 818 L1479 818 L1158 -24 L1050 -24 L842 556 Q820 619 803 687 Q787 620 765 559 L554 -24 L448 -24 L131 818 Z " />
<glyph glyph-name="x" unicode="x" horiz-adv-x="1115" d="M159 151 L456 512 L205 818 L57 818 L57 969 L518 969 L518 833 L393 833 L569 601 L758 833 L632 833 L632 969 L1077 969 L1077 818 L935 818 L660 506 L950 151 L1095 151 L1095 0 L612 0 L612 142 L758 142 L549 417 L336 142 L480 142 L480 0 L20 0 L20 151 L159 151 Z " />
<glyph glyph-name="y" unicode="y" horiz-adv-x="1076" d="M111 818 L8 818 L8 969 L468 969 L468 818 L293 818 L503 357 Q506 350 551 238 Q576 307 605 375 L790 818 L621 818 L621 969 L1076 969 L1076 818 L967 818 L546 -147 Q474 -310 404 -363 Q340 -411 237 -419 Q210 -422 155 -422 L155 -271 Q253 -270 292 -248 Q345 -217 389 -112 L462 61 L111 818 Z " />
<glyph glyph-name="z" unicode="z" horiz-adv-x="957" d="M47 0 L47 149 L632 818 L248 818 L248 660 L97 660 L97 969 L857 969 L857 841 L258 151 L722 151 L722 325 L873 325 L873 0 L47 0 Z " />
<glyph glyph-name="braceleft" unicode="&#x7b;" horiz-adv-x="819" d="M298 561 Q404 521 436 451 Q470 378 470 213 L470 -36 Q470 -198 515 -242 Q559 -286 674 -286 L724 -286 L724 -422 L655 -422 Q517 -422 458 -402 Q354 -368 319 -264 Q296 -193 296 -53 L296 195 Q296 362 252 423 Q216 472 152 485 Q128 490 77 492 L77 630 Q158 634 196 652 Q262 683 281 761 Q296 820 296 927 L296 1106 Q296 1254 320 1324 Q355 1428 469 1459 Q529 1475 655 1475 L724 1475 L724 1339 L673 1339 Q557 1339 513 1295 Q470 1251 470 1089 L470 900 Q470 744 436 672 Q403 600 298 561 Z " />
<glyph glyph-name="bar" unicode="&#x7c;" horiz-adv-x="1024" d="M425 -480 L425 1566 L596 1566 L596 -480 L425 -480 Z " />
<glyph glyph-name="braceright" unicode="&#x7d;" horiz-adv-x="819" d="M522 561 Q417 600 383 672 Q350 744 350 900 L350 1089 Q350 1250 306 1295 Q262 1339 147 1339 L96 1339 L96 1475 L165 1475 Q305 1475 368 1454 Q476 1417 506 1306 Q524 1238 524 1106 L524 927 Q524 766 562 706 Q595 654 662 639 Q687 632 743 630 L743 492 Q665 488 631 473 Q563 444 541 368 Q524 309 524 195 L524 -53 Q524 -209 494 -282 Q454 -379 347 -407 Q288 -422 165 -422 L96 -422 L96 -286 L146 -286 Q261 -286 305 -242 Q350 -198 350 -36 L350 213 Q350 378 383 451 Q416 521 522 561 Z " />
<glyph glyph-name="asciitilde" unicode="&#x7e;" horiz-adv-x="1147" d="M197 602 L101 712 Q157 775 200 810 Q288 882 384 882 Q478 882 587 821 Q661 780 678 771 Q716 752 762 752 Q849 752 952 872 L1046 765 Q904 592 766 592 Q679 592 559 656 Q501 687 467 702 Q426 721 386 721 Q302 721 197 602 Z " />
<glyph glyph-name="Adieresis" unicode="&#xc4;" horiz-adv-x="1460" d="M1043 434 L410 434 L306 151 L467 151 L467 0 L0 0 L0 151 L122 151 L626 1475 L824 1475 L1334 151 L1460 151 L1460 0 L987 0 L987 151 L1149 151 L1043 434 Z M987 582 L723 1296 L465 582 L987 582 Z M451 1651 L451 1845 L628 1845 L628 1651 L451 1651 Z M832 1651 L832 1845 L1009 1845 L1009 1651 L832 1651 Z " />
<glyph glyph-name="Aring" unicode="&#xc5;" horiz-adv-x="1460" d="M1043 434 L410 434 L306 151 L467 151 L467 0 L0 0 L0 151 L122 151 L626 1475 L824 1475 L1334 151 L1460 151 L1460 0 L987 0 L987 151 L1149 151 L1043 434 Z M987 582 L723 1296 L465 582 L987 582 Z M731 2018 Q845 2018 908 1948 Q964 1887 964 1789 Q964 1691 908 1629 Q846 1560 731 1560 Q615 1560 553 1629 Q497 1692 497 1792 Q497 1888 553 1948 Q617 2018 731 2018 Z M730 1918 Q663 1918 632 1873 Q610 1841 610 1790 Q610 1660 731 1660 Q851 1660 851 1789 Q851 1918 730 1918 Z " />
<glyph glyph-name="Ccedilla" unicode="&#xc7;" horiz-adv-x="1476" d="M1263 347 L1377 227 Q1265 90 1121 29 Q992 -25 817 -30 L782 -94 Q868 -101 904 -118 Q1000 -162 1000 -276 Q1000 -389 913 -440 Q849 -478 742 -478 Q635 -478 495 -439 L495 -301 Q649 -356 744 -356 Q855 -356 855 -278 Q855 -224 798 -209 Q772 -202 723 -202 Q710 -202 657 -205 L657 -112 L701 -26 Q491 -6 358 94 Q92 292 92 723 Q92 1081 286 1297 Q473 1506 790 1506 Q1029 1506 1185 1391 L1185 1475 L1333 1475 L1333 1044 L1177 1044 L1177 1071 Q1177 1172 1128 1228 Q1079 1284 984 1317 Q900 1347 792 1347 Q538 1347 401 1161 Q276 990 276 723 Q276 451 417 286 Q549 130 803 130 Q982 130 1119 216 Q1170 249 1263 347 Z " />
<glyph glyph-name="Eacute" unicode="&#xc9;" horiz-adv-x="1211" d="M226 151 L226 1324 L82 1324 L82 1475 L1104 1475 L1104 1116 L948 1116 L948 1324 L406 1324 L406 842 L892 842 L892 691 L406 691 L406 151 L958 151 L958 400 L1114 400 L1114 0 L82 0 L82 151 L226 151 Z M528 1596 L710 1920 L906 1920 L652 1596 L528 1596 Z " />
<glyph glyph-name="Ntilde" unicode="&#xd1;" horiz-adv-x="1456" d="M226 151 L226 1324 L82 1324 L82 1475 L427 1475 L985 528 Q1002 498 1072 356 Q1067 487 1067 551 L1067 1324 L914 1324 L914 1475 L1379 1475 L1379 1324 L1235 1324 L1235 -24 L1110 -24 L463 1085 Q456 1098 388 1238 Q394 1107 394 1081 L394 151 L544 151 L544 0 L82 0 L82 151 L226 151 Z M538 1648 L425 1648 Q471 1853 625 1853 Q682 1853 764 1808 Q837 1768 861 1768 Q913 1768 948 1852 L1062 1852 Q1036 1759 1000 1712 Q947 1642 854 1642 Q791 1642 681 1704 Q640 1727 618 1727 Q569 1727 538 1648 Z " />
<glyph glyph-name="Odieresis" unicode="&#xd6;" horiz-adv-x="1714" d="M857 1506 Q1091 1506 1280 1382 Q1468 1259 1557 1055 Q1621 907 1621 738 Q1621 439 1431 223 Q1318 95 1163 30 Q1020 -31 858 -31 Q507 -31 283 223 Q92 439 92 747 Q92 938 182 1108 Q287 1307 490 1417 Q656 1506 857 1506 Z M857 1348 Q601 1348 432 1165 Q276 995 276 746 Q276 481 432 310 Q601 127 858 127 Q1112 127 1281 310 Q1437 481 1437 738 Q1437 999 1281 1165 Q1108 1348 857 1348 Z M577 1651 L577 1845 L754 1845 L754 1651 L577 1651 Z M958 1651 L958 1845 L1135 1845 L1135 1651 L958 1651 Z " />
<glyph glyph-name="Udieresis" unicode="&#xdc;" horiz-adv-x="1436" d="M72 1324 L72 1475 L547 1475 L547 1324 L396 1324 L396 566 Q396 367 445 271 Q517 130 718 130 Q918 130 991 271 Q1040 366 1040 566 L1040 1324 L889 1324 L889 1475 L1364 1475 L1364 1324 L1220 1324 L1220 623 Q1220 409 1196 300 Q1161 139 1038 53 Q916 -31 718 -31 Q413 -31 293 165 Q239 253 224 399 Q216 475 216 623 L216 1324 L72 1324 Z M439 1651 L439 1845 L616 1845 L616 1651 L439 1651 Z M820 1651 L820 1845 L997 1845 L997 1651 L820 1651 Z " />
<glyph glyph-name="aacute" unicode="&#xe1;" horiz-adv-x="1175" d="M792 582 L792 630 Q792 749 751 793 Q695 853 534 853 Q412 853 365 809 Q335 780 327 702 L164 702 Q168 852 244 920 Q330 998 536 998 Q799 998 895 888 Q945 831 961 733 Q969 685 969 593 L969 151 L1117 151 L1117 0 L806 0 L806 111 Q681 -29 443 -29 Q270 -29 173 45 Q75 120 75 277 Q75 469 221 545 Q311 592 523 592 Q610 592 792 582 Z M795 444 Q682 456 530 456 Q374 456 319 423 Q250 381 250 283 Q250 200 300 161 Q354 119 474 119 Q665 119 753 220 Q785 256 792 301 Q795 320 795 363 L795 444 Z M460 1118 L668 1467 L863 1467 L584 1118 L460 1118 Z " />
<glyph glyph-name="agrave" unicode="&#xe0;" horiz-adv-x="1175" d="M792 582 L792 630 Q792 749 751 793 Q695 853 534 853 Q412 853 365 809 Q335 780 327 702 L164 702 Q168 852 244 920 Q330 998 536 998 Q799 998 895 888 Q945 831 961 733 Q969 685 969 593 L969 151 L1117 151 L1117 0 L806 0 L806 111 Q681 -29 443 -29 Q270 -29 173 45 Q75 120 75 277 Q75 469 221 545 Q311 592 523 592 Q610 592 792 582 Z M795 444 Q682 456 530 456 Q374 456 319 423 Q250 381 250 283 Q250 200 300 161 Q354 119 474 119 Q665 119 753 220 Q785 256 792 301 Q795 320 795 363 L795 444 Z M590 1118 L311 1467 L507 1467 L714 1118 L590 1118 Z " />
<glyph glyph-name="acircumflex" unicode="&#xe2;" horiz-adv-x="1175" d="M792 582 L792 630 Q792 749 751 793 Q695 853 534 853 Q412 853 365 809 Q335 780 327 702 L164 702 Q168 852 244 920 Q330 998 536 998 Q799 998 895 888 Q945 831 961 733 Q969 685 969 593 L969 151 L1117 151 L1117 0 L806 0 L806 111 Q681 -29 443 -29 Q270 -29 173 45 Q75 120 75 277 Q75 469 221 545 Q311 592 523 592 Q610 592 792 582 Z M795 444 Q682 456 530 456 Q374 456 319 423 Q250 381 250 283 Q250 200 300 161 Q354 119 474 119 Q665 119 753 220 Q785 256 792 301 Q795 320 795 363 L795 444 Z M560 1356 L386 1118 L262 1118 L472 1467 L649 1467 L858 1118 L734 1118 L560 1356 Z " />
<glyph glyph-name="adieresis" unicode="&#xe4;" horiz-adv-x="1175" d="M792 582 L792 630 Q792 749 751 793 Q695 853 534 853 Q412 853 365 809 Q335 780 327 702 L164 702 Q168 852 244 920 Q330 998 536 998 Q799 998 895 888 Q945 831 961 733 Q969 685 969 593 L969 151 L1117 151 L1117 0 L806 0 L806 111 Q681 -29 443 -29 Q270 -29 173 45 Q75 120 75 277 Q75 469 221 545 Q311 592 523 592 Q610 592 792 582 Z M795 444 Q682 456 530 456 Q374 456 319 423 Q250 381 250 283 Q250 200 300 161 Q354 119 474 119 Q665 119 753 220 Q785 256 792 301 Q795 320 795 363 L795 444 Z M311 1174 L311 1368 L488 1368 L488 1174 L311 1174 Z M659 1174 L659 1368 L836 1368 L836 1174 L659 1174 Z " />
<glyph glyph-name="atilde" unicode="&#xe3;" horiz-adv-x="1175" d="M792 582 L792 630 Q792 749 751 793 Q695 853 534 853 Q412 853 365 809 Q335 780 327 702 L164 702 Q168 852 244 920 Q330 998 536 998 Q799 998 895 888 Q945 831 961 733 Q969 685 969 593 L969 151 L1117 151 L1117 0 L806 0 L806 111 Q681 -29 443 -29 Q270 -29 173 45 Q75 120 75 277 Q75 469 221 545 Q311 592 523 592 Q610 592 792 582 Z M795 444 Q682 456 530 456 Q374 456 319 423 Q250 381 250 283 Q250 200 300 161 Q354 119 474 119 Q665 119 753 220 Q785 256 792 301 Q795 320 795 363 L795 444 Z M368 1171 L260 1171 Q304 1375 452 1375 Q496 1375 542 1353 Q563 1343 625 1308 Q657 1290 679 1290 Q729 1290 763 1374 L871 1374 Q846 1280 813 1234 Q762 1165 671 1165 Q629 1165 588 1183 Q556 1198 506 1226 Q467 1249 445 1249 Q399 1249 368 1171 Z " />
<glyph glyph-name="aring" unicode="&#xe5;" horiz-adv-x="1175" d="M792 582 L792 630 Q792 749 751 793 Q695 853 534 853 Q412 853 365 809 Q335 780 327 702 L164 702 Q168 852 244 920 Q330 998 536 998 Q799 998 895 888 Q945 831 961 733 Q969 685 969 593 L969 151 L1117 151 L1117 0 L806 0 L806 111 Q681 -29 443 -29 Q270 -29 173 45 Q75 120 75 277 Q75 469 221 545 Q311 592 523 592 Q610 592 792 582 Z M795 444 Q682 456 530 456 Q374 456 319 423 Q250 381 250 283 Q250 200 300 161 Q354 119 474 119 Q665 119 753 220 Q785 256 792 301 Q795 320 795 363 L795 444 Z M585 1548 Q699 1548 762 1479 Q818 1417 818 1319 Q818 1222 762 1160 Q700 1091 585 1091 Q469 1091 407 1160 Q351 1222 351 1322 Q351 1418 407 1479 Q471 1548 585 1548 Z M584 1448 Q464 1448 464 1321 Q464 1191 584 1191 Q705 1191 705 1320 Q705 1448 584 1448 Z " />
<glyph glyph-name="ccedilla" unicode="&#xe7;" horiz-adv-x="1027" d="M896 248 L990 127 Q831 -18 594 -28 L557 -94 Q643 -101 679 -117 Q775 -162 775 -276 Q775 -388 688 -440 Q625 -478 517 -478 Q409 -478 270 -439 L270 -300 Q424 -356 519 -356 Q630 -356 630 -277 Q630 -223 572 -208 Q546 -201 498 -201 Q491 -201 432 -205 L432 -112 L477 -24 Q349 -6 266 52 Q80 183 80 474 Q80 709 203 854 Q326 998 537 998 Q686 998 796 914 L796 969 L933 969 L933 637 L785 637 L785 667 Q785 747 745 784 Q677 848 559 848 Q409 848 330 740 Q257 642 257 479 Q257 303 351 206 Q432 122 572 122 Q749 122 896 248 Z " />
<glyph glyph-name="eacute" unicode="&#xe9;" horiz-adv-x="1136" d="M1060 435 L260 435 Q273 328 311 267 Q401 122 593 122 Q718 122 836 176 Q884 197 955 243 L1041 113 Q826 -30 591 -30 Q355 -30 215 117 Q79 259 79 485 Q79 711 213 853 Q348 998 574 998 Q758 998 883 893 Q1058 746 1060 435 Z M875 574 Q858 672 816 731 Q730 851 570 851 Q394 851 311 708 Q279 652 264 574 L875 574 Z M454 1118 L662 1467 L857 1467 L578 1118 L454 1118 Z " />
<glyph glyph-name="egrave" unicode="&#xe8;" horiz-adv-x="1136" d="M1060 435 L260 435 Q273 328 311 267 Q401 122 593 122 Q718 122 836 176 Q884 197 955 243 L1041 113 Q826 -30 591 -30 Q355 -30 215 117 Q79 259 79 485 Q79 711 213 853 Q348 998 574 998 Q758 998 883 893 Q1058 746 1060 435 Z M875 574 Q858 672 816 731 Q730 851 570 851 Q394 851 311 708 Q279 652 264 574 L875 574 Z M591 1118 L312 1467 L508 1467 L715 1118 L591 1118 Z " />
<glyph glyph-name="ecircumflex" unicode="&#xea;" horiz-adv-x="1136" d="M1060 435 L260 435 Q273 328 311 267 Q401 122 593 122 Q718 122 836 176 Q884 197 955 243 L1041 113 Q826 -30 591 -30 Q355 -30 215 117 Q79 259 79 485 Q79 711 213 853 Q348 998 574 998 Q758 998 883 893 Q1058 746 1060 435 Z M875 574 Q858 672 816 731 Q730 851 570 851 Q394 851 311 708 Q279 652 264 574 L875 574 Z M573 1356 L399 1118 L275 1118 L485 1467 L662 1467 L871 1118 L747 1118 L573 1356 Z " />
<glyph glyph-name="edieresis" unicode="&#xeb;" horiz-adv-x="1137" d="M1060 435 L260 435 Q273 328 311 267 Q401 122 593 122 Q718 122 836 176 Q884 197 955 243 L1041 113 Q826 -30 591 -30 Q355 -30 215 117 Q79 259 79 485 Q79 711 213 853 Q348 998 574 998 Q758 998 883 893 Q1058 746 1060 435 Z M875 574 Q858 672 816 731 Q730 851 570 851 Q394 851 311 708 Q279 652 264 574 L875 574 Z M312 1174 L312 1368 L489 1368 L489 1174 L312 1174 Z M660 1174 L660 1368 L837 1368 L837 1174 L660 1174 Z " />
<glyph glyph-name="iacute" unicode="&#xed;" horiz-adv-x="606" d="M230 151 L230 818 L79 818 L79 969 L404 969 L404 151 L551 151 L551 0 L73 0 L73 151 L230 151 Z M165 1118 L373 1467 L568 1467 L289 1118 L165 1118 Z " />
<glyph glyph-name="igrave" unicode="&#xec;" horiz-adv-x="606" d="M231 151 L231 818 L80 818 L80 969 L405 969 L405 151 L552 151 L552 0 L74 0 L74 151 L231 151 Z M309 1118 L30 1467 L226 1467 L433 1118 L309 1118 Z " />
<glyph glyph-name="icircumflex" unicode="&#xee;" horiz-adv-x="606" d="M231 151 L231 818 L80 818 L80 969 L405 969 L405 151 L552 151 L552 0 L74 0 L74 151 L231 151 Z M281 1356 L107 1118 L-17 1118 L193 1467 L370 1467 L579 1118 L455 1118 L281 1356 Z " />
<glyph glyph-name="idieresis" unicode="&#xef;" horiz-adv-x="606" d="M231 151 L231 818 L80 818 L80 969 L405 969 L405 151 L551 151 L551 0 L73 0 L73 151 L231 151 Z M40 1174 L40 1368 L217 1368 L217 1174 L40 1174 Z M388 1174 L388 1368 L565 1368 L565 1174 L388 1174 Z " />
<glyph glyph-name="ntilde" unicode="&#xf1;" horiz-adv-x="1274" d="M225 151 L225 818 L75 818 L75 969 L399 969 L399 813 Q496 900 539 927 Q652 998 771 998 Q951 998 1019 868 Q1053 803 1063 702 Q1068 654 1068 561 L1068 151 L1216 151 L1216 0 L759 0 L759 151 L894 151 L894 570 Q894 691 874 747 Q841 839 726 839 Q629 839 525 760 Q478 724 399 639 L399 151 L539 151 L539 0 L75 0 L75 151 L225 151 Z M415 1171 L307 1171 Q351 1375 499 1375 Q543 1375 589 1353 Q610 1343 672 1308 Q704 1290 726 1290 Q776 1290 810 1374 L918 1374 Q893 1280 860 1234 Q809 1165 718 1165 Q676 1165 635 1183 Q603 1198 553 1226 Q514 1249 492 1249 Q446 1249 415 1171 Z " />
<glyph glyph-name="oacute" unicode="&#xf3;" horiz-adv-x="1201" d="M600 998 Q833 998 979 852 Q1120 710 1120 485 Q1120 259 979 117 Q834 -29 602 -29 Q366 -29 222 117 Q80 259 80 492 Q80 714 222 852 Q371 998 600 998 Z M600 847 Q435 847 338 733 Q257 638 257 489 Q257 332 338 236 Q434 122 601 122 Q766 122 862 236 Q943 332 943 484 Q943 639 862 733 Q763 847 600 847 Z M463 1118 L671 1467 L866 1467 L587 1118 L463 1118 Z " />
<glyph glyph-name="ograve" unicode="&#xf2;" horiz-adv-x="1201" d="M600 998 Q833 998 979 852 Q1120 710 1120 485 Q1120 259 979 117 Q834 -29 602 -29 Q366 -29 222 117 Q80 259 80 492 Q80 714 222 852 Q371 998 600 998 Z M600 847 Q435 847 338 733 Q257 638 257 489 Q257 332 338 236 Q434 122 601 122 Q766 122 862 236 Q943 332 943 484 Q943 639 862 733 Q763 847 600 847 Z M613 1118 L334 1467 L530 1467 L737 1118 L613 1118 Z " />
<glyph glyph-name="ocircumflex" unicode="&#xf4;" horiz-adv-x="1201" d="M600 998 Q833 998 979 852 Q1120 710 1120 485 Q1120 259 979 117 Q834 -29 602 -29 Q366 -29 222 117 Q80 259 80 492 Q80 714 222 852 Q371 998 600 998 Z M600 847 Q435 847 338 733 Q257 638 257 489 Q257 332 338 236 Q434 122 601 122 Q766 122 862 236 Q943 332 943 484 Q943 639 862 733 Q763 847 600 847 Z M600 1356 L426 1118 L302 1118 L512 1467 L689 1467 L898 1118 L774 1118 L600 1356 Z " />
<glyph glyph-name="odieresis" unicode="&#xf6;" horiz-adv-x="1201" d="M600 998 Q833 998 979 852 Q1120 710 1120 485 Q1120 259 979 117 Q834 -29 602 -29 Q366 -29 222 117 Q80 259 80 492 Q80 714 222 852 Q371 998 600 998 Z M600 847 Q435 847 338 733 Q257 638 257 489 Q257 332 338 236 Q434 122 601 122 Q766 122 862 236 Q943 332 943 484 Q943 639 862 733 Q763 847 600 847 Z M338 1174 L338 1368 L515 1368 L515 1174 L338 1174 Z M686 1174 L686 1368 L863 1368 L863 1174 L686 1174 Z " />
<glyph glyph-name="otilde" unicode="&#xf5;" horiz-adv-x="1201" d="M600 998 Q833 998 979 852 Q1120 710 1120 485 Q1120 259 979 117 Q834 -29 602 -29 Q366 -29 222 117 Q80 259 80 492 Q80 714 222 852 Q371 998 600 998 Z M600 847 Q435 847 338 733 Q257 638 257 489 Q257 332 338 236 Q434 122 601 122 Q766 122 862 236 Q943 332 943 484 Q943 639 862 733 Q763 847 600 847 Z M402 1171 L294 1171 Q338 1375 486 1375 Q530 1375 576 1353 Q597 1343 659 1308 Q691 1290 713 1290 Q763 1290 797 1374 L905 1374 Q880 1280 847 1234 Q796 1165 705 1165 Q663 1165 622 1183 Q590 1198 540 1226 Q501 1249 479 1249 Q433 1249 402 1171 Z " />
<glyph glyph-name="uacute" unicode="&#xfa;" horiz-adv-x="1215" d="M206 818 L58 818 L58 969 L380 969 L380 399 Q380 281 395 231 Q422 143 524 143 Q614 143 712 217 Q754 248 832 330 L832 818 L692 818 L692 969 L1006 969 L1006 151 L1156 151 L1156 0 L832 0 L832 156 Q737 73 699 50 Q591 -16 478 -16 Q313 -16 251 110 Q219 174 210 271 Q206 316 206 408 L206 818 Z M470 1118 L678 1467 L873 1467 L594 1118 L470 1118 Z " />
<glyph glyph-name="ugrave" unicode="&#xf9;" horiz-adv-x="1215" d="M206 818 L58 818 L58 969 L380 969 L380 399 Q380 281 395 231 Q422 143 524 143 Q614 143 712 217 Q754 248 832 330 L832 818 L692 818 L692 969 L1006 969 L1006 151 L1156 151 L1156 0 L832 0 L832 156 Q737 73 699 50 Q591 -16 478 -16 Q313 -16 251 110 Q219 174 210 271 Q206 316 206 408 L206 818 Z M598 1118 L319 1467 L515 1467 L722 1118 L598 1118 Z " />
<glyph glyph-name="ucircumflex" unicode="&#xfb;" horiz-adv-x="1215" d="M206 818 L58 818 L58 969 L380 969 L380 399 Q380 281 395 231 Q422 143 524 143 Q614 143 712 217 Q754 248 832 330 L832 818 L692 818 L692 969 L1006 969 L1006 151 L1156 151 L1156 0 L832 0 L832 156 Q737 73 699 50 Q591 -16 478 -16 Q313 -16 251 110 Q219 174 210 271 Q206 316 206 408 L206 818 Z M584 1356 L410 1118 L286 1118 L496 1467 L673 1467 L882 1118 L758 1118 L584 1356 Z " />
<glyph glyph-name="udieresis" unicode="&#xfc;" horiz-adv-x="1215" d="M206 818 L58 818 L58 969 L380 969 L380 399 Q380 281 395 231 Q422 143 524 143 Q614 143 712 217 Q754 248 832 330 L832 818 L692 818 L692 969 L1006 969 L1006 151 L1156 151 L1156 0 L832 0 L832 156 Q737 73 699 50 Q591 -16 478 -16 Q313 -16 251 110 Q219 174 210 271 Q206 316 206 408 L206 818 Z M327 1174 L327 1368 L504 1368 L504 1174 L327 1174 Z M675 1174 L675 1368 L852 1368 L852 1174 L675 1174 Z " />
<glyph glyph-name="dagger" unicode="&#x2020;" horiz-adv-x="1147" d="M496 906 L147 906 L147 1048 L496 1048 L496 1475 L650 1475 L650 1048 L1001 1048 L1001 906 L650 906 L650 -199 L496 -199 L496 906 Z " />
<glyph glyph-name="degree" unicode="&#xb0;" horiz-adv-x="722" d="M361 1425 Q263 1425 213 1354 Q180 1308 180 1237 Q180 1163 213 1115 Q262 1044 362 1044 Q461 1044 510 1115 Q543 1162 543 1234 Q543 1307 510 1354 Q461 1425 361 1425 Z M362 1537 Q510 1537 595 1444 Q669 1362 669 1235 Q669 1109 595 1026 Q510 933 363 933 Q213 933 128 1026 Q54 1109 54 1239 Q54 1363 128 1444 Q215 1537 362 1537 Z " />
<glyph glyph-name="cent" unicode="&#xa2;" horiz-adv-x="1147" d="M565 284 Q427 298 335 357 Q132 488 132 785 Q132 970 212 1099 Q305 1249 469 1289 Q509 1299 565 1305 L565 1608 L683 1608 L683 1302 Q807 1282 888 1217 L888 1279 L1018 1279 L1018 947 L874 947 L874 977 Q874 1037 855 1067 Q813 1135 683 1155 L683 434 Q768 442 837 470 Q901 498 972 558 L1066 437 Q917 299 683 282 L683 -26 L565 -26 L565 284 Z M565 443 L565 1150 Q465 1127 414 1079 Q309 982 309 791 Q309 580 447 489 Q481 466 565 443 Z " />
<glyph glyph-name="sterling" unicode="&#xa3;" horiz-adv-x="1147" d="M67 -24 L67 146 Q181 173 237 245 Q300 324 300 480 Q300 544 277 667 L67 667 L67 804 L251 804 Q207 981 207 1085 Q207 1289 330 1402 Q440 1504 614 1504 Q790 1504 905 1385 L905 1475 L1046 1475 L1046 1044 L894 1044 L894 1071 Q894 1172 860 1232 Q828 1289 755 1322 Q698 1349 627 1349 Q523 1349 457 1290 Q378 1219 378 1091 Q378 999 427 804 L711 804 L711 667 L453 667 Q477 523 477 455 Q477 370 456 304 Q447 279 426 230 Q592 136 727 136 Q957 136 982 396 L1150 396 Q1105 -24 731 -24 Q540 -24 349 99 Q233 -19 67 -24 Z " />
<glyph glyph-name="section" unicode="&#xa7;" horiz-adv-x="1147" d="M252 -208 L252 129 L393 129 L393 -65 L519 -65 Q707 -65 707 44 Q707 130 587 238 L330 470 Q244 547 208 596 Q145 679 145 769 Q145 910 271 976 Q323 1004 398 1014 Q309 1132 309 1240 Q309 1380 448 1437 Q542 1475 743 1475 L907 1475 L907 1139 L771 1139 L771 1334 L670 1334 Q476 1334 476 1229 Q476 1179 516 1127 Q558 1073 625 1009 L848 799 Q1028 629 1028 480 Q1028 349 921 278 Q874 247 804 230 Q885 125 885 30 Q885 -208 507 -208 L252 -208 Z M763 648 L601 802 Q556 845 523 869 Q475 903 424 903 Q370 903 334 868 Q299 834 299 784 Q299 739 335 692 Q351 670 400 623 L572 459 Q678 357 754 357 Q803 357 835 391 Q867 426 867 475 Q867 550 763 648 Z " />
<glyph glyph-name="bullet" unicode="&#x2022;" horiz-adv-x="1147" d="M295 472 L295 1046 L852 1046 L852 472 L295 472 Z " />
<glyph glyph-name="paragraph" unicode="&#xb6;" horiz-adv-x="1290" d="M461 -271 L461 657 Q305 672 216 736 Q60 847 60 1064 Q60 1256 185 1370 Q261 1439 365 1462 Q427 1476 538 1476 L1142 1476 L1142 1325 L1019 1325 L1019 -271 L1195 -271 L1195 -422 L313 -422 L313 -271 L461 -271 Z M619 -271 L861 -271 L861 1325 L619 1325 L619 -271 Z " />
<glyph glyph-name="germandbls" unicode="&#xdf;" horiz-adv-x="1301" d="M225 151 L225 818 L75 818 L75 969 L225 969 L225 1073 Q225 1287 347 1396 Q469 1504 665 1504 Q862 1504 980 1404 Q1090 1310 1090 1153 Q1090 944 891 861 Q995 837 1073 770 Q1217 647 1217 428 Q1217 201 1081 75 Q969 -29 769 -29 Q692 -29 606 -13 L632 138 Q695 123 759 123 Q906 123 981 227 Q1040 308 1040 440 Q1040 636 893 722 Q830 758 731 766 Q702 769 643 770 L643 913 Q757 919 817 955 Q919 1016 919 1138 Q919 1243 848 1300 Q776 1359 666 1359 Q511 1359 443 1253 Q399 1183 399 1058 L399 151 L519 151 L519 0 L75 0 L75 151 L225 151 Z " />
<glyph glyph-name="registered" unicode="&#xae;" horiz-adv-x="1276" d="M461 1028 L461 1383 L406 1383 L406 1475 L636 1475 Q739 1475 790 1451 Q871 1413 871 1316 Q871 1229 790 1186 Q809 1166 826 1121 L863 1028 L923 1028 L923 936 L775 936 L724 1075 Q708 1119 691 1135 Q672 1152 616 1152 L571 1152 L571 1028 L639 1028 L639 936 L406 936 L406 1028 L461 1028 Z M571 1239 L628 1239 Q698 1239 725 1255 Q758 1273 758 1313 Q758 1351 728 1368 Q702 1383 634 1383 L571 1383 L571 1239 Z M638 1774 Q874 1774 1038 1605 Q1198 1441 1198 1203 Q1198 965 1038 800 Q875 631 639 631 Q400 631 237 800 Q77 965 77 1210 Q77 1362 153 1494 Q233 1635 379 1712 Q497 1774 638 1774 Z M637 1666 Q445 1666 314 1527 Q193 1398 193 1209 Q193 1008 314 878 Q444 739 639 739 Q831 739 961 878 Q1082 1008 1082 1202 Q1082 1401 961 1527 Q827 1666 637 1666 Z " />
<glyph glyph-name="copyright" unicode="&#xa9;" horiz-adv-x="1728" d="M1157 1072 L1157 848 L1035 848 L1035 976 Q959 1005 883 1005 Q760 1005 693 921 Q629 842 629 724 Q629 602 696 528 Q760 457 875 457 Q1007 457 1131 547 L1202 455 Q1050 340 881 340 Q694 340 587 455 Q492 558 492 726 Q492 904 605 1017 Q710 1122 886 1122 Q1008 1122 1157 1072 Z M864 1521 Q1188 1521 1414 1289 Q1633 1064 1633 737 Q1633 412 1414 185 Q1189 -47 865 -47 Q537 -47 313 185 Q94 412 94 747 Q94 956 198 1137 Q308 1330 508 1435 Q670 1521 864 1521 Z M864 1385 Q595 1385 412 1190 Q244 1010 244 746 Q244 465 412 284 Q594 89 865 89 Q1133 89 1315 284 Q1483 465 1483 737 Q1483 1014 1315 1190 Q1128 1385 864 1385 Z " />
<glyph glyph-name="trademark" unicode="&#x2122;" horiz-adv-x="1538" d="M266 870 L266 1374 L145 1374 L145 1259 L32 1259 L32 1475 L625 1475 L625 1259 L512 1259 L512 1374 L391 1374 L391 870 L488 870 L488 769 L171 769 L171 870 L266 870 Z M693 870 L731 1374 L661 1374 L661 1475 L882 1475 L1045 1027 Q1047 1022 1054 1001 Q1056 994 1061 979 Q1066 994 1069 1001 Q1075 1021 1077 1026 L1240 1475 L1459 1475 L1459 1374 L1390 1374 L1427 870 L1491 870 L1491 769 L1237 769 L1237 870 L1303 870 L1278 1257 L1101 769 L1020 769 L842 1257 L817 870 L884 870 L884 769 L629 769 L629 870 L693 870 Z " />
<glyph glyph-name="acute" unicode="&#xb4;" horiz-adv-x="1024" d="M375 1118 L583 1467 L778 1467 L499 1118 L375 1118 Z " />
<glyph glyph-name="dieresis" unicode="&#xa8;" horiz-adv-x="1024" d="M249 1174 L249 1368 L426 1368 L426 1174 L249 1174 Z M597 1174 L597 1368 L774 1368 L774 1174 L597 1174 Z " />
<glyph glyph-name="notequal" unicode="&#x2260;" horiz-adv-x="1147" d="M142 827 L142 980 L605 980 L714 1211 L854 1145 L776 980 L1006 980 L1006 827 L702 827 L616 646 L1006 646 L1006 493 L543 493 L433 263 L294 328 L372 493 L142 493 L142 646 L445 646 L532 827 L142 827 Z " />
<glyph glyph-name="AE" unicode="&#xc6;" horiz-adv-x="1958" d="M973 479 L443 479 L247 151 L430 151 L430 0 L-85 0 L-85 151 L60 151 L735 1324 L599 1324 L599 1475 L1851 1475 L1851 1108 L1695 1108 L1695 1324 L1153 1324 L1153 842 L1639 842 L1639 691 L1153 691 L1153 151 L1705 151 L1705 408 L1861 408 L1861 0 L792 0 L792 151 L973 151 L973 479 Z M973 625 L973 1324 L913 1324 L518 625 L973 625 Z " />
<glyph glyph-name="Oslash" unicode="&#xd8;" horiz-adv-x="1714" d="M305 184 Q79 415 79 741 Q79 1037 270 1253 Q383 1381 538 1446 Q680 1507 843 1507 Q1082 1507 1279 1375 L1423 1552 L1597 1552 L1384 1291 Q1608 1055 1608 737 Q1608 439 1418 223 Q1193 -31 842 -31 Q617 -31 411 100 L254 -92 L80 -92 L305 184 Z M415 318 L1174 1247 Q1020 1349 845 1349 Q588 1349 419 1165 Q263 995 263 738 Q263 485 415 318 Z M1273 1155 L516 228 Q572 194 612 175 Q719 127 843 127 Q1099 127 1268 311 Q1424 481 1424 737 Q1424 907 1357 1032 Q1334 1074 1273 1155 Z " />
<glyph glyph-name="infinity" unicode="&#x221e;" horiz-adv-x="1605" d="M803 625 Q744 541 694 500 Q588 412 450 412 Q300 412 210 504 Q125 590 125 728 Q125 867 210 953 Q301 1044 453 1044 Q597 1044 708 945 Q751 906 803 832 Q860 915 913 958 Q1018 1044 1153 1044 Q1305 1044 1396 953 Q1481 867 1481 728 Q1481 590 1396 504 Q1306 412 1155 412 Q1008 412 896 513 Q854 551 803 625 Z M734 728 L721 747 Q606 922 466 922 Q378 922 321 868 Q265 815 265 728 Q265 640 321 588 Q378 534 466 534 Q601 534 720 709 L734 728 Z M872 728 L885 709 Q1004 534 1140 534 Q1228 534 1285 588 Q1341 640 1341 728 Q1341 815 1285 868 Q1228 922 1140 922 Q1001 922 885 747 L872 728 Z " />
<glyph glyph-name="plusminus" unicode="&#xb1;" horiz-adv-x="1147" d="M142 708 L142 860 L498 860 L498 1236 L650 1236 L650 860 L1006 860 L1006 708 L650 708 L650 332 L498 332 L498 708 L142 708 Z M142 0 L142 152 L1006 152 L1006 0 L142 0 Z " />
<glyph glyph-name="lessequal" unicode="&#x2264;" horiz-adv-x="1147" d="M317 785 L1005 427 L1005 260 L138 730 L138 840 L1005 1310 L1005 1142 L317 785 Z M141 0 L141 152 L1005 152 L1005 0 L141 0 Z " />
<glyph glyph-name="greaterequal" unicode="&#x2265;" horiz-adv-x="1147" d="M830 785 L142 1142 L142 1310 L1009 840 L1009 730 L142 260 L142 427 L830 785 Z M142 0 L142 152 L1006 152 L1006 0 L142 0 Z " />
<glyph glyph-name="yen" unicode="&#xa5;" horiz-adv-x="1147" d="M483 143 L483 378 L135 378 L135 497 L483 497 L483 613 L135 613 L135 732 L440 732 L111 1324 L-17 1324 L-17 1475 L465 1475 L465 1324 L318 1324 L582 835 L845 1324 L700 1324 L700 1475 L1164 1475 L1164 1324 L1032 1324 L707 732 L1012 732 L1012 613 L663 613 L663 497 L1012 497 L1012 378 L663 378 L663 143 L845 143 L845 0 L302 0 L302 143 L483 143 Z " />
<glyph glyph-name="mu" unicode="&#xb5;" horiz-adv-x="1190" d="M46 818 L46 969 L370 969 L371 397 Q371 281 386 231 Q412 143 513 143 Q604 143 702 217 Q743 248 821 330 L821 818 L682 818 L682 969 L995 969 L995 151 L1145 151 L1145 0 L821 0 L821 156 Q735 76 695 50 Q592 -16 487 -16 Q421 -16 370 15 L370 -271 L546 -271 L546 -422 L47 -422 L47 -271 L196 -271 L196 818 L46 818 Z " />
<glyph glyph-name="partialdiff" unicode="&#x2202;" horiz-adv-x="1147" d="M328 1448 L425 1542 Q659 1356 790 1203 Q1083 862 1083 495 Q1083 255 944 115 Q802 -29 573 -29 Q344 -29 202 115 Q64 255 64 476 Q64 697 202 840 Q341 982 550 982 Q681 982 763 923 Q793 901 838 851 Q741 1041 616 1179 Q522 1283 328 1448 Z M572 835 Q413 835 319 723 Q241 629 241 479 Q241 328 319 234 Q413 122 574 122 Q734 122 827 234 Q906 328 906 477 Q906 633 829 723 Q733 835 572 835 Z " />
<glyph glyph-name="summation" unicode="&#x2211;" horiz-adv-x="1306" d="M638 643 L116 1438 L116 1572 L1214 1572 L1214 1183 L1058 1183 L1058 1427 L325 1427 L840 643 L270 -211 L1079 -211 L1079 50 L1235 50 L1235 -356 L69 -356 L69 -216 L638 643 Z " />
<glyph glyph-name="product" unicode="&#x220f;" horiz-adv-x="1476" d="M248 -205 L248 1421 L104 1421 L104 1572 L1370 1572 L1370 1421 L1226 1421 L1226 -205 L1370 -205 L1370 -356 L901 -356 L901 -205 L1046 -205 L1046 1421 L428 1421 L428 -205 L572 -205 L572 -356 L104 -356 L104 -205 L248 -205 Z " />
<glyph glyph-name="integral" unicode="&#x222b;" horiz-adv-x="778" d="M50 -342 L81 -196 Q126 -214 165 -214 Q259 -214 287 -143 Q302 -105 302 44 L302 1141 Q302 1266 308.5 1324 Q315 1382 333 1429 Q363 1506 440 1546 Q499 1578 587 1578 Q646 1578 724 1558 L693 1413 Q647 1432 607 1432 Q515 1432 487 1359 Q472 1322 472 1201 L472 78 Q472 -77 461 -143 Q424 -360 167 -360 Q107 -360 50 -342 Z " />
<glyph glyph-name="ordfeminine" unicode="&#xaa;" horiz-adv-x="769" d="M508 854 L508 922 Q475 889 448 873 Q385 837 288 837 Q56 837 56 1035 Q56 1161 151 1207 Q209 1236 340 1236 Q375 1236 486 1231 L486 1270 Q486 1331 451 1358 Q417 1384 339 1384 Q254 1384 150 1346 L104 1464 Q228 1506 348 1506 Q525 1506 591 1420 Q635 1363 635 1247 L635 977 L724 977 L724 854 L508 854 Z M486 1123 Q415 1129 352 1129 Q270 1129 242 1111 Q206 1088 206 1038 Q206 950 319 950 Q417 950 464 1007 Q486 1032 486 1076 L486 1123 Z " />
<glyph glyph-name="ordmasculine" unicode="&#xba;" horiz-adv-x="769" d="M385 1506 Q541 1506 634 1414 Q726 1323 726 1172 Q726 1021 634 930 Q541 838 386 838 Q228 838 135 930 Q43 1021 43 1177 Q43 1324 135 1414 Q229 1506 385 1506 Z M384 1383 Q291 1383 239 1315 Q194 1256 194 1175 Q194 1088 239 1029 Q291 961 385 961 Q478 961 530 1029 Q575 1088 575 1172 Q575 1258 530 1315 Q477 1383 384 1383 Z " />
<glyph glyph-name="uni2126" unicode="&#x2126;" horiz-adv-x="1736" d="M39 0 L39 318 L179 318 L179 142 L490 142 Q110 348 110 763 Q110 1055 299 1262 Q522 1506 867 1506 Q1213 1506 1436 1262 Q1625 1055 1625 763 Q1625 348 1245 142 L1556 142 L1556 318 L1696 318 L1696 0 L1020 0 L1020 204 Q1119 236 1178 272 Q1322 361 1391 517 Q1441 630 1441 768 Q1441 1011 1287 1174 Q1120 1348 867 1348 Q615 1348 448 1174 Q294 1011 294 768 Q294 521 450 359 Q530 274 639 230 Q664 220 715 204 L715 0 L39 0 Z " />
<glyph glyph-name="ae" unicode="&#xe6;" horiz-adv-x="1843" d="M792 582 L792 628 Q792 735 747 784 Q684 852 533 852 Q414 852 367 807 Q336 778 327 702 L167 702 Q174 852 247 920 Q332 998 530 998 Q838 998 905 808 Q1046 998 1287 998 Q1484 998 1611 878 Q1765 733 1767 435 L968 435 Q980 328 1018 267 Q1109 122 1300 122 Q1425 122 1544 176 Q1591 197 1662 243 L1749 113 Q1538 -30 1307 -30 Q1029 -30 899 187 Q771 -29 447 -29 Q75 -29 75 276 Q75 469 220 545 Q310 593 520 593 Q593 593 792 582 Z M795 444 Q686 457 530 457 Q374 457 319 424 Q250 382 250 283 Q250 200 300 161 Q354 119 474 119 Q673 119 753 218 Q795 269 795 359 L795 444 Z M1583 574 Q1567 668 1524 730 Q1438 851 1278 851 Q1103 851 1020 710 Q986 653 972 574 L1583 574 Z " />
<glyph glyph-name="oslash" unicode="&#xf8;" horiz-adv-x="1201" d="M219 110 Q71 263 71 487 Q71 710 213 852 Q357 998 590 998 Q746 998 869 929 L948 1028 L1101 1028 L966 857 Q1112 707 1112 484 Q1112 259 970 117 Q826 -29 591 -29 Q449 -29 317 38 L222 -82 L68 -82 L219 110 Z M327 246 L768 802 Q680 847 593 847 Q426 847 329 733 Q248 637 248 487 Q248 352 327 246 Z M858 721 L417 166 Q456 149 476 142 Q526 122 591 122 Q757 122 854 236 Q935 332 935 481 Q935 610 858 721 Z " />
<glyph glyph-name="questiondown" unicode="&#xbf;" horiz-adv-x="1015" d="M647 1376 L647 1161 L443 1161 L443 1376 L647 1376 Z M628 971 L628 466 Q469 465 385 421 Q247 349 247 185 Q247 67 323 -10 Q401 -89 518 -89 Q656 -89 731 23 Q772 84 791 211 L956 211 Q943 102 923 42 Q877 -88 776 -164 Q669 -244 514 -244 Q323 -244 199 -127 Q70 -4 70 194 Q70 375 192 486 Q266 554 373 583 Q406 592 468 602 L468 971 L628 971 Z " />
<glyph glyph-name="exclamdown" unicode="&#xa1;" horiz-adv-x="625" d="M204 -209 L227 969 L385 969 L408 -209 L204 -209 Z M205 1161 L205 1376 L409 1376 L409 1161 L205 1161 Z " />
<glyph glyph-name="logicalnot" unicode="&#xac;" horiz-adv-x="1147" d="M142 665 L142 813 L941 813 L941 285 L786 285 L786 665 L142 665 Z " />
<glyph glyph-name="radical" unicode="&#x221a;" horiz-adv-x="1303" d="M496 0 L267 609 L110 609 L110 750 L402 750 L583 235 L1027 1768 L1565 1768 L1565 1625 L1161 1625 L676 0 L496 0 Z " />
<glyph glyph-name="florin" unicode="&#x192;" horiz-adv-x="1147" d="M278 729 L278 871 L498 871 L554 1166 Q574 1272 591 1317 Q662 1506 849 1506 Q942 1506 1039 1459 L999 1323 Q910 1359 867 1359 Q796 1359 761 1293 Q742 1257 723 1160 L667 871 L851 871 L851 729 L644 729 L533 74 Q504 -99 458 -186 Q380 -331 220 -331 Q144 -331 36 -291 L75 -147 Q145 -178 192 -178 Q275 -178 319 -88 Q350 -27 372 107 L475 729 L278 729 Z " />
<glyph glyph-name="approxequal" unicode="&#x2248;" horiz-adv-x="1147" d="M197 433 L101 543 Q155 605 200 641 Q288 713 384 713 Q478 713 587 652 Q660 611 678 602 Q716 583 762 583 Q849 583 952 703 L1046 596 Q904 423 766 423 Q680 423 559 487 Q502 517 467 533 Q425 552 386 552 Q323 552 261 499 Q235 476 197 433 Z M197 770 L101 880 Q157 943 200 978 Q288 1050 384 1050 Q478 1050 587 989 Q661 948 678 939 Q716 920 762 920 Q849 920 952 1040 L1046 933 Q904 760 766 760 Q679 760 559 824 Q501 855 467 870 Q426 889 386 889 Q302 889 197 770 Z " />
<glyph glyph-name="Delta" unicode="&#x2206;" horiz-adv-x="1460" d="M1395 0 L64 0 L627 1475 L824 1475 L1395 0 Z M1149 151 L723 1296 L306 151 L1149 151 Z " />
<glyph glyph-name="guillemotleft" unicode="&#xab;" horiz-adv-x="791" d="M239 463 L411 118 L279 61 L83 463 L279 866 L411 806 L239 463 Z M534 463 L707 118 L575 61 L379 463 L575 866 L707 806 L534 463 Z " />
<glyph glyph-name="guillemotright" unicode="&#xbb;" horiz-adv-x="791" d="M551 463 L378 806 L510 866 L707 463 L510 61 L378 118 L551 463 Z M255 463 L83 806 L216 866 L411 463 L216 61 L83 118 L255 463 Z " />
<glyph glyph-name="ellipsis" unicode="&#x2026;" horiz-adv-x="1618" d="M193 0 L193 221 L397 221 L397 0 L193 0 Z M707 0 L707 221 L911 221 L911 0 L707 0 Z M1220 0 L1220 221 L1424 221 L1424 0 L1220 0 Z " />
<glyph glyph-name="Agrave" unicode="&#xc0;" horiz-adv-x="1460" d="M1043 434 L410 434 L306 151 L467 151 L467 0 L0 0 L0 151 L122 151 L626 1475 L824 1475 L1334 151 L1460 151 L1460 0 L987 0 L987 151 L1149 151 L1043 434 Z M987 582 L723 1296 L465 582 L987 582 Z M702 1596 L448 1920 L644 1920 L826 1596 L702 1596 Z " />
<glyph glyph-name="Atilde" unicode="&#xc3;" horiz-adv-x="1460" d="M1043 434 L410 434 L306 151 L467 151 L467 0 L0 0 L0 151 L122 151 L626 1475 L824 1475 L1334 151 L1460 151 L1460 0 L987 0 L987 151 L1149 151 L1043 434 Z M987 582 L723 1296 L465 582 L987 582 Z M536 1648 L423 1648 Q469 1853 623 1853 Q680 1853 762 1808 Q835 1768 859 1768 Q911 1768 946 1852 L1060 1852 Q1034 1759 998 1712 Q945 1642 852 1642 Q789 1642 679 1704 Q638 1727 616 1727 Q567 1727 536 1648 Z " />
<glyph glyph-name="Otilde" unicode="&#xd5;" horiz-adv-x="1714" d="M857 1506 Q1091 1506 1280 1382 Q1468 1259 1557 1055 Q1621 907 1621 738 Q1621 439 1431 223 Q1318 95 1163 30 Q1020 -31 858 -31 Q507 -31 283 223 Q92 439 92 747 Q92 938 182 1108 Q287 1307 490 1417 Q656 1506 857 1506 Z M857 1348 Q601 1348 432 1165 Q276 995 276 746 Q276 481 432 310 Q601 127 858 127 Q1112 127 1281 310 Q1437 481 1437 738 Q1437 999 1281 1165 Q1108 1348 857 1348 Z M663 1648 L550 1648 Q596 1853 750 1853 Q807 1853 889 1808 Q962 1768 986 1768 Q1038 1768 1073 1852 L1187 1852 Q1161 1759 1125 1712 Q1072 1642 979 1642 Q916 1642 806 1704 Q765 1727 743 1727 Q694 1727 663 1648 Z " />
<glyph glyph-name="OE" unicode="&#x152;" horiz-adv-x="2088" d="M1284 151 L1836 151 L1836 408 L1992 408 L1992 0 L1280 0 Q1215 0 1102 -7 Q943 -17 878 -17 Q518 -17 321 161 Q86 372 86 738 Q86 1107 333 1319 Q440 1411 569 1452 Q695 1492 872 1492 Q945 1492 1097 1482 Q1213 1475 1293 1475 L1982 1475 L1982 1108 L1826 1108 L1826 1324 L1284 1324 L1284 842 L1770 842 L1770 691 L1284 691 L1284 151 Z M1104 150 L1104 1324 Q988 1339 881 1339 Q597 1339 431 1176 Q270 1019 270 741 Q270 429 470 267 Q633 136 891 136 Q976 136 1104 150 Z " />
<glyph glyph-name="oe" unicode="&#x153;" horiz-adv-x="2001" d="M1031 229 Q985 147 941 103 Q811 -29 591 -29 Q362 -29 219 117 Q80 260 80 485 Q80 710 219 852 Q362 998 591 998 Q810 998 939 868 Q986 821 1030 742 Q1070 820 1115 868 Q1237 998 1446 998 Q1631 998 1756 889 Q1922 743 1924 435 L1125 435 Q1137 329 1175 267 Q1265 122 1457 122 Q1582 122 1701 176 Q1748 197 1819 243 L1905 113 Q1695 -30 1463 -30 Q1161 -30 1031 229 Z M599 847 Q435 847 338 733 Q257 638 257 485 Q257 332 338 236 Q434 122 600 122 Q766 122 862 236 Q943 332 943 480 Q943 639 862 733 Q763 847 599 847 Z M1740 574 Q1723 668 1683 726 Q1596 851 1435 851 Q1259 851 1176 708 Q1143 651 1129 574 L1740 574 Z " />
<glyph glyph-name="endash" unicode="&#x2013;" horiz-adv-x="1024" d="M82 484 L82 624 L942 624 L942 484 L82 484 Z " />
<glyph glyph-name="emdash" unicode="&#x2014;" horiz-adv-x="1024" d="M-123 484 L-123 624 L1147 624 L1147 484 L-123 484 Z " />
<glyph glyph-name="quotedblleft" unicode="&#x201c;" horiz-adv-x="873" d="M93 1030 L266 1475 L438 1475 L303 1030 L93 1030 Z M416 1030 L589 1475 L762 1475 L625 1030 L416 1030 Z " />
<glyph glyph-name="quotedblright" unicode="&#x201d;" horiz-adv-x="873" d="M80 1030 L215 1475 L425 1475 L253 1030 L80 1030 Z M404 1030 L539 1475 L749 1475 L576 1030 L404 1030 Z " />
<glyph glyph-name="quoteleft" unicode="&#x2018;" horiz-adv-x="541" d="M88 1030 L261 1475 L434 1475 L298 1030 L88 1030 Z " />
<glyph glyph-name="quoteright" unicode="&#x2019;" horiz-adv-x="541" d="M75 1030 L211 1475 L421 1475 L248 1030 L75 1030 Z " />
<glyph glyph-name="divide" unicode="&#xf7;" horiz-adv-x="1147" d="M142 661 L142 813 L1006 813 L1006 661 L142 661 Z M478 994 L478 1202 L669 1202 L669 994 L478 994 Z M478 275 L478 483 L669 483 L669 275 L478 275 Z " />
<glyph glyph-name="lozenge" unicode="&#x25ca;" horiz-adv-x="1147" d="M9 704 L574 1465 L1139 704 L574 -57 L9 704 Z M204 704 L574 208 L943 704 L574 1201 L204 704 Z " />
<glyph glyph-name="ydieresis" unicode="&#xff;" horiz-adv-x="1076" d="M111 818 L8 818 L8 969 L468 969 L468 818 L293 818 L503 357 Q506 350 551 238 Q576 307 605 375 L790 818 L621 818 L621 969 L1076 969 L1076 818 L967 818 L546 -147 Q474 -310 404 -363 Q340 -411 237 -419 Q210 -422 155 -422 L155 -271 Q253 -270 292 -248 Q345 -217 389 -112 L462 61 L111 818 Z M294 1174 L294 1368 L471 1368 L471 1174 L294 1174 Z M642 1174 L642 1368 L819 1368 L819 1174 L642 1174 Z " />
<glyph glyph-name="Ydieresis" unicode="&#x178;" horiz-adv-x="1153" d="M484 151 L484 671 L112 1324 L-16 1324 L-16 1475 L466 1475 L466 1324 L319 1324 L583 835 L846 1324 L701 1324 L701 1475 L1164 1475 L1164 1324 L1032 1324 L664 669 L664 151 L845 151 L845 0 L303 0 L303 151 L484 151 Z M313 1651 L313 1845 L490 1845 L490 1651 L313 1651 Z M694 1651 L694 1845 L871 1845 L871 1651 L694 1651 Z " />
<glyph glyph-name="fraction" unicode="&#x2044;" horiz-adv-x="287" d="M-302 0 L437 1475 L589 1475 L-150 0 L-302 0 Z " />
<glyph glyph-name="Euro" unicode="&#x20ac;" horiz-adv-x="1470" d="M36 514 L36 633 L209 633 Q205 684 205 721 Q205 753 207 786 L36 786 L36 905 L219 905 Q248 1096 347 1244 Q522 1506 846 1506 Q1058 1506 1192 1391 L1192 1475 L1340 1475 L1340 1044 L1184 1044 L1184 1071 Q1184 1171 1143 1228 Q1102 1283 1019 1317 Q945 1347 851 1347 Q615 1347 492 1143 Q431 1042 405 905 L1004 905 L1004 786 L392 786 Q389 752 389 724 Q389 684 393 633 L923 633 L923 514 L414 514 Q446 400 491 326 Q613 130 861 130 Q1022 130 1142 217 Q1189 250 1270 348 L1384 228 Q1298 111 1199 54 Q1053 -31 856 -31 Q502 -31 340 219 Q253 352 223 514 L36 514 Z " />
<glyph glyph-name="guilsinglleft" unicode="&#x2039;" horiz-adv-x="495" d="M239 463 L411 118 L279 61 L83 463 L279 866 L411 806 L239 463 Z " />
<glyph glyph-name="guilsinglright" unicode="&#x203a;" horiz-adv-x="495" d="M255 463 L83 806 L216 866 L411 463 L216 61 L83 118 L255 463 Z " />
<glyph glyph-name="fi" unicode="&#xfb01;" horiz-adv-x="1285" d="M219 151 L219 818 L65 818 L65 969 L219 975 L219 1102 Q219 1289 284 1380 Q362 1489 550 1489 Q632 1489 710 1475 L699 1330 Q623 1342 571 1342 Q496 1342 459 1315 Q393 1268 393 1096 L393 969 L637 969 L637 818 L393 818 L393 151 L598 151 L598 0 L65 0 L65 151 L219 151 Z M910 151 L910 818 L759 818 L759 969 L1084 969 L1084 151 L1231 151 L1231 0 L753 0 L753 151 L910 151 Z M896 1164 L896 1368 L1095 1368 L1095 1164 L896 1164 Z " />
<glyph glyph-name="fl" unicode="&#xfb02;" horiz-adv-x="1292" d="M219 151 L219 818 L65 818 L65 969 L219 975 L219 1102 Q219 1289 284 1380 Q362 1489 550 1489 Q632 1489 710 1475 L699 1330 Q623 1342 571 1342 Q496 1342 459 1315 Q393 1268 393 1096 L393 969 L637 969 L637 818 L393 818 L393 151 L598 151 L598 0 L65 0 L65 151 L219 151 Z M915 151 L915 1324 L764 1324 L764 1475 L1089 1475 L1089 151 L1236 151 L1236 0 L758 0 L758 151 L915 151 Z " />
<glyph glyph-name="daggerdbl" unicode="&#x2021;" horiz-adv-x="1147" d="M496 924 L147 924 L147 1066 L496 1066 L496 1490 L650 1490 L650 1065 L1001 1065 L1001 923 L650 923 L650 384 L1001 384 L1001 238 L650 238 L650 -183 L496 -183 L496 238 L147 238 L147 384 L496 384 L496 924 Z " />
<glyph glyph-name="periodcentered" unicode="&#xb7;" horiz-adv-x="574" d="M186 443 L186 664 L390 664 L390 443 L186 443 Z " />
<glyph glyph-name="quotesinglbase" unicode="&#x201a;" horiz-adv-x="541" d="M75 -229 L211 216 L421 216 L248 -229 L75 -229 Z " />
<glyph glyph-name="quotedblbase" unicode="&#x201e;" horiz-adv-x="873" d="M80 -224 L215 221 L425 221 L253 -224 L80 -224 Z M403 -224 L539 221 L749 221 L576 -224 L403 -224 Z " />
<glyph glyph-name="perthousand" unicode="&#x2030;" horiz-adv-x="2495" d="M432 1506 Q591 1506 695 1395 Q789 1296 789 1155 Q789 1015 695 916 Q591 805 433 805 Q272 805 168 916 Q74 1016 74 1160 Q74 1298 168 1395 Q275 1506 432 1506 Z M431 1370 Q341 1370 282 1303 Q229 1242 229 1158 Q229 1070 282 1009 Q340 941 432 941 Q523 941 581 1009 Q634 1070 634 1156 Q634 1243 581 1303 Q522 1370 431 1370 Z M315 0 L1218 1475 L1370 1475 L467 0 L315 0 Z M1254 670 Q1413 670 1517 559 Q1611 460 1611 319 Q1611 180 1517 80 Q1413 -31 1254 -31 Q1094 -31 990 80 Q896 180 896 324 Q896 462 990 559 Q1097 670 1254 670 Z M1254 534 Q1162 534 1104 466 Q1051 406 1051 322 Q1051 233 1104 172 Q1162 105 1254 105 Q1345 105 1403 173 Q1456 234 1456 320 Q1456 406 1403 467 Q1344 534 1254 534 Z M2063 670 Q2223 670 2327 559 Q2421 460 2421 319 Q2421 180 2327 80 Q2223 -31 2064 -31 Q1904 -31 1800 80 Q1706 180 1706 324 Q1706 462 1800 559 Q1907 670 2063 670 Z M2064 534 Q1972 534 1914 466 Q1861 406 1861 322 Q1861 233 1914 172 Q1972 105 2064 105 Q2155 105 2213 173 Q2266 234 2266 320 Q2266 406 2213 467 Q2154 534 2064 534 Z " />
<glyph glyph-name="Acircumflex" unicode="&#xc2;" horiz-adv-x="1460" d="M1043 434 L410 434 L306 151 L467 151 L467 0 L0 0 L0 151 L122 151 L626 1475 L824 1475 L1334 151 L1460 151 L1460 0 L987 0 L987 151 L1149 151 L1043 434 Z M987 582 L723 1296 L465 582 L987 582 Z M730 1809 L568 1596 L444 1596 L641 1920 L819 1920 L1014 1596 L891 1596 L730 1809 Z " />
<glyph glyph-name="Ecircumflex" unicode="&#xca;" horiz-adv-x="1211" d="M226 151 L226 1324 L82 1324 L82 1475 L1104 1475 L1104 1116 L948 1116 L948 1324 L406 1324 L406 842 L892 842 L892 691 L406 691 L406 151 L958 151 L958 400 L1114 400 L1114 0 L82 0 L82 151 L226 151 Z M638 1809 L476 1596 L352 1596 L549 1920 L727 1920 L922 1596 L799 1596 L638 1809 Z " />
<glyph glyph-name="Aacute" unicode="&#xc1;" horiz-adv-x="1460" d="M1043 434 L410 434 L306 151 L467 151 L467 0 L0 0 L0 151 L122 151 L626 1475 L824 1475 L1334 151 L1460 151 L1460 0 L987 0 L987 151 L1149 151 L1043 434 Z M987 582 L723 1296 L465 582 L987 582 Z M641 1596 L823 1920 L1019 1920 L765 1596 L641 1596 Z " />
<glyph glyph-name="Edieresis" unicode="&#xcb;" horiz-adv-x="1211" d="M226 151 L226 1324 L82 1324 L82 1475 L1104 1475 L1104 1116 L948 1116 L948 1324 L406 1324 L406 842 L892 842 L892 691 L406 691 L406 151 L958 151 L958 400 L1114 400 L1114 0 L82 0 L82 151 L226 151 Z M333 1651 L333 1845 L510 1845 L510 1651 L333 1651 Z M714 1651 L714 1845 L891 1845 L891 1651 L714 1651 Z " />
<glyph glyph-name="Egrave" unicode="&#xc8;" horiz-adv-x="1211" d="M226 151 L226 1324 L82 1324 L82 1475 L1104 1475 L1104 1116 L948 1116 L948 1324 L406 1324 L406 842 L892 842 L892 691 L406 691 L406 151 L958 151 L958 400 L1114 400 L1114 0 L82 0 L82 151 L226 151 Z M630 1596 L376 1920 L572 1920 L754 1596 L630 1596 Z " />
<glyph glyph-name="Iacute" unicode="&#xcd;" horiz-adv-x="639" d="M229 151 L229 1324 L85 1324 L85 1475 L554 1475 L554 1324 L409 1324 L409 151 L554 151 L554 0 L85 0 L85 151 L229 151 Z M217 1596 L399 1920 L595 1920 L341 1596 L217 1596 Z " />
<glyph glyph-name="Icircumflex" unicode="&#xce;" horiz-adv-x="639" d="M228 151 L228 1324 L84 1324 L84 1475 L553 1475 L553 1324 L408 1324 L408 151 L553 151 L553 0 L84 0 L84 151 L228 151 Z M319 1809 L157 1596 L33 1596 L230 1920 L408 1920 L603 1596 L480 1596 L319 1809 Z " />
<glyph glyph-name="Idieresis" unicode="&#xcf;" horiz-adv-x="639" d="M229 151 L229 1324 L85 1324 L85 1475 L554 1475 L554 1324 L409 1324 L409 151 L554 151 L554 0 L85 0 L85 151 L229 151 Z M40 1651 L40 1845 L217 1845 L217 1651 L40 1651 Z M421 1651 L421 1845 L598 1845 L598 1651 L421 1651 Z " />
<glyph glyph-name="Igrave" unicode="&#xcc;" horiz-adv-x="639" d="M229 151 L229 1324 L85 1324 L85 1475 L554 1475 L554 1324 L409 1324 L409 151 L554 151 L554 0 L85 0 L85 151 L229 151 Z M310 1596 L56 1920 L252 1920 L434 1596 L310 1596 Z " />
<glyph glyph-name="Oacute" unicode="&#xd3;" horiz-adv-x="1714" d="M857 1506 Q1091 1506 1280 1382 Q1468 1259 1557 1055 Q1621 907 1621 738 Q1621 439 1431 223 Q1318 95 1163 30 Q1020 -31 858 -31 Q507 -31 283 223 Q92 439 92 747 Q92 938 182 1108 Q287 1307 490 1417 Q656 1506 857 1506 Z M857 1348 Q601 1348 432 1165 Q276 995 276 746 Q276 481 432 310 Q601 127 858 127 Q1112 127 1281 310 Q1437 481 1437 738 Q1437 999 1281 1165 Q1108 1348 857 1348 Z M719 1596 L901 1920 L1097 1920 L843 1596 L719 1596 Z " />
<glyph glyph-name="Ocircumflex" unicode="&#xd4;" horiz-adv-x="1714" d="M857 1506 Q1091 1506 1280 1382 Q1468 1259 1557 1055 Q1621 907 1621 738 Q1621 439 1431 223 Q1318 95 1163 30 Q1020 -31 858 -31 Q507 -31 283 223 Q92 439 92 747 Q92 938 182 1108 Q287 1307 490 1417 Q656 1506 857 1506 Z M857 1348 Q601 1348 432 1165 Q276 995 276 746 Q276 481 432 310 Q601 127 858 127 Q1112 127 1281 310 Q1437 481 1437 738 Q1437 999 1281 1165 Q1108 1348 857 1348 Z M856 1809 L694 1596 L570 1596 L767 1920 L945 1920 L1140 1596 L1017 1596 L856 1809 Z " />
<glyph glyph-name="Ograve" unicode="&#xd2;" horiz-adv-x="1714" d="M857 1506 Q1091 1506 1280 1382 Q1468 1259 1557 1055 Q1621 907 1621 738 Q1621 439 1431 223 Q1318 95 1163 30 Q1020 -31 858 -31 Q507 -31 283 223 Q92 439 92 747 Q92 938 182 1108 Q287 1307 490 1417 Q656 1506 857 1506 Z M857 1348 Q601 1348 432 1165 Q276 995 276 746 Q276 481 432 310 Q601 127 858 127 Q1112 127 1281 310 Q1437 481 1437 738 Q1437 999 1281 1165 Q1108 1348 857 1348 Z M869 1596 L615 1920 L811 1920 L993 1596 L869 1596 Z " />
<glyph glyph-name="Uacute" unicode="&#xda;" horiz-adv-x="1436" d="M72 1324 L72 1475 L547 1475 L547 1324 L396 1324 L396 566 Q396 367 445 271 Q517 130 718 130 Q918 130 991 271 Q1040 366 1040 566 L1040 1324 L889 1324 L889 1475 L1364 1475 L1364 1324 L1220 1324 L1220 623 Q1220 409 1196 300 Q1161 139 1038 53 Q916 -31 718 -31 Q413 -31 293 165 Q239 253 224 399 Q216 475 216 623 L216 1324 L72 1324 Z M644 1596 L826 1920 L1022 1920 L768 1596 L644 1596 Z " />
<glyph glyph-name="Ucircumflex" unicode="&#xdb;" horiz-adv-x="1436" d="M72 1324 L72 1475 L547 1475 L547 1324 L396 1324 L396 566 Q396 367 445 271 Q517 130 718 130 Q918 130 991 271 Q1040 366 1040 566 L1040 1324 L889 1324 L889 1475 L1364 1475 L1364 1324 L1220 1324 L1220 623 Q1220 409 1196 300 Q1161 139 1038 53 Q916 -31 718 -31 Q413 -31 293 165 Q239 253 224 399 Q216 475 216 623 L216 1324 L72 1324 Z M730 1809 L568 1596 L444 1596 L641 1920 L819 1920 L1014 1596 L891 1596 L730 1809 Z " />
<glyph glyph-name="Ugrave" unicode="&#xd9;" horiz-adv-x="1436" d="M72 1324 L72 1475 L547 1475 L547 1324 L396 1324 L396 566 Q396 367 445 271 Q517 130 718 130 Q918 130 991 271 Q1040 366 1040 566 L1040 1324 L889 1324 L889 1475 L1364 1475 L1364 1324 L1220 1324 L1220 623 Q1220 409 1196 300 Q1161 139 1038 53 Q916 -31 718 -31 Q413 -31 293 165 Q239 253 224 399 Q216 475 216 623 L216 1324 L72 1324 Z M720 1596 L466 1920 L662 1920 L844 1596 L720 1596 Z " />
<glyph glyph-name="dotlessi" unicode="&#x131;" horiz-adv-x="606" d="M230 151 L230 818 L79 818 L79 969 L404 969 L404 151 L551 151 L551 0 L73 0 L73 151 L230 151 Z " />
<glyph glyph-name="circumflex" unicode="&#x2c6;" horiz-adv-x="1024" d="M512 1356 L338 1118 L214 1118 L424 1467 L601 1467 L810 1118 L686 1118 L512 1356 Z " />
<glyph glyph-name="tilde" unicode="&#x2dc;" horiz-adv-x="1024" d="M314 1171 L206 1171 Q250 1375 398 1375 Q442 1375 488 1353 Q509 1343 571 1308 Q603 1290 625 1290 Q675 1290 709 1374 L817 1374 Q792 1280 759 1234 Q708 1165 617 1165 Q575 1165 534 1183 Q502 1198 452 1226 Q413 1249 391 1249 Q345 1249 314 1171 Z " />
<glyph glyph-name="macron" unicode="&#xaf;" horiz-adv-x="1024" d="M247 1203 L247 1341 L777 1341 L777 1203 L247 1203 Z " />
<glyph glyph-name="breve" unicode="&#x2d8;" horiz-adv-x="1024" d="M225 1427 L328 1427 Q334 1352 368 1319 Q414 1273 512 1273 Q619 1273 663 1327 Q688 1358 694 1427 L798 1427 Q785 1290 729 1224 Q661 1143 513 1143 Q347 1143 280 1242 Q235 1307 225 1427 Z " />
<glyph glyph-name="dotaccent" unicode="&#x2d9;" horiz-adv-x="1024" d="M412 1168 L412 1372 L611 1372 L611 1168 L412 1168 Z " />
<glyph glyph-name="ring" unicode="&#x2da;" horiz-adv-x="1024" d="M513 1548 Q627 1548 690 1479 Q746 1417 746 1319 Q746 1222 690 1160 Q628 1091 513 1091 Q397 1091 335 1160 Q279 1222 279 1322 Q279 1418 335 1479 Q399 1548 513 1548 Z M512 1448 Q392 1448 392 1321 Q392 1191 512 1191 Q633 1191 633 1320 Q633 1448 512 1448 Z " />
<glyph glyph-name="cedilla" unicode="&#xb8;" horiz-adv-x="1024" d="M489 0 L608 0 L556 -94 Q642 -101 677 -118 Q774 -162 774 -276 Q774 -389 687 -440 Q624 -478 516 -478 Q409 -478 269 -439 L269 -300 Q423 -356 518 -356 Q629 -356 629 -277 Q629 -223 572 -208 Q546 -201 497 -201 Q492 -201 431 -205 L431 -112 L489 0 Z " />
<glyph glyph-name="hungarumlaut" unicode="&#x2dd;" horiz-adv-x="1024" d="M310 1118 L457 1467 L628 1467 L411 1118 L310 1118 Z M572 1118 L744 1467 L920 1467 L675 1118 L572 1118 Z " />
<glyph glyph-name="ogonek" unicode="&#x2db;" horiz-adv-x="1024" d="M559 0 L690 0 Q599 -71 564 -114 Q514 -175 514 -236 Q514 -317 606 -317 L689 -317 L689 -439 L607 -439 Q369 -439 369 -265 Q369 -177 454 -88 Q482 -59 559 0 Z " />
<glyph glyph-name="caron" unicode="&#x2c7;" horiz-adv-x="1024" d="M512 1229 L686 1467 L810 1467 L601 1118 L424 1118 L214 1467 L338 1467 L512 1229 Z " />
<glyph glyph-name="uni00A0" unicode="&#xa0;" horiz-adv-x="573" d="" />
<glyph glyph-name="currency" unicode="&#xa4;" horiz-adv-x="1147" d="M135 279 L45 373 L241 567 Q161 674 161 809 Q161 943 240 1050 L45 1243 L135 1337 L331 1141 Q442 1222 574 1222 Q709 1222 817 1141 L1010 1336 L1104 1243 L908 1050 Q987 939 987 810 Q987 676 907 567 L1104 373 L1010 280 L816 476 Q701 396 574 396 Q445 396 332 476 L135 279 Z M574 1087 Q456 1087 374 1002 Q296 921 296 812 Q296 697 374 616 Q456 531 575 531 Q692 531 774 616 Q852 697 852 809 Q852 922 774 1002 Q691 1087 574 1087 Z " />
<glyph glyph-name="brokenbar" unicode="&#xa6;" horiz-adv-x="616" d="M229 846 L229 1448 L388 1448 L388 846 L229 846 Z M229 0 L229 603 L388 603 L388 0 L229 0 Z " />
<glyph glyph-name="uni00AD" unicode="&#xad;" horiz-adv-x="716" d="M88 478 L88 629 L628 629 L628 478 L88 478 Z " />
<glyph glyph-name="twosuperior" unicode="&#xb2;" horiz-adv-x="737" d="M45 819 Q53 895 64 926 Q89 998 177 1089 Q220 1135 374 1268 Q484 1364 484 1450 Q484 1501 451 1534 Q414 1573 349 1573 Q258 1573 219 1483 Q205 1451 192 1381 L49 1399 Q73 1528 111 1584 Q189 1696 352 1696 Q476 1696 555 1636 Q638 1573 638 1454 Q638 1345 571 1263 Q525 1207 409 1107 Q285 1000 245 942 L540 942 L540 1094 L672 1094 L672 819 L45 819 Z " />
<glyph glyph-name="threesuperior" unicode="&#xb3;" horiz-adv-x="737" d="M252 1211 L252 1327 Q268 1327 285 1327 Q370 1327 420 1350 Q496 1385 496 1458 Q496 1507 461 1538 Q424 1572 359 1572 Q278 1572 238 1516 Q220 1491 207 1440 L64 1456 Q90 1557 139 1613 Q213 1696 364 1696 Q500 1696 576 1628 Q645 1566 645 1460 Q645 1332 524 1274 Q674 1211 674 1062 Q674 934 583 864 Q503 803 363 803 Q65 803 49 1068 L189 1078 Q195 1022 225 985 Q272 928 362 928 Q430 928 471 959 Q521 996 521 1061 Q521 1168 393 1199 Q347 1210 252 1211 Z " />
<glyph glyph-name="onesuperior" unicode="&#xb9;" horiz-adv-x="737" d="M306 942 L306 1532 L157 1470 L111 1585 L333 1679 L455 1679 L455 942 L603 942 L603 819 L152 819 L152 942 L306 942 Z " />
<glyph glyph-name="onequarter" unicode="&#xbc;" horiz-adv-x="1761" d="M306 738 L306 1328 L157 1266 L111 1381 L333 1475 L455 1475 L455 738 L603 738 L603 615 L152 615 L152 738 L306 738 Z M401 0 L1141 1475 L1293 1475 L553 0 L401 0 Z M1377 0 L1377 189 L984 189 L984 306 L1245 860 L1400 860 L1139 309 L1377 309 L1377 596 L1516 596 L1516 309 L1641 309 L1641 189 L1516 189 L1516 0 L1377 0 Z " />
<glyph glyph-name="onehalf" unicode="&#xbd;" horiz-adv-x="1761" d="M294 738 L294 1328 L145 1266 L99 1381 L321 1475 L443 1475 L443 738 L591 738 L591 615 L140 615 L140 738 L294 738 Z M385 0 L1124 1475 L1276 1475 L537 0 L385 0 Z M1020 0 Q1027 75 1039 107 Q1064 178 1152 270 Q1194 314 1349 449 Q1459 545 1459 631 Q1459 682 1426 715 Q1389 754 1324 754 Q1233 754 1194 665 Q1180 634 1167 562 L1024 580 Q1047 707 1086 765 Q1163 877 1327 877 Q1451 877 1530 817 Q1613 754 1613 635 Q1613 526 1546 444 Q1501 389 1384 288 Q1259 179 1220 123 L1515 123 L1515 275 L1647 275 L1647 0 L1020 0 Z " />
<glyph glyph-name="threequarters" unicode="&#xbe;" horiz-adv-x="1761" d="M279 1007 L279 1123 Q302 1122 312 1122 Q397 1122 447 1145 Q523 1179 523 1253 Q523 1302 488 1333 Q451 1367 386 1367 Q305 1367 265 1312 Q247 1286 234 1236 L91 1251 Q116 1352 166 1408 Q240 1491 391 1491 Q527 1491 603 1423 Q672 1361 672 1256 Q672 1128 551 1070 Q701 1006 701 857 Q701 729 610 659 Q530 598 390 598 Q92 598 76 864 L216 874 Q222 817 252 780 Q299 723 389 723 Q457 723 498 754 Q548 791 548 857 Q548 964 420 995 Q374 1005 279 1007 Z M462 0 L1201 1475 L1353 1475 L614 0 L462 0 Z M1411 0 L1411 189 L1018 189 L1018 306 L1279 860 L1435 860 L1173 309 L1411 309 L1411 596 L1550 596 L1550 309 L1675 309 L1675 189 L1550 189 L1550 0 L1411 0 Z " />
<glyph glyph-name="Eth" unicode="&#xd0;" horiz-adv-x="1468" d="M227 151 L227 711 L10 711 L10 848 L227 848 L227 1324 L82 1324 L82 1475 L585 1475 Q933 1475 1138 1307 Q1375 1111 1375 737 Q1375 363 1138 168 Q933 0 585 0 L82 0 L82 151 L227 151 Z M407 151 L574 151 Q845 151 1005 281 Q1191 432 1191 737 Q1191 1042 1006 1194 Q846 1324 574 1324 L407 1324 L407 848 L808 848 L808 711 L407 711 L407 151 Z " />
<glyph glyph-name="multiply" unicode="&#xd7;" horiz-adv-x="1147" d="M466 736 L176 1026 L284 1134 L574 844 L864 1134 L972 1026 L682 736 L972 446 L864 339 L574 629 L284 339 L176 446 L466 736 Z " />
<glyph glyph-name="Yacute" unicode="&#xdd;" horiz-adv-x="1153" d="M484 151 L484 671 L112 1324 L-16 1324 L-16 1475 L466 1475 L466 1324 L319 1324 L583 835 L846 1324 L701 1324 L701 1475 L1164 1475 L1164 1324 L1032 1324 L664 669 L664 151 L845 151 L845 0 L303 0 L303 151 L484 151 Z M524 1596 L706 1920 L902 1920 L648 1596 L524 1596 Z " />
<glyph glyph-name="Thorn" unicode="&#xde;" horiz-adv-x="1238" d="M226 151 L226 1324 L82 1324 L82 1475 L549 1475 L549 1324 L406 1324 L406 1205 L574 1205 Q731 1205 833 1187 Q1010 1156 1098 1038 Q1177 933 1177 773 Q1177 617 1100 514 Q1017 402 833 367 Q720 346 575 346 L406 346 L406 151 L572 151 L572 0 L82 0 L82 151 L226 151 Z M406 489 L582 489 Q789 489 883 554 Q993 630 993 776 Q993 922 882 997 Q789 1059 585 1059 L406 1059 L406 489 Z " />
<glyph glyph-name="eth" unicode="&#xf0;" horiz-adv-x="1200" d="M362 1082 L304 1165 L520 1311 Q442 1383 366 1448 L463 1542 Q584 1446 644 1390 L871 1542 L930 1459 L721 1318 Q1121 923 1121 496 Q1121 256 979 115 Q834 -29 600 -29 Q366 -29 222 115 Q80 255 80 476 Q80 697 222 840 Q363 982 578 982 Q712 982 796 923 Q828 901 876 851 Q761 1077 597 1239 L362 1082 Z M599 835 Q435 835 338 723 Q257 629 257 479 Q257 329 338 234 Q434 122 600 122 Q765 122 862 234 Q943 329 943 477 Q943 634 863 723 Q763 835 599 835 Z " />
<glyph glyph-name="yacute" unicode="&#xfd;" horiz-adv-x="1076" d="M111 818 L8 818 L8 969 L468 969 L468 818 L293 818 L503 357 Q506 350 551 238 Q576 307 605 375 L790 818 L621 818 L621 969 L1076 969 L1076 818 L967 818 L546 -147 Q474 -310 404 -363 Q340 -411 237 -419 Q210 -422 155 -422 L155 -271 Q253 -270 292 -248 Q345 -217 389 -112 L462 61 L111 818 Z M470 1118 L678 1467 L873 1467 L594 1118 L470 1118 Z " />
<glyph glyph-name="thorn" unicode="&#xfe;" horiz-adv-x="1295" d="M207 -271 L208 1324 L57 1324 L57 1475 L382 1475 L382 828 Q397 843 405 851 Q481 928 534 953 Q627 998 741 998 Q954 998 1086 852 Q1214 712 1214 485 Q1214 257 1086 117 Q954 -29 739 -29 Q579 -29 470 59 Q434 87 381 141 L381 -271 L546 -271 L546 -422 L59 -422 L59 -271 L207 -271 Z M714 847 Q559 847 464 733 Q381 633 381 489 Q381 337 464 236 Q558 122 714 122 Q869 122 960 235 Q1037 331 1037 485 Q1037 650 949 746 Q858 847 714 847 Z " />
<glyph glyph-name="Amacron" unicode="&#x100;" horiz-adv-x="1460" d="M1043 434 L410 434 L306 151 L467 151 L467 0 L0 0 L0 151 L122 151 L626 1475 L824 1475 L1334 151 L1460 151 L1460 0 L987 0 L987 151 L1149 151 L1043 434 Z M987 582 L723 1296 L465 582 L987 582 Z M454 1680 L454 1818 L984 1818 L984 1680 L454 1680 Z " />
<glyph glyph-name="amacron" unicode="&#x101;" horiz-adv-x="1175" d="M792 582 L792 630 Q792 749 751 793 Q695 853 534 853 Q412 853 365 809 Q335 780 327 702 L164 702 Q168 852 244 920 Q330 998 536 998 Q799 998 895 888 Q945 831 961 733 Q969 685 969 593 L969 151 L1117 151 L1117 0 L806 0 L806 111 Q681 -29 443 -29 Q270 -29 173 45 Q75 120 75 277 Q75 469 221 545 Q311 592 523 592 Q610 592 792 582 Z M795 444 Q682 456 530 456 Q374 456 319 423 Q250 381 250 283 Q250 200 300 161 Q354 119 474 119 Q665 119 753 220 Q785 256 792 301 Q795 320 795 363 L795 444 Z M323 1203 L323 1341 L853 1341 L853 1203 L323 1203 Z " />
<glyph glyph-name="Abreve" unicode="&#x102;" horiz-adv-x="1460" d="M1043 434 L410 434 L306 151 L467 151 L467 0 L0 0 L0 151 L122 151 L626 1475 L824 1475 L1334 151 L1460 151 L1460 0 L987 0 L987 151 L1149 151 L1043 434 Z M987 582 L723 1296 L465 582 L987 582 Z M442 1904 L545 1904 Q551 1829 585 1796 Q631 1750 729 1750 Q836 1750 880 1804 Q905 1835 911 1904 L1015 1904 Q1002 1767 946 1700 Q878 1619 730 1619 Q564 1619 497 1718 Q452 1784 442 1904 Z " />
<glyph glyph-name="abreve" unicode="&#x103;" horiz-adv-x="1175" d="M792 582 L792 630 Q792 749 751 793 Q695 853 534 853 Q412 853 365 809 Q335 780 327 702 L164 702 Q168 852 244 920 Q330 998 536 998 Q799 998 895 888 Q945 831 961 733 Q969 685 969 593 L969 151 L1117 151 L1117 0 L806 0 L806 111 Q681 -29 443 -29 Q270 -29 173 45 Q75 120 75 277 Q75 469 221 545 Q311 592 523 592 Q610 592 792 582 Z M795 444 Q682 456 530 456 Q374 456 319 423 Q250 381 250 283 Q250 200 300 161 Q354 119 474 119 Q665 119 753 220 Q785 256 792 301 Q795 320 795 363 L795 444 Z M289 1427 L392 1427 Q398 1352 432 1319 Q478 1273 576 1273 Q683 1273 727 1327 Q752 1358 758 1427 L862 1427 Q849 1290 793 1224 Q725 1143 577 1143 Q411 1143 344 1242 Q299 1307 289 1427 Z " />
<glyph glyph-name="Aogonek" unicode="&#x104;" horiz-adv-x="1460" d="M1043 434 L410 434 L306 151 L467 151 L467 0 L0 0 L0 151 L122 151 L626 1475 L824 1475 L1334 151 L1460 151 L1460 0 Q1397 -48 1362 -83 Q1283 -160 1283 -235 Q1283 -317 1375 -317 L1459 -317 L1459 -439 L1376 -439 Q1138 -439 1138 -265 Q1138 -177 1224 -88 Q1251 -60 1329 0 L987 0 L987 151 L1149 151 L1043 434 Z M987 582 L723 1296 L465 582 L987 582 Z " />
<glyph glyph-name="aogonek" unicode="&#x105;" horiz-adv-x="1175" d="M792 582 L792 630 Q792 749 751 793 Q695 853 534 853 Q412 853 365 809 Q335 780 327 702 L164 702 Q168 852 244 920 Q330 998 536 998 Q799 998 895 888 Q945 831 961 733 Q969 685 969 593 L969 151 L1117 151 L1117 0 Q1055 -48 1020 -83 Q942 -160 942 -235 Q942 -317 1033 -317 L1116 -317 L1116 -439 L1034 -439 Q916 -439 860 -400 Q797 -357 797 -265 Q797 -176 882 -88 Q910 -59 987 0 L806 0 L806 111 Q681 -29 443 -29 Q75 -29 75 277 Q75 469 221 545 Q311 592 523 592 Q610 592 792 582 Z M795 444 Q682 456 530 456 Q374 456 319 423 Q250 381 250 283 Q250 200 300 161 Q354 119 474 119 Q665 119 753 220 Q785 256 792 301 Q795 320 795 363 L795 444 Z " />
<glyph glyph-name="Cacute" unicode="&#x106;" horiz-adv-x="1476" d="M1263 348 L1377 227 Q1281 111 1173 54 Q1013 -31 798 -31 Q438 -31 257 190 Q92 390 92 722 Q92 1081 286 1297 Q472 1506 790 1506 Q1029 1506 1185 1391 L1185 1475 L1333 1475 L1333 1044 L1177 1044 L1177 1071 Q1177 1172 1128 1228 Q1079 1284 984 1317 Q900 1347 792 1347 Q538 1347 401 1161 Q276 991 276 723 Q276 451 417 286 Q549 130 803 130 Q982 130 1119 216 Q1170 249 1263 348 Z M692 1596 L874 1920 L1070 1920 L816 1596 L692 1596 Z " />
<glyph glyph-name="cacute" unicode="&#x107;" horiz-adv-x="1027" d="M897 248 L990 127 Q820 -29 559 -29 Q340 -29 215 95 Q80 229 80 475 Q80 712 203 854 Q327 998 537 998 Q686 998 796 914 L796 969 L933 969 L933 637 L785 637 L785 667 Q785 747 745 784 Q678 848 559 848 Q409 848 330 741 Q257 642 257 479 Q257 303 351 207 Q432 123 572 123 Q749 123 897 248 Z M452 1118 L660 1467 L855 1467 L576 1118 L452 1118 Z " />
<glyph glyph-name="Ccircumflex" unicode="&#x108;" horiz-adv-x="1476" d="M1263 348 L1377 227 Q1281 111 1173 54 Q1013 -31 798 -31 Q438 -31 257 190 Q92 390 92 722 Q92 1081 286 1297 Q472 1506 790 1506 Q1029 1506 1185 1391 L1185 1475 L1333 1475 L1333 1044 L1177 1044 L1177 1071 Q1177 1172 1128 1228 Q1079 1284 984 1317 Q900 1347 792 1347 Q538 1347 401 1161 Q276 991 276 723 Q276 451 417 286 Q549 130 803 130 Q982 130 1119 216 Q1170 249 1263 348 Z M790 1809 L628 1596 L504 1596 L701 1920 L879 1920 L1074 1596 L951 1596 L790 1809 Z " />
<glyph glyph-name="ccircumflex" unicode="&#x109;" horiz-adv-x="1027" d="M897 248 L990 127 Q820 -29 559 -29 Q340 -29 215 95 Q80 229 80 475 Q80 712 203 854 Q327 998 537 998 Q686 998 796 914 L796 969 L933 969 L933 637 L785 637 L785 667 Q785 747 745 784 Q678 848 559 848 Q409 848 330 741 Q257 642 257 479 Q257 303 351 207 Q432 123 572 123 Q749 123 897 248 Z M557 1356 L383 1118 L259 1118 L469 1467 L646 1467 L855 1118 L731 1118 L557 1356 Z " />
<glyph glyph-name="Cdotaccent" unicode="&#x10a;" horiz-adv-x="1476" d="M1263 348 L1377 227 Q1281 111 1173 54 Q1013 -31 798 -31 Q438 -31 257 190 Q92 390 92 722 Q92 1081 286 1297 Q472 1506 790 1506 Q1029 1506 1185 1391 L1185 1475 L1333 1475 L1333 1044 L1177 1044 L1177 1071 Q1177 1172 1128 1228 Q1079 1284 984 1317 Q900 1347 792 1347 Q538 1347 401 1161 Q276 991 276 723 Q276 451 417 286 Q549 130 803 130 Q982 130 1119 216 Q1170 249 1263 348 Z M703 1646 L703 1850 L902 1850 L902 1646 L703 1646 Z " />
<glyph glyph-name="cdotaccent" unicode="&#x10b;" horiz-adv-x="1027" d="M897 248 L990 127 Q820 -29 559 -29 Q340 -29 215 95 Q80 229 80 475 Q80 712 203 854 Q327 998 537 998 Q686 998 796 914 L796 969 L933 969 L933 637 L785 637 L785 667 Q785 747 745 784 Q678 848 559 848 Q409 848 330 741 Q257 642 257 479 Q257 303 351 207 Q432 123 572 123 Q749 123 897 248 Z M457 1168 L457 1372 L656 1372 L656 1168 L457 1168 Z " />
<glyph glyph-name="Ccaron" unicode="&#x10c;" horiz-adv-x="1476" d="M1263 348 L1377 227 Q1281 111 1173 54 Q1013 -31 798 -31 Q438 -31 257 190 Q92 390 92 722 Q92 1081 286 1297 Q472 1506 790 1506 Q1029 1506 1185 1391 L1185 1475 L1333 1475 L1333 1044 L1177 1044 L1177 1071 Q1177 1172 1128 1228 Q1079 1284 984 1317 Q900 1347 792 1347 Q538 1347 401 1161 Q276 991 276 723 Q276 451 417 286 Q549 130 803 130 Q982 130 1119 216 Q1170 249 1263 348 Z M809 1707 L970 1920 L1094 1920 L897 1596 L720 1596 L524 1920 L646 1920 L809 1707 Z " />
<glyph glyph-name="ccaron" unicode="&#x10d;" horiz-adv-x="1027" d="M897 248 L990 127 Q820 -29 559 -29 Q340 -29 215 95 Q80 229 80 475 Q80 712 203 854 Q327 998 537 998 Q686 998 796 914 L796 969 L933 969 L933 637 L785 637 L785 667 Q785 747 745 784 Q678 848 559 848 Q409 848 330 741 Q257 642 257 479 Q257 303 351 207 Q432 123 572 123 Q749 123 897 248 Z M567 1229 L741 1467 L865 1467 L656 1118 L479 1118 L269 1467 L393 1467 L567 1229 Z " />
<glyph glyph-name="Dcaron" unicode="&#x10e;" horiz-adv-x="1496" d="M226 151 L226 1324 L82 1324 L82 1475 L613 1475 Q961 1475 1166 1307 Q1403 1112 1403 738 Q1403 363 1166 168 Q961 0 613 0 L82 0 L82 151 L226 151 Z M406 151 L601 151 Q873 151 1033 281 Q1219 432 1219 738 Q1219 1042 1034 1194 Q874 1324 601 1324 L406 1324 L406 151 Z M641 1707 L802 1920 L926 1920 L729 1596 L552 1596 L356 1920 L478 1920 L641 1707 Z " />
<glyph glyph-name="dcaron" unicode="&#x10f;" horiz-adv-x="1497" d="M900 0 L900 151 Q850 93 821 68 Q708 -29 541 -29 Q333 -29 204 117 Q80 258 80 485 Q80 712 204 852 Q333 998 541 998 Q700 998 810 910 Q845 881 888 828 L888 1324 L718 1324 L718 1475 L1062 1475 L1062 151 L1210 151 L1210 0 L900 0 Z M567 847 Q428 847 341 746 Q257 648 257 485 Q257 332 331 235 Q418 122 568 122 Q719 122 808 236 Q888 338 888 480 Q888 634 808 733 Q716 847 567 847 Z M1233 1030 L1343 1475 L1538 1475 L1365 1030 L1233 1030 Z " />
<glyph glyph-name="Dcroat" unicode="&#x110;" horiz-adv-x="1468" d="M227 151 L227 711 L10 711 L10 848 L227 848 L227 1324 L82 1324 L82 1475 L585 1475 Q933 1475 1138 1307 Q1375 1111 1375 737 Q1375 363 1138 168 Q933 0 585 0 L82 0 L82 151 L227 151 Z M407 151 L574 151 Q845 151 1005 281 Q1191 432 1191 737 Q1191 1042 1006 1194 Q846 1324 574 1324 L407 1324 L407 848 L808 848 L808 711 L407 711 L407 151 Z " />
<glyph glyph-name="dcroat" unicode="&#x111;" horiz-adv-x="1274" d="M888 1115 L574 1115 L574 1218 L888 1218 L888 1340 L718 1340 L718 1475 L1062 1475 L1062 1218 L1226 1218 L1226 1115 L1062 1115 L1062 151 L1210 151 L1210 0 L900 0 L900 151 Q849 92 821 68 Q708 -29 541 -29 Q333 -29 204 117 Q80 258 80 485 Q80 712 204 852 Q333 998 540 998 Q701 998 810 910 Q844 882 888 828 L888 1115 Z M567 847 Q428 847 341 746 Q257 648 257 485 Q257 332 331 235 Q418 122 568 122 Q719 122 808 236 Q888 338 888 480 Q888 634 808 733 Q716 847 567 847 Z " />
<glyph glyph-name="Emacron" unicode="&#x112;" horiz-adv-x="1211" d="M226 151 L226 1324 L82 1324 L82 1475 L1104 1475 L1104 1116 L948 1116 L948 1324 L406 1324 L406 842 L892 842 L892 691 L406 691 L406 151 L958 151 L958 400 L1114 400 L1114 0 L82 0 L82 151 L226 151 Z M354 1680 L354 1818 L884 1818 L884 1680 L354 1680 Z " />
<glyph glyph-name="emacron" unicode="&#x113;" horiz-adv-x="1136" d="M1060 435 L260 435 Q273 328 311 267 Q401 122 593 122 Q718 122 836 176 Q884 197 955 243 L1041 113 Q826 -30 591 -30 Q355 -30 215 117 Q79 259 79 485 Q79 711 213 853 Q348 998 574 998 Q758 998 883 893 Q1058 746 1060 435 Z M875 574 Q858 672 816 731 Q730 851 570 851 Q394 851 311 708 Q279 652 264 574 L875 574 Z M315 1203 L315 1341 L845 1341 L845 1203 L315 1203 Z " />
<glyph glyph-name="Ebreve" unicode="&#x114;" horiz-adv-x="1211" d="M226 151 L226 1324 L82 1324 L82 1475 L1104 1475 L1104 1116 L948 1116 L948 1324 L406 1324 L406 842 L892 842 L892 691 L406 691 L406 151 L958 151 L958 400 L1114 400 L1114 0 L82 0 L82 151 L226 151 Z M348 1904 L451 1904 Q457 1829 491 1796 Q537 1750 635 1750 Q742 1750 786 1804 Q811 1835 817 1904 L921 1904 Q908 1767 852 1700 Q784 1619 636 1619 Q470 1619 403 1718 Q358 1784 348 1904 Z " />
<glyph glyph-name="ebreve" unicode="&#x115;" horiz-adv-x="1136" d="M1060 435 L260 435 Q273 328 311 267 Q401 122 593 122 Q718 122 836 176 Q884 197 955 243 L1041 113 Q826 -30 591 -30 Q355 -30 215 117 Q79 259 79 485 Q79 711 213 853 Q348 998 574 998 Q758 998 883 893 Q1058 746 1060 435 Z M875 574 Q858 672 816 731 Q730 851 570 851 Q394 851 311 708 Q279 652 264 574 L875 574 Z M292 1427 L395 1427 Q401 1352 435 1319 Q481 1273 579 1273 Q686 1273 730 1327 Q755 1358 761 1427 L865 1427 Q852 1290 796 1224 Q728 1143 580 1143 Q414 1143 347 1242 Q302 1307 292 1427 Z " />
<glyph glyph-name="Edotaccent" unicode="&#x116;" horiz-adv-x="1211" d="M226 151 L226 1324 L82 1324 L82 1475 L1104 1475 L1104 1116 L948 1116 L948 1324 L406 1324 L406 842 L892 842 L892 691 L406 691 L406 151 L958 151 L958 400 L1114 400 L1114 0 L82 0 L82 151 L226 151 Z M553 1646 L553 1850 L752 1850 L752 1646 L553 1646 Z " />
<glyph glyph-name="edotaccent" unicode="&#x117;" horiz-adv-x="1136" d="M1060 435 L260 435 Q273 328 311 267 Q401 122 593 122 Q718 122 836 176 Q884 197 955 243 L1041 113 Q826 -30 591 -30 Q355 -30 215 117 Q79 259 79 485 Q79 711 213 853 Q348 998 574 998 Q758 998 883 893 Q1058 746 1060 435 Z M875 574 Q858 672 816 731 Q730 851 570 851 Q394 851 311 708 Q279 652 264 574 L875 574 Z M476 1168 L476 1372 L675 1372 L675 1168 L476 1168 Z " />
<glyph glyph-name="Eogonek" unicode="&#x118;" horiz-adv-x="1211" d="M226 151 L226 1324 L82 1324 L82 1475 L1104 1475 L1104 1116 L948 1116 L948 1324 L406 1324 L406 842 L892 842 L892 691 L406 691 L406 151 L958 151 L958 400 L1114 400 L1114 0 Q1021 -73 988 -114 Q938 -174 938 -235 Q938 -275 957 -295 Q977 -317 1029 -317 L1113 -317 L1113 -439 L1030 -439 Q793 -439 793 -265 Q793 -177 879 -88 Q914 -52 983 0 L82 0 L82 151 L226 151 Z " />
<glyph glyph-name="eogonek" unicode="&#x119;" horiz-adv-x="1136" d="M1060 435 L261 435 Q273 328 311 267 Q401 122 593 122 Q719 122 837 176 Q884 197 955 243 L1042 113 Q943 48 864 19 Q779 -12 670 -25 Q607 -76 576 -113 Q526 -174 526 -235 Q526 -274 546 -295 Q565 -317 618 -317 L701 -317 L701 -439 L619 -439 Q500 -439 444 -400 Q381 -357 381 -265 Q381 -151 535 -27 Q386 -15 277 63 Q79 206 79 485 Q79 711 213 853 Q348 998 574 998 Q759 998 884 893 Q1059 746 1060 435 Z M876 574 Q859 672 816 731 Q730 851 571 851 Q395 851 311 708 Q279 652 265 574 L876 574 Z " />
<glyph glyph-name="Ecaron" unicode="&#x11a;" horiz-adv-x="1211" d="M226 151 L226 1324 L82 1324 L82 1475 L1104 1475 L1104 1116 L948 1116 L948 1324 L406 1324 L406 842 L892 842 L892 691 L406 691 L406 151 L958 151 L958 400 L1114 400 L1114 0 L82 0 L82 151 L226 151 Z M639 1707 L800 1920 L924 1920 L727 1596 L550 1596 L354 1920 L476 1920 L639 1707 Z " />
<glyph glyph-name="ecaron" unicode="&#x11b;" horiz-adv-x="1136" d="M1060 435 L260 435 Q273 328 311 267 Q401 122 593 122 Q718 122 836 176 Q884 197 955 243 L1041 113 Q826 -30 591 -30 Q355 -30 215 117 Q79 259 79 485 Q79 711 213 853 Q348 998 574 998 Q758 998 883 893 Q1058 746 1060 435 Z M875 574 Q858 672 816 731 Q730 851 570 851 Q394 851 311 708 Q279 652 264 574 L875 574 Z M575 1229 L749 1467 L873 1467 L664 1118 L487 1118 L277 1467 L401 1467 L575 1229 Z " />
<glyph glyph-name="Gcircumflex" unicode="&#x11c;" horiz-adv-x="1663" d="M806 571 L806 722 L1482 722 L1482 59 Q1220 -31 887 -31 Q625 -31 451 63 Q273 160 181 338 Q92 508 92 730 Q92 1106 346 1329 Q545 1505 861 1505 Q1121 1505 1284 1391 L1284 1475 L1432 1475 L1432 1044 L1276 1044 L1276 1071 Q1276 1170 1226 1226 Q1174 1285 1068 1320 Q985 1347 870 1347 Q596 1347 437 1177 Q276 1006 276 732 Q276 451 447 282 Q604 127 901 127 Q1105 127 1314 193 L1314 571 L806 571 Z M876 1809 L714 1596 L590 1596 L787 1920 L965 1920 L1160 1596 L1037 1596 L876 1809 Z " />
<glyph glyph-name="gcircumflex" unicode="&#x11d;" horiz-adv-x="1273" d="M888 154 Q842 102 811 77 Q702 -11 542 -11 Q333 -11 204 131 Q80 268 80 489 Q80 710 201 850 Q330 998 543 998 Q707 998 817 906 Q853 877 900 818 L900 969 L1224 969 L1224 818 L1062 818 L1062 95 Q1062 -157 990 -272 Q878 -452 574 -452 Q339 -452 240 -359 Q165 -288 158 -139 L322 -139 Q330 -214 366 -250 Q423 -306 579 -306 Q772 -306 840 -186 Q875 -126 884 -38 Q888 7 888 81 L888 154 Z M567 847 Q428 847 341 747 Q257 651 257 490 Q257 342 331 249 Q418 140 568 140 Q718 140 808 248 Q888 344 888 483 Q888 633 808 733 Q717 847 567 847 Z M621 1356 L447 1118 L323 1118 L533 1467 L710 1467 L919 1118 L795 1118 L621 1356 Z " />
<glyph glyph-name="Gbreve" unicode="&#x11e;" horiz-adv-x="1663" d="M806 571 L806 722 L1482 722 L1482 59 Q1220 -31 887 -31 Q625 -31 451 63 Q273 160 181 338 Q92 508 92 730 Q92 1106 346 1329 Q545 1505 861 1505 Q1121 1505 1284 1391 L1284 1475 L1432 1475 L1432 1044 L1276 1044 L1276 1071 Q1276 1170 1226 1226 Q1174 1285 1068 1320 Q985 1347 870 1347 Q596 1347 437 1177 Q276 1006 276 732 Q276 451 447 282 Q604 127 901 127 Q1105 127 1314 193 L1314 571 L806 571 Z M579 1904 L682 1904 Q688 1829 722 1796 Q768 1750 866 1750 Q973 1750 1017 1804 Q1042 1835 1048 1904 L1152 1904 Q1139 1767 1083 1700 Q1015 1619 867 1619 Q701 1619 634 1718 Q589 1784 579 1904 Z " />
<glyph glyph-name="gbreve" unicode="&#x11f;" horiz-adv-x="1273" d="M888 154 Q842 102 811 77 Q702 -11 542 -11 Q333 -11 204 131 Q80 268 80 489 Q80 710 201 850 Q330 998 543 998 Q707 998 817 906 Q853 877 900 818 L900 969 L1224 969 L1224 818 L1062 818 L1062 95 Q1062 -157 990 -272 Q878 -452 574 -452 Q339 -452 240 -359 Q165 -288 158 -139 L322 -139 Q330 -214 366 -250 Q423 -306 579 -306 Q772 -306 840 -186 Q875 -126 884 -38 Q888 7 888 81 L888 154 Z M567 847 Q428 847 341 747 Q257 651 257 490 Q257 342 331 249 Q418 140 568 140 Q718 140 808 248 Q888 344 888 483 Q888 633 808 733 Q717 847 567 847 Z M356 1427 L459 1427 Q465 1352 499 1319 Q545 1273 643 1273 Q750 1273 794 1327 Q819 1358 825 1427 L929 1427 Q916 1290 860 1224 Q792 1143 644 1143 Q478 1143 411 1242 Q366 1307 356 1427 Z " />
<glyph glyph-name="Gdotaccent" unicode="&#x120;" horiz-adv-x="1663" d="M806 571 L806 722 L1482 722 L1482 59 Q1220 -31 887 -31 Q625 -31 451 63 Q273 160 181 338 Q92 508 92 730 Q92 1106 346 1329 Q545 1505 861 1505 Q1121 1505 1284 1391 L1284 1475 L1432 1475 L1432 1044 L1276 1044 L1276 1071 Q1276 1170 1226 1226 Q1174 1285 1068 1320 Q985 1347 870 1347 Q596 1347 437 1177 Q276 1006 276 732 Q276 451 447 282 Q604 127 901 127 Q1105 127 1314 193 L1314 571 L806 571 Z M767 1646 L767 1850 L966 1850 L966 1646 L767 1646 Z " />
<glyph glyph-name="gdotaccent" unicode="&#x121;" horiz-adv-x="1273" d="M888 154 Q842 102 811 77 Q702 -11 542 -11 Q333 -11 204 131 Q80 268 80 489 Q80 710 201 850 Q330 998 543 998 Q707 998 817 906 Q853 877 900 818 L900 969 L1224 969 L1224 818 L1062 818 L1062 95 Q1062 -157 990 -272 Q878 -452 574 -452 Q339 -452 240 -359 Q165 -288 158 -139 L322 -139 Q330 -214 366 -250 Q423 -306 579 -306 Q772 -306 840 -186 Q875 -126 884 -38 Q888 7 888 81 L888 154 Z M567 847 Q428 847 341 747 Q257 651 257 490 Q257 342 331 249 Q418 140 568 140 Q718 140 808 248 Q888 344 888 483 Q888 633 808 733 Q717 847 567 847 Z M539 1168 L539 1372 L738 1372 L738 1168 L539 1168 Z " />
<glyph glyph-name="Gcommaaccent" unicode="&#x122;" horiz-adv-x="1663" d="M806 571 L806 722 L1482 722 L1482 59 Q1220 -31 887 -31 Q625 -31 451 63 Q273 160 181 338 Q92 508 92 730 Q92 1106 346 1329 Q545 1505 861 1505 Q1121 1505 1284 1391 L1284 1475 L1432 1475 L1432 1044 L1276 1044 L1276 1071 Q1276 1170 1226 1226 Q1174 1285 1068 1320 Q985 1347 870 1347 Q596 1347 437 1177 Q276 1006 276 732 Q276 451 447 282 Q604 127 901 127 Q1105 127 1314 193 L1314 571 L806 571 Z M619 -476 L784 -127 L979 -127 L743 -476 L619 -476 Z " />
<glyph glyph-name="gcommaaccent" unicode="&#x123;" horiz-adv-x="1273" d="M888 154 Q842 102 811 77 Q702 -11 542 -11 Q333 -11 204 131 Q80 268 80 489 Q80 710 201 850 Q330 998 543 998 Q707 998 817 906 Q853 877 900 818 L900 969 L1224 969 L1224 818 L1062 818 L1062 95 Q1062 -157 990 -272 Q878 -452 574 -452 Q339 -452 240 -359 Q165 -288 158 -139 L322 -139 Q330 -214 366 -250 Q423 -306 579 -306 Q772 -306 840 -186 Q875 -126 884 -38 Q888 7 888 81 L888 154 Z M567 847 Q428 847 341 747 Q257 651 257 490 Q257 342 331 249 Q418 140 568 140 Q718 140 808 248 Q888 344 888 483 Q888 633 808 733 Q717 847 567 847 Z M893 1467 L686 1118 L490 1118 L769 1467 L893 1467 Z " />
<glyph glyph-name="Hcircumflex" unicode="&#x124;" horiz-adv-x="1473" d="M226 151 L226 1324 L82 1324 L82 1475 L557 1475 L557 1324 L406 1324 L406 851 L1066 851 L1066 1324 L915 1324 L915 1475 L1390 1475 L1390 1324 L1246 1324 L1246 151 L1390 151 L1390 0 L915 0 L915 151 L1066 151 L1066 700 L406 700 L406 151 L557 151 L557 0 L82 0 L82 151 L226 151 Z M736 1809 L574 1596 L450 1596 L647 1920 L825 1920 L1020 1596 L897 1596 L736 1809 Z " />
<glyph glyph-name="hcircumflex" unicode="&#x125;" horiz-adv-x="1267" d="M219 151 L219 1324 L69 1324 L69 1475 L393 1475 L393 816 Q473 890 528 926 Q639 998 763 998 Q943 998 1012 868 Q1047 803 1056 703 Q1061 654 1061 561 L1061 151 L1209 151 L1209 0 L752 0 L752 151 L887 151 L887 570 Q887 691 867 747 Q834 839 719 839 Q622 839 516 759 Q477 729 393 640 L393 151 L533 151 L533 0 L69 0 L69 151 L219 151 Z M293 1809 L131 1596 L7 1596 L204 1920 L382 1920 L577 1596 L454 1596 L293 1809 Z " />
<glyph glyph-name="Hbar" unicode="&#x126;" horiz-adv-x="1473" d="M83 0 L83 151 L227 151 L227 1007 L75 1007 L75 1105 L227 1105 L227 1324 L83 1324 L83 1475 L558 1475 L558 1324 L407 1324 L407 1105 L1067 1105 L1067 1324 L916 1324 L916 1475 L1391 1475 L1391 1324 L1247 1324 L1247 1105 L1399 1105 L1399 1007 L1247 1007 L1247 151 L1391 151 L1391 0 L916 0 L916 151 L1067 151 L1067 701 L407 701 L407 151 L558 151 L558 0 L83 0 Z M407 840 L1067 840 L1067 1007 L407 1007 L407 840 Z " />
<glyph glyph-name="hbar" unicode="&#x127;" horiz-adv-x="1267" d="M218 1115 L52 1115 L52 1218 L218 1218 L218 1340 L68 1340 L68 1475 L392 1475 L392 1218 L704 1218 L704 1115 L392 1115 L392 816 Q472 891 527 926 Q638 998 762 998 Q942 998 1011 868 Q1045 804 1055 703 Q1060 654 1060 561 L1060 151 L1208 151 L1208 0 L751 0 L751 151 L886 151 L886 570 Q886 691 866 747 Q834 839 718 839 Q621 839 515 759 Q476 729 392 640 L392 151 L532 151 L532 0 L68 0 L68 151 L218 151 L218 1115 Z " />
<glyph glyph-name="Itilde" unicode="&#x128;" horiz-adv-x="639" d="M229 151 L229 1324 L85 1324 L85 1475 L554 1475 L554 1324 L409 1324 L409 151 L554 151 L554 0 L85 0 L85 151 L229 151 Z M126 1648 L13 1648 Q59 1853 213 1853 Q270 1853 352 1808 Q425 1768 449 1768 Q501 1768 536 1852 L650 1852 Q624 1759 588 1712 Q535 1642 442 1642 Q379 1642 269 1704 Q228 1727 206 1727 Q157 1727 126 1648 Z " />
<glyph glyph-name="itilde" unicode="&#x129;" horiz-adv-x="606" d="M230 151 L230 818 L79 818 L79 969 L404 969 L404 151 L551 151 L551 0 L73 0 L73 151 L230 151 Z M104 1171 L-4 1171 Q40 1375 188 1375 Q232 1375 278 1353 Q299 1343 361 1308 Q393 1290 415 1290 Q465 1290 499 1374 L607 1374 Q582 1280 549 1234 Q498 1165 407 1165 Q365 1165 324 1183 Q292 1198 242 1226 Q203 1249 181 1249 Q135 1249 104 1171 Z " />
<glyph glyph-name="Imacron" unicode="&#x12a;" horiz-adv-x="639" d="M229 151 L229 1324 L85 1324 L85 1475 L554 1475 L554 1324 L409 1324 L409 151 L554 151 L554 0 L85 0 L85 151 L229 151 Z M54 1680 L54 1818 L584 1818 L584 1680 L54 1680 Z " />
<glyph glyph-name="imacron" unicode="&#x12b;" horiz-adv-x="606" d="M231 151 L231 818 L80 818 L80 969 L405 969 L405 151 L552 151 L552 0 L74 0 L74 151 L231 151 Z M13 1203 L13 1341 L543 1341 L543 1203 L13 1203 Z " />
<glyph glyph-name="Ibreve" unicode="&#x12c;" horiz-adv-x="639" d="M229 151 L229 1324 L85 1324 L85 1475 L554 1475 L554 1324 L409 1324 L409 151 L554 151 L554 0 L85 0 L85 151 L229 151 Z M33 1904 L136 1904 Q142 1829 176 1796 Q222 1750 320 1750 Q427 1750 471 1804 Q496 1835 502 1904 L606 1904 Q593 1767 537 1700 Q469 1619 321 1619 Q155 1619 88 1718 Q43 1784 33 1904 Z " />
<glyph glyph-name="ibreve" unicode="&#x12d;" horiz-adv-x="606" d="M230 151 L230 818 L79 818 L79 969 L404 969 L404 151 L551 151 L551 0 L73 0 L73 151 L230 151 Z M2 1427 L105 1427 Q111 1352 145 1319 Q191 1273 289 1273 Q396 1273 440 1327 Q465 1358 471 1427 L575 1427 Q562 1290 506 1224 Q438 1143 290 1143 Q124 1143 57 1242 Q12 1307 2 1427 Z " />
<glyph glyph-name="Iogonek" unicode="&#x12e;" horiz-adv-x="639" d="M229 151 L229 1324 L85 1324 L85 1475 L554 1475 L554 1324 L409 1324 L409 151 L554 151 L554 0 Q463 -71 427 -114 Q377 -174 377 -235 Q377 -274 396 -295 Q416 -317 469 -317 L553 -317 L553 -439 L470 -439 Q232 -439 232 -265 Q232 -177 317 -88 Q345 -59 423 0 L85 0 L85 151 L229 151 Z " />
<glyph glyph-name="iogonek" unicode="&#x12f;" horiz-adv-x="606" d="M230 151 L230 818 L79 818 L79 969 L404 969 L404 151 L551 151 L551 0 Q461 -69 424 -114 Q374 -175 374 -236 Q374 -317 466 -317 L550 -317 L550 -439 L467 -439 Q348 -439 292 -400 Q229 -357 229 -265 Q229 -177 314 -88 Q344 -58 420 0 L73 0 L73 151 L230 151 Z M216 1168 L216 1372 L415 1372 L415 1168 L216 1168 Z " />
<glyph glyph-name="Idotaccent" unicode="&#x130;" horiz-adv-x="639" d="M229 151 L229 1324 L85 1324 L85 1475 L554 1475 L554 1324 L409 1324 L409 151 L554 151 L554 0 L85 0 L85 151 L229 151 Z M220 1646 L220 1850 L419 1850 L419 1646 L220 1646 Z " />
<glyph glyph-name="IJ" unicode="&#x132;" horiz-adv-x="1272" d="M229 151 L229 1324 L85 1324 L85 1475 L554 1475 L554 1324 L409 1324 L409 151 L554 151 L554 0 L85 0 L85 151 L229 151 Z M869 1324 L718 1324 L718 1475 L1193 1475 L1193 1324 L1049 1324 L1049 135 Q1049 -25 1021 -103 Q973 -237 832 -279 Q776 -296 682 -300 L682 -149 Q791 -140 828 -91 Q855 -55 864 5 Q869 41 869 124 L869 1324 Z " />
<glyph glyph-name="ij" unicode="&#x133;" horiz-adv-x="1187" d="M230 151 L230 818 L79 818 L79 969 L404 969 L404 151 L551 151 L551 0 L73 0 L73 151 L230 151 Z M216 1164 L216 1368 L415 1368 L415 1164 L216 1164 Z M674 818 L674 969 L1001 969 L1001 -33 Q1001 -177 974 -246 Q928 -364 794 -403 Q743 -418 656 -422 L656 -271 Q755 -263 790 -219 Q814 -188 822 -140 Q827 -110 827 -38 L827 818 L674 818 Z M814 1164 L814 1368 L1013 1368 L1013 1164 L814 1164 Z " />
<glyph glyph-name="Jcircumflex" unicode="&#x134;" horiz-adv-x="634" d="M228 1324 L77 1324 L77 1475 L552 1475 L552 1324 L408 1324 L408 135 Q408 -25 380 -103 Q332 -237 191 -279 Q135 -296 41 -300 L41 -149 Q150 -140 187 -91 Q214 -55 223 5 Q228 41 228 124 L228 1324 Z M315 1809 L153 1596 L29 1596 L226 1920 L404 1920 L599 1596 L476 1596 L315 1809 Z " />
<glyph glyph-name="jcircumflex" unicode="&#x135;" horiz-adv-x="581" d="M68 818 L68 969 L395 969 L395 -33 Q395 -177 368 -246 Q322 -364 188 -403 Q137 -418 50 -422 L50 -271 Q149 -263 184 -219 Q208 -188 216 -140 Q221 -108 221 -38 L221 818 L68 818 Z M266 1356 L92 1118 L-32 1118 L178 1467 L355 1467 L564 1118 L440 1118 L266 1356 Z " />
<glyph glyph-name="Kcommaaccent" unicode="&#x136;" horiz-adv-x="1264" d="M226 151 L226 1324 L82 1324 L82 1475 L543 1475 L543 1324 L406 1324 L406 791 L896 1324 L767 1324 L767 1475 L1211 1475 L1211 1324 L1104 1324 L603 784 L1131 151 L1270 151 L1270 0 L785 0 L785 151 L916 151 L406 761 L406 151 L537 151 L537 0 L82 0 L82 151 L226 151 Z M407 -476 L572 -127 L767 -127 L531 -476 L407 -476 Z " />
<glyph glyph-name="kcommaaccent" unicode="&#x137;" horiz-adv-x="1085" d="M216 151 L216 1324 L65 1324 L65 1475 L390 1475 L390 562 L710 829 L588 829 L588 969 L1025 969 L1025 820 L912 820 L592 548 L989 151 L1098 151 L1098 0 L674 0 L674 143 L785 143 L390 544 L390 143 L517 143 L517 0 L65 0 L65 151 L216 151 Z M341 -476 L506 -127 L701 -127 L465 -476 L341 -476 Z " />
<glyph glyph-name="kgreenlandic" unicode="&#x138;" horiz-adv-x="1085" d="M216 151 L216 818 L65 818 L65 969 L390 969 L390 561 L710 829 L588 829 L588 969 L1025 969 L1025 820 L912 820 L592 548 L989 151 L1098 151 L1098 0 L674 0 L674 143 L785 143 L390 544 L390 143 L517 143 L517 0 L65 0 L65 151 L216 151 Z " />
<glyph glyph-name="Lacute" unicode="&#x139;" horiz-adv-x="1151" d="M226 151 L226 1324 L82 1324 L82 1475 L566 1475 L566 1324 L406 1324 L406 151 L922 151 L922 412 L1078 412 L1078 0 L82 0 L82 151 L226 151 Z M282 1596 L464 1920 L660 1920 L406 1596 L282 1596 Z " />
<glyph glyph-name="lacute" unicode="&#x13a;" horiz-adv-x="603" d="M226 151 L226 1324 L75 1324 L75 1475 L400 1475 L400 151 L547 151 L547 0 L69 0 L69 151 L226 151 Z M193 1596 L376 1920 L571 1920 L317 1596 L193 1596 Z " />
<glyph glyph-name="Lcommaaccent" unicode="&#x13b;" horiz-adv-x="1151" d="M226 151 L226 1324 L82 1324 L82 1475 L566 1475 L566 1324 L406 1324 L406 151 L922 151 L922 412 L1078 412 L1078 0 L82 0 L82 151 L226 151 Z M351 -476 L516 -127 L711 -127 L475 -476 L351 -476 Z " />
<glyph glyph-name="lcommaaccent" unicode="&#x13c;" horiz-adv-x="603" d="M220 151 L220 1324 L69 1324 L69 1475 L394 1475 L394 151 L541 151 L541 0 L63 0 L63 151 L220 151 Z M62 -476 L227 -127 L422 -127 L186 -476 L62 -476 Z " />
<glyph glyph-name="Lcaron" unicode="&#x13d;" horiz-adv-x="1151" d="M226 151 L226 1324 L82 1324 L82 1475 L566 1475 L566 1324 L406 1324 L406 151 L922 151 L922 412 L1078 412 L1078 0 L82 0 L82 151 L226 151 Z M661 1030 L771 1475 L966 1475 L793 1030 L661 1030 Z " />
<glyph glyph-name="lcaron" unicode="&#x13e;" horiz-adv-x="826" d="M226 151 L226 1324 L75 1324 L75 1475 L400 1475 L400 151 L547 151 L547 0 L69 0 L69 151 L226 151 Z M562 1030 L672 1475 L867 1475 L694 1030 L562 1030 Z " />
<glyph glyph-name="Ldot" unicode="&#x13f;" horiz-adv-x="1151" d="M226 151 L226 1324 L82 1324 L82 1475 L566 1475 L566 1324 L406 1324 L406 151 L922 151 L922 412 L1078 412 L1078 0 L82 0 L82 151 L226 151 Z M694 493 L694 714 L898 714 L898 493 L694 493 Z " />
<glyph glyph-name="ldot" unicode="&#x140;" horiz-adv-x="822" d="M226 151 L226 1324 L75 1324 L75 1475 L400 1475 L400 151 L547 151 L547 0 L69 0 L69 151 L226 151 Z M622 452 L622 673 L826 673 L826 452 L622 452 Z " />
<glyph glyph-name="Lslash" unicode="&#x141;" horiz-adv-x="1151" d="M226 151 L226 571 L20 436 L20 600 L226 735 L226 1324 L82 1324 L82 1475 L566 1475 L566 1324 L406 1324 L406 850 L697 1039 L697 875 L406 686 L406 151 L923 151 L923 412 L1079 412 L1079 0 L82 0 L82 151 L226 151 Z " />
<glyph glyph-name="lslash" unicode="&#x142;" horiz-adv-x="647" d="M232 151 L232 623 L23 487 L23 645 L232 781 L232 1324 L81 1324 L81 1475 L406 1475 L406 891 L615 1026 L615 868 L406 733 L406 151 L552 151 L552 0 L74 0 L74 151 L232 151 Z " />
<glyph glyph-name="Nacute" unicode="&#x143;" horiz-adv-x="1456" d="M226 151 L226 1324 L82 1324 L82 1475 L427 1475 L985 528 Q1002 498 1072 356 Q1067 487 1067 551 L1067 1324 L914 1324 L914 1475 L1379 1475 L1379 1324 L1235 1324 L1235 -24 L1110 -24 L463 1085 Q456 1098 388 1238 Q394 1107 394 1081 L394 151 L544 151 L544 0 L82 0 L82 151 L226 151 Z M637 1596 L819 1920 L1015 1920 L761 1596 L637 1596 Z " />
<glyph glyph-name="nacute" unicode="&#x144;" horiz-adv-x="1274" d="M225 151 L225 818 L75 818 L75 969 L399 969 L399 813 Q496 900 539 927 Q652 998 771 998 Q951 998 1019 868 Q1053 803 1063 702 Q1068 654 1068 561 L1068 151 L1216 151 L1216 0 L759 0 L759 151 L894 151 L894 570 Q894 691 874 747 Q841 839 726 839 Q629 839 525 760 Q478 724 399 639 L399 151 L539 151 L539 0 L75 0 L75 151 L225 151 Z M546 1118 L754 1467 L949 1467 L670 1118 L546 1118 Z " />
<glyph glyph-name="Ncommaaccent" unicode="&#x145;" horiz-adv-x="1456" d="M226 151 L226 1324 L82 1324 L82 1475 L427 1475 L985 528 Q1002 498 1072 356 Q1067 487 1067 551 L1067 1324 L914 1324 L914 1475 L1379 1475 L1379 1324 L1235 1324 L1235 -24 L1110 -24 L463 1085 Q456 1098 388 1238 Q394 1107 394 1081 L394 151 L544 151 L544 0 L82 0 L82 151 L226 151 Z M515 -476 L680 -127 L875 -127 L639 -476 L515 -476 Z " />
<glyph glyph-name="ncommaaccent" unicode="&#x146;" horiz-adv-x="1274" d="M225 151 L225 818 L75 818 L75 969 L399 969 L399 813 Q496 900 539 927 Q652 998 771 998 Q951 998 1019 868 Q1053 803 1063 702 Q1068 654 1068 561 L1068 151 L1216 151 L1216 0 L759 0 L759 151 L894 151 L894 570 Q894 691 874 747 Q841 839 726 839 Q629 839 525 760 Q478 724 399 639 L399 151 L539 151 L539 0 L75 0 L75 151 L225 151 Z M403 -476 L568 -127 L763 -127 L527 -476 L403 -476 Z " />
<glyph glyph-name="Ncaron" unicode="&#x147;" horiz-adv-x="1456" d="M226 151 L226 1324 L82 1324 L82 1475 L427 1475 L985 528 Q1002 498 1072 356 Q1067 487 1067 551 L1067 1324 L914 1324 L914 1475 L1379 1475 L1379 1324 L1235 1324 L1235 -24 L1110 -24 L463 1085 Q456 1098 388 1238 Q394 1107 394 1081 L394 151 L544 151 L544 0 L82 0 L82 151 L226 151 Z M713 1707 L874 1920 L998 1920 L801 1596 L624 1596 L428 1920 L550 1920 L713 1707 Z " />
<glyph glyph-name="ncaron" unicode="&#x148;" horiz-adv-x="1274" d="M225 151 L225 818 L75 818 L75 969 L399 969 L399 813 Q496 900 539 927 Q652 998 771 998 Q951 998 1019 868 Q1053 803 1063 702 Q1068 654 1068 561 L1068 151 L1216 151 L1216 0 L759 0 L759 151 L894 151 L894 570 Q894 691 874 747 Q841 839 726 839 Q629 839 525 760 Q478 724 399 639 L399 151 L539 151 L539 0 L75 0 L75 151 L225 151 Z M629 1229 L803 1467 L927 1467 L718 1118 L541 1118 L331 1467 L455 1467 L629 1229 Z " />
<glyph glyph-name="napostrophe" unicode="&#x149;" horiz-adv-x="1297" d="M-22 1088 L69 1475 L264 1475 L110 1088 L-22 1088 Z M247 151 L247 818 L97 818 L97 969 L421 969 L421 813 Q519 900 561 927 Q674 998 793 998 Q972 998 1041 868 Q1075 804 1085 702 Q1090 652 1090 561 L1090 151 L1238 151 L1238 0 L781 0 L781 151 L916 151 L916 570 Q916 690 896 747 Q864 839 748 839 Q651 839 547 760 Q500 724 421 639 L421 151 L561 151 L561 0 L97 0 L97 151 L247 151 Z " />
<glyph glyph-name="Eng" unicode="&#x14a;" horiz-adv-x="1456" d="M226 151 L226 1324 L82 1324 L82 1475 L427 1475 L985 528 Q1002 499 1072 356 Q1067 487 1067 551 L1067 1324 L914 1324 L914 1475 L1379 1475 L1379 1324 L1235 1324 L1235 -33 Q1235 -176 1208 -246 Q1162 -364 1028 -403 Q976 -418 889 -422 L889 -271 Q989 -263 1024 -218 Q1048 -188 1056 -139 Q1061 -109 1061 -38 L1061 62 L463 1085 Q456 1098 388 1238 Q394 1107 394 1081 L394 151 L544 151 L544 0 L82 0 L82 151 L226 151 Z " />
<glyph glyph-name="eng" unicode="&#x14b;" horiz-adv-x="1274" d="M225 151 L225 818 L75 818 L75 969 L399 969 L399 813 Q496 900 539 927 Q651 998 771 998 Q951 998 1019 868 Q1053 803 1063 702 Q1068 654 1068 561 L1068 -33 Q1068 -177 1041 -246 Q995 -364 861 -403 Q809 -418 722 -422 L722 -271 Q822 -263 857 -218 Q881 -188 889 -139 Q894 -108 894 -38 L894 570 Q894 690 874 747 Q841 839 725 839 Q629 839 525 760 Q478 724 399 639 L399 151 L539 151 L539 0 L75 0 L75 151 L225 151 Z " />
<glyph glyph-name="Omacron" unicode="&#x14c;" horiz-adv-x="1714" d="M857 1506 Q1091 1506 1280 1382 Q1468 1259 1557 1055 Q1621 907 1621 738 Q1621 439 1431 223 Q1318 95 1163 30 Q1020 -31 858 -31 Q507 -31 283 223 Q92 439 92 747 Q92 938 182 1108 Q287 1307 490 1417 Q656 1506 857 1506 Z M857 1348 Q601 1348 432 1165 Q276 995 276 746 Q276 481 432 310 Q601 127 858 127 Q1112 127 1281 310 Q1437 481 1437 738 Q1437 999 1281 1165 Q1108 1348 857 1348 Z M592 1680 L592 1818 L1122 1818 L1122 1680 L592 1680 Z " />
<glyph glyph-name="omacron" unicode="&#x14d;" horiz-adv-x="1201" d="M600 998 Q833 998 979 852 Q1120 710 1120 485 Q1120 259 979 117 Q834 -29 602 -29 Q366 -29 222 117 Q80 259 80 492 Q80 714 222 852 Q371 998 600 998 Z M600 847 Q435 847 338 733 Q257 638 257 489 Q257 332 338 236 Q434 122 601 122 Q766 122 862 236 Q943 332 943 484 Q943 639 862 733 Q763 847 600 847 Z M335 1203 L335 1341 L865 1341 L865 1203 L335 1203 Z " />
<glyph glyph-name="Obreve" unicode="&#x14e;" horiz-adv-x="1714" d="M857 1506 Q1091 1506 1280 1382 Q1468 1259 1557 1055 Q1621 907 1621 738 Q1621 439 1431 223 Q1318 95 1163 30 Q1020 -31 858 -31 Q507 -31 283 223 Q92 439 92 747 Q92 938 182 1108 Q287 1307 490 1417 Q656 1506 857 1506 Z M857 1348 Q601 1348 432 1165 Q276 995 276 746 Q276 481 432 310 Q601 127 858 127 Q1112 127 1281 310 Q1437 481 1437 738 Q1437 999 1281 1165 Q1108 1348 857 1348 Z M569 1904 L672 1904 Q678 1829 712 1796 Q758 1750 856 1750 Q963 1750 1007 1804 Q1032 1835 1038 1904 L1142 1904 Q1129 1767 1073 1700 Q1005 1619 857 1619 Q691 1619 624 1718 Q579 1784 569 1904 Z " />
<glyph glyph-name="obreve" unicode="&#x14f;" horiz-adv-x="1201" d="M600 998 Q833 998 979 852 Q1120 710 1120 485 Q1120 259 979 117 Q834 -29 602 -29 Q366 -29 222 117 Q80 259 80 492 Q80 714 222 852 Q371 998 600 998 Z M600 847 Q435 847 338 733 Q257 638 257 489 Q257 332 338 236 Q434 122 601 122 Q766 122 862 236 Q943 332 943 484 Q943 639 862 733 Q763 847 600 847 Z M313 1427 L416 1427 Q422 1352 456 1319 Q502 1273 600 1273 Q707 1273 751 1327 Q776 1358 782 1427 L886 1427 Q873 1290 817 1224 Q749 1143 601 1143 Q435 1143 368 1242 Q323 1307 313 1427 Z " />
<glyph glyph-name="Ohungarumlaut" unicode="&#x150;" horiz-adv-x="1714" d="M857 1506 Q1091 1506 1280 1382 Q1468 1259 1557 1055 Q1621 907 1621 738 Q1621 439 1431 223 Q1318 95 1163 30 Q1020 -31 858 -31 Q507 -31 283 223 Q92 439 92 747 Q92 938 182 1108 Q287 1307 490 1417 Q656 1506 857 1506 Z M857 1348 Q601 1348 432 1165 Q276 995 276 746 Q276 481 432 310 Q601 127 858 127 Q1112 127 1281 310 Q1437 481 1437 738 Q1437 999 1281 1165 Q1108 1348 857 1348 Z M651 1596 L773 1920 L944 1920 L752 1596 L651 1596 Z M913 1596 L1060 1920 L1236 1920 L1016 1596 L913 1596 Z " />
<glyph glyph-name="ohungarumlaut" unicode="&#x151;" horiz-adv-x="1201" d="M600 998 Q833 998 979 852 Q1120 710 1120 485 Q1120 259 979 117 Q834 -29 602 -29 Q366 -29 222 117 Q80 259 80 492 Q80 714 222 852 Q371 998 600 998 Z M600 847 Q435 847 338 733 Q257 638 257 489 Q257 332 338 236 Q434 122 601 122 Q766 122 862 236 Q943 332 943 484 Q943 639 862 733 Q763 847 600 847 Z M402 1118 L549 1467 L720 1467 L503 1118 L402 1118 Z M664 1118 L836 1467 L1012 1467 L767 1118 L664 1118 Z " />
<glyph glyph-name="Racute" unicode="&#x154;" horiz-adv-x="1296" d="M226 151 L226 1324 L82 1324 L82 1475 L606 1475 Q748 1475 839 1460 Q1000 1433 1085 1322 Q1164 1219 1164 1064 Q1164 878 1042 773 Q1004 741 896 693 Q953 662 986 612 Q1016 566 1051 463 L1161 151 L1299 151 L1299 0 L1009 0 L888 371 Q855 472 829 515 Q782 591 723 615 Q667 637 550 637 L406 637 L406 151 L577 151 L577 0 L82 0 L82 151 L226 151 Z M406 785 L588 785 Q783 785 866 837 Q980 907 980 1056 Q980 1202 873 1272 Q793 1324 601 1324 L406 1324 L406 785 Z M533 1596 L715 1920 L911 1920 L657 1596 L533 1596 Z " />
<glyph glyph-name="racute" unicode="&#x155;" horiz-adv-x="817" d="M225 151 L225 818 L75 818 L75 969 L394 969 L394 809 Q477 912 537 947 Q622 998 737 998 L778 998 L778 831 L741 831 Q658 831 610 814 Q531 787 460 699 Q444 678 399 611 L399 151 L554 151 L554 0 L75 0 L75 151 L225 151 Z M334 1118 L542 1467 L737 1467 L458 1118 L334 1118 Z " />
<glyph glyph-name="Rcommaaccent" unicode="&#x156;" horiz-adv-x="1296" d="M226 151 L226 1324 L82 1324 L82 1475 L606 1475 Q748 1475 839 1460 Q1000 1433 1085 1322 Q1164 1219 1164 1064 Q1164 878 1042 773 Q1004 741 896 693 Q953 662 986 612 Q1016 566 1051 463 L1161 151 L1299 151 L1299 0 L1009 0 L888 371 Q855 472 829 515 Q782 591 723 615 Q667 637 550 637 L406 637 L406 151 L577 151 L577 0 L82 0 L82 151 L226 151 Z M406 785 L588 785 Q783 785 866 837 Q980 907 980 1056 Q980 1202 873 1272 Q793 1324 601 1324 L406 1324 L406 785 Z M469 -476 L634 -127 L829 -127 L593 -476 L469 -476 Z " />
<glyph glyph-name="rcommaaccent" unicode="&#x157;" horiz-adv-x="817" d="M225 151 L225 818 L75 818 L75 969 L394 969 L394 809 Q477 912 537 947 Q622 998 737 998 L778 998 L778 831 L741 831 Q658 831 610 814 Q531 787 460 699 Q444 678 399 611 L399 151 L554 151 L554 0 L75 0 L75 151 L225 151 Z M83 -476 L248 -127 L443 -127 L207 -476 L83 -476 Z " />
<glyph glyph-name="Rcaron" unicode="&#x158;" horiz-adv-x="1296" d="M226 151 L226 1324 L82 1324 L82 1475 L606 1475 Q748 1475 839 1460 Q1000 1433 1085 1322 Q1164 1219 1164 1064 Q1164 878 1042 773 Q1004 741 896 693 Q953 662 986 612 Q1016 566 1051 463 L1161 151 L1299 151 L1299 0 L1009 0 L888 371 Q855 472 829 515 Q782 591 723 615 Q667 637 550 637 L406 637 L406 151 L577 151 L577 0 L82 0 L82 151 L226 151 Z M406 785 L588 785 Q783 785 866 837 Q980 907 980 1056 Q980 1202 873 1272 Q793 1324 601 1324 L406 1324 L406 785 Z M612 1707 L773 1920 L897 1920 L700 1596 L523 1596 L327 1920 L449 1920 L612 1707 Z " />
<glyph glyph-name="rcaron" unicode="&#x159;" horiz-adv-x="817" d="M225 151 L225 818 L75 818 L75 969 L394 969 L394 809 Q477 912 537 947 Q622 998 737 998 L778 998 L778 831 L741 831 Q658 831 610 814 Q531 787 460 699 Q444 678 399 611 L399 151 L554 151 L554 0 L75 0 L75 151 L225 151 Z M441 1229 L615 1467 L739 1467 L530 1118 L353 1118 L143 1467 L267 1467 L441 1229 Z " />
<glyph glyph-name="Sacute" unicode="&#x15a;" horiz-adv-x="1234" d="M110 0 L110 440 L266 440 L266 406 Q266 302 316 242 Q363 187 456 154 Q532 127 633 127 Q805 127 896 206 Q980 279 980 398 Q980 512 891 583 Q848 617 768 645 Q712 664 582 697 Q403 741 336 773 Q202 834 156 941 Q126 1008 126 1097 Q126 1275 238 1385 Q360 1506 578 1506 Q785 1506 910 1391 L910 1475 L1058 1475 L1058 1044 L902 1044 L902 1071 Q902 1172 863 1231 Q826 1287 740 1321 Q672 1348 586 1348 Q450 1348 374 1278 Q303 1212 303 1112 Q303 1002 393 944 Q457 903 663 854 Q851 809 926 773 Q1160 660 1160 411 Q1160 216 1036 97 Q901 -31 637 -31 Q408 -31 258 84 L258 0 L110 0 Z M530 1596 L712 1920 L908 1920 L654 1596 L530 1596 Z " />
<glyph glyph-name="sacute" unicode="&#x15b;" horiz-adv-x="983" d="M89 0 L89 319 L237 319 L237 285 Q237 210 287 173 Q367 113 522 113 Q626 113 683 150 Q744 189 744 268 Q744 333 689 370 Q661 389 601 402 Q592 404 462 426 Q328 448 268 472 Q95 539 95 710 Q95 840 188 921 Q278 998 435 998 Q541 998 620 962 Q651 947 696 916 L696 969 L833 969 L833 672 L685 672 L685 690 Q685 759 641 795 Q567 855 448 855 Q354 855 308 815 Q266 778 266 720 Q266 658 331 623 Q368 603 517 577 Q658 553 716 534 Q911 469 911 270 Q911 124 805 43 Q710 -29 528 -29 Q354 -29 226 53 L226 0 L89 0 Z M383 1118 L591 1467 L786 1467 L507 1118 L383 1118 Z " />
<glyph glyph-name="Scircumflex" unicode="&#x15c;" horiz-adv-x="1234" d="M110 0 L110 440 L266 440 L266 406 Q266 302 316 242 Q363 187 456 154 Q532 127 633 127 Q805 127 896 206 Q980 279 980 398 Q980 512 891 583 Q848 617 768 645 Q712 664 582 697 Q403 741 336 773 Q202 834 156 941 Q126 1008 126 1097 Q126 1275 238 1385 Q360 1506 578 1506 Q785 1506 910 1391 L910 1475 L1058 1475 L1058 1044 L902 1044 L902 1071 Q902 1172 863 1231 Q826 1287 740 1321 Q672 1348 586 1348 Q450 1348 374 1278 Q303 1212 303 1112 Q303 1002 393 944 Q457 903 663 854 Q851 809 926 773 Q1160 660 1160 411 Q1160 216 1036 97 Q901 -31 637 -31 Q408 -31 258 84 L258 0 L110 0 Z M625 1809 L463 1596 L339 1596 L536 1920 L714 1920 L909 1596 L786 1596 L625 1809 Z " />
<glyph glyph-name="scircumflex" unicode="&#x15d;" horiz-adv-x="983" d="M89 0 L89 319 L237 319 L237 285 Q237 210 287 173 Q367 113 522 113 Q626 113 683 150 Q744 189 744 268 Q744 333 689 370 Q661 389 601 402 Q592 404 462 426 Q328 448 268 472 Q95 539 95 710 Q95 840 188 921 Q278 998 435 998 Q541 998 620 962 Q651 947 696 916 L696 969 L833 969 L833 672 L685 672 L685 690 Q685 759 641 795 Q567 855 448 855 Q354 855 308 815 Q266 778 266 720 Q266 658 331 623 Q368 603 517 577 Q658 553 716 534 Q911 469 911 270 Q911 124 805 43 Q710 -29 528 -29 Q354 -29 226 53 L226 0 L89 0 Z M482 1356 L308 1118 L184 1118 L394 1467 L571 1467 L780 1118 L656 1118 L482 1356 Z " />
<glyph glyph-name="Scedilla" unicode="&#x15e;" horiz-adv-x="1234" d="M110 0 L110 440 L266 440 L266 406 Q266 302 316 243 Q363 187 455 155 Q532 128 633 128 Q805 128 896 207 Q980 280 980 399 Q980 513 891 583 Q848 617 768 645 Q713 665 582 697 Q403 742 335 773 Q202 835 156 941 Q126 1008 126 1098 Q126 1275 238 1385 Q360 1506 578 1506 Q784 1506 910 1391 L910 1475 L1058 1475 L1058 1044 L902 1044 L902 1071 Q902 1172 863 1231 Q826 1287 740 1321 Q672 1348 586 1348 Q451 1348 374 1278 Q303 1213 303 1112 Q303 1002 393 944 Q457 903 663 854 Q851 809 926 773 Q1160 660 1160 411 Q1160 264 1083 153 Q964 -18 670 -30 L634 -94 Q720 -102 756 -118 Q852 -162 852 -276 Q852 -389 765 -440 Q701 -478 594 -478 Q487 -478 347 -439 L347 -301 Q501 -356 596 -356 Q707 -356 707 -277 Q707 -223 650 -208 Q624 -201 575 -201 Q567 -201 509 -205 L509 -112 L554 -24 Q440 -11 378 14 Q319 37 258 84 L258 0 L110 0 Z " />
<glyph glyph-name="scedilla" unicode="&#x15f;" horiz-adv-x="983" d="M89 0 L89 319 L237 319 L237 285 Q237 210 287 174 Q368 114 521 114 Q626 114 683 151 Q744 190 744 268 Q744 333 689 371 Q661 390 601 402 Q592 404 461 426 Q329 449 268 472 Q95 540 95 711 Q95 840 188 921 Q278 998 435 998 Q541 998 620 962 Q651 947 696 916 L696 969 L833 969 L833 672 L685 672 L685 690 Q685 759 641 795 Q567 855 448 855 Q354 855 308 815 Q266 778 266 720 Q266 658 331 623 Q368 603 517 577 Q658 553 716 534 Q911 469 911 270 Q911 163 850 88 Q763 -20 548 -28 L511 -94 Q597 -101 633 -118 Q729 -162 729 -276 Q729 -388 642 -440 Q579 -478 471 -478 Q364 -478 224 -439 L224 -301 Q381 -356 473 -356 Q584 -356 584 -277 Q584 -223 526 -208 Q500 -201 451 -201 Q449 -201 386 -205 L386 -112 L433 -22 Q314 -4 226 53 L226 0 L89 0 Z " />
<glyph glyph-name="Scaron" unicode="&#x160;" horiz-adv-x="1234" d="M110 0 L110 440 L266 440 L266 406 Q266 302 316 242 Q363 187 456 154 Q532 127 633 127 Q805 127 896 206 Q980 279 980 398 Q980 512 891 583 Q848 617 768 645 Q712 664 582 697 Q403 741 336 773 Q202 834 156 941 Q126 1008 126 1097 Q126 1275 238 1385 Q360 1506 578 1506 Q785 1506 910 1391 L910 1475 L1058 1475 L1058 1044 L902 1044 L902 1071 Q902 1172 863 1231 Q826 1287 740 1321 Q672 1348 586 1348 Q450 1348 374 1278 Q303 1212 303 1112 Q303 1002 393 944 Q457 903 663 854 Q851 809 926 773 Q1160 660 1160 411 Q1160 216 1036 97 Q901 -31 637 -31 Q408 -31 258 84 L258 0 L110 0 Z M618 1707 L779 1920 L903 1920 L706 1596 L529 1596 L333 1920 L455 1920 L618 1707 Z " />
<glyph glyph-name="scaron" unicode="&#x161;" horiz-adv-x="983" d="M89 0 L89 319 L237 319 L237 285 Q237 210 287 173 Q367 113 522 113 Q626 113 683 150 Q744 189 744 268 Q744 333 689 370 Q661 389 601 402 Q592 404 462 426 Q328 448 268 472 Q95 539 95 710 Q95 840 188 921 Q278 998 435 998 Q541 998 620 962 Q651 947 696 916 L696 969 L833 969 L833 672 L685 672 L685 690 Q685 759 641 795 Q567 855 448 855 Q354 855 308 815 Q266 778 266 720 Q266 658 331 623 Q368 603 517 577 Q658 553 716 534 Q911 469 911 270 Q911 124 805 43 Q710 -29 528 -29 Q354 -29 226 53 L226 0 L89 0 Z M494 1229 L668 1467 L792 1467 L583 1118 L406 1118 L196 1467 L320 1467 L494 1229 Z " />
<glyph glyph-name="Tcommaaccent" unicode="&#x162;" horiz-adv-x="1213" d="M516 151 L516 1324 L194 1324 L194 1085 L38 1085 L38 1475 L1174 1475 L1174 1085 L1018 1085 L1018 1324 L696 1324 L696 151 L892 151 L892 0 L321 0 L321 151 L516 151 Z M369 -476 L534 -127 L729 -127 L493 -476 L369 -476 Z " />
<glyph glyph-name="tcommaaccent" unicode="&#x163;" horiz-adv-x="688" d="M213 818 L59 818 L59 969 L213 969 L213 1326 L387 1326 L387 969 L631 969 L631 818 L387 818 L387 318 Q387 219 421 183 Q451 151 522 151 L643 151 L643 0 L516 0 Q213 0 213 291 L213 818 Z M131 -476 L296 -127 L491 -127 L255 -476 L131 -476 Z " />
<glyph glyph-name="Tcaron" unicode="&#x164;" horiz-adv-x="1213" d="M516 151 L516 1324 L194 1324 L194 1085 L38 1085 L38 1475 L1174 1475 L1174 1085 L1018 1085 L1018 1324 L696 1324 L696 151 L892 151 L892 0 L321 0 L321 151 L516 151 Z M606 1707 L767 1920 L891 1920 L694 1596 L517 1596 L321 1920 L443 1920 L606 1707 Z " />
<glyph glyph-name="tcaron" unicode="&#x165;" horiz-adv-x="873" d="M213 818 L59 818 L59 969 L213 969 L213 1326 L387 1326 L387 969 L631 969 L631 818 L387 818 L387 318 Q387 219 421 183 Q451 151 522 151 L643 151 L643 0 L516 0 Q213 0 213 291 L213 818 Z M609 1100 L719 1545 L914 1545 L741 1100 L609 1100 Z " />
<glyph glyph-name="Tbar" unicode="&#x166;" horiz-adv-x="1213" d="M516 151 L516 711 L207 711 L207 848 L516 848 L516 1324 L194 1324 L194 1085 L38 1085 L38 1475 L1174 1475 L1174 1085 L1018 1085 L1018 1324 L696 1324 L696 848 L1005 848 L1005 711 L696 711 L696 151 L892 151 L892 0 L321 0 L321 151 L516 151 Z " />
<glyph glyph-name="tbar" unicode="&#x167;" horiz-adv-x="688" d="M213 818 L59 818 L59 969 L213 969 L213 1326 L387 1326 L387 969 L631 969 L631 818 L387 818 L387 680 L631 680 L631 566 L387 566 L387 317 Q387 219 421 183 Q451 151 522 151 L643 151 L643 0 L516 0 Q213 0 213 290 L213 566 L59 566 L59 680 L213 680 L213 818 Z " />
<glyph glyph-name="Utilde" unicode="&#x168;" horiz-adv-x="1436" d="M72 1324 L72 1475 L547 1475 L547 1324 L396 1324 L396 566 Q396 367 445 271 Q517 130 718 130 Q918 130 991 271 Q1040 366 1040 566 L1040 1324 L889 1324 L889 1475 L1364 1475 L1364 1324 L1220 1324 L1220 623 Q1220 409 1196 300 Q1161 139 1038 53 Q916 -31 718 -31 Q413 -31 293 165 Q239 253 224 399 Q216 475 216 623 L216 1324 L72 1324 Z M525 1648 L412 1648 Q458 1853 612 1853 Q669 1853 751 1808 Q824 1768 848 1768 Q900 1768 935 1852 L1049 1852 Q1023 1759 987 1712 Q934 1642 841 1642 Q778 1642 668 1704 Q627 1727 605 1727 Q556 1727 525 1648 Z " />
<glyph glyph-name="utilde" unicode="&#x169;" horiz-adv-x="1215" d="M206 818 L58 818 L58 969 L380 969 L380 399 Q380 281 395 231 Q422 143 524 143 Q614 143 712 217 Q754 248 832 330 L832 818 L692 818 L692 969 L1006 969 L1006 151 L1156 151 L1156 0 L832 0 L832 156 Q737 73 699 50 Q591 -16 478 -16 Q313 -16 251 110 Q219 174 210 271 Q206 316 206 408 L206 818 Z M409 1171 L301 1171 Q345 1375 493 1375 Q537 1375 583 1353 Q604 1343 666 1308 Q698 1290 720 1290 Q770 1290 804 1374 L912 1374 Q887 1280 854 1234 Q803 1165 712 1165 Q670 1165 629 1183 Q597 1198 547 1226 Q508 1249 486 1249 Q440 1249 409 1171 Z " />
<glyph glyph-name="Umacron" unicode="&#x16a;" horiz-adv-x="1436" d="M72 1324 L72 1475 L547 1475 L547 1324 L396 1324 L396 566 Q396 367 445 271 Q517 130 718 130 Q918 130 991 271 Q1040 366 1040 566 L1040 1324 L889 1324 L889 1475 L1364 1475 L1364 1324 L1220 1324 L1220 623 Q1220 409 1196 300 Q1161 139 1038 53 Q916 -31 718 -31 Q413 -31 293 165 Q239 253 224 399 Q216 475 216 623 L216 1324 L72 1324 Z M453 1680 L453 1818 L983 1818 L983 1680 L453 1680 Z " />
<glyph glyph-name="umacron" unicode="&#x16b;" horiz-adv-x="1215" d="M206 818 L58 818 L58 969 L380 969 L380 399 Q380 281 395 231 Q422 143 524 143 Q614 143 712 217 Q754 248 832 330 L832 818 L692 818 L692 969 L1006 969 L1006 151 L1156 151 L1156 0 L832 0 L832 156 Q737 73 699 50 Q591 -16 478 -16 Q313 -16 251 110 Q219 174 210 271 Q206 316 206 408 L206 818 Z M322 1203 L322 1341 L852 1341 L852 1203 L322 1203 Z " />
<glyph glyph-name="Ubreve" unicode="&#x16c;" horiz-adv-x="1436" d="M72 1324 L72 1475 L547 1475 L547 1324 L396 1324 L396 566 Q396 367 445 271 Q517 130 718 130 Q918 130 991 271 Q1040 366 1040 566 L1040 1324 L889 1324 L889 1475 L1364 1475 L1364 1324 L1220 1324 L1220 623 Q1220 409 1196 300 Q1161 139 1038 53 Q916 -31 718 -31 Q413 -31 293 165 Q239 253 224 399 Q216 475 216 623 L216 1324 L72 1324 Z M431 1904 L534 1904 Q540 1829 574 1796 Q620 1750 718 1750 Q825 1750 869 1804 Q894 1835 900 1904 L1004 1904 Q991 1767 935 1700 Q867 1619 719 1619 Q553 1619 486 1718 Q441 1784 431 1904 Z " />
<glyph glyph-name="ubreve" unicode="&#x16d;" horiz-adv-x="1215" d="M206 818 L58 818 L58 969 L380 969 L380 399 Q380 281 395 231 Q422 143 524 143 Q614 143 712 217 Q754 248 832 330 L832 818 L692 818 L692 969 L1006 969 L1006 151 L1156 151 L1156 0 L832 0 L832 156 Q737 73 699 50 Q591 -16 478 -16 Q313 -16 251 110 Q219 174 210 271 Q206 316 206 408 L206 818 Z M309 1427 L412 1427 Q418 1352 452 1319 Q498 1273 596 1273 Q703 1273 747 1327 Q772 1358 778 1427 L882 1427 Q869 1290 813 1224 Q745 1143 597 1143 Q431 1143 364 1242 Q319 1307 309 1427 Z " />
<glyph glyph-name="Uring" unicode="&#x16e;" horiz-adv-x="1436" d="M72 1324 L72 1475 L547 1475 L547 1324 L396 1324 L396 566 Q396 367 445 271 Q517 130 718 130 Q918 130 991 271 Q1040 366 1040 566 L1040 1324 L889 1324 L889 1475 L1364 1475 L1364 1324 L1220 1324 L1220 623 Q1220 409 1196 300 Q1161 139 1038 53 Q916 -31 718 -31 Q413 -31 293 165 Q239 253 224 399 Q216 475 216 623 L216 1324 L72 1324 Z M719 2018 Q833 2018 896 1948 Q952 1887 952 1789 Q952 1691 896 1629 Q834 1560 719 1560 Q603 1560 541 1629 Q485 1692 485 1792 Q485 1888 541 1948 Q605 2018 719 2018 Z M718 1918 Q651 1918 620 1873 Q598 1841 598 1790 Q598 1660 719 1660 Q839 1660 839 1789 Q839 1918 718 1918 Z " />
<glyph glyph-name="uring" unicode="&#x16f;" horiz-adv-x="1215" d="M206 818 L58 818 L58 969 L380 969 L380 399 Q380 281 395 231 Q422 143 524 143 Q614 143 712 217 Q754 248 832 330 L832 818 L692 818 L692 969 L1006 969 L1006 151 L1156 151 L1156 0 L832 0 L832 156 Q737 73 699 50 Q591 -16 478 -16 Q313 -16 251 110 Q219 174 210 271 Q206 316 206 408 L206 818 Z M590 1548 Q704 1548 767 1479 Q823 1417 823 1319 Q823 1222 767 1160 Q705 1091 590 1091 Q474 1091 412 1160 Q356 1222 356 1322 Q356 1418 412 1479 Q476 1548 590 1548 Z M589 1448 Q469 1448 469 1321 Q469 1191 589 1191 Q710 1191 710 1320 Q710 1448 589 1448 Z " />
<glyph glyph-name="Uhungarumlaut" unicode="&#x170;" horiz-adv-x="1436" d="M72 1324 L72 1475 L547 1475 L547 1324 L396 1324 L396 566 Q396 367 445 271 Q517 130 718 130 Q918 130 991 271 Q1040 366 1040 566 L1040 1324 L889 1324 L889 1475 L1364 1475 L1364 1324 L1220 1324 L1220 623 Q1220 409 1196 300 Q1161 139 1038 53 Q916 -31 718 -31 Q413 -31 293 165 Q239 253 224 399 Q216 475 216 623 L216 1324 L72 1324 Z M538 1596 L660 1920 L831 1920 L639 1596 L538 1596 Z M800 1596 L947 1920 L1123 1920 L903 1596 L800 1596 Z " />
<glyph glyph-name="uhungarumlaut" unicode="&#x171;" horiz-adv-x="1215" d="M206 818 L58 818 L58 969 L380 969 L380 399 Q380 281 395 231 Q422 143 524 143 Q614 143 712 217 Q754 248 832 330 L832 818 L692 818 L692 969 L1006 969 L1006 151 L1156 151 L1156 0 L832 0 L832 156 Q737 73 699 50 Q591 -16 478 -16 Q313 -16 251 110 Q219 174 210 271 Q206 316 206 408 L206 818 Z M368 1105 L515 1454 L686 1454 L469 1105 L368 1105 Z M630 1105 L802 1454 L978 1454 L733 1105 L630 1105 Z " />
<glyph glyph-name="Uogonek" unicode="&#x172;" horiz-adv-x="1436" d="M72 1324 L72 1475 L547 1475 L547 1324 L396 1324 L396 566 Q396 367 445 271 Q517 131 718 131 Q918 131 991 271 Q1040 367 1040 566 L1040 1324 L889 1324 L889 1475 L1364 1475 L1364 1324 L1220 1324 L1220 623 Q1220 356 1180 244 Q1104 29 848 -19 Q787 -69 754 -106 Q697 -172 697 -235 Q697 -317 789 -317 L872 -317 L872 -439 L789 -439 Q552 -439 552 -265 Q552 -146 703 -30 Q446 -19 329 116 Q250 208 228 366 Q216 453 216 623 L216 1324 L72 1324 Z " />
<glyph glyph-name="uogonek" unicode="&#x173;" horiz-adv-x="1215" d="M206 818 L58 818 L58 969 L380 969 L380 399 Q380 281 395 231 Q422 143 524 143 Q614 143 712 217 Q754 248 832 330 L832 818 L692 818 L692 969 L1006 969 L1006 151 L1156 151 L1156 0 Q1081 -55 1035 -109 Q980 -172 980 -235 Q980 -317 1071 -317 L1154 -317 L1154 -439 L1072 -439 Q834 -439 834 -265 Q834 -177 920 -88 Q947 -60 1025 0 L832 0 L832 156 Q737 73 699 50 Q591 -16 478 -16 Q313 -16 251 110 Q219 174 210 271 Q206 316 206 408 L206 818 Z " />
<glyph glyph-name="Wcircumflex" unicode="&#x174;" horiz-adv-x="1907" d="M5 1324 L5 1475 L495 1475 L495 1324 L322 1324 L540 558 Q564 472 597 334 Q635 491 654 556 L917 1495 L1010 1495 L1275 554 Q1301 460 1328 334 Q1358 464 1388 572 L1600 1324 L1437 1324 L1437 1475 L1903 1475 L1903 1324 L1772 1324 L1380 -32 L1272 -32 L1008 910 Q985 992 962 1112 Q936 993 914 915 L645 -32 L534 -32 L138 1324 L5 1324 Z M954 1809 L792 1596 L668 1596 L865 1920 L1043 1920 L1238 1596 L1115 1596 L954 1809 Z " />
<glyph glyph-name="wcircumflex" unicode="&#x175;" horiz-adv-x="1610" d="M131 818 L16 818 L16 969 L453 969 L453 818 L304 818 L459 385 Q483 318 505 235 Q531 325 556 392 L771 969 L842 969 L1054 387 Q1079 318 1102 235 Q1130 329 1149 380 L1310 818 L1156 818 L1156 969 L1591 969 L1591 818 L1479 818 L1158 -24 L1050 -24 L842 556 Q820 619 803 687 Q787 620 765 559 L554 -24 L448 -24 L131 818 Z M804 1356 L630 1118 L506 1118 L716 1467 L893 1467 L1102 1118 L978 1118 L804 1356 Z " />
<glyph glyph-name="Ycircumflex" unicode="&#x176;" horiz-adv-x="1153" d="M484 151 L484 671 L112 1324 L-16 1324 L-16 1475 L466 1475 L466 1324 L319 1324 L583 835 L846 1324 L701 1324 L701 1475 L1164 1475 L1164 1324 L1032 1324 L664 669 L664 151 L845 151 L845 0 L303 0 L303 151 L484 151 Z M598 1809 L436 1596 L312 1596 L509 1920 L687 1920 L882 1596 L759 1596 L598 1809 Z " />
<glyph glyph-name="ycircumflex" unicode="&#x177;" horiz-adv-x="1076" d="M111 818 L8 818 L8 969 L468 969 L468 818 L293 818 L503 357 Q506 350 551 238 Q576 307 605 375 L790 818 L621 818 L621 969 L1076 969 L1076 818 L967 818 L546 -147 Q474 -310 404 -363 Q340 -411 237 -419 Q210 -422 155 -422 L155 -271 Q253 -270 292 -248 Q345 -217 389 -112 L462 61 L111 818 Z M537 1356 L363 1118 L239 1118 L449 1467 L626 1467 L835 1118 L711 1118 L537 1356 Z " />
<glyph glyph-name="Zacute" unicode="&#x179;" horiz-adv-x="1143" d="M49 0 L49 143 L820 1324 L247 1324 L247 1085 L91 1085 L91 1475 L1051 1475 L1051 1359 L265 151 L897 151 L897 406 L1053 406 L1053 0 L49 0 Z M490 1596 L672 1920 L868 1920 L614 1596 L490 1596 Z " />
<glyph glyph-name="zacute" unicode="&#x17a;" horiz-adv-x="957" d="M47 0 L47 149 L632 818 L248 818 L248 660 L97 660 L97 969 L857 969 L857 841 L258 151 L722 151 L722 325 L873 325 L873 0 L47 0 Z M393 1118 L601 1467 L796 1467 L517 1118 L393 1118 Z " />
<glyph glyph-name="Zdotaccent" unicode="&#x17b;" horiz-adv-x="1143" d="M49 0 L49 143 L820 1324 L247 1324 L247 1085 L91 1085 L91 1475 L1051 1475 L1051 1359 L265 151 L897 151 L897 406 L1053 406 L1053 0 L49 0 Z M515 1646 L515 1850 L714 1850 L714 1646 L515 1646 Z " />
<glyph glyph-name="zdotaccent" unicode="&#x17c;" horiz-adv-x="957" d="M47 0 L47 149 L632 818 L248 818 L248 660 L97 660 L97 969 L857 969 L857 841 L258 151 L722 151 L722 325 L873 325 L873 0 L47 0 Z M395 1168 L395 1372 L594 1372 L594 1168 L395 1168 Z " />
<glyph glyph-name="Zcaron" unicode="&#x17d;" horiz-adv-x="1143" d="M49 0 L49 143 L820 1324 L247 1324 L247 1085 L91 1085 L91 1475 L1051 1475 L1051 1359 L265 151 L897 151 L897 406 L1053 406 L1053 0 L49 0 Z M602 1707 L763 1920 L887 1920 L690 1596 L513 1596 L317 1920 L439 1920 L602 1707 Z " />
<glyph glyph-name="zcaron" unicode="&#x17e;" horiz-adv-x="957" d="M47 0 L47 149 L632 818 L248 818 L248 660 L97 660 L97 969 L857 969 L857 841 L258 151 L722 151 L722 325 L873 325 L873 0 L47 0 Z M497 1229 L671 1467 L795 1467 L586 1118 L409 1118 L199 1467 L323 1467 L497 1229 Z " />
<glyph glyph-name="uni018F" unicode="&#x18f;" horiz-adv-x="1675" d="M102 843 L1379 843 Q1357 997 1283 1107 Q1122 1345 825 1345 Q644 1345 496 1258 Q438 1224 341 1127 L226 1247 Q328 1364 443 1422 Q612 1506 822 1506 Q1180 1506 1392 1253 Q1572 1039 1572 736 Q1572 437 1396 222 Q1189 -31 852 -31 Q510 -31 290 222 Q109 429 103 737 Q102 768 102 843 Z M291 697 Q300 620 310 568 Q347 368 515 239 Q660 127 851 127 Q1035 127 1169 234 Q1365 391 1385 697 L291 697 Z " />
<glyph glyph-name="uni01CD" unicode="&#x1cd;" horiz-adv-x="1460" d="M1043 434 L410 434 L306 151 L467 151 L467 0 L0 0 L0 151 L122 151 L626 1475 L824 1475 L1334 151 L1460 151 L1460 0 L987 0 L987 151 L1149 151 L1043 434 Z M987 582 L723 1296 L465 582 L987 582 Z M730 1707 L891 1920 L1015 1920 L818 1596 L641 1596 L445 1920 L567 1920 L730 1707 Z " />
<glyph glyph-name="uni01CE" unicode="&#x1ce;" horiz-adv-x="1175" d="M792 582 L792 630 Q792 749 751 793 Q695 853 534 853 Q412 853 365 809 Q335 780 327 702 L164 702 Q168 852 244 920 Q330 998 536 998 Q799 998 895 888 Q945 831 961 733 Q969 685 969 593 L969 151 L1117 151 L1117 0 L806 0 L806 111 Q681 -29 443 -29 Q270 -29 173 45 Q75 120 75 277 Q75 469 221 545 Q311 592 523 592 Q610 592 792 582 Z M795 444 Q682 456 530 456 Q374 456 319 423 Q250 381 250 283 Q250 200 300 161 Q354 119 474 119 Q665 119 753 220 Q785 256 792 301 Q795 320 795 363 L795 444 Z M584 1229 L758 1467 L882 1467 L673 1118 L496 1118 L286 1467 L410 1467 L584 1229 Z " />
<glyph glyph-name="uni01D3" unicode="&#x1d3;" horiz-adv-x="1436" d="M72 1324 L72 1475 L547 1475 L547 1324 L396 1324 L396 566 Q396 367 445 271 Q517 130 718 130 Q918 130 991 271 Q1040 366 1040 566 L1040 1324 L889 1324 L889 1475 L1364 1475 L1364 1324 L1220 1324 L1220 623 Q1220 409 1196 300 Q1161 139 1038 53 Q916 -31 718 -31 Q413 -31 293 165 Q239 253 224 399 Q216 475 216 623 L216 1324 L72 1324 Z M733 1707 L894 1920 L1018 1920 L821 1596 L644 1596 L448 1920 L570 1920 L733 1707 Z " />
<glyph glyph-name="uni01D4" unicode="&#x1d4;" horiz-adv-x="1215" d="M206 818 L58 818 L58 969 L380 969 L380 399 Q380 281 395 231 Q422 143 524 143 Q614 143 712 217 Q754 248 832 330 L832 818 L692 818 L692 969 L1006 969 L1006 151 L1156 151 L1156 0 L832 0 L832 156 Q737 73 699 50 Q591 -16 478 -16 Q313 -16 251 110 Q219 174 210 271 Q206 316 206 408 L206 818 Z M607 1229 L781 1467 L905 1467 L696 1118 L519 1118 L309 1467 L433 1467 L607 1229 Z " />
<glyph glyph-name="uni01DD" unicode="&#x1dd;" horiz-adv-x="1161" d="M80 566 L897 566 Q879 662 835 723 Q744 847 574 847 Q453 847 339 800 Q282 777 202 726 L115 856 Q330 998 571 998 Q805 998 944 853 Q1081 710 1081 485 Q1081 260 944 117 Q805 -29 579 -29 Q355 -29 215 117 Q78 259 78 491 Q78 520 80 566 Z M261 435 Q272 358 281 328.5 Q290 299 312 266 Q407 122 579 122 Q695 122 776 186 Q864 256 889 369 Q894 393 900 435 L261 435 Z " />
<glyph glyph-name="Gcaron" unicode="&#x1e6;" horiz-adv-x="1663" d="M806 571 L806 722 L1482 722 L1482 59 Q1220 -31 887 -31 Q625 -31 451 63 Q273 160 181 338 Q92 508 92 730 Q92 1106 346 1329 Q545 1505 861 1505 Q1121 1505 1284 1391 L1284 1475 L1432 1475 L1432 1044 L1276 1044 L1276 1071 Q1276 1170 1226 1226 Q1174 1285 1068 1320 Q985 1347 870 1347 Q596 1347 437 1177 Q276 1006 276 732 Q276 451 447 282 Q604 127 901 127 Q1105 127 1314 193 L1314 571 L806 571 Z M860 1707 L1021 1920 L1145 1920 L948 1596 L771 1596 L575 1920 L697 1920 L860 1707 Z " />
<glyph glyph-name="gcaron" unicode="&#x1e7;" horiz-adv-x="1273" d="M888 154 Q842 102 811 77 Q702 -11 542 -11 Q333 -11 204 131 Q80 268 80 489 Q80 710 201 850 Q330 998 543 998 Q707 998 817 906 Q853 877 900 818 L900 969 L1224 969 L1224 818 L1062 818 L1062 95 Q1062 -157 990 -272 Q878 -452 574 -452 Q339 -452 240 -359 Q165 -288 158 -139 L322 -139 Q330 -214 366 -250 Q423 -306 579 -306 Q772 -306 840 -186 Q875 -126 884 -38 Q888 7 888 81 L888 154 Z M567 847 Q428 847 341 747 Q257 651 257 490 Q257 342 331 249 Q418 140 568 140 Q718 140 808 248 Q888 344 888 483 Q888 633 808 733 Q717 847 567 847 Z M630 1229 L804 1467 L928 1467 L719 1118 L542 1118 L332 1467 L456 1467 L630 1229 Z " />
<glyph glyph-name="uni01F4" unicode="&#x1f4;" horiz-adv-x="1663" d="M806 571 L806 722 L1482 722 L1482 59 Q1220 -31 887 -31 Q625 -31 451 63 Q273 160 181 338 Q92 508 92 730 Q92 1106 346 1329 Q545 1505 861 1505 Q1121 1505 1284 1391 L1284 1475 L1432 1475 L1432 1044 L1276 1044 L1276 1071 Q1276 1170 1226 1226 Q1174 1285 1068 1320 Q985 1347 870 1347 Q596 1347 437 1177 Q276 1006 276 732 Q276 451 447 282 Q604 127 901 127 Q1105 127 1314 193 L1314 571 L806 571 Z M738 1596 L920 1920 L1116 1920 L862 1596 L738 1596 Z " />
<glyph glyph-name="uni01F5" unicode="&#x1f5;" horiz-adv-x="1273" d="M888 154 Q842 102 811 77 Q702 -11 542 -11 Q333 -11 204 131 Q80 268 80 489 Q80 710 201 850 Q330 998 543 998 Q707 998 817 906 Q853 877 900 818 L900 969 L1224 969 L1224 818 L1062 818 L1062 95 Q1062 -157 990 -272 Q878 -452 574 -452 Q339 -452 240 -359 Q165 -288 158 -139 L322 -139 Q330 -214 366 -250 Q423 -306 579 -306 Q772 -306 840 -186 Q875 -126 884 -38 Q888 7 888 81 L888 154 Z M567 847 Q428 847 341 747 Q257 651 257 490 Q257 342 331 249 Q418 140 568 140 Q718 140 808 248 Q888 344 888 483 Q888 633 808 733 Q717 847 567 847 Z M499 1118 L707 1467 L902 1467 L623 1118 L499 1118 Z " />
<glyph glyph-name="Scommaaccent" unicode="&#x218;" horiz-adv-x="1234" d="M110 0 L110 440 L266 440 L266 406 Q266 302 316 242 Q363 187 456 154 Q532 127 633 127 Q805 127 896 206 Q980 279 980 398 Q980 512 891 583 Q848 617 768 645 Q712 664 582 697 Q403 741 336 773 Q202 834 156 941 Q126 1008 126 1097 Q126 1275 238 1385 Q360 1506 578 1506 Q785 1506 910 1391 L910 1475 L1058 1475 L1058 1044 L902 1044 L902 1071 Q902 1172 863 1231 Q826 1287 740 1321 Q672 1348 586 1348 Q450 1348 374 1278 Q303 1212 303 1112 Q303 1002 393 944 Q457 903 663 854 Q851 809 926 773 Q1160 660 1160 411 Q1160 216 1036 97 Q901 -31 637 -31 Q408 -31 258 84 L258 0 L110 0 Z M387 -476 L552 -127 L747 -127 L511 -476 L387 -476 Z " />
<glyph glyph-name="scommaaccent" unicode="&#x219;" horiz-adv-x="983" d="M89 0 L89 319 L237 319 L237 285 Q237 210 287 173 Q367 113 522 113 Q626 113 683 150 Q744 189 744 268 Q744 333 689 370 Q661 389 601 402 Q592 404 462 426 Q328 448 268 472 Q95 539 95 710 Q95 840 188 921 Q278 998 435 998 Q541 998 620 962 Q651 947 696 916 L696 969 L833 969 L833 672 L685 672 L685 690 Q685 759 641 795 Q567 855 448 855 Q354 855 308 815 Q266 778 266 720 Q266 658 331 623 Q368 603 517 577 Q658 553 716 534 Q911 469 911 270 Q911 124 805 43 Q710 -29 528 -29 Q354 -29 226 53 L226 0 L89 0 Z M249 -476 L414 -127 L609 -127 L373 -476 L249 -476 Z " />
<glyph glyph-name="uni021A" unicode="&#x21a;" horiz-adv-x="1213" d="M516 151 L516 1324 L194 1324 L194 1085 L38 1085 L38 1475 L1174 1475 L1174 1085 L1018 1085 L1018 1324 L696 1324 L696 151 L892 151 L892 0 L321 0 L321 151 L516 151 Z M369 -476 L534 -127 L729 -127 L493 -476 L369 -476 Z " />
<glyph glyph-name="uni021B" unicode="&#x21b;" horiz-adv-x="688" d="M213 818 L59 818 L59 969 L213 969 L213 1326 L387 1326 L387 969 L631 969 L631 818 L387 818 L387 318 Q387 219 421 183 Q451 151 522 151 L643 151 L643 0 L516 0 Q213 0 213 291 L213 818 Z M131 -476 L296 -127 L491 -127 L255 -476 L131 -476 Z " />
<glyph glyph-name="uni0226" unicode="&#x226;" horiz-adv-x="1460" d="M1043 434 L410 434 L306 151 L467 151 L467 0 L0 0 L0 151 L122 151 L626 1475 L824 1475 L1334 151 L1460 151 L1460 0 L987 0 L987 151 L1149 151 L1043 434 Z M987 582 L723 1296 L465 582 L987 582 Z M630 1646 L630 1850 L829 1850 L829 1646 L630 1646 Z " />
<glyph glyph-name="uni0227" unicode="&#x227;" horiz-adv-x="1175" d="M792 582 L792 630 Q792 749 751 793 Q695 853 534 853 Q412 853 365 809 Q335 780 327 702 L164 702 Q168 852 244 920 Q330 998 536 998 Q799 998 895 888 Q945 831 961 733 Q969 685 969 593 L969 151 L1117 151 L1117 0 L806 0 L806 111 Q681 -29 443 -29 Q270 -29 173 45 Q75 120 75 277 Q75 469 221 545 Q311 592 523 592 Q610 592 792 582 Z M795 444 Q682 456 530 456 Q374 456 319 423 Q250 381 250 283 Q250 200 300 161 Q354 119 474 119 Q665 119 753 220 Q785 256 792 301 Q795 320 795 363 L795 444 Z M488 1168 L488 1372 L687 1372 L687 1168 L488 1168 Z " />
<glyph glyph-name="uni0237" unicode="&#x237;" horiz-adv-x="581" d="M69 818 L69 969 L396 969 L396 -33 Q396 -177 369 -246 Q323 -364 189 -403 Q138 -418 51 -422 L51 -271 Q150 -263 185 -219 Q209 -188 217 -140 Q222 -108 222 -38 L222 818 L69 818 Z " />
<glyph glyph-name="uni0259" unicode="&#x259;" horiz-adv-x="1161" d="M80 566 L897 566 Q879 662 835 723 Q744 847 574 847 Q453 847 339 800 Q282 777 202 726 L115 856 Q330 998 571 998 Q805 998 944 853 Q1081 710 1081 485 Q1081 260 944 117 Q805 -29 579 -29 Q355 -29 215 117 Q78 259 78 491 Q78 520 80 566 Z M261 435 Q272 358 281 328.5 Q290 299 312 266 Q407 122 579 122 Q695 122 776 186 Q864 256 889 369 Q894 393 900 435 L261 435 Z " />
<glyph glyph-name="uni02C9" unicode="&#x2c9;" horiz-adv-x="1024" d="M247 1203 L247 1341 L777 1341 L777 1203 L247 1203 Z " />
<glyph glyph-name="uni0312" unicode="&#x312;" horiz-adv-x="1024" d="M757 1467 L550 1118 L354 1118 L633 1467 L757 1467 Z " />
<glyph glyph-name="uni0313" unicode="&#x313;" horiz-adv-x="223" d="M-41 1030 L69 1475 L264 1475 L91 1030 L-41 1030 Z " />
<glyph glyph-name="uni031B" unicode="&#x31b;" horiz-adv-x="223" d="M-41 1030 L69 1475 L264 1475 L91 1030 L-41 1030 Z " />
<glyph glyph-name="commaaccent" unicode="&#x326;" horiz-adv-x="1024" d="M299 -476 L464 -127 L659 -127 L423 -476 L299 -476 Z " />
<glyph glyph-name="uni037E" unicode="&#x37e;" horiz-adv-x="574" d="M194 636 L194 857 L398 857 L398 636 L194 636 Z M53 -273 L194 221 L403 221 L226 -273 L53 -273 Z " />
<glyph glyph-name="uni0387" unicode="&#x387;" horiz-adv-x="574" d="M186 443 L186 664 L390 664 L390 443 L186 443 Z " />
<glyph glyph-name="uni0400" unicode="&#x400;" horiz-adv-x="1259" d="M237 151 L237 1324 L93 1324 L93 1475 L1115 1475 L1115 1116 L959 1116 L959 1324 L417 1324 L417 842 L903 842 L903 691 L417 691 L417 151 L969 151 L969 400 L1125 400 L1125 0 L93 0 L93 151 L237 151 Z M648 1596 L394 1920 L590 1920 L772 1596 L648 1596 Z " />
<glyph glyph-name="afii10023" unicode="&#x401;" horiz-adv-x="1259" d="M237 151 L237 1324 L93 1324 L93 1475 L1142 1475 L1142 1116 L986 1116 L986 1324 L417 1324 L417 842 L929 842 L929 691 L417 691 L417 151 L996 151 L996 400 L1152 400 L1152 0 L93 0 L93 151 L237 151 Z M357 1651 L357 1845 L534 1845 L534 1651 L357 1651 Z M738 1651 L738 1845 L915 1845 L915 1651 L738 1651 Z " />
<glyph glyph-name="afii10051" unicode="&#x402;" horiz-adv-x="1586" d="M479 151 L479 1324 L201 1324 L201 1085 L45 1085 L45 1475 L1146 1475 L1146 1100 L990 1100 L990 1324 L659 1324 L659 823 Q747 892 801 921 Q923 987 1057 987 Q1255 987 1336 858 Q1375 796 1386 692 Q1391 644 1391 551 L1391 -44 Q1391 -187 1364 -256 Q1318 -375 1184 -413 Q1134 -428 1046 -432 L1046 -281 Q1145 -273 1180 -229 Q1204 -198 1212 -150 Q1217 -119 1217 -48 L1217 560 Q1217 681 1194 737 Q1155 828 1012 828 Q907 828 792 754 Q737 719 659 649 L659 151 L855 151 L855 0 L284 0 L284 151 L479 151 Z " />
<glyph glyph-name="afii10052" unicode="&#x403;" horiz-adv-x="1146" d="M237 151 L237 1324 L93 1324 L93 1475 L1106 1475 L1106 1085 L950 1085 L950 1324 L417 1324 L417 151 L622 151 L622 0 L93 0 L93 151 L237 151 Z M505 1596 L687 1920 L911 1920 L638 1596 L505 1596 Z " />
<glyph glyph-name="afii10053" unicode="&#x404;" horiz-adv-x="1445" d="M899 848 L899 702 L287 702 Q295 587 311 521 Q350 354 452 247 Q564 130 768 130 Q942 130 1078 216 Q1129 249 1222 347 L1336 227 Q1242 111 1132 53 Q973 -31 762 -31 Q423 -31 254 199 Q101 407 101 746 Q101 1097 284 1305 Q460 1506 760 1506 Q993 1506 1144 1391 L1144 1475 L1292 1475 L1292 1044 L1137 1044 L1137 1071 Q1137 1172 1089 1228 Q1041 1284 949 1317 Q867 1347 764 1347 Q496 1347 370 1120 Q308 1009 291 848 L899 848 Z " />
<glyph glyph-name="afii10054" unicode="&#x405;" horiz-adv-x="1256" d="M120 0 L120 440 L275 440 L275 406 Q275 302 326 242 Q373 187 465 154 Q542 127 643 127 Q816 127 906 206 Q990 279 990 398 Q990 513 901 583 Q858 617 778 645 Q722 664 592 697 Q413 742 345 773 Q212 834 165 941 Q136 1008 136 1097 Q136 1275 247 1385 Q369 1506 587 1506 Q745 1506 849 1445 Q882 1426 920 1391 L920 1475 L1068 1475 L1068 1044 L913 1044 L913 1071 Q913 1172 873 1231 Q836 1287 750 1321 Q683 1348 597 1348 Q461 1348 384 1278 Q313 1213 313 1112 Q313 1002 403 944 Q467 903 673 854 Q862 809 937 773 Q1170 660 1170 411 Q1170 216 1046 97 Q911 -31 647 -31 Q418 -31 268 84 L268 0 L120 0 Z " />
<glyph glyph-name="afii10055" unicode="&#x406;" horiz-adv-x="660" d="M240 151 L240 1324 L96 1324 L96 1475 L565 1475 L565 1324 L420 1324 L420 151 L565 151 L565 0 L96 0 L96 151 L240 151 Z " />
<glyph glyph-name="afii10056" unicode="&#x407;" horiz-adv-x="660" d="M240 151 L240 1324 L96 1324 L96 1475 L565 1475 L565 1324 L420 1324 L420 151 L565 151 L565 0 L96 0 L96 151 L240 151 Z M51 1651 L51 1845 L228 1845 L228 1651 L51 1651 Z M432 1651 L432 1845 L609 1845 L609 1651 L432 1651 Z " />
<glyph glyph-name="afii10057" unicode="&#x408;" horiz-adv-x="655" d="M241 1324 L90 1324 L90 1475 L565 1475 L565 1324 L421 1324 L421 135 Q421 -25 393 -103 Q345 -237 204 -279 Q149 -296 54 -300 L54 -149 Q163 -140 200 -91 Q227 -55 236 5 Q241 41 241 124 L241 1324 Z " />
<glyph glyph-name="afii10058" unicode="&#x409;" horiz-adv-x="2056" d="M983 151 L983 1324 L463 1324 L463 1247 Q463 881 430 546 Q406 305 360 189 Q318 84 239 39 Q171 0 57 0 L-17 0 L-10 151 L37 151 Q108 151 146 190 Q216 261 248 535 Q286 846 286 1243 L286 1324 L142 1324 L142 1475 L1313 1475 L1313 1324 L1159 1324 L1159 883 L1456 883 Q1696 883 1821 796 Q1986 681 1986 441 Q1986 202 1821 87 Q1696 0 1456 0 L839 0 L839 151 L983 151 Z M1159 151 L1416 151 Q1604 151 1693 211 Q1802 285 1802 443 Q1802 616 1674 687 Q1588 736 1416 736 L1159 736 L1159 151 Z " />
<glyph glyph-name="afii10059" unicode="&#x40a;" horiz-adv-x="2135" d="M237 151 L237 1324 L93 1324 L93 1475 L568 1475 L568 1324 L417 1324 L417 851 L1048 851 L1048 1324 L903 1324 L903 1475 L1378 1475 L1378 1324 L1224 1324 L1224 853 L1534 853 Q1774 853 1899 769 Q2064 658 2064 426 Q2064 195 1899 84 Q1775 0 1534 0 L903 0 L903 151 L1048 151 L1048 700 L417 700 L417 151 L568 151 L568 0 L93 0 L93 151 L237 151 Z M1224 151 L1495 151 Q1683 151 1771 208 Q1880 278 1880 429 Q1880 593 1752 660 Q1666 706 1495 706 L1224 706 L1224 151 Z " />
<glyph glyph-name="afii10060" unicode="&#x40b;" horiz-adv-x="1602" d="M479 151 L479 1324 L201 1324 L201 1085 L45 1085 L45 1475 L1146 1475 L1146 1100 L990 1100 L990 1324 L659 1324 L659 823 Q746 891 800 921 Q922 987 1056 987 Q1255 987 1336 858 Q1375 796 1386 692 Q1391 644 1391 551 L1391 151 L1541 151 L1541 0 L1081 0 L1081 151 L1217 151 L1217 560 Q1217 681 1194 737 Q1155 828 1012 828 Q906 828 791 754 Q739 720 659 649 L659 151 L818 151 L818 0 L284 0 L284 151 L479 151 Z " />
<glyph glyph-name="afii10061" unicode="&#x40c;" horiz-adv-x="1366" d="M237 151 L237 1324 L93 1324 L93 1475 L568 1475 L568 1324 L417 1324 L417 848 L674 848 L1000 1324 L857 1324 L857 1475 L1317 1475 L1317 1324 L1198 1324 L827 790 Q896 747 943 677 Q979 624 1036 507 L1214 151 L1358 151 L1358 0 L1069 0 L869 435 Q800 586 746 640 Q683 702 562 702 L417 702 L417 151 L568 151 L568 0 L93 0 L93 151 L237 151 Z M602 1596 L784 1920 L1007 1920 L734 1596 L602 1596 Z " />
<glyph glyph-name="uni040D" unicode="&#x40d;" horiz-adv-x="1494" d="M237 151 L237 1324 L93 1324 L93 1475 L568 1475 L568 1324 L417 1324 L417 414 L1077 1293 L1077 1324 L926 1324 L926 1475 L1401 1475 L1401 1324 L1257 1324 L1257 151 L1401 151 L1401 0 L926 0 L926 151 L1077 151 L1077 1058 L417 182 L417 151 L568 151 L568 0 L93 0 L93 151 L237 151 Z M715 1596 L461 1920 L657 1920 L839 1596 L715 1596 Z " />
<glyph glyph-name="afii10062" unicode="&#x40e;" horiz-adv-x="1250" d="M565 436 L138 1324 L11 1324 L11 1475 L470 1475 L470 1324 L330 1324 L651 625 L973 1324 L834 1324 L834 1475 L1274 1475 L1274 1324 L1157 1324 L546 0 L263 0 L263 151 L434 151 L565 436 Z M310 1911 L429 1911 Q435 1830 464 1801 Q508 1756 652 1756 Q807 1756 848 1811 Q869 1839 874 1911 L993 1911 Q992 1773 958 1719 Q896 1619 652 1619 Q390 1619 335 1738 Q311 1789 310 1911 Z " />
<glyph glyph-name="afii10145" unicode="&#x40f;" horiz-adv-x="1450" d="M237 151 L237 1324 L93 1324 L93 1475 L560 1475 L560 1324 L417 1324 L417 151 L1033 151 L1033 1324 L890 1324 L890 1475 L1357 1475 L1357 1324 L1213 1324 L1213 151 L1357 151 L1357 0 L820 0 L797 -360 L653 -360 L630 0 L93 0 L93 151 L237 151 Z " />
<glyph glyph-name="afii10017" unicode="&#x410;" horiz-adv-x="1481" d="M1054 434 L421 434 L317 151 L478 151 L478 0 L11 0 L11 151 L133 151 L637 1475 L835 1475 L1345 151 L1471 151 L1471 0 L998 0 L998 151 L1160 151 L1054 434 Z M998 582 L734 1296 L476 582 L998 582 Z " />
<glyph glyph-name="afii10018" unicode="&#x411;" horiz-adv-x="1342" d="M237 151 L237 1324 L93 1324 L93 1475 L1142 1475 L1142 1085 L986 1085 L986 1324 L413 1324 L413 883 L710 883 Q950 883 1075 796 Q1240 681 1240 441 Q1240 201 1075 87 Q950 0 710 0 L93 0 L93 151 L237 151 Z M413 151 L670 151 Q858 151 947 211 Q1055 285 1055 443 Q1055 616 928 687 Q842 736 670 736 L413 736 L413 151 Z " />
<glyph glyph-name="afii10019" unicode="&#x412;" horiz-adv-x="1342" d="M237 151 L237 1324 L93 1324 L93 1475 L677 1475 Q913 1475 1034 1384 Q1159 1290 1159 1109 Q1159 974 1081 890 Q1036 841 954 804 Q1073 777 1144 699 Q1240 593 1240 431 Q1240 202 1062 87 Q928 0 669 0 L93 0 L93 151 L237 151 Z M413 867 L673 867 Q816 867 893 921 Q979 980 979 1093 Q979 1218 880 1279 Q806 1324 671 1324 L413 1324 L413 867 Z M413 151 L630 151 Q837 151 935 211 Q1056 284 1056 434 Q1056 590 933 666 Q843 721 695 721 L413 721 L413 151 Z " />
<glyph glyph-name="afii10020" unicode="&#x413;" horiz-adv-x="1146" d="M237 151 L237 1324 L93 1324 L93 1475 L1106 1475 L1106 1085 L950 1085 L950 1324 L417 1324 L417 151 L622 151 L622 0 L93 0 L93 151 L237 151 Z " />
<glyph glyph-name="afii10021" unicode="&#x414;" horiz-adv-x="1395" d="M1151 0 L166 0 L142 -360 L-7 -360 L-7 151 L141 151 Q201 254 238 520 Q280 827 280 1242 L280 1324 L136 1324 L136 1475 L1301 1475 L1301 1324 L1157 1324 L1157 151 L1324 151 L1324 -360 L1176 -360 L1151 0 Z M977 151 L977 1324 L453 1324 L453 1206 Q453 1046 438 792 Q414 381 330 151 L977 151 Z " />
<glyph glyph-name="afii10022" unicode="&#x415;" horiz-adv-x="1259" d="M237 151 L237 1324 L93 1324 L93 1475 L1142 1475 L1142 1116 L986 1116 L986 1324 L417 1324 L417 842 L929 842 L929 691 L417 691 L417 151 L996 151 L996 400 L1152 400 L1152 0 L93 0 L93 151 L237 151 Z " />
<glyph glyph-name="afii10024" unicode="&#x416;" horiz-adv-x="1949" d="M887 151 L887 702 L824 702 Q757 702 717 689 Q609 654 499 427 L292 0 L8 0 L8 151 L152 151 L342 507 Q415 646 467 709 Q505 756 562 791 L168 1324 L56 1324 L56 1475 L503 1475 L503 1332 L361 1332 L716 848 L887 848 L887 1332 L760 1332 L760 1475 L1188 1475 L1188 1332 L1061 1332 L1061 848 L1232 848 L1586 1332 L1445 1332 L1445 1475 L1892 1475 L1892 1324 L1780 1324 L1386 791 Q1442 756 1481 709 Q1532 646 1606 507 L1796 151 L1940 151 L1940 0 L1656 0 L1449 427 Q1367 595 1293 655 Q1234 702 1124 702 L1061 702 L1061 151 L1211 151 L1211 0 L737 0 L737 151 L887 151 Z " />
<glyph glyph-name="afii10025" unicode="&#x417;" horiz-adv-x="1307" d="M130 0 L130 433 L285 433 L285 401 Q285 296 334 240 Q382 184 479 150 Q558 123 659 123 Q1030 123 1030 423 Q1030 593 910 660 Q830 705 664 705 L414 705 L414 851 L620 851 Q787 851 868 909 Q973 983 973 1112 Q973 1226 897 1286 Q814 1352 666 1352 Q529 1352 425 1290 Q311 1221 311 1077 L311 1050 L156 1050 L156 1475 L304 1475 L304 1391 Q460 1506 693 1506 Q908 1506 1031 1412 Q1157 1317 1157 1127 Q1157 992 1094 903 Q1056 849 978 803 Q1214 727 1214 433 Q1214 176 1044 62 Q905 -31 676 -31 Q433 -31 278 84 L278 0 L130 0 Z " />
<glyph glyph-name="afii10026" unicode="&#x418;" horiz-adv-x="1494" d="M237 151 L237 1324 L93 1324 L93 1475 L568 1475 L568 1324 L417 1324 L417 414 L1077 1293 L1077 1324 L926 1324 L926 1475 L1401 1475 L1401 1324 L1257 1324 L1257 151 L1401 151 L1401 0 L926 0 L926 151 L1077 151 L1077 1058 L417 182 L417 151 L568 151 L568 0 L93 0 L93 151 L237 151 Z " />
<glyph glyph-name="afii10027" unicode="&#x419;" horiz-adv-x="1494" d="M237 151 L237 1324 L93 1324 L93 1475 L568 1475 L568 1324 L417 1324 L417 414 L1077 1293 L1077 1324 L926 1324 L926 1475 L1401 1475 L1401 1324 L1257 1324 L1257 151 L1401 151 L1401 0 L926 0 L926 151 L1077 151 L1077 1058 L417 182 L417 151 L568 151 L568 0 L93 0 L93 151 L237 151 Z M406 1911 L524 1911 Q530 1831 559 1801 Q603 1756 747 1756 Q902 1756 943 1811 Q964 1839 970 1911 L1089 1911 Q1088 1773 1054 1719 Q992 1619 747 1619 Q485 1619 430 1738 Q407 1789 406 1911 Z " />
<glyph glyph-name="afii10028" unicode="&#x41a;" horiz-adv-x="1366" d="M237 151 L237 1324 L93 1324 L93 1475 L568 1475 L568 1324 L417 1324 L417 848 L674 848 L1000 1324 L857 1324 L857 1475 L1317 1475 L1317 1324 L1198 1324 L827 790 Q896 747 943 677 Q979 624 1036 507 L1214 151 L1358 151 L1358 0 L1069 0 L869 435 Q800 586 746 640 Q683 702 562 702 L417 702 L417 151 L568 151 L568 0 L93 0 L93 151 L237 151 Z " />
<glyph glyph-name="afii10029" unicode="&#x41b;" horiz-adv-x="1400" d="M141 1324 L141 1475 L1307 1475 L1307 1324 L1163 1324 L1163 151 L1307 151 L1307 0 L831 0 L831 151 L983 151 L983 1324 L462 1324 L462 1247 Q462 877 429 546 Q405 305 359 189 Q318 84 238 39 Q171 0 56 0 L-11 0 L-11 151 L36 151 Q107 151 145 190 Q215 261 248 535 Q285 849 285 1242 L285 1324 L141 1324 Z " />
<glyph glyph-name="afii10030" unicode="&#x41c;" horiz-adv-x="1831" d="M202 151 L284 1324 L139 1324 L139 1475 L518 1475 L864 468 Q889 397 917 269 Q941 386 967 462 L1316 1475 L1691 1475 L1691 1324 L1546 1324 L1628 151 L1757 151 L1757 0 L1314 0 L1314 151 L1452 151 L1399 1023 Q1398 1047 1392 1246 Q1344 1068 1330 1028 L978 0 L853 0 L501 1026 Q492 1052 474 1118 Q462 1161 437 1246 Q432 1049 431 1024 L377 151 L517 151 L517 0 L73 0 L73 151 L202 151 Z " />
<glyph glyph-name="afii10031" unicode="&#x41d;" horiz-adv-x="1494" d="M237 151 L237 1324 L93 1324 L93 1475 L568 1475 L568 1324 L417 1324 L417 851 L1077 851 L1077 1324 L926 1324 L926 1475 L1401 1475 L1401 1324 L1257 1324 L1257 151 L1401 151 L1401 0 L926 0 L926 151 L1077 151 L1077 700 L417 700 L417 151 L568 151 L568 0 L93 0 L93 151 L237 151 Z " />
<glyph glyph-name="afii10032" unicode="&#x41e;" horiz-adv-x="1735" d="M868 1506 Q1102 1506 1291 1382 Q1479 1259 1568 1055 Q1632 907 1632 738 Q1632 439 1442 223 Q1329 95 1174 30 Q1031 -31 869 -31 Q518 -31 294 223 Q103 439 103 747 Q103 938 193 1108 Q298 1307 501 1417 Q667 1506 868 1506 Z M868 1348 Q612 1348 443 1165 Q287 995 287 746 Q287 481 443 310 Q612 127 869 127 Q1123 127 1292 310 Q1448 481 1448 738 Q1448 999 1292 1165 Q1119 1348 868 1348 Z " />
<glyph glyph-name="afii10033" unicode="&#x41f;" horiz-adv-x="1452" d="M237 151 L237 1324 L93 1324 L93 1475 L1359 1475 L1359 1324 L1215 1324 L1215 151 L1359 151 L1359 0 L890 0 L890 151 L1035 151 L1035 1324 L417 1324 L417 151 L561 151 L561 0 L93 0 L93 151 L237 151 Z " />
<glyph glyph-name="afii10034" unicode="&#x420;" horiz-adv-x="1260" d="M237 151 L237 1324 L93 1324 L93 1475 L585 1475 Q740 1475 842 1456 Q1016 1423 1107 1298 Q1188 1187 1188 1020 Q1188 858 1109 749 Q1023 630 842 594 Q724 571 586 571 L417 571 L417 151 L600 151 L600 0 L93 0 L93 151 L237 151 Z M417 719 L591 719 Q794 719 887 784 Q1004 864 1004 1024 Q1004 1178 895 1257 Q802 1324 596 1324 L417 1324 L417 719 Z " />
<glyph glyph-name="afii10035" unicode="&#x421;" horiz-adv-x="1497" d="M1274 348 L1388 227 Q1292 110 1184 54 Q1024 -31 810 -31 Q450 -31 268 190 Q103 390 103 722 Q103 1081 297 1297 Q484 1506 801 1506 Q1040 1506 1196 1391 L1196 1475 L1344 1475 L1344 1044 L1189 1044 L1189 1071 Q1189 1171 1140 1228 Q1091 1284 995 1317 Q911 1347 804 1347 Q549 1347 412 1161 Q287 990 287 723 Q287 451 428 286 Q560 130 814 130 Q994 130 1130 216 Q1183 250 1274 348 Z " />
<glyph glyph-name="afii10036" unicode="&#x422;" horiz-adv-x="1234" d="M527 151 L527 1324 L205 1324 L205 1085 L49 1085 L49 1475 L1185 1475 L1185 1085 L1029 1085 L1029 1324 L707 1324 L707 151 L903 151 L903 0 L332 0 L332 151 L527 151 Z " />
<glyph glyph-name="afii10037" unicode="&#x423;" horiz-adv-x="1260" d="M565 436 L138 1324 L11 1324 L11 1475 L470 1475 L470 1324 L330 1324 L651 625 L973 1324 L834 1324 L834 1475 L1274 1475 L1274 1324 L1157 1324 L546 0 L263 0 L263 151 L434 151 L565 436 Z " />
<glyph glyph-name="afii10038" unicode="&#x424;" horiz-adv-x="1834" d="M822 44 L822 150 Q567 165 404 246 Q96 399 96 738 Q96 952 227 1099 Q371 1261 653 1307 Q726 1319 822 1325 L822 1431 L677 1431 L677 1567 L1135 1567 L1135 1431 L991 1431 L991 1325 Q1284 1304 1431 1230 Q1738 1074 1738 738 Q1738 524 1607 377 Q1462 215 1170 169 Q1090 156 991 150 L991 44 L1135 44 L1135 -92 L677 -92 L677 44 L822 44 Z M822 298 L822 1177 Q627 1168 502 1106 Q280 995 280 738 Q280 333 822 298 Z M991 298 Q1554 325 1554 738 Q1554 1017 1292 1123 Q1185 1167 991 1177 L991 298 Z " />
<glyph glyph-name="afii10039" unicode="&#x425;" horiz-adv-x="1314" d="M182 151 L556 760 L211 1324 L55 1324 L55 1475 L555 1475 L555 1324 L416 1324 L669 893 L915 1324 L774 1324 L774 1475 L1257 1475 L1257 1324 L1111 1324 L762 759 L1132 151 L1298 151 L1298 0 L783 0 L783 151 L928 151 L650 628 L378 151 L524 151 L524 0 L9 0 L9 151 L182 151 Z " />
<glyph glyph-name="afii10040" unicode="&#x426;" horiz-adv-x="1450" d="M237 151 L237 1324 L93 1324 L93 1475 L560 1475 L560 1324 L417 1324 L417 151 L1033 151 L1033 1324 L889 1324 L889 1475 L1357 1475 L1357 1324 L1213 1324 L1213 151 L1380 151 L1380 -360 L1233 -360 L1207 0 L93 0 L93 151 L237 151 Z " />
<glyph glyph-name="afii10041" unicode="&#x427;" horiz-adv-x="1394" d="M977 151 L977 580 Q918 539 878 517 Q737 440 564 440 Q295 440 217 621 Q174 720 174 929 L174 1324 L49 1324 L49 1475 L491 1475 L491 1324 L354 1324 L354 923 Q354 750 393 687 Q450 596 612 596 Q755 596 874 673 Q921 703 977 750 L977 1324 L841 1324 L841 1475 L1302 1475 L1302 1324 L1157 1324 L1157 151 L1302 151 L1302 0 L773 0 L773 151 L977 151 Z " />
<glyph glyph-name="afii10042" unicode="&#x428;" horiz-adv-x="2062" d="M237 151 L237 1324 L93 1324 L93 1475 L551 1475 L551 1324 L417 1324 L417 151 L941 151 L941 1324 L807 1324 L807 1475 L1255 1475 L1255 1324 L1121 1324 L1121 151 L1645 151 L1645 1324 L1511 1324 L1511 1475 L1969 1475 L1969 1324 L1825 1324 L1825 151 L1969 151 L1969 0 L93 0 L93 151 L237 151 Z " />
<glyph glyph-name="afii10043" unicode="&#x429;" horiz-adv-x="2062" d="M237 151 L237 1324 L93 1324 L93 1475 L551 1475 L551 1324 L417 1324 L417 151 L941 151 L941 1324 L807 1324 L807 1475 L1255 1475 L1255 1324 L1121 1324 L1121 151 L1645 151 L1645 1324 L1511 1324 L1511 1475 L1969 1475 L1969 1324 L1825 1324 L1825 151 L1992 151 L1992 -360 L1844 -360 L1819 0 L93 0 L93 151 L237 151 Z " />
<glyph glyph-name="afii10044" unicode="&#x42a;" horiz-adv-x="1694" d="M621 151 L621 1324 L227 1324 L227 1085 L71 1085 L71 1475 L950 1475 L950 1324 L797 1324 L797 883 L1094 883 Q1334 883 1458 796 Q1623 681 1623 441 Q1623 201 1458 87 Q1334 0 1094 0 L477 0 L477 151 L621 151 Z M797 151 L1054 151 Q1242 151 1331 211 Q1439 285 1439 443 Q1439 616 1312 687 Q1226 736 1054 736 L797 736 L797 151 Z " />
<glyph glyph-name="afii10045" unicode="&#x42b;" horiz-adv-x="1850" d="M237 151 L237 1324 L93 1324 L93 1475 L567 1475 L567 1324 L413 1324 L413 883 L711 883 Q951 883 1075 796 Q1240 681 1240 441 Q1240 201 1075 87 Q951 0 711 0 L93 0 L93 151 L237 151 Z M413 151 L671 151 Q859 151 948 211 Q1056 285 1056 443 Q1056 616 929 687 Q843 736 671 736 L413 736 L413 151 Z M1430 151 L1430 1324 L1285 1324 L1285 1475 L1754 1475 L1754 1324 L1610 1324 L1610 151 L1754 151 L1754 0 L1285 0 L1285 151 L1430 151 Z " />
<glyph glyph-name="afii10046" unicode="&#x42c;" horiz-adv-x="1311" d="M237 151 L237 1324 L93 1324 L93 1475 L567 1475 L567 1324 L413 1324 L413 883 L711 883 Q951 883 1075 796 Q1240 681 1240 441 Q1240 201 1075 87 Q951 0 711 0 L93 0 L93 151 L237 151 Z M413 151 L671 151 Q859 151 948 211 Q1056 285 1056 443 Q1056 616 929 687 Q843 736 671 736 L413 736 L413 151 Z " />
<glyph glyph-name="afii10047" unicode="&#x42d;" horiz-adv-x="1427" d="M128 0 L128 433 L283 433 L283 401 Q283 300 335 245 Q386 189 485 157 Q566 131 663 131 Q862 131 974 247 Q1080 357 1118 529 Q1131 587 1140 702 L516 702 L516 848 L1136 848 Q1121 1005 1057 1119 Q931 1347 665 1347 Q520 1347 419 1284 Q308 1215 308 1071 L308 1044 L153 1044 L153 1475 L301 1475 L301 1391 Q448 1506 671 1506 Q991 1506 1170 1273 Q1326 1070 1326 746 Q1326 373 1144 164 Q977 -30 670 -30 Q430 -30 276 84 L276 0 L128 0 Z " />
<glyph glyph-name="afii10048" unicode="&#x42e;" horiz-adv-x="2331" d="M237 151 L237 1324 L93 1324 L93 1475 L568 1475 L568 1324 L417 1324 L417 851 L767 851 Q794 1033 877 1164 Q979 1328 1142 1418 Q1301 1506 1496 1506 Q1837 1506 2052 1253 Q2234 1037 2234 737 Q2234 438 2052 223 Q1837 -31 1497 -31 Q1230 -31 1034 131 Q782 340 761 700 L417 700 L417 151 L568 151 L568 0 L93 0 L93 151 L237 151 Z M1497 1348 Q1250 1348 1091 1166 Q943 996 943 745 Q943 479 1091 309 Q1249 127 1498 127 Q1744 127 1902 309 Q2050 479 2050 737 Q2050 999 1902 1166 Q1741 1348 1497 1348 Z " />
<glyph glyph-name="afii10049" unicode="&#x42f;" horiz-adv-x="1326" d="M909 637 L740 637 Q624 637 568 615 Q508 591 461 515 Q436 472 403 372 L281 0 L-9 0 L-9 151 L129 151 L239 464 Q278 575 312 623 Q342 664 394 693 Q274 746 230 790 Q126 894 126 1064 Q126 1219 205 1322 Q290 1433 452 1460 Q542 1475 684 1475 L1233 1475 L1233 1324 L1089 1324 L1089 151 L1233 151 L1233 0 L738 0 L738 151 L909 151 L909 637 Z M909 785 L909 1324 L689 1324 Q479 1324 399 1259 Q310 1187 310 1056 Q310 891 445 825 Q525 785 702 785 L909 785 Z " />
<glyph glyph-name="afii10065" unicode="&#x430;" horiz-adv-x="1149" d="M792 582 L792 630 Q792 749 751 793 Q695 853 534 853 Q412 853 365 809 Q335 780 327 702 L164 702 Q168 852 244 920 Q330 998 536 998 Q800 998 896 888 Q945 831 961 733 Q969 684 969 593 L969 151 L1107 151 L1107 0 L807 0 L807 111 Q673 -29 443 -29 Q269 -29 173 45 Q75 121 75 277 Q75 469 221 545 Q312 592 523 592 Q610 592 792 582 Z M795 444 Q682 456 530 456 Q374 456 319 423 Q250 381 250 283 Q250 200 300 161 Q354 119 474 119 Q665 119 753 220 Q785 256 792 301 Q795 321 795 364 L795 444 Z " />
<glyph glyph-name="afii10066" unicode="&#x431;" horiz-adv-x="1174" d="M284 846 Q337 902 380 930 Q482 998 626 998 Q836 998 965 854 Q1094 711 1094 486 Q1094 259 960 115 Q825 -29 602 -29 Q366 -29 234 117 Q154 206 128 316 Q103 419 103 544 Q103 817 141 1018 Q191 1280 367 1353 Q453 1388 674 1420 Q758 1432 780 1461 Q792 1476 792 1509 L792 1516 L948 1516 L948 1490 Q948 1385 906 1342 Q876 1311 814 1295 Q786 1287 673 1272 Q483 1246 424 1214 Q337 1167 304 1001 Q302 988 284 846 Z M606 847 Q447 847 356 733 Q280 638 280 489 Q280 332 356 236 Q446 122 606 122 Q758 122 843 235 Q917 332 917 485 Q917 639 843 734 Q755 847 606 847 Z " />
<glyph glyph-name="afii10067" unicode="&#x432;" horiz-adv-x="1187" d="M226 151 L226 818 L79 818 L79 969 L683 969 Q884 969 966 923 Q1069 866 1069 725 Q1069 573 926 510 Q1000 489 1041 454 Q1110 395 1110 277 Q1110 113 981 47 Q890 0 689 0 L79 0 L79 151 L226 151 Z M400 567 L612 567 Q763 567 814 590 Q892 625 892 710 Q892 779 830 807 Q785 828 654 828 L400 828 L400 567 Z M400 142 L642 142 Q790 142 849 167 Q926 199 926 284 Q926 376 842 410 Q781 434 612 434 L400 434 L400 142 Z " />
<glyph glyph-name="afii10068" unicode="&#x433;" horiz-adv-x="966" d="M226 151 L226 818 L79 818 L79 969 L936 969 L936 650 L785 650 L785 818 L400 818 L400 151 L601 151 L601 0 L79 0 L79 151 L226 151 Z " />
<glyph glyph-name="afii10069" unicode="&#x434;" horiz-adv-x="1239" d="M1012 0 L164 0 L137 -314 L0 -314 L0 151 L123 151 Q209 229 250 357 Q300 516 300 756 L300 818 L153 818 L153 969 L1152 969 L1152 818 L1006 818 L1006 151 L1176 151 L1176 -314 L1039 -314 L1012 0 Z M832 151 L832 818 L469 818 L469 772 Q469 528 428 364 Q400 253 322 151 L832 151 Z " />
<glyph glyph-name="afii10070" unicode="&#x435;" horiz-adv-x="1136" d="M1060 435 L260 435 Q273 328 311 267 Q401 122 593 122 Q718 122 836 176 Q884 197 955 243 L1041 113 Q826 -30 591 -30 Q355 -30 215 117 Q79 259 79 485 Q79 711 213 853 Q348 998 574 998 Q758 998 883 893 Q1058 746 1060 435 Z M875 574 Q858 672 816 731 Q730 851 570 851 Q394 851 311 708 Q279 652 264 574 L875 574 Z " />
<glyph glyph-name="afii10072" unicode="&#x436;" horiz-adv-x="1659" d="M746 151 L746 434 L721 434 Q634 434 594 403 Q564 379 545 352 Q542 347 526 320 Q507 289 506 288 L247 0 L15 0 L15 151 L142 151 L388 419 Q436 481 472 506 L184 818 L63 818 L63 969 L482 969 L482 826 L380 826 L606 566 L746 566 L746 826 L643 826 L643 969 L1016 969 L1016 826 L913 826 L913 566 L1054 566 L1280 826 L1178 826 L1178 969 L1597 969 L1597 818 L1476 818 L1188 506 Q1224 481 1272 419 L1519 151 L1645 151 L1645 0 L1413 0 L1154 288 Q1153 289 1121 341 Q1087 399 1037 420 Q1006 434 938 434 L913 434 L913 151 L1050 151 L1050 0 L610 0 L610 151 L746 151 Z " />
<glyph glyph-name="afii10073" unicode="&#x437;" horiz-adv-x="1021" d="M83 0 L83 287 L231 287 L231 257 Q231 192 277 163 Q352 117 509 117 Q780 117 780 278 Q780 372 708 407 Q663 429 563 429 L324 429 L324 565 L543 565 Q627 565 673 598 Q733 641 733 714 Q733 853 511 853 Q380 853 303 803 Q259 775 259 712 L259 682 L112 682 L112 969 L249 969 L249 927 Q365 998 539 998 Q910 998 910 725 Q910 578 793 520 Q865 494 897 463 Q957 404 957 287 Q957 -29 528 -29 Q329 -29 221 43 L221 0 L83 0 Z " />
<glyph glyph-name="afii10074" unicode="&#x438;" horiz-adv-x="1309" d="M226 151 L226 818 L79 818 L79 969 L539 969 L539 818 L397 818 L397 354 L913 789 L913 818 L771 818 L771 969 L1231 969 L1231 818 L1084 818 L1084 151 L1231 151 L1231 0 L771 0 L771 151 L913 151 L913 615 L397 180 L397 151 L539 151 L539 0 L79 0 L79 151 L226 151 Z " />
<glyph glyph-name="afii10075" unicode="&#x439;" horiz-adv-x="1309" d="M226 151 L226 818 L79 818 L79 969 L539 969 L539 818 L397 818 L397 354 L913 789 L913 818 L771 818 L771 969 L1231 969 L1231 818 L1084 818 L1084 151 L1231 151 L1231 0 L771 0 L771 151 L913 151 L913 615 L397 180 L397 151 L539 151 L539 0 L79 0 L79 151 L226 151 Z M335 1434 L454 1434 Q460 1354 485 1325 Q525 1279 655 1279 Q795 1279 832 1334 Q851 1362 856 1434 L974 1434 Q973 1296 942 1242 Q884 1142 655 1142 Q409 1142 358 1262 Q336 1311 335 1434 Z " />
<glyph glyph-name="afii10076" unicode="&#x43a;" horiz-adv-x="1189" d="M226 151 L226 818 L79 818 L79 969 L532 969 L532 818 L400 818 L400 570 L572 570 L816 818 L722 818 L722 969 L1145 969 L1145 818 L1024 818 L714 510 Q751 485 803 419 L1049 151 L1175 151 L1175 0 L935 0 L680 283 Q678 286 646 338 Q609 398 561 419 Q529 433 460 433 L400 433 L400 151 L542 151 L542 0 L79 0 L79 151 L226 151 Z " />
<glyph glyph-name="afii10077" unicode="&#x43b;" horiz-adv-x="1182" d="M100 818 L100 969 L1104 969 L1104 818 L957 818 L957 151 L1104 151 L1104 0 L641 0 L641 151 L783 151 L783 818 L415 818 L415 760 Q415 365 345 185 Q273 0 40 0 L-26 0 L-19 151 L31 151 Q118 151 161 202 Q246 300 246 762 L246 818 L100 818 Z " />
<glyph glyph-name="afii10078" unicode="&#x43c;" horiz-adv-x="1504" d="M182 151 L253 818 L116 818 L116 969 L490 969 L753 258 L1015 969 L1390 969 L1390 818 L1252 818 L1324 151 L1475 151 L1475 0 L1030 0 L1030 151 L1156 151 L1096 758 L814 0 L691 0 L410 758 L350 151 L475 151 L475 0 L30 0 L30 151 L182 151 Z " />
<glyph glyph-name="afii10079" unicode="&#x43d;" horiz-adv-x="1304" d="M226 151 L226 818 L79 818 L79 969 L542 969 L542 818 L400 818 L400 572 L906 572 L906 818 L763 818 L763 969 L1226 969 L1226 818 L1080 818 L1080 151 L1226 151 L1226 0 L763 0 L763 151 L906 151 L906 431 L400 431 L400 151 L542 151 L542 0 L79 0 L79 151 L226 151 Z " />
<glyph glyph-name="afii10080" unicode="&#x43e;" horiz-adv-x="1201" d="M600 998 Q833 998 979 852 Q1120 710 1120 485 Q1120 259 979 117 Q834 -29 602 -29 Q366 -29 222 117 Q80 259 80 492 Q80 714 222 852 Q371 998 600 998 Z M600 847 Q435 847 338 733 Q257 638 257 489 Q257 332 338 236 Q434 122 601 122 Q766 122 862 236 Q943 332 943 484 Q943 639 862 733 Q763 847 600 847 Z " />
<glyph glyph-name="afii10081" unicode="&#x43f;" horiz-adv-x="1274" d="M226 151 L226 818 L79 818 L79 969 L1196 969 L1196 818 L1050 818 L1050 151 L1196 151 L1196 0 L739 0 L739 151 L875 151 L875 818 L400 818 L400 151 L536 151 L536 0 L79 0 L79 151 L226 151 Z " />
<glyph glyph-name="afii10082" unicode="&#x440;" horiz-adv-x="1275" d="M214 -271 L214 818 L65 818 L65 969 L375 969 L375 817 Q423 877 462 908 Q573 998 734 998 Q943 998 1072 852 Q1196 711 1196 484 Q1196 258 1072 117 Q943 -29 736 -29 Q578 -29 465 63 Q430 91 388 141 L388 -271 L564 -271 L564 -422 L65 -422 L65 -271 L214 -271 Z M708 847 Q558 847 468 733 Q388 632 388 489 Q388 338 468 236 Q557 122 708 122 Q858 122 945 235 Q1019 332 1019 485 Q1019 650 935 746 Q847 847 708 847 Z " />
<glyph glyph-name="afii10083" unicode="&#x441;" horiz-adv-x="1027" d="M897 248 L990 127 Q820 -29 559 -29 Q340 -29 215 95 Q80 229 80 475 Q80 709 203 854 Q326 998 537 998 Q685 998 795 914 L795 969 L933 969 L933 637 L786 637 L786 667 Q786 746 746 784 Q678 848 559 848 Q409 848 330 741 Q257 642 257 479 Q257 303 351 207 Q432 123 572 123 Q749 123 897 248 Z " />
<glyph glyph-name="afii10084" unicode="&#x442;" horiz-adv-x="1041" d="M433 151 L433 821 L193 821 L193 650 L42 650 L42 969 L998 969 L998 650 L848 650 L848 821 L607 821 L607 151 L810 151 L810 0 L231 0 L231 151 L433 151 Z " />
<glyph glyph-name="afii10085" unicode="&#x443;" horiz-adv-x="1076" d="M111 818 L8 818 L8 969 L468 969 L468 818 L293 818 L503 357 Q506 350 551 238 Q576 307 605 375 L790 818 L621 818 L621 969 L1076 969 L1076 818 L967 818 L546 -147 Q474 -310 404 -363 Q340 -411 237 -419 Q210 -422 155 -422 L155 -271 Q254 -270 292 -248 Q345 -217 389 -112 L462 61 L111 818 Z " />
<glyph glyph-name="afii10086" unicode="&#x444;" horiz-adv-x="1598" d="M718 -296 L718 91 Q676 44 637 19 Q563 -29 463 -29 Q277 -29 182 97 Q80 234 80 482 Q80 729 181 868 Q275 998 463 998 Q563 998 638 949 Q678 923 718 878 L718 1324 L599 1324 L599 1475 L880 1475 L880 876 Q980 998 1137 998 Q1323 998 1417 868 Q1518 729 1518 483 Q1518 235 1416 97 Q1322 -29 1137 -29 Q1035 -29 960 20 Q919 46 880 91 L880 -296 L1087 -296 L1087 -447 L511 -447 L511 -296 L718 -296 Z M718 412 L718 555 Q718 634 705 675 Q680 753 622 801 Q566 847 487 847 Q366 847 312 747 Q257 646 257 485 Q257 323 312 222 Q366 122 487 122 Q609 122 676 231 Q718 299 718 412 Z M880 555 L880 412 Q880 336 893 296 Q917 217 976 168 Q1032 122 1111 122 Q1232 122 1286 222 Q1341 323 1341 485 Q1341 646 1286 747 Q1232 847 1111 847 Q990 847 922 739 Q893 691 884 639 Q880 614 880 555 Z " />
<glyph glyph-name="afii10087" unicode="&#x445;" horiz-adv-x="1136" d="M460 517 L206 818 L57 818 L57 969 L518 969 L518 833 L393 833 L587 595 L780 833 L654 833 L654 969 L1099 969 L1099 818 L957 818 L677 501 L971 151 L1117 151 L1117 0 L634 0 L634 143 L780 143 L552 422 L326 143 L470 143 L470 0 L10 0 L10 151 L149 151 L460 517 Z " />
<glyph glyph-name="afii10088" unicode="&#x446;" horiz-adv-x="1286" d="M226 151 L226 818 L79 818 L79 969 L539 969 L539 818 L400 818 L400 151 L879 151 L879 818 L741 818 L741 969 L1200 969 L1200 818 L1054 818 L1054 151 L1224 151 L1224 -314 L1087 -314 L1060 0 L79 0 L79 151 L226 151 Z " />
<glyph glyph-name="afii10089" unicode="&#x447;" horiz-adv-x="1192" d="M792 151 L792 402 Q654 318 471 318 Q227 318 152 466 Q115 538 115 716 L115 818 L-13 818 L-13 969 L435 969 L435 818 L290 818 L290 677 Q290 569 333 522 Q383 469 514 469 Q676 469 792 564 L792 818 L656 818 L656 969 L1114 969 L1114 818 L967 818 L967 151 L1114 151 L1114 0 L641 0 L641 151 L792 151 Z " />
<glyph glyph-name="afii10090" unicode="&#x448;" horiz-adv-x="1800" d="M226 151 L226 818 L79 818 L79 969 L536 969 L536 818 L400 818 L400 151 L813 151 L813 818 L678 818 L678 969 L1123 969 L1123 818 L988 818 L988 151 L1401 151 L1401 818 L1265 818 L1265 969 L1722 969 L1722 818 L1575 818 L1575 151 L1722 151 L1722 0 L79 0 L79 151 L226 151 Z " />
<glyph glyph-name="afii10091" unicode="&#x449;" horiz-adv-x="1808" d="M226 151 L226 818 L79 818 L79 969 L536 969 L536 818 L400 818 L400 151 L813 151 L813 818 L678 818 L678 969 L1123 969 L1123 818 L988 818 L988 151 L1401 151 L1401 818 L1265 818 L1265 969 L1722 969 L1722 818 L1575 818 L1575 151 L1745 151 L1745 -314 L1608 -314 L1581 0 L79 0 L79 151 L226 151 Z " />
<glyph glyph-name="afii10092" unicode="&#x44a;" horiz-adv-x="1365" d="M447 151 L447 818 L177 818 L177 660 L26 660 L26 969 L804 969 L804 818 L621 818 L621 622 L885 622 Q1116 622 1205 561 Q1314 485 1314 311 Q1314 123 1184 50 Q1094 0 885 0 L301 0 L301 151 L447 151 Z M621 143 L860 143 Q1003 143 1063 171 Q1137 206 1137 313 Q1137 430 1051 462 Q992 483 860 483 L621 483 L621 143 Z " />
<glyph glyph-name="afii10093" unicode="&#x44b;" horiz-adv-x="1699" d="M226 151 L226 818 L79 818 L79 969 L582 969 L582 818 L400 818 L400 622 L663 622 Q894 622 983 561 Q1092 485 1092 311 Q1092 123 962 50 Q873 0 663 0 L79 0 L79 151 L226 151 Z M400 143 L638 143 Q782 143 841 171 Q915 206 915 313 Q915 430 829 462 Q770 483 638 483 L400 483 L400 143 Z M1290 151 L1290 818 L1147 818 L1147 969 L1610 969 L1610 818 L1464 818 L1464 151 L1610 151 L1610 0 L1147 0 L1147 151 L1290 151 Z " />
<glyph glyph-name="afii10094" unicode="&#x44c;" horiz-adv-x="1142" d="M226 151 L226 818 L79 818 L79 969 L582 969 L582 818 L400 818 L400 622 L663 622 Q894 622 983 561 Q1092 485 1092 311 Q1092 123 962 50 Q873 0 663 0 L79 0 L79 151 L226 151 Z M400 143 L638 143 Q782 143 841 171 Q915 206 915 313 Q915 430 829 462 Q770 483 638 483 L400 483 L400 143 Z " />
<glyph glyph-name="afii10095" unicode="&#x44d;" horiz-adv-x="1053" d="M83 0 L83 287 L231 287 L231 257 Q231 198 280 169 Q362 122 478 122 Q772 122 792 429 L318 429 L318 565 L790 565 Q776 653 742 712 Q664 847 497 847 Q375 847 302 787 Q260 753 260 682 L260 652 L112 652 L112 969 L250 969 L250 914 Q365 998 520 998 Q732 998 853 853 Q974 708 974 473 Q974 226 843 92 Q725 -28 503 -28 Q341 -28 221 43 L221 0 L83 0 Z " />
<glyph glyph-name="afii10096" unicode="&#x44e;" horiz-adv-x="1761" d="M226 151 L226 818 L79 818 L79 969 L542 969 L542 818 L400 818 L400 572 L681 572 Q700 701 765 796 Q904 998 1178 998 Q1404 998 1544 853 Q1681 710 1681 484 Q1681 259 1544 117 Q1405 -29 1178 -29 Q1000 -29 874 62 Q700 188 678 431 L400 431 L400 151 L542 151 L542 0 L79 0 L79 151 L226 151 Z M1178 847 Q1021 847 929 734 Q852 638 852 489 Q852 331 929 235 Q1020 122 1179 122 Q1336 122 1427 235 Q1504 331 1504 484 Q1504 639 1427 734 Q1335 847 1178 847 Z " />
<glyph glyph-name="afii10097" unicode="&#x44f;" horiz-adv-x="1225" d="M826 390 L597 390 Q525 390 493 353 Q469 326 406 215 L286 0 L28 0 L28 151 L175 151 L277 321 Q321 395 354 421 Q137 480 137 684 Q137 847 259 920 Q341 969 522 969 L1147 969 L1147 818 L1001 818 L1001 151 L1147 151 L1147 0 L691 0 L691 151 L826 151 L826 390 Z M826 526 L826 827 L553 827 Q415 827 365 791 Q314 755 314 680 Q314 526 538 526 L826 526 Z " />
<glyph glyph-name="uni0450" unicode="&#x450;" horiz-adv-x="1136" d="M1060 435 L260 435 Q273 328 311 267 Q401 122 593 122 Q718 122 836 176 Q884 197 955 243 L1041 113 Q826 -30 591 -30 Q355 -30 215 117 Q79 259 79 485 Q79 711 213 853 Q348 998 574 998 Q758 998 883 893 Q1058 746 1060 435 Z M875 574 Q858 672 816 731 Q730 851 570 851 Q394 851 311 708 Q279 652 264 574 L875 574 Z M585 1118 L306 1467 L502 1467 L709 1118 L585 1118 Z " />
<glyph glyph-name="afii10071" unicode="&#x451;" horiz-adv-x="1137" d="M1060 435 L260 435 Q273 328 311 267 Q401 122 593 122 Q718 122 836 176 Q884 197 955 243 L1041 113 Q826 -30 591 -30 Q355 -30 215 117 Q79 259 79 485 Q79 711 213 853 Q348 998 574 998 Q758 998 883 893 Q1058 746 1060 435 Z M875 574 Q858 672 816 731 Q730 851 570 851 Q394 851 311 708 Q279 652 264 574 L875 574 Z M312 1174 L312 1368 L489 1368 L489 1174 L312 1174 Z M660 1174 L660 1368 L837 1368 L837 1174 L660 1174 Z " />
<glyph glyph-name="afii10099" unicode="&#x452;" horiz-adv-x="1242" d="M218 151 L218 1115 L52 1115 L52 1218 L218 1218 L218 1340 L68 1340 L68 1475 L392 1475 L392 1218 L704 1218 L704 1115 L392 1115 L392 816 Q474 892 527 926 Q639 998 762 998 Q942 998 1011 868 Q1045 804 1055 703 Q1060 654 1060 561 L1060 1 Q1060 -154 1033 -230 Q988 -358 853 -401 Q801 -417 714 -422 L714 -271 Q814 -262 849 -210 Q873 -174 881 -120 Q886 -87 886 -4 L886 570 Q886 691 866 747 Q833 839 717 839 Q621 839 515 759 Q479 731 392 640 L392 151 L532 151 L532 0 L68 0 L68 151 L218 151 Z " />
<glyph glyph-name="afii10100" unicode="&#x453;" horiz-adv-x="966" d="M226 151 L226 818 L79 818 L79 969 L936 969 L936 650 L785 650 L785 818 L400 818 L400 151 L601 151 L601 0 L79 0 L79 151 L226 151 Z M414 1118 L622 1467 L845 1467 L547 1118 L414 1118 Z " />
<glyph glyph-name="afii10101" unicode="&#x454;" horiz-adv-x="1035" d="M740 562 L740 426 L263 426 Q278 300 327 235 Q412 123 577 123 Q756 123 906 248 L999 127 Q829 -29 564 -29 Q343 -29 216 95 Q80 229 80 474 Q80 708 201 853 Q321 998 534 998 Q689 998 804 914 L804 969 L942 969 L942 652 L794 652 L794 682 Q794 753 752 787 Q679 847 557 847 Q310 847 264 562 L740 562 Z " />
<glyph glyph-name="afii10102" unicode="&#x455;" horiz-adv-x="983" d="M89 0 L89 319 L236 319 L236 285 Q236 210 286 173 Q367 113 521 113 Q626 113 683 150 Q744 189 744 268 Q744 333 689 370 Q661 389 601 402 Q592 404 462 426 Q328 448 268 472 Q95 539 95 710 Q95 840 188 921 Q278 998 435 998 Q540 998 619 962 Q650 947 695 916 L695 969 L833 969 L833 672 L686 672 L686 690 Q686 759 641 795 Q568 855 448 855 Q354 855 308 815 Q266 778 266 720 Q266 658 331 623 Q368 603 517 577 Q658 553 716 534 Q911 469 911 270 Q911 124 805 43 Q710 -29 528 -29 Q354 -29 226 53 L226 0 L89 0 Z " />
<glyph glyph-name="afii10103" unicode="&#x456;" horiz-adv-x="606" d="M231 151 L231 818 L80 818 L80 969 L405 969 L405 151 L552 151 L552 0 L74 0 L74 151 L231 151 Z M217 1164 L217 1368 L416 1368 L416 1164 L217 1164 Z " />
<glyph glyph-name="afii10104" unicode="&#x457;" horiz-adv-x="606" d="M231 151 L231 818 L80 818 L80 969 L405 969 L405 151 L551 151 L551 0 L73 0 L73 151 L231 151 Z M40 1174 L40 1368 L217 1368 L217 1174 L40 1174 Z M388 1174 L388 1368 L565 1368 L565 1174 L388 1174 Z " />
<glyph glyph-name="afii10105" unicode="&#x458;" horiz-adv-x="581" d="M69 818 L69 969 L396 969 L396 -33 Q396 -177 369 -246 Q323 -364 189 -403 Q138 -418 51 -422 L51 -271 Q110 -266 138 -255 Q192 -233 210 -170 Q222 -129 222 -38 L222 818 L69 818 Z M208 1164 L208 1368 L407 1368 L407 1164 L208 1164 Z " />
<glyph glyph-name="afii10106" unicode="&#x459;" horiz-adv-x="1700" d="M783 151 L783 818 L415 818 L415 760 Q415 365 345 185 Q273 0 40 0 L-26 0 L-19 151 L31 151 Q118 151 161 202 Q246 301 246 762 L246 818 L100 818 L100 969 L1139 969 L1139 818 L958 818 L958 622 L1220 622 Q1451 622 1540 561 Q1649 485 1649 313 Q1649 123 1519 50 Q1430 0 1220 0 L641 0 L641 151 L783 151 Z M958 143 L1195 143 Q1339 143 1398 171 Q1472 206 1472 313 Q1472 430 1386 462 Q1327 483 1195 483 L958 483 L958 143 Z " />
<glyph glyph-name="afii10107" unicode="&#x45a;" horiz-adv-x="1822" d="M226 151 L226 818 L79 818 L79 969 L542 969 L542 818 L400 818 L400 588 L905 588 L905 818 L763 818 L763 969 L1262 969 L1262 818 L1079 818 L1079 596 L1343 596 Q1574 596 1662 539 Q1772 469 1772 307 Q1772 122 1642 50 Q1553 0 1343 0 L763 0 L763 151 L905 151 L905 447 L400 447 L400 151 L542 151 L542 0 L79 0 L79 151 L226 151 Z M1079 143 L1318 143 Q1461 143 1521 171 Q1595 205 1595 308 Q1595 412 1509 440 Q1451 458 1318 458 L1079 458 L1079 143 Z " />
<glyph glyph-name="afii10108" unicode="&#x45b;" horiz-adv-x="1230" d="M218 151 L218 1115 L52 1115 L52 1218 L218 1218 L218 1340 L68 1340 L68 1475 L392 1475 L392 1218 L704 1218 L704 1115 L392 1115 L392 816 Q474 892 527 926 Q639 998 762 998 Q942 998 1011 868 Q1045 804 1055 703 Q1060 654 1060 561 L1060 151 L1208 151 L1208 0 L751 0 L751 151 L886 151 L886 570 Q886 691 866 747 Q834 839 718 839 Q621 839 515 759 Q479 731 392 640 L392 151 L532 151 L532 0 L68 0 L68 151 L218 151 Z " />
<glyph glyph-name="afii10109" unicode="&#x45c;" horiz-adv-x="1189" d="M226 151 L226 818 L79 818 L79 969 L532 969 L532 818 L400 818 L400 570 L572 570 L816 818 L722 818 L722 969 L1145 969 L1145 818 L1024 818 L714 510 Q751 485 803 419 L1049 151 L1175 151 L1175 0 L935 0 L680 283 Q678 286 646 338 Q609 398 561 419 Q529 433 460 433 L400 433 L400 151 L542 151 L542 0 L79 0 L79 151 L226 151 Z M514 1118 L721 1467 L944 1467 L646 1118 L514 1118 Z " />
<glyph glyph-name="uni045D" unicode="&#x45d;" horiz-adv-x="1309" d="M226 151 L226 818 L79 818 L79 969 L539 969 L539 818 L397 818 L397 354 L913 789 L913 818 L771 818 L771 969 L1231 969 L1231 818 L1084 818 L1084 151 L1231 151 L1231 0 L771 0 L771 151 L913 151 L913 615 L397 180 L397 151 L539 151 L539 0 L79 0 L79 151 L226 151 Z M649 1118 L370 1467 L566 1467 L773 1118 L649 1118 Z " />
<glyph glyph-name="afii10110" unicode="&#x45e;" horiz-adv-x="1076" d="M111 818 L8 818 L8 969 L468 969 L468 818 L293 818 L503 357 Q506 350 551 238 Q576 307 605 375 L790 818 L621 818 L621 969 L1076 969 L1076 818 L967 818 L546 -147 Q474 -310 404 -363 Q340 -411 237 -419 Q210 -422 155 -422 L155 -271 Q254 -270 292 -248 Q345 -217 389 -112 L462 61 L111 818 Z M218 1434 L337 1434 Q342 1354 368 1325 Q408 1279 538 1279 Q678 1279 715 1334 Q734 1362 739 1434 L857 1434 Q856 1296 825 1242 Q767 1142 538 1142 Q292 1142 241 1262 Q220 1310 218 1434 Z " />
<glyph glyph-name="afii10193" unicode="&#x45f;" horiz-adv-x="1278" d="M226 151 L226 818 L79 818 L79 969 L539 969 L539 818 L400 818 L400 151 L880 151 L880 818 L741 818 L741 969 L1200 969 L1200 818 L1054 818 L1054 151 L1200 151 L1200 0 L732 0 L704 -314 L576 -314 L548 0 L79 0 L79 151 L226 151 Z " />
<glyph glyph-name="uni0462" unicode="&#x462;" horiz-adv-x="1559" d="M482 151 L482 1324 L201 1324 L201 1085 L45 1085 L45 1475 L1146 1475 L1146 1113 L990 1113 L990 1324 L662 1324 L662 883 L959 883 Q1200 883 1324 796 Q1489 681 1489 441 Q1489 202 1324 87 Q1200 0 959 0 L337 0 L337 151 L482 151 Z M662 151 L919 151 Q1108 151 1197 211 Q1305 285 1305 443 Q1305 616 1178 688 Q1092 736 919 736 L662 736 L662 151 Z " />
<glyph glyph-name="uni0463" unicode="&#x463;" horiz-adv-x="1224" d="M160 0 L160 1115 L-6 1115 L-6 1218 L160 1218 L160 1339 L10 1339 L10 1475 L334 1475 L334 1218 L646 1218 L646 1115 L334 1115 L334 828 Q377 879 408 906 Q518 998 681 998 Q889 998 1018 852 Q1142 711 1142 485 Q1142 258 1018 117 Q889 -29 680 -29 Q460 -29 321 152 L314 0 L160 0 Z M654 847 Q504 847 414 733 Q334 632 334 489 Q334 337 414 236 Q503 122 654 122 Q804 122 891 235 Q965 332 965 485 Q965 649 881 746 Q793 847 654 847 Z " />
<glyph glyph-name="afii10050" unicode="&#x490;" horiz-adv-x="1146" d="M237 151 L237 1324 L93 1324 L93 1475 L919 1475 L957 1835 L1106 1835 L1106 1085 L950 1085 L950 1324 L417 1324 L417 151 L622 151 L622 0 L93 0 L93 151 L237 151 Z " />
<glyph glyph-name="afii10098" unicode="&#x491;" horiz-adv-x="966" d="M226 151 L226 818 L79 818 L79 969 L764 969 L797 1278 L936 1278 L936 650 L785 650 L785 818 L400 818 L400 151 L601 151 L601 0 L79 0 L79 151 L226 151 Z " />
<glyph glyph-name="uni0492" unicode="&#x492;" horiz-adv-x="1146" d="M238 151 L238 711 L20 711 L20 848 L238 848 L238 1324 L93 1324 L93 1475 L1107 1475 L1107 1085 L951 1085 L951 1324 L418 1324 L418 848 L801 848 L801 711 L418 711 L418 151 L622 151 L622 0 L93 0 L93 151 L238 151 Z " />
<glyph glyph-name="uni0493" unicode="&#x493;" horiz-adv-x="966" d="M225 151 L225 390 L51 390 L51 513 L225 513 L225 818 L78 818 L78 969 L935 969 L935 660 L784 660 L784 818 L400 818 L400 513 L637 513 L637 390 L400 390 L400 151 L600 151 L600 0 L78 0 L78 151 L225 151 Z " />
<glyph glyph-name="uni0496" unicode="&#x496;" horiz-adv-x="1949" d="M887 151 L887 702 L824 702 Q757 702 717 689 Q609 654 499 427 L292 0 L8 0 L8 151 L152 151 L342 507 Q415 646 467 709 Q505 756 562 791 L168 1324 L56 1324 L56 1475 L503 1475 L503 1332 L361 1332 L716 848 L887 848 L887 1332 L760 1332 L760 1475 L1188 1475 L1188 1332 L1061 1332 L1061 848 L1232 848 L1586 1332 L1445 1332 L1445 1475 L1892 1475 L1892 1324 L1780 1324 L1386 791 Q1442 756 1481 709 Q1532 646 1606 507 L1796 151 L1940 151 L1940 -360 L1792 -360 L1767 0 L1656 0 L1449 427 Q1367 595 1293 655 Q1234 702 1124 702 L1061 702 L1061 151 L1211 151 L1211 0 L737 0 L737 151 L887 151 Z " />
<glyph glyph-name="uni0497" unicode="&#x497;" horiz-adv-x="1659" d="M746 151 L746 434 L721 434 Q634 434 594 403 Q564 379 545 352 Q542 347 526 320 Q507 289 506 288 L247 0 L15 0 L15 151 L142 151 L388 419 Q436 481 472 506 L184 818 L63 818 L63 969 L482 969 L482 826 L380 826 L606 566 L746 566 L746 826 L643 826 L643 969 L1016 969 L1016 826 L913 826 L913 566 L1054 566 L1280 826 L1178 826 L1178 969 L1597 969 L1597 818 L1476 818 L1188 506 Q1224 481 1272 419 L1519 151 L1655 151 L1655 -314 L1518 -314 L1491 0 L1413 0 L1154 288 Q1153 289 1121 341 Q1087 399 1037 420 Q1006 434 938 434 L913 434 L913 151 L1050 151 L1050 0 L610 0 L610 151 L746 151 Z " />
<glyph glyph-name="uni0498" unicode="&#x498;" horiz-adv-x="1307" d="M130 0 L130 433 L285 433 L285 401 Q285 296 334 240 Q382 183 479 150 Q558 123 659 123 Q1030 123 1030 423 Q1030 593 910 660 Q830 705 664 705 L414 705 L414 851 L620 851 Q787 851 868 909 Q973 983 973 1112 Q973 1226 897 1286 Q814 1352 666 1352 Q528 1352 425 1290 Q348 1243 326 1174 Q311 1129 311 1077 L311 1050 L156 1050 L156 1475 L304 1475 L304 1391 Q459 1506 693 1506 Q908 1506 1031 1412 Q1157 1317 1157 1127 Q1157 992 1094 903 Q1056 849 978 803 Q1074 772 1128 708 Q1214 605 1214 430 Q1214 5 733 -29 L697 -94 Q784 -101 819 -117 Q915 -162 915 -276 Q915 -389 829 -440 Q765 -478 657 -478 Q551 -478 410 -439 L410 -301 Q568 -356 659 -356 Q770 -356 770 -277 Q770 -201 644 -201 Q626 -201 579 -204 L558 -140 L616 -28 Q415 -18 278 84 L278 0 L130 0 Z " />
<glyph glyph-name="uni0499" unicode="&#x499;" horiz-adv-x="1053" d="M83 0 L83 287 L231 287 L231 257 Q231 192 280 163 Q359 117 526 117 Q812 117 812 279 Q812 372 734 407 Q685 429 579 429 L324 429 L324 565 L559 565 Q649 565 699 598 Q765 642 765 714 Q765 853 527 853 Q388 853 306 803 Q259 775 259 712 L259 682 L112 682 L112 969 L249 969 L249 927 Q371 998 555 998 Q942 998 942 726 Q942 579 809 520 Q890 494 924 463 Q989 405 989 286 Q989 76 785 6 Q709 -20 602 -27 L565 -94 Q651 -101 686 -117 Q783 -162 783 -276 Q783 -388 696 -440 Q633 -478 525 -478 Q418 -478 278 -439 L278 -301 Q435 -356 527 -356 Q638 -356 638 -277 Q638 -201 511 -201 Q494 -201 447 -204 L426 -140 L485 -25 Q385 -17 337 -6 Q275 9 221 43 L221 0 L83 0 Z " />
<glyph glyph-name="uni049A" unicode="&#x49a;" horiz-adv-x="1366" d="M237 151 L237 1324 L93 1324 L93 1475 L568 1475 L568 1324 L417 1324 L417 848 L674 848 L1000 1324 L857 1324 L857 1475 L1317 1475 L1317 1324 L1198 1324 L827 790 Q880 757 917 708 Q967 643 1036 507 L1214 151 L1368 151 L1368 -360 L1220 -360 L1195 0 L1069 0 L869 435 Q797 592 727 653 Q671 702 562 702 L417 702 L417 151 L568 151 L568 0 L93 0 L93 151 L237 151 Z " />
<glyph glyph-name="uni049B" unicode="&#x49b;" horiz-adv-x="1189" d="M226 151 L226 818 L79 818 L79 969 L532 969 L532 818 L400 818 L400 570 L572 570 L816 818 L722 818 L722 969 L1145 969 L1145 818 L1024 818 L714 510 Q751 485 803 419 L1049 151 L1185 151 L1185 -314 L1049 -314 L1021 0 L935 0 L680 283 Q678 286 646 338 Q609 398 561 419 Q529 433 460 433 L400 433 L400 151 L542 151 L542 0 L79 0 L79 151 L226 151 Z " />
<glyph glyph-name="uni049C" unicode="&#x49c;" horiz-adv-x="1387" d="M237 151 L237 1324 L93 1324 L93 1475 L568 1475 L568 1324 L417 1324 L417 848 L586 848 L586 1086 L708 1086 L708 869 L1022 1324 L879 1324 L879 1475 L1339 1475 L1339 1324 L1220 1324 L849 790 Q902 757 939 708 Q989 644 1058 507 L1236 151 L1380 151 L1380 0 L1095 0 L896 435 Q808 627 708 681 L708 427 L586 427 L586 702 L417 702 L417 151 L568 151 L568 0 L93 0 L93 151 L237 151 Z " />
<glyph glyph-name="uni049D" unicode="&#x49d;" horiz-adv-x="1214" d="M226 151 L226 818 L79 818 L79 969 L521 969 L521 818 L400 818 L400 570 L504 570 L504 741 L608 741 L608 582 L841 818 L747 818 L747 969 L1170 969 L1170 818 L1049 818 L739 510 Q775 486 828 418 L1074 151 L1200 151 L1200 0 L960 0 L705 283 Q703 285 676 333 Q649 379 608 409 L608 231 L504 231 L504 433 L400 433 L400 151 L521 151 L521 0 L79 0 L79 151 L226 151 Z " />
<glyph glyph-name="uni04A2" unicode="&#x4a2;" horiz-adv-x="1494" d="M237 151 L237 1324 L93 1324 L93 1475 L568 1475 L568 1324 L417 1324 L417 851 L1077 851 L1077 1324 L926 1324 L926 1475 L1401 1475 L1401 1324 L1257 1324 L1257 151 L1425 151 L1425 -360 L1275 -360 L1250 0 L926 0 L926 151 L1077 151 L1077 700 L417 700 L417 151 L568 151 L568 0 L93 0 L93 151 L237 151 Z " />
<glyph glyph-name="uni04A3" unicode="&#x4a3;" horiz-adv-x="1312" d="M226 151 L226 818 L79 818 L79 969 L542 969 L542 818 L400 818 L400 572 L906 572 L906 818 L763 818 L763 969 L1226 969 L1226 818 L1080 818 L1080 151 L1250 151 L1250 -314 L1113 -314 L1086 0 L763 0 L763 151 L906 151 L906 431 L400 431 L400 151 L542 151 L542 0 L79 0 L79 151 L226 151 Z " />
<glyph glyph-name="uni04AA" unicode="&#x4aa;" horiz-adv-x="1497" d="M1274 347 L1388 227 Q1276 90 1132 29 Q1006 -24 828 -30 L793 -94 Q879 -101 915 -118 Q1011 -162 1011 -276 Q1011 -389 924 -440 Q860 -478 753 -478 Q646 -478 506 -439 L506 -301 Q660 -356 755 -356 Q866 -356 866 -278 Q866 -202 740 -202 Q724 -202 675 -204 L654 -140 L713 -26 Q493 -5 355 103 Q103 303 103 722 Q103 1081 297 1297 Q484 1506 801 1506 Q1040 1506 1196 1391 L1196 1475 L1344 1475 L1344 1044 L1188 1044 L1188 1071 Q1188 1172 1139 1228 Q1090 1284 995 1317 Q911 1347 803 1347 Q549 1347 412 1161 Q287 990 287 723 Q287 451 428 286 Q560 130 814 130 Q993 130 1130 216 Q1181 249 1274 347 Z " />
<glyph glyph-name="uni04AB" unicode="&#x4ab;" horiz-adv-x="1027" d="M896 248 L990 127 Q833 -17 593 -28 L557 -94 Q643 -101 678 -117 Q774 -162 774 -276 Q774 -388 687 -440 Q624 -478 516 -478 Q409 -478 269 -439 L269 -300 Q423 -356 518 -356 Q629 -356 629 -277 Q629 -201 503 -201 Q485 -201 438 -204 L417 -140 L477 -24 Q349 -6 267 51 Q80 182 80 474 Q80 709 203 854 Q326 998 537 998 Q686 998 796 914 L796 969 L933 969 L933 637 L785 637 L785 667 Q785 747 745 784 Q678 848 559 848 Q409 848 330 740 Q257 642 257 479 Q257 302 351 206 Q432 122 572 122 Q749 122 896 248 Z " />
<glyph glyph-name="uni04AE" unicode="&#x4ae;" horiz-adv-x="1174" d="M495 151 L495 671 L123 1324 L-5 1324 L-5 1475 L477 1475 L477 1324 L330 1324 L594 835 L857 1324 L712 1324 L712 1475 L1175 1475 L1175 1324 L1043 1324 L675 669 L675 151 L856 151 L856 0 L314 0 L314 151 L495 151 Z " />
<glyph glyph-name="uni04AF" unicode="&#x4af;" horiz-adv-x="1087" d="M465 -271 L465 12 L110 818 L-6 818 L-6 969 L461 969 L461 818 L291 818 L550 197 L783 818 L622 818 L622 969 L1081 969 L1081 818 L963 818 L639 12 L639 -271 L805 -271 L805 -422 L316 -422 L316 -271 L465 -271 Z " />
<glyph glyph-name="uni04B0" unicode="&#x4b0;" horiz-adv-x="1174" d="M495 151 L495 532 L256 532 L256 671 L495 671 L123 1324 L-5 1324 L-5 1475 L477 1475 L477 1324 L330 1324 L594 835 L858 1324 L712 1324 L712 1475 L1176 1475 L1176 1324 L1044 1324 L677 671 L914 671 L914 532 L675 532 L675 151 L857 151 L857 0 L314 0 L314 151 L495 151 Z " />
<glyph glyph-name="uni04B1" unicode="&#x4b1;" horiz-adv-x="1087" d="M465 -271 L465 0 L244 0 L244 115 L419 115 L110 818 L-6 818 L-6 969 L461 969 L461 818 L291 818 L550 197 L783 818 L622 818 L622 969 L1081 969 L1081 818 L962 818 L682 115 L860 115 L860 0 L639 0 L639 -271 L805 -271 L805 -422 L316 -422 L316 -271 L465 -271 Z " />
</font>
</svg>
