<?xml version="1.0" encoding="UTF-8"?>
<svg xmlns="http://www.w3.org/2000/svg" xmlns:xlink="http://www.w3.org/1999/xlink" version="1.2" >
<font id="A1 Sans Bold">
<font-face  font-family="A1 Sans" units-per-em="2048" ascent="1536" descent="-512" font-style="normal" font-weight="500" font-stretch="normal" cap-height="1475" x-height="1103" underline-position="-317" underline-thickness="210" />
<missing-glyph  horiz-adv-x="451" d="M45 0 L45 1475 L406 1475 L406 0 L45 0 Z M361 45 L361 1430 L90 1430 L90 45 L361 45 Z " />
<glyph glyph-name="space" unicode="&#x20;" horiz-adv-x="451" d="" />
<glyph glyph-name="exclam" unicode="&#x21;" horiz-adv-x="773" d="M277 442 L245 1475 L529 1475 L497 442 L277 442 Z M390 289 Q459 289 508 237 Q550 192 550 130 Q550 59 496 12 Q449 -29 387 -29 Q315 -29 266 23 Q224 68 224 131 Q224 201 278 248 Q324 289 390 289 Z " />
<glyph glyph-name="quotedbl" unicode="&#x22;" horiz-adv-x="707" d="M98 896 L98 1475 L277 1475 L277 896 L98 896 Z M429 896 L429 1475 L608 1475 L608 896 L429 896 Z " />
<glyph glyph-name="numbersign" unicode="&#x23;" horiz-adv-x="1303" d="M278 434 L107 434 L133 617 L303 617 L336 833 L165 833 L191 1016 L361 1016 L428 1469 L637 1469 L570 1016 L817 1016 L883 1469 L1092 1469 L1026 1016 L1196 1016 L1171 833 L1000 833 L968 617 L1138 617 L1113 434 L942 434 L878 0 L669 0 L733 434 L487 434 L422 0 L213 0 L278 434 Z M512 617 L759 617 L791 833 L544 833 L512 617 Z " />
<glyph glyph-name="dollar" unicode="&#x24;" horiz-adv-x="1303" d="M84 449 L323 449 Q327 372 350 329 Q392 249 485 215 Q517 204 574 192 L574 676 Q368 733 300 771 Q125 870 125 1084 Q125 1216 195 1313 Q288 1443 466 1473 Q512 1481 574 1484 L574 1643 L730 1643 L730 1477 Q802 1467 850 1454 Q1028 1405 1101 1234 Q1134 1155 1134 1041 L912 1041 Q906 1155 850 1215 Q813 1255 730 1282 L730 876 Q916 827 999 784 Q1220 670 1220 426 Q1220 277 1137 169 Q1021 19 730 -7 L730 -180 L574 -180 L574 -6 Q363 12 237 108 Q121 196 92 335 Q84 377 84 449 Z M730 630 L730 189 Q835 205 874 228 Q930 260 960 314 Q986 360 986 408 Q986 515 879 574 Q839 597 730 630 Z M574 919 L574 1298 Q481 1284 446 1262 Q358 1208 358 1110 Q358 1009 458 960 Q485 947 574 919 Z " />
<glyph glyph-name="percent" unicode="&#x25;" horiz-adv-x="1832" d="M454 1506 Q659 1506 759 1387 Q853 1276 853 1098 Q853 921 759 809 Q660 690 456 690 Q255 690 156 809 Q62 921 62 1103 Q62 1276 156 1387 Q256 1506 454 1506 Z M458 1322 Q281 1322 281 1101 Q281 874 458 874 Q634 874 634 1098 Q634 1322 458 1322 Z M1411 787 Q1616 787 1716 668 Q1810 557 1810 379 Q1810 202 1716 90 Q1617 -29 1413 -29 Q1212 -29 1113 90 Q1019 202 1019 384 Q1019 557 1113 668 Q1213 787 1411 787 Z M1415 603 Q1238 603 1238 382 Q1238 155 1415 155 Q1591 155 1591 379 Q1591 603 1415 603 Z M378 0 L1273 1475 L1490 1475 L595 0 L378 0 Z " />
<glyph glyph-name="ampersand" unicode="&#x26;" horiz-adv-x="1541" d="M467 808 Q411 868 364 928 Q317 990 293 1040 Q268 1095 268 1165 Q268 1309 381 1406 Q496 1506 688 1506 Q888 1506 1005 1400 Q1110 1305 1110 1173 Q1110 1076 1042 996 Q978 919 776 785 L1090 441 Q1146 565 1187 784 L1411 784 Q1375 608 1341 504 Q1298 375 1235 275 L1483 0 L1187 0 L1085 109 Q1018 55 984 36 Q861 -33 663 -33 Q434 -33 287 69 Q205 125 162 218 Q127 292 127 377 Q127 546 292 684 Q330 716 467 808 Z M647 934 Q680 957 697 969 Q771 1020 814 1057 Q882 1116 882 1175 Q882 1234 838 1272 Q785 1318 687 1318 Q598 1318 545 1275 Q496 1236 496 1176 Q496 1111 572 1021 Q645 933 647 934 Z M598 657 Q578 644 568 637 Q474 576 438 542 Q373 480 373 400 Q373 292 458 229 Q549 161 697 161 Q819 161 890 210 Q901 217 943 250 Q947 253 956 260 L598 657 Z " />
<glyph glyph-name="quotesingle" unicode="&#x27;" horiz-adv-x="375" d="M98 896 L98 1475 L277 1475 L277 896 L98 896 Z " />
<glyph glyph-name="parenleft" unicode="&#x28;" horiz-adv-x="873" d="M796 -356 L594 -356 Q208 84 208 610 Q208 1136 594 1572 L796 1572 Q639 1346 565 1164 Q458 903 458 610 Q458 296 581 14 Q652 -148 796 -356 Z " />
<glyph glyph-name="parenright" unicode="&#x29;" horiz-adv-x="873" d="M77 1572 L279 1572 Q665 1132 665 606 Q665 80 279 -356 L77 -356 Q233 -132 308 52 Q415 314 415 606 Q415 919 292 1202 Q220 1366 77 1572 Z " />
<glyph glyph-name="asterisk" unicode="&#x2a;" horiz-adv-x="1182" d="M141 1119 L209 1325 L489 1230 L485 1507 L694 1507 L691 1229 L970 1322 L1040 1117 L752 1043 L948 810 L769 681 L589 925 L409 683 L229 808 L428 1043 L141 1119 Z " />
<glyph glyph-name="plus" unicode="&#x2b;" horiz-adv-x="1303" d="M159 634 L159 838 L543 838 L543 1190 L761 1190 L761 838 L1144 838 L1144 634 L761 634 L761 281 L543 281 L543 634 L159 634 Z " />
<glyph glyph-name="comma" unicode="&#x2c;" horiz-adv-x="648" d="M101 -289 L264 282 L554 282 L303 -289 L101 -289 Z " />
<glyph glyph-name="hyphen" unicode="&#x2d;" horiz-adv-x="813" d="M123 510 L123 720 L690 720 L690 510 L123 510 Z " />
<glyph glyph-name="period" unicode="&#x2e;" horiz-adv-x="643" d="M325 289 Q394 289 443 237 Q485 192 485 130 Q485 59 431 12 Q384 -29 322 -29 Q250 -29 201 23 Q159 68 159 131 Q159 201 213 248 Q259 289 325 289 Z " />
<glyph glyph-name="slash" unicode="&#x2f;" horiz-adv-x="912" d="M31 -184 L614 1475 L840 1475 L257 -184 L31 -184 Z " />
<glyph glyph-name="zero" unicode="0" horiz-adv-x="1303" d="M652 1504 Q983 1504 1124 1213 Q1173 1111 1197 956 Q1214 846 1214 738 Q1214 580 1181 433 Q1127 200 987 83 Q854 -29 651 -29 Q321 -29 179 262 Q130 363 106 520 Q89 631 89 743 Q89 893 123 1042 Q175 1274 316 1392 Q448 1504 652 1504 Z M652 1290 Q470 1290 389 1090 Q336 960 336 742 Q336 493 400 359 Q484 185 651 185 Q833 185 914 385 Q967 515 967 738 Q967 983 903 1116 Q819 1290 652 1290 Z " />
<glyph glyph-name="one" unicode="1" horiz-adv-x="1303" d="M565 0 L565 1234 L190 1103 L190 1307 L644 1475 L808 1475 L808 0 L565 0 Z " />
<glyph glyph-name="two" unicode="2" horiz-adv-x="1303" d="M66 0 Q78 112 145 220 Q209 325 340 448 Q369 476 583 672 Q774 848 817 902 Q882 986 882 1081 Q882 1184 806 1240 Q733 1294 618 1294 Q441 1294 357 1167 Q321 1112 304 1006 L72 1006 Q103 1220 200 1334 Q345 1504 624 1504 Q856 1504 992 1398 Q1133 1287 1133 1089 Q1133 958 1064 847 Q1005 753 822 600 Q779 564 623 441 Q510 353 460 296 Q431 263 399 210 L1169 210 L1169 0 L66 0 Z " />
<glyph glyph-name="three" unicode="3" horiz-adv-x="1303" d="M456 672 L456 856 L511 856 Q679 856 747 888 Q874 947 874 1090 Q874 1185 809 1240 Q741 1296 626 1296 Q397 1296 351 1095 L123 1095 Q176 1504 629 1504 Q886 1504 1013 1373 Q1118 1266 1118 1100 Q1118 953 1050 866 Q1013 819 944 776 Q1181 692 1181 423 Q1181 201 1023 81 Q880 -29 641 -29 Q317 -29 183 148 Q107 248 94 424 L329 424 Q371 182 634 182 Q757 182 839 241 Q932 309 932 423 Q932 552 824 617 Q742 666 599 671 Q566 672 456 672 Z " />
<glyph glyph-name="four" unicode="4" horiz-adv-x="1303" d="M812 0 L812 304 L91 304 L91 491 L533 1475 L790 1475 L349 515 L812 515 L812 1028 L1043 1028 L1043 515 L1262 515 L1262 304 L1043 304 L1043 0 L812 0 Z " />
<glyph glyph-name="five" unicode="5" horiz-adv-x="1303" d="M173 727 L231 1475 L1092 1475 L1092 1264 L451 1264 L416 898 Q468 925 499 936 Q579 963 685 963 Q886 963 1009 862 Q1175 726 1175 466 Q1175 229 1028 100 Q883 -29 631 -29 Q312 -29 185 162 Q121 258 107 424 L342 424 Q382 182 630 182 Q768 182 849 262 Q926 339 926 461 Q926 584 854 667 Q780 752 646 752 Q540 752 457 702 Q422 681 342 621 L173 727 Z " />
<glyph glyph-name="six" unicode="6" horiz-adv-x="1303" d="M380 857 Q508 963 701 963 Q921 963 1057 836 Q1199 704 1199 483 Q1199 260 1058 121 Q907 -29 666 -29 Q497 -29 366 51 Q233 132 171 305 Q126 430 126 634 Q126 1504 701 1504 Q968 1504 1088 1325 Q1144 1239 1158 1113 L923 1113 Q907 1190 872 1227 Q810 1293 700 1293 Q420 1293 380 857 Z M665 752 Q527 752 448 669 Q374 591 374 472 Q374 349 449 266 Q525 182 666 182 Q803 182 878 265 Q952 347 952 466 Q952 589 879 668 Q801 752 665 752 Z " />
<glyph glyph-name="seven" unicode="7" horiz-adv-x="1303" d="M876 1264 L121 1264 L121 1475 L1122 1475 L1122 1292 L549 0 L279 0 L876 1264 Z " />
<glyph glyph-name="eight" unicode="8" horiz-adv-x="1303" d="M336 784 Q251 827 211 878 Q141 969 141 1094 Q141 1278 285 1393 Q423 1504 651 1504 Q899 1504 1040 1374 Q1161 1262 1161 1095 Q1161 959 1082 867 Q1044 823 966 784 Q1058 754 1130 674 Q1224 571 1224 420 Q1224 218 1061 93 Q902 -29 644 -29 Q372 -29 216 110 Q78 232 78 420 Q78 580 183 687 Q253 758 336 784 Z M651 1299 Q500 1299 430 1231 Q371 1174 371 1087 Q371 980 448 927 Q522 876 650 876 Q791 876 866 935 Q931 987 931 1084 Q931 1184 861 1242 Q790 1299 651 1299 Z M651 671 Q492 671 403 597 Q324 532 324 431 Q324 309 418 245 Q505 184 651 184 Q808 184 898 255 Q978 317 978 428 Q978 541 886 607 Q798 671 651 671 Z " />
<glyph glyph-name="nine" unicode="9" horiz-adv-x="1303" d="M907 647 Q778 541 590 541 Q381 541 251 664 Q117 791 117 1005 Q117 1223 251 1358 Q395 1504 627 1504 Q791 1504 921 1426 Q1055 1347 1115 1181 Q1161 1056 1161 850 Q1161 436 1034 210 Q899 -29 602 -29 Q328 -29 200 160 Q140 249 125 383 L360 383 Q378 297 418 255 Q488 182 609 182 Q789 182 857 371 Q896 477 907 647 Z M631 1293 Q500 1293 431 1214 Q364 1136 364 1021 Q364 904 428 832 Q499 752 628 752 Q762 752 839 831 Q912 905 912 1018 Q912 1136 838 1214 Q762 1293 631 1293 Z " />
<glyph glyph-name="colon" unicode="&#x3a;" horiz-adv-x="643" d="M366 289 Q435 289 484 237 Q526 192 526 130 Q526 59 472 12 Q425 -29 363 -29 Q291 -29 242 23 Q200 68 200 131 Q200 201 254 248 Q300 289 366 289 Z M366 960 Q436 960 484 908 Q526 863 526 801 Q526 730 472 683 Q426 642 363 642 Q291 642 242 694 Q200 739 200 802 Q200 872 254 919 Q300 960 366 960 Z " />
<glyph glyph-name="semicolon" unicode="&#x3b;" horiz-adv-x="649" d="M130 -289 L293 282 L583 282 L332 -289 L130 -289 Z M437 960 Q507 960 555 908 Q597 863 597 801 Q597 730 543 683 Q497 642 434 642 Q362 642 313 694 Q271 739 271 802 Q271 872 325 919 Q371 960 437 960 Z " />
<glyph glyph-name="less" unicode="&#x3c;" horiz-adv-x="1303" d="M444 736 L1098 403 L1098 170 L198 658 L198 814 L1098 1302 L1098 1069 L444 736 Z " />
<glyph glyph-name="equal" unicode="&#x3d;" horiz-adv-x="1303" d="M159 460 L159 664 L1144 664 L1144 460 L159 460 Z M159 808 L159 1012 L1144 1012 L1144 808 L159 808 Z " />
<glyph glyph-name="greater" unicode="&#x3e;" horiz-adv-x="1303" d="M858 736 L204 1069 L204 1302 L1104 814 L1104 658 L204 170 L204 403 L858 736 Z " />
<glyph glyph-name="question" unicode="&#x3f;" horiz-adv-x="1090" d="M397 444 L397 494 Q397 641 448 718 Q477 762 526 798 Q551 815 640 867 Q727 918 758 960 Q800 1015 800 1095 Q800 1189 738 1240 Q672 1295 565 1295 Q420 1295 353 1193 Q320 1142 307 1037 L80 1037 Q93 1211 164 1316 Q292 1509 572 1509 Q789 1509 919 1394 Q1047 1279 1047 1089 Q1047 918 946 821 Q893 769 746 682 Q664 634 643 591 Q626 557 626 495 L626 444 L397 444 Z M514 289 Q583 289 632 237 Q674 191 674 130 Q674 59 620 12 Q573 -29 511 -29 Q439 -29 390 23 Q348 68 348 131 Q348 201 402 248 Q448 289 514 289 Z " />
<glyph glyph-name="at" unicode="&#x40;" horiz-adv-x="2287" d="M1404 323 Q1282 192 1092 192 Q909 192 795 307 Q679 424 679 618 Q679 814 795 930 Q906 1041 1088 1041 Q1264 1041 1376 927 L1387 1036 L1578 1036 L1578 530 Q1578 444 1601 412 Q1628 373 1701 373 Q1815 373 1871 471 Q1923 563 1923 710 Q1923 1004 1715 1161 Q1503 1322 1170 1322 Q761 1322 541 1073 Q365 873 365 581 Q365 282 541 130 Q675 14 852 -28 Q1029 -69 1229 -69 Q1586 -69 1929 48 L2000 -136 Q1860 -185 1759 -210 Q1515 -268 1226 -268 Q875 -268 646 -175 Q123 37 123 581 Q123 960 374 1219 Q667 1521 1169 1521 Q1556 1521 1825 1344 Q2009 1223 2099 1030 Q2165 886 2165 720 Q2165 479 2042 339 Q1977 265 1878 226 Q1782 188 1676 188 Q1543 188 1471 239 Q1431 267 1404 323 Z M1126 856 Q1028 856 969 791 Q911 727 911 617 Q911 507 969 443 Q1028 377 1127 377 Q1234 377 1299 447 Q1358 511 1358 613 Q1358 724 1299 786 Q1232 856 1126 856 Z " />
<glyph glyph-name="A" unicode="A" horiz-adv-x="1382" d="M987 379 L395 379 L258 0 L1 0 L580 1475 L803 1475 L1381 0 L1125 0 L987 379 Z M915 583 L691 1200 L467 583 L915 583 Z " />
<glyph glyph-name="B" unicode="B" horiz-adv-x="1367" d="M169 0 L169 1475 L712 1475 Q1200 1475 1200 1107 Q1200 894 1013 796 Q1121 763 1185 688 Q1271 589 1271 437 Q1271 199 1080 85 Q937 0 691 0 L169 0 Z M413 887 L674 887 Q809 887 873 926 Q952 974 952 1075 Q952 1184 864 1234 Q801 1270 695 1270 L413 1270 L413 887 Z M413 205 L637 205 Q821 205 904 251 Q1014 312 1014 446 Q1014 581 903 643 Q824 686 691 686 L413 686 L413 205 Z " />
<glyph glyph-name="C" unicode="C" horiz-adv-x="1410" d="M1172 384 L1324 210 Q1230 101 1126 48 Q973 -29 770 -29 Q431 -29 261 187 Q102 387 102 726 Q102 1089 276 1300 Q444 1504 759 1504 Q1081 1504 1221 1303 Q1295 1195 1297 1026 L1052 1026 Q1046 1130 996 1191 Q918 1287 760 1287 Q560 1287 458 1132 Q359 982 359 729 Q359 481 472 330 Q576 191 777 191 Q928 191 1047 269 Q1096 301 1172 384 Z " />
<glyph glyph-name="D" unicode="D" horiz-adv-x="1485" d="M169 0 L169 1475 L583 1475 Q812 1475 963 1416 Q1180 1331 1290 1136 Q1383 970 1383 738 Q1383 373 1156 176 Q1024 61 838 23 Q727 0 582 0 L169 0 Z M422 210 L572 210 Q815 210 959 329 Q1126 467 1126 738 Q1126 1007 960 1146 Q816 1265 572 1265 L422 1265 L422 210 Z " />
<glyph glyph-name="E" unicode="E" horiz-adv-x="1227" d="M169 0 L169 1475 L1133 1475 L1133 1265 L422 1265 L422 875 L1001 875 L1001 665 L422 665 L422 210 L1150 210 L1150 0 L169 0 Z " />
<glyph glyph-name="F" unicode="F" horiz-adv-x="1181" d="M169 0 L169 1475 L1132 1475 L1132 1265 L422 1265 L422 854 L1001 854 L1001 644 L422 644 L422 0 L169 0 Z " />
<glyph glyph-name="G" unicode="G" horiz-adv-x="1523" d="M850 558 L850 756 L1382 756 L1382 62 Q1121 -29 802 -29 Q575 -29 442 39 Q259 133 168 349 Q102 506 102 725 Q102 1084 287 1298 Q465 1504 790 1504 Q1132 1504 1277 1303 Q1340 1216 1352 1110 Q1356 1081 1356 1026 L1111 1026 Q1105 1130 1051 1191 Q965 1287 790 1287 Q575 1287 467 1132 Q359 978 359 729 Q359 478 476 327 Q537 250 623 217 Q700 188 816 188 Q976 188 1140 242 L1140 558 L850 558 Z " />
<glyph glyph-name="H" unicode="H" horiz-adv-x="1457" d="M169 0 L169 1475 L422 1475 L422 879 L1035 879 L1035 1475 L1288 1475 L1288 0 L1035 0 L1035 669 L422 669 L422 0 L169 0 Z " />
<glyph glyph-name="I" unicode="I" horiz-adv-x="591" d="M169 0 L169 1475 L422 1475 L422 0 L169 0 Z " />
<glyph glyph-name="J" unicode="J" horiz-adv-x="629" d="M208 1475 L461 1475 L461 177 Q461 -16 431 -107 Q373 -279 190 -323 Q130 -337 16 -341 L16 -131 Q77 -128 107 -118 Q169 -98 191 -24 Q208 33 208 140 L208 1475 Z " />
<glyph glyph-name="K" unicode="K" horiz-adv-x="1270" d="M169 0 L169 1475 L422 1475 L422 804 L978 1475 L1264 1475 L685 792 L1330 0 L1025 0 L422 758 L422 0 L169 0 Z " />
<glyph glyph-name="L" unicode="L" horiz-adv-x="1109" d="M169 0 L169 1475 L422 1475 L422 210 L1068 210 L1068 0 L169 0 Z " />
<glyph glyph-name="M" unicode="M" horiz-adv-x="1807" d="M77 0 L248 1475 L494 1475 L904 424 L1314 1475 L1559 1475 L1730 0 L1487 0 L1376 1036 L973 0 L834 0 L432 1036 L320 0 L77 0 Z " />
<glyph glyph-name="N" unicode="N" horiz-adv-x="1457" d="M169 0 L169 1475 L415 1475 L1042 521 L1042 1475 L1288 1475 L1288 -18 L1103 -18 L416 1047 L416 0 L169 0 Z " />
<glyph glyph-name="O" unicode="O" horiz-adv-x="1571" d="M779 1504 Q1165 1504 1342 1238 Q1470 1044 1470 738 Q1470 432 1342 238 Q1166 -29 788 -29 Q406 -29 230 238 Q102 432 102 747 Q102 1044 230 1238 Q407 1504 779 1504 Z M786 1284 Q571 1284 469 1149 Q359 1005 359 746 Q359 472 469 326 Q570 191 791 191 Q1002 191 1103 326 Q1213 472 1213 738 Q1213 1284 786 1284 Z " />
<glyph glyph-name="P" unicode="P" horiz-adv-x="1300" d="M169 0 L169 1475 L617 1475 Q792 1475 894 1452 Q1059 1414 1150 1284 Q1230 1169 1230 1006 Q1230 545 619 545 L422 545 L422 0 L169 0 Z M422 749 L608 749 Q973 749 973 1011 Q973 1265 619 1265 L422 1265 L422 749 Z " />
<glyph glyph-name="Q" unicode="Q" horiz-adv-x="1574" d="M1420 -138 L1473 -347 Q1344 -404 1237 -404 Q1138 -404 970 -333 Q872 -291 839 -279 Q770 -255 709 -255 Q586 -255 417 -357 L352 -148 Q446 -106 474 -95 Q602 -45 721 -45 Q808 -45 905 -75 Q937 -85 1052 -129 Q1197 -184 1254 -184 Q1320 -184 1420 -138 Z M779 1504 Q1165 1504 1342 1238 Q1470 1044 1470 738 Q1470 432 1342 238 Q1166 -29 788 -29 Q406 -29 230 238 Q102 432 102 747 Q102 1044 230 1238 Q407 1504 779 1504 Z M786 1284 Q571 1284 469 1149 Q359 1005 359 746 Q359 472 469 326 Q570 191 791 191 Q1002 191 1103 326 Q1213 472 1213 738 Q1213 1284 786 1284 Z " />
<glyph glyph-name="R" unicode="R" horiz-adv-x="1346" d="M164 0 L164 1475 L692 1475 Q841 1475 926 1458 Q1068 1430 1149 1314 Q1227 1202 1227 1046 Q1227 868 1120 764 Q1084 728 982 672 Q1042 639 1074 588 Q1105 538 1133 444 L1265 0 L988 0 L920 271 Q893 380 880 409 Q834 518 779 550 Q721 585 586 585 L417 585 L417 0 L164 0 Z M417 789 L639 789 Q811 789 881 837 Q970 898 970 1032 Q970 1167 879 1224 Q814 1265 664 1265 L417 1265 L417 789 Z " />
<glyph glyph-name="S" unicode="S" horiz-adv-x="1265" d="M82 449 L327 449 Q333 336 384 276 Q461 185 636 185 Q778 185 854 247 Q931 309 931 409 Q931 515 837 572 Q781 606 710 628 Q649 647 552 674 Q395 719 329 750 Q208 807 161 898 Q121 976 121 1084 Q121 1259 226 1372 Q299 1450 393 1478 Q481 1504 591 1504 Q1096 1504 1097 1041 L852 1041 Q846 1147 805 1203 Q740 1290 593 1290 Q491 1290 431 1243 Q368 1193 368 1109 Q368 1013 448 966 Q513 928 699 881 Q886 833 963 792 Q1179 675 1179 426 Q1179 220 1049 102 Q905 -29 635 -29 Q291 -29 157 164 Q86 267 82 449 Z " />
<glyph glyph-name="T" unicode="T" horiz-adv-x="1135" d="M441 0 L441 1265 L41 1265 L41 1475 L1094 1475 L1094 1265 L694 1265 L694 0 L441 0 Z " />
<glyph glyph-name="U" unicode="U" horiz-adv-x="1417" d="M160 1475 L413 1475 L413 577 Q413 383 463 302 Q531 190 708 190 Q887 190 954 302 Q984 353 996 429 Q1003 477 1003 577 L1003 1475 L1256 1475 L1256 622 Q1256 413 1231 309 Q1192 144 1061 59 Q925 -30 708 -30 Q380 -30 247 165 Q185 257 168 406 Q160 476 160 622 L160 1475 Z " />
<glyph glyph-name="V" unicode="V" horiz-adv-x="1267" d="M541 -31 L23 1475 L283 1475 L633 411 L983 1475 L1243 1475 L725 -31 L541 -31 Z " />
<glyph glyph-name="W" unicode="W" horiz-adv-x="1957" d="M452 -31 L88 1475 L347 1475 L574 443 L910 1478 L1048 1478 L1384 443 L1611 1475 L1870 1475 L1505 -31 L1311 -31 L979 994 L647 -31 L452 -31 Z " />
<glyph glyph-name="X" unicode="X" horiz-adv-x="1266" d="M485 760 L43 1475 L335 1475 L658 957 L936 1475 L1218 1475 L778 759 L1248 0 L956 0 L604 564 L290 0 L7 0 L485 760 Z " />
<glyph glyph-name="Y" unicode="Y" horiz-adv-x="1223" d="M485 0 L485 565 L-23 1475 L252 1475 L611 800 L970 1475 L1245 1475 L738 565 L738 0 L485 0 Z " />
<glyph glyph-name="Z" unicode="Z" horiz-adv-x="1131" d="M27 0 L27 192 L739 1265 L89 1265 L89 1475 L1046 1475 L1046 1311 L320 210 L1090 210 L1090 0 L27 0 Z " />
<glyph glyph-name="bracketleft" unicode="&#x5b;" horiz-adv-x="873" d="M290 -356 L290 1572 L760 1572 L760 1389 L529 1389 L529 -163 L760 -163 L760 -356 L290 -356 Z " />
<glyph glyph-name="backslash" unicode="&#x5c;" horiz-adv-x="912" d="M881 -184 L655 -184 L72 1475 L298 1475 L881 -184 Z " />
<glyph glyph-name="bracketright" unicode="&#x5d;" horiz-adv-x="873" d="M583 1572 L583 -356 L114 -356 L114 -173 L344 -173 L344 1379 L114 1379 L114 1572 L583 1572 Z " />
<glyph glyph-name="asciicircum" unicode="&#x5e;" horiz-adv-x="1303" d="M651 1286 L338 893 L77 893 L567 1475 L735 1475 L1225 893 L963 893 L651 1286 Z " />
<glyph glyph-name="underscore" unicode="&#x5f;" horiz-adv-x="1066" d="M-11 -422 L-11 -212 L1076 -212 L1076 -422 L-11 -422 Z " />
<glyph glyph-name="grave" unicode="&#x60;" horiz-adv-x="1024" d="M500 1225 L216 1566 L468 1566 L664 1225 L500 1225 Z " />
<glyph glyph-name="a" unicode="a" horiz-adv-x="1266" d="M886 0 L886 128 Q755 -32 560 -32 Q347 -32 222 126 Q93 290 93 552 Q93 815 222 977 Q349 1135 559 1135 Q746 1135 864 995 L864 1103 L1108 1103 L1108 0 L886 0 Z M596 925 Q478 925 408 821 Q340 720 340 552 Q340 383 408 282 Q477 178 596 178 Q722 178 796 289 Q864 392 864 547 Q864 713 796 813 Q720 925 596 925 Z " />
<glyph glyph-name="b" unicode="b" horiz-adv-x="1277" d="M158 0 L158 1516 L401 1516 L401 995 Q517 1136 711 1136 Q926 1136 1053 978 Q1184 816 1184 552 Q1184 288 1053 126 Q926 -32 710 -32 Q506 -32 377 130 L374 0 L158 0 Z M675 926 Q547 926 471 815 Q401 713 401 557 Q401 392 471 289 Q547 178 675 178 Q797 178 868 282 Q937 383 937 552 Q937 723 868 822 Q795 926 675 926 Z " />
<glyph glyph-name="c" unicode="c" horiz-adv-x="1111" d="M937 316 L1057 146 Q999 89 950 57 Q810 -32 607 -32 Q367 -32 237 105 Q93 257 93 536 Q93 800 215 967 Q338 1136 591 1136 Q863 1136 972 952 Q1028 855 1029 721 L807 721 Q802 797 770 845 Q716 926 601 926 Q472 926 405 819 Q340 717 340 548 Q340 372 418 272 Q492 178 623 178 Q746 178 842 237 Q881 262 937 316 Z " />
<glyph glyph-name="d" unicode="d" horiz-adv-x="1277" d="M898 0 L898 128 Q767 -32 566 -32 Q352 -32 224 126 Q93 289 93 552 Q93 815 224 978 Q352 1136 565 1136 Q757 1136 876 995 L876 1516 L1119 1516 L1119 0 L898 0 Z M602 926 Q481 926 409 822 Q340 721 340 552 Q340 383 409 282 Q481 178 602 178 Q731 178 806 289 Q876 392 876 547 Q876 714 806 815 Q729 926 602 926 Z " />
<glyph glyph-name="e" unicode="e" horiz-adv-x="1213" d="M1125 475 L341 475 Q346 449 348 436 Q362 360 378 327 Q452 178 630 178 Q759 178 876 236 Q917 257 989 305 L1096 121 Q1022 72 969 46 Q810 -32 629 -32 Q372 -32 229 128 Q93 280 93 538 Q93 818 239 979 Q380 1135 616 1135 Q827 1135 960 1003 Q1079 884 1110 677 Q1123 593 1125 475 Z M884 655 Q864 770 827 824 Q751 936 615 936 Q399 936 343 655 L884 655 Z " />
<glyph glyph-name="f" unicode="f" horiz-adv-x="804" d="M230 0 L230 893 L74 893 L74 1103 L230 1103 L230 1138 Q230 1333 314 1429 Q405 1533 611 1533 Q704 1533 798 1516 L784 1316 Q696 1331 635 1331 Q529 1331 495 1261 Q473 1215 473 1131 L473 1103 L755 1103 L755 893 L473 893 L473 0 L230 0 Z " />
<glyph glyph-name="g" unicode="g" horiz-adv-x="1277" d="M876 126 Q759 -11 567 -11 Q352 -11 224 142 Q93 298 93 553 Q93 807 219 969 Q348 1135 571 1135 Q770 1135 898 975 L898 1103 L1119 1103 L1119 174 Q1119 -20 1094 -125 Q1015 -468 609 -468 Q337 -468 135 -334 L242 -149 Q312 -195 364 -219 Q474 -268 599 -268 Q726 -268 787 -212 Q849 -156 866 -50 Q876 7 876 103 L876 126 Z M602 925 Q481 925 409 821 Q340 720 340 554 Q340 392 409 297 Q480 199 602 199 Q731 199 806 304 Q876 400 876 549 Q876 713 806 813 Q729 925 602 925 Z " />
<glyph glyph-name="h" unicode="h" horiz-adv-x="1261" d="M158 0 L158 1516 L401 1516 L401 965 Q484 1037 538 1070 Q647 1136 772 1136 Q976 1136 1054 990 Q1111 883 1111 638 L1111 0 L868 0 L868 652 Q868 768 846 826 Q811 917 706 917 Q616 917 515 841 Q482 816 401 733 L401 0 L158 0 Z " />
<glyph glyph-name="i" unicode="i" horiz-adv-x="568" d="M163 0 L163 1103 L406 1103 L406 0 L163 0 Z M287 1522 Q351 1522 395 1475 Q433 1435 433 1380 Q433 1316 384 1274 Q341 1238 285 1238 Q219 1238 174 1285 Q136 1325 136 1381 Q136 1443 185 1486 Q227 1522 287 1522 Z " />
<glyph glyph-name="j" unicode="j" horiz-adv-x="585" d="M179 1103 L422 1103 L422 51 Q422 -132 393 -217 Q339 -375 166 -419 Q112 -433 10 -438 L10 -229 Q66 -224 91 -214 Q145 -193 165 -124 Q179 -74 179 25 L179 1103 Z M303 1522 Q367 1522 411 1475 Q449 1435 449 1380 Q449 1316 400 1274 Q357 1238 301 1238 Q235 1238 190 1285 Q152 1325 152 1381 Q152 1443 201 1486 Q243 1522 303 1522 Z " />
<glyph glyph-name="k" unicode="k" horiz-adv-x="1124" d="M158 0 L158 1516 L401 1516 L401 659 L807 1103 L1087 1103 L653 633 L1155 0 L869 0 L401 609 L401 0 L158 0 Z " />
<glyph glyph-name="l" unicode="l" horiz-adv-x="559" d="M158 0 L158 1516 L401 1516 L401 0 L158 0 Z " />
<glyph glyph-name="m" unicode="m" horiz-adv-x="1847" d="M158 0 L158 1103 L395 1103 L395 960 Q483 1041 529 1071 Q629 1135 739 1135 Q883 1135 957 1049 Q986 1015 1015 936 Q1109 1026 1163 1062 Q1271 1135 1388 1135 Q1576 1135 1645 990 Q1697 880 1697 638 L1697 0 L1454 0 L1454 652 Q1454 767 1436 824 Q1408 916 1323 916 Q1244 916 1156 843 Q1133 824 1049 732 L1049 0 L806 0 L806 652 Q806 767 788 824 Q760 916 675 916 Q595 916 507 843 Q473 814 401 732 L401 0 L158 0 Z " />
<glyph glyph-name="n" unicode="n" horiz-adv-x="1261" d="M158 0 L158 1103 L401 1103 L401 960 Q488 1036 546 1071 Q653 1135 775 1135 Q977 1135 1054 989 Q1111 883 1111 638 L1111 0 L868 0 L868 652 Q868 767 846 825 Q811 916 706 916 Q617 916 519 843 Q480 814 401 732 L401 0 L158 0 Z " />
<glyph glyph-name="o" unicode="o" horiz-adv-x="1268" d="M634 1135 Q874 1135 1024 976 Q1175 817 1175 551 Q1175 287 1024 127 Q875 -32 635 -32 Q393 -32 244 127 Q93 287 93 559 Q93 816 244 976 Q393 1135 634 1135 Z M634 925 Q492 925 411 814 Q340 716 340 557 Q340 387 411 289 Q491 178 634 178 Q777 178 857 289 Q928 388 928 551 Q928 717 857 814 Q776 925 634 925 Z " />
<glyph glyph-name="p" unicode="p" horiz-adv-x="1277" d="M158 -439 L158 1103 L378 1103 L378 974 Q503 1135 710 1135 Q926 1135 1053 977 Q1184 815 1184 551 Q1184 288 1053 126 Q926 -32 711 -32 Q519 -32 401 108 L401 -439 L158 -439 Z M675 925 Q547 925 471 814 Q401 712 401 557 Q401 391 471 289 Q547 178 675 178 Q797 178 868 282 Q937 383 937 551 Q937 722 868 821 Q794 925 675 925 Z " />
<glyph glyph-name="q" unicode="q" horiz-adv-x="1277" d="M876 -439 L876 108 Q834 61 801 38 Q704 -32 565 -32 Q352 -32 224 126 Q93 288 93 551 Q93 815 224 977 Q352 1135 566 1135 Q769 1135 898 975 L898 1103 L1119 1103 L1119 -439 L876 -439 Z M602 925 Q481 925 409 821 Q340 720 340 551 Q340 383 409 282 Q481 178 602 178 Q731 178 806 289 Q876 392 876 547 Q876 713 806 814 Q729 925 602 925 Z " />
<glyph glyph-name="r" unicode="r" horiz-adv-x="820" d="M158 0 L158 1103 L391 1103 L391 953 Q483 1041 545 1073 Q631 1117 741 1117 L778 1117 L778 882 L733 882 Q655 882 609 868 Q538 846 471 781 Q460 771 401 705 L401 0 L158 0 Z " />
<glyph glyph-name="s" unicode="s" horiz-adv-x="1077" d="M63 354 L285 354 Q293 274 329 234 Q394 162 543 162 Q771 162 771 307 Q771 381 708 411 Q673 428 626 437 L507 460 Q324 495 229 552 Q106 625 106 791 Q106 958 228 1054 Q332 1135 514 1135 Q784 1135 890 974 Q943 892 944 777 L722 777 Q715 845 686 880 Q633 941 512 941 Q344 941 344 813 Q344 747 400 719 Q443 698 595 666 Q730 638 789 615 Q913 567 961 484 Q1002 414 1002 320 Q1002 158 886 64 Q767 -32 542 -32 Q67 -32 63 354 Z " />
<glyph glyph-name="t" unicode="t" horiz-adv-x="814" d="M221 893 L65 893 L65 1103 L225 1103 L241 1419 L464 1419 L464 1103 L748 1103 L748 893 L464 893 L464 410 Q464 295 490 252 Q516 210 588 210 L776 210 L776 0 L585 0 Q418 0 329 71 Q221 158 221 362 L221 893 Z " />
<glyph glyph-name="u" unicode="u" horiz-adv-x="1217" d="M153 1103 L396 1103 L396 451 Q396 340 411 288 Q436 200 527 200 Q611 200 704 268 Q740 294 817 371 L817 1103 L1059 1103 L1059 0 L817 0 L817 143 Q717 63 677 40 Q574 -19 460 -19 Q273 -19 204 123 Q153 229 153 465 L153 1103 Z " />
<glyph glyph-name="v" unicode="v" horiz-adv-x="1064" d="M431 -22 L14 1103 L274 1103 L531 312 L789 1103 L1049 1103 L632 -22 L431 -22 Z " />
<glyph glyph-name="w" unicode="w" horiz-adv-x="1641" d="M352 -22 L39 1103 L285 1103 L480 351 L749 1103 L893 1103 L1162 351 L1356 1103 L1603 1103 L1290 -22 L1089 -22 L821 721 L553 -22 L352 -22 Z " />
<glyph glyph-name="x" unicode="x" horiz-adv-x="1063" d="M387 581 L28 1103 L300 1103 L554 737 L775 1103 L1029 1103 L662 579 L1062 0 L789 0 L498 419 L254 0 L-1 0 L387 581 Z " />
<glyph glyph-name="y" unicode="y" horiz-adv-x="1064" d="M412 27 L14 1103 L274 1103 L531 312 L789 1103 L1049 1103 L644 14 Q572 -181 527 -254 Q442 -395 315 -423 Q253 -437 140 -438 L140 -229 Q240 -228 277 -205 Q333 -170 378 -57 L412 27 Z " />
<glyph glyph-name="z" unicode="z" horiz-adv-x="970" d="M36 0 L36 195 L595 893 L86 893 L86 1103 L886 1103 L886 921 L321 210 L904 210 L904 0 L36 0 Z " />
<glyph glyph-name="braceleft" unicode="&#x7b;" horiz-adv-x="873" d="M372 644 Q468 604 499 540 Q533 471 533 300 L533 39 Q533 -99 576 -138 Q617 -175 722 -175 L785 -175 L785 -356 L692 -356 Q540 -356 478 -339 Q361 -308 321 -217 Q292 -149 292 9 L292 284 Q292 446 241 502 Q209 537 152 547 Q134 550 93 552 L93 736 Q164 740 200 756 Q259 782 277 852 Q292 908 292 1005 L292 1206 Q292 1361 318 1428 Q358 1527 486 1557 Q548 1571 692 1571 L785 1571 L785 1390 L721 1390 Q614 1390 574 1352 Q533 1314 533 1177 L533 971 Q533 815 499 748 Q467 682 372 644 Z " />
<glyph glyph-name="bar" unicode="&#x7c;" horiz-adv-x="692" d="M221 -438 L221 1568 L469 1568 L469 -438 L221 -438 Z " />
<glyph glyph-name="braceright" unicode="&#x7d;" horiz-adv-x="873" d="M503 644 Q408 682 375 748 Q342 815 342 971 L342 1177 Q342 1314 301 1352 Q261 1390 153 1390 L89 1390 L89 1571 L183 1571 Q341 1571 408 1552 Q529 1516 562 1412 Q583 1346 583 1206 L583 1005 Q583 854 623 799 Q652 758 710 744 Q732 738 781 736 L781 552 Q717 549 687 538.5 Q657 528 634 502 Q583 446 583 284 L583 9 Q583 -165 545 -235 Q500 -318 381 -343 Q321 -356 183 -356 L89 -356 L89 -175 L152 -175 Q258 -175 299 -138 Q342 -99 342 39 L342 300 Q342 471 375 540 Q407 604 503 644 Z " />
<glyph glyph-name="asciitilde" unicode="&#x7e;" horiz-adv-x="1303" d="M257 563 L113 703 Q190 791 237 830 Q342 917 454 917 Q558 917 667 856 Q758 804 763 802 Q800 783 846 783 Q935 783 1047 911 L1191 773 Q1120 687 1063 641 Q959 556 853 556 Q775 556 682 596 Q663 604 545 665 Q502 687 456 687 Q393 687 323 627 Q297 604 257 563 Z " />
<glyph glyph-name="Adieresis" unicode="&#xc4;" horiz-adv-x="1382" d="M987 379 L395 379 L258 0 L1 0 L580 1475 L803 1475 L1381 0 L1125 0 L987 379 Z M915 583 L691 1200 L467 583 L915 583 Z M486 1879 Q546 1879 588 1835 Q623 1798 623 1747 Q623 1687 577 1648 Q538 1614 484 1614 Q422 1614 381 1658 Q345 1696 345 1748 Q345 1805 391 1845 Q430 1879 486 1879 Z M901 1879 Q960 1879 1001 1835 Q1037 1798 1037 1747 Q1037 1687 991 1648 Q951 1614 898 1614 Q836 1614 795 1658 Q759 1696 759 1748 Q759 1805 805 1845 Q844 1879 901 1879 Z " />
<glyph glyph-name="Aring" unicode="&#xc5;" horiz-adv-x="1382" d="M987 379 L395 379 L258 0 L1 0 L580 1475 L803 1475 L1381 0 L1125 0 L987 379 Z M915 583 L691 1200 L467 583 L915 583 Z M692 2051 Q815 2051 883 1977 Q944 1911 944 1808 Q944 1705 883 1639 Q815 1565 693 1565 Q569 1565 500 1639 Q440 1705 440 1811 Q440 1912 500 1977 Q570 2051 692 2051 Z M692 1924 Q632 1924 603 1884 Q583 1856 583 1809 Q583 1692 692 1692 Q801 1692 801 1808 Q801 1924 692 1924 Z " />
<glyph glyph-name="Ccedilla" unicode="&#xc7;" horiz-adv-x="1410" d="M1172 384 L1324 210 Q1211 79 1070 24 Q950 -23 808 -27 L776 -86 Q855 -94 895 -116 Q986 -164 986 -278 Q986 -396 896 -452 Q827 -495 711 -495 Q572 -495 447 -455 L496 -302 Q619 -339 699 -339 Q796 -339 796 -277 Q796 -219 693 -219 Q669 -219 609 -224 L582 -108 L633 -18 Q454 4 327 116 Q209 220 150 398 Q102 541 102 726 Q102 1089 276 1300 Q444 1504 759 1504 Q1081 1504 1221 1303 Q1295 1195 1297 1026 L1052 1026 Q1046 1130 996 1191 Q918 1287 760 1287 Q560 1287 458 1132 Q359 982 359 729 Q359 481 472 330 Q576 191 777 191 Q928 191 1047 270 Q1096 302 1172 384 Z " />
<glyph glyph-name="Eacute" unicode="&#xc9;" horiz-adv-x="1227" d="M169 0 L169 1475 L1133 1475 L1133 1265 L422 1265 L422 875 L1001 875 L1001 665 L422 665 L422 210 L1150 210 L1150 0 L169 0 Z M528 1603 L724 1945 L976 1945 L692 1603 L528 1603 Z " />
<glyph glyph-name="Ntilde" unicode="&#xd1;" horiz-adv-x="1457" d="M169 0 L169 1475 L415 1475 L1042 521 L1042 1475 L1288 1475 L1288 -18 L1103 -18 L416 1047 L416 0 L169 0 Z M558 1648 L418 1648 Q455 1885 630 1885 Q674 1885 723 1864 Q744 1854 800 1826 Q837 1807 858 1807 Q904 1807 928 1884 L1070 1884 Q1048 1779 1011 1723 Q956 1642 849 1642 Q805 1642 763 1660 Q738 1671 679 1701 Q645 1719 627 1719 Q583 1719 558 1648 Z " />
<glyph glyph-name="Odieresis" unicode="&#xd6;" horiz-adv-x="1571" d="M779 1504 Q1165 1504 1342 1238 Q1470 1044 1470 738 Q1470 432 1342 238 Q1166 -29 788 -29 Q406 -29 230 238 Q102 432 102 747 Q102 1044 230 1238 Q407 1504 779 1504 Z M786 1284 Q571 1284 469 1149 Q359 1005 359 746 Q359 472 469 326 Q570 191 791 191 Q1002 191 1103 326 Q1213 472 1213 738 Q1213 1284 786 1284 Z M581 1879 Q641 1879 683 1835 Q718 1798 718 1747 Q718 1687 672 1648 Q633 1614 579 1614 Q517 1614 476 1658 Q440 1696 440 1748 Q440 1805 486 1845 Q525 1879 581 1879 Z M996 1879 Q1055 1879 1096 1835 Q1132 1798 1132 1747 Q1132 1687 1086 1648 Q1046 1614 993 1614 Q931 1614 890 1658 Q854 1696 854 1748 Q854 1805 900 1845 Q939 1879 996 1879 Z " />
<glyph glyph-name="Udieresis" unicode="&#xdc;" horiz-adv-x="1417" d="M160 1475 L413 1475 L413 577 Q413 383 463 302 Q531 190 708 190 Q887 190 954 302 Q984 353 996 429 Q1003 477 1003 577 L1003 1475 L1256 1475 L1256 622 Q1256 413 1231 309 Q1192 144 1061 59 Q925 -30 708 -30 Q380 -30 247 165 Q185 257 168 406 Q160 476 160 622 L160 1475 Z M503 1879 Q563 1879 605 1835 Q640 1798 640 1747 Q640 1687 594 1648 Q555 1614 501 1614 Q439 1614 398 1658 Q362 1696 362 1748 Q362 1805 408 1845 Q447 1879 503 1879 Z M918 1879 Q977 1879 1018 1835 Q1054 1798 1054 1747 Q1054 1687 1008 1648 Q968 1614 915 1614 Q853 1614 812 1658 Q776 1696 776 1748 Q776 1805 822 1845 Q861 1879 918 1879 Z " />
<glyph glyph-name="aacute" unicode="&#xe1;" horiz-adv-x="1266" d="M886 0 L886 128 Q755 -32 560 -32 Q347 -32 222 126 Q93 290 93 552 Q93 815 222 977 Q349 1135 559 1135 Q746 1135 864 995 L864 1103 L1108 1103 L1108 0 L886 0 Z M596 925 Q478 925 408 821 Q340 720 340 552 Q340 383 408 282 Q477 178 596 178 Q722 178 796 289 Q864 392 864 547 Q864 713 796 813 Q720 925 596 925 Z M481 1225 L677 1566 L929 1566 L645 1225 L481 1225 Z " />
<glyph glyph-name="agrave" unicode="&#xe0;" horiz-adv-x="1266" d="M886 0 L886 128 Q755 -32 560 -32 Q347 -32 222 126 Q93 290 93 552 Q93 815 222 977 Q349 1135 559 1135 Q746 1135 864 995 L864 1103 L1108 1103 L1108 0 L886 0 Z M596 925 Q478 925 408 821 Q340 720 340 552 Q340 383 408 282 Q477 178 596 178 Q722 178 796 289 Q864 392 864 547 Q864 713 796 813 Q720 925 596 925 Z M614 1225 L330 1566 L582 1566 L778 1225 L614 1225 Z " />
<glyph glyph-name="acircumflex" unicode="&#xe2;" horiz-adv-x="1266" d="M886 0 L886 128 Q755 -32 560 -32 Q347 -32 222 126 Q93 290 93 552 Q93 815 222 977 Q349 1135 559 1135 Q746 1135 864 995 L864 1103 L1108 1103 L1108 0 L886 0 Z M596 925 Q478 925 408 821 Q340 720 340 552 Q340 383 408 282 Q477 178 596 178 Q722 178 796 289 Q864 392 864 547 Q864 713 796 813 Q720 925 596 925 Z M624 1416 L468 1225 L241 1225 L549 1566 L699 1566 L1007 1225 L780 1225 L624 1416 Z " />
<glyph glyph-name="adieresis" unicode="&#xe4;" horiz-adv-x="1266" d="M886 0 L886 128 Q755 -32 560 -32 Q347 -32 222 126 Q93 290 93 552 Q93 815 222 977 Q349 1135 559 1135 Q746 1135 864 995 L864 1103 L1108 1103 L1108 0 L886 0 Z M596 925 Q478 925 408 821 Q340 720 340 552 Q340 383 408 282 Q477 178 596 178 Q722 178 796 289 Q864 392 864 547 Q864 713 796 813 Q720 925 596 925 Z M436 1513 Q495 1513 537 1469 Q572 1432 572 1381 Q572 1321 526 1282 Q486 1248 433 1248 Q371 1248 330 1292 Q294 1329 294 1382 Q294 1439 340 1479 Q379 1513 436 1513 Z M822 1513 Q882 1513 924 1469 Q959 1432 959 1381 Q959 1321 913 1282 Q873 1248 820 1248 Q759 1248 717 1292 Q681 1330 681 1382 Q681 1439 727 1479 Q766 1513 822 1513 Z " />
<glyph glyph-name="atilde" unicode="&#xe3;" horiz-adv-x="1266" d="M886 0 L886 128 Q755 -32 560 -32 Q347 -32 222 126 Q93 290 93 552 Q93 815 222 977 Q349 1135 559 1135 Q746 1135 864 995 L864 1103 L1108 1103 L1108 0 L886 0 Z M596 925 Q478 925 408 821 Q340 720 340 552 Q340 383 408 282 Q477 178 596 178 Q722 178 796 289 Q864 392 864 547 Q864 713 796 813 Q720 925 596 925 Z M440 1270 L300 1270 Q337 1507 511 1507 Q556 1507 605 1486 Q627 1476 682 1448 Q719 1429 740 1429 Q785 1429 810 1506 L952 1506 Q930 1400 893 1345 Q838 1264 731 1264 Q687 1264 645 1282 Q622 1292 561 1323 Q527 1341 509 1341 Q466 1341 440 1270 Z " />
<glyph glyph-name="aring" unicode="&#xe5;" horiz-adv-x="1266" d="M886 0 L886 128 Q755 -32 560 -32 Q347 -32 222 126 Q93 290 93 552 Q93 815 222 977 Q349 1135 559 1135 Q746 1135 864 995 L864 1103 L1108 1103 L1108 0 L886 0 Z M596 925 Q478 925 408 821 Q340 720 340 552 Q340 383 408 282 Q477 178 596 178 Q722 178 796 289 Q864 392 864 547 Q864 713 796 813 Q720 925 596 925 Z M627 1688 Q750 1688 818 1614 Q879 1548 879 1445 Q879 1342 818 1276 Q750 1202 628 1202 Q504 1202 435 1276 Q375 1342 375 1448 Q375 1549 435 1614 Q505 1688 627 1688 Z M627 1561 Q567 1561 538 1521 Q518 1493 518 1446 Q518 1329 627 1329 Q736 1329 736 1445 Q736 1561 627 1561 Z " />
<glyph glyph-name="ccedilla" unicode="&#xe7;" horiz-adv-x="1111" d="M657 -31 L627 -86 Q705 -94 745 -116 Q836 -164 836 -277 Q836 -396 745 -452 Q677 -495 561 -495 Q423 -495 297 -455 L346 -302 Q470 -339 548 -339 Q646 -339 646 -277 Q646 -219 544 -219 Q519 -219 459 -224 L432 -108 L482 -21 Q380 -3 304 48 Q93 189 93 536 Q93 800 215 967 Q339 1136 591 1136 Q863 1136 972 952 Q1028 855 1029 721 L807 721 Q802 797 770 845 Q716 926 601 926 Q472 926 405 819 Q340 717 340 547 Q340 371 418 271 Q492 177 623 177 Q746 177 842 237 Q882 262 937 316 L1057 146 Q964 52 861 12 Q778 -21 657 -31 Z " />
<glyph glyph-name="eacute" unicode="&#xe9;" horiz-adv-x="1213" d="M1125 475 L341 475 Q346 449 348 436 Q362 360 378 327 Q452 178 630 178 Q759 178 876 236 Q917 257 989 305 L1096 121 Q1022 72 969 46 Q810 -32 629 -32 Q372 -32 229 128 Q93 280 93 538 Q93 818 239 979 Q380 1135 616 1135 Q827 1135 960 1003 Q1079 884 1110 677 Q1123 593 1125 475 Z M884 655 Q864 770 827 824 Q751 936 615 936 Q399 936 343 655 L884 655 Z M461 1225 L657 1566 L909 1566 L625 1225 L461 1225 Z " />
<glyph glyph-name="egrave" unicode="&#xe8;" horiz-adv-x="1213" d="M1125 475 L341 475 Q346 449 348 436 Q362 360 378 327 Q452 178 630 178 Q759 178 876 236 Q917 257 989 305 L1096 121 Q1022 72 969 46 Q810 -32 629 -32 Q372 -32 229 128 Q93 280 93 538 Q93 818 239 979 Q380 1135 616 1135 Q827 1135 960 1003 Q1079 884 1110 677 Q1123 593 1125 475 Z M884 655 Q864 770 827 824 Q751 936 615 936 Q399 936 343 655 L884 655 Z M601 1225 L317 1566 L569 1566 L765 1225 L601 1225 Z " />
<glyph glyph-name="ecircumflex" unicode="&#xea;" horiz-adv-x="1213" d="M1125 475 L341 475 Q346 449 348 436 Q362 360 378 327 Q452 178 630 178 Q759 178 876 236 Q917 257 989 305 L1096 121 Q1022 72 969 46 Q810 -32 629 -32 Q372 -32 229 128 Q93 280 93 538 Q93 818 239 979 Q380 1135 616 1135 Q827 1135 960 1003 Q1079 884 1110 677 Q1123 593 1125 475 Z M884 655 Q864 770 827 824 Q751 936 615 936 Q399 936 343 655 L884 655 Z M610 1416 L454 1225 L227 1225 L535 1566 L685 1566 L993 1225 L766 1225 L610 1416 Z " />
<glyph glyph-name="edieresis" unicode="&#xeb;" horiz-adv-x="1213" d="M1125 475 L341 475 Q346 449 348 436 Q362 360 378 327 Q452 178 630 178 Q759 178 876 236 Q917 257 989 305 L1096 121 Q1022 72 969 46 Q810 -32 629 -32 Q372 -32 229 128 Q93 280 93 538 Q93 818 239 979 Q380 1135 616 1135 Q827 1135 960 1003 Q1079 884 1110 677 Q1123 593 1125 475 Z M884 655 Q864 770 827 824 Q751 936 615 936 Q399 936 343 655 L884 655 Z M422 1513 Q481 1513 523 1469 Q558 1432 558 1381 Q558 1321 512 1282 Q472 1248 419 1248 Q357 1248 316 1292 Q280 1329 280 1382 Q280 1439 326 1479 Q365 1513 422 1513 Z M808 1513 Q868 1513 910 1469 Q945 1432 945 1381 Q945 1321 899 1282 Q859 1248 806 1248 Q745 1248 703 1292 Q667 1330 667 1382 Q667 1439 713 1479 Q752 1513 808 1513 Z " />
<glyph glyph-name="iacute" unicode="&#xed;" horiz-adv-x="566" d="M162 0 L162 1103 L405 1103 L405 0 L162 0 Z M141 1225 L337 1566 L589 1566 L305 1225 L141 1225 Z " />
<glyph glyph-name="igrave" unicode="&#xec;" horiz-adv-x="566" d="M162 0 L162 1103 L405 1103 L405 0 L162 0 Z M256 1225 L-28 1566 L224 1566 L420 1225 L256 1225 Z " />
<glyph glyph-name="icircumflex" unicode="&#xee;" horiz-adv-x="566" d="M161 0 L161 1103 L404 1103 L404 0 L161 0 Z M280 1416 L124 1225 L-103 1225 L205 1566 L355 1566 L663 1225 L436 1225 L280 1416 Z " />
<glyph glyph-name="idieresis" unicode="&#xef;" horiz-adv-x="566" d="M162 0 L162 1103 L405 1103 L405 0 L162 0 Z M93 1513 Q152 1513 194 1469 Q229 1432 229 1381 Q229 1321 183 1282 Q143 1248 90 1248 Q28 1248 -13 1292 Q-49 1329 -49 1382 Q-49 1439 -3 1479 Q36 1513 93 1513 Z M479 1513 Q539 1513 581 1469 Q616 1432 616 1381 Q616 1321 570 1282 Q530 1248 477 1248 Q416 1248 374 1292 Q338 1330 338 1382 Q338 1439 384 1479 Q423 1513 479 1513 Z " />
<glyph glyph-name="ntilde" unicode="&#xf1;" horiz-adv-x="1261" d="M158 0 L158 1103 L401 1103 L401 960 Q488 1036 546 1071 Q653 1135 775 1135 Q977 1135 1054 989 Q1111 883 1111 638 L1111 0 L868 0 L868 652 Q868 767 846 825 Q811 916 706 916 Q617 916 519 843 Q480 814 401 732 L401 0 L158 0 Z M444 1270 L304 1270 Q341 1507 515 1507 Q560 1507 609 1486 Q631 1476 686 1448 Q723 1429 744 1429 Q789 1429 814 1506 L956 1506 Q934 1400 897 1345 Q842 1264 735 1264 Q691 1264 649 1282 Q626 1292 565 1323 Q531 1341 513 1341 Q470 1341 444 1270 Z " />
<glyph glyph-name="oacute" unicode="&#xf3;" horiz-adv-x="1268" d="M634 1135 Q874 1135 1024 976 Q1175 817 1175 551 Q1175 287 1024 127 Q875 -32 635 -32 Q393 -32 244 127 Q93 287 93 559 Q93 816 244 976 Q393 1135 634 1135 Z M634 925 Q492 925 411 814 Q340 716 340 557 Q340 387 411 289 Q491 178 634 178 Q777 178 857 289 Q928 388 928 551 Q928 717 857 814 Q776 925 634 925 Z M482 1225 L678 1566 L930 1566 L646 1225 L482 1225 Z " />
<glyph glyph-name="ograve" unicode="&#xf2;" horiz-adv-x="1268" d="M634 1135 Q874 1135 1024 976 Q1175 817 1175 551 Q1175 287 1024 127 Q875 -32 635 -32 Q393 -32 244 127 Q93 287 93 559 Q93 816 244 976 Q393 1135 634 1135 Z M634 925 Q492 925 411 814 Q340 716 340 557 Q340 387 411 289 Q491 178 634 178 Q777 178 857 289 Q928 388 928 551 Q928 717 857 814 Q776 925 634 925 Z M622 1225 L338 1566 L590 1566 L786 1225 L622 1225 Z " />
<glyph glyph-name="ocircumflex" unicode="&#xf4;" horiz-adv-x="1268" d="M634 1135 Q874 1135 1024 976 Q1175 817 1175 551 Q1175 287 1024 127 Q875 -32 635 -32 Q393 -32 244 127 Q93 287 93 559 Q93 816 244 976 Q393 1135 634 1135 Z M634 925 Q492 925 411 814 Q340 716 340 557 Q340 387 411 289 Q491 178 634 178 Q777 178 857 289 Q928 388 928 551 Q928 717 857 814 Q776 925 634 925 Z M632 1416 L476 1225 L249 1225 L557 1566 L707 1566 L1015 1225 L788 1225 L632 1416 Z " />
<glyph glyph-name="odieresis" unicode="&#xf6;" horiz-adv-x="1268" d="M634 1135 Q874 1135 1024 976 Q1175 817 1175 551 Q1175 287 1024 127 Q875 -32 635 -32 Q393 -32 244 127 Q93 287 93 559 Q93 816 244 976 Q393 1135 634 1135 Z M634 925 Q492 925 411 814 Q340 716 340 557 Q340 387 411 289 Q491 178 634 178 Q777 178 857 289 Q928 388 928 551 Q928 717 857 814 Q776 925 634 925 Z M444 1513 Q503 1513 545 1469 Q580 1432 580 1381 Q580 1321 534 1282 Q494 1248 441 1248 Q379 1248 338 1292 Q302 1329 302 1382 Q302 1439 348 1479 Q387 1513 444 1513 Z M830 1513 Q890 1513 932 1469 Q967 1432 967 1381 Q967 1321 921 1282 Q881 1248 828 1248 Q767 1248 725 1292 Q689 1330 689 1382 Q689 1439 735 1479 Q774 1513 830 1513 Z " />
<glyph glyph-name="otilde" unicode="&#xf5;" horiz-adv-x="1268" d="M634 1135 Q874 1135 1024 976 Q1175 817 1175 551 Q1175 287 1024 127 Q875 -32 635 -32 Q393 -32 244 127 Q93 287 93 559 Q93 816 244 976 Q393 1135 634 1135 Z M634 925 Q492 925 411 814 Q340 716 340 557 Q340 387 411 289 Q491 178 634 178 Q777 178 857 289 Q928 388 928 551 Q928 717 857 814 Q776 925 634 925 Z M448 1270 L308 1270 Q345 1507 519 1507 Q564 1507 613 1486 Q635 1476 690 1448 Q727 1429 748 1429 Q793 1429 818 1506 L960 1506 Q938 1400 901 1345 Q846 1264 739 1264 Q695 1264 653 1282 Q630 1292 569 1323 Q535 1341 517 1341 Q474 1341 448 1270 Z " />
<glyph glyph-name="uacute" unicode="&#xfa;" horiz-adv-x="1217" d="M153 1103 L396 1103 L396 451 Q396 340 411 288 Q436 200 527 200 Q611 200 704 268 Q740 294 817 371 L817 1103 L1059 1103 L1059 0 L817 0 L817 143 Q717 63 677 40 Q574 -19 460 -19 Q273 -19 204 123 Q153 229 153 465 L153 1103 Z M491 1225 L687 1566 L939 1566 L655 1225 L491 1225 Z " />
<glyph glyph-name="ugrave" unicode="&#xf9;" horiz-adv-x="1217" d="M153 1103 L396 1103 L396 451 Q396 340 411 288 Q436 200 527 200 Q611 200 704 268 Q740 294 817 371 L817 1103 L1059 1103 L1059 0 L817 0 L817 143 Q717 63 677 40 Q574 -19 460 -19 Q273 -19 204 123 Q153 229 153 465 L153 1103 Z M596 1225 L312 1566 L564 1566 L760 1225 L596 1225 Z " />
<glyph glyph-name="ucircumflex" unicode="&#xfb;" horiz-adv-x="1217" d="M153 1103 L396 1103 L396 451 Q396 340 411 288 Q436 200 527 200 Q611 200 704 268 Q740 294 817 371 L817 1103 L1059 1103 L1059 0 L817 0 L817 143 Q717 63 677 40 Q574 -19 460 -19 Q273 -19 204 123 Q153 229 153 465 L153 1103 Z M606 1416 L450 1225 L223 1225 L531 1566 L681 1566 L989 1225 L762 1225 L606 1416 Z " />
<glyph glyph-name="udieresis" unicode="&#xfc;" horiz-adv-x="1217" d="M153 1103 L396 1103 L396 451 Q396 340 411 288 Q436 200 527 200 Q611 200 704 268 Q740 294 817 371 L817 1103 L1059 1103 L1059 0 L817 0 L817 143 Q717 63 677 40 Q574 -19 460 -19 Q273 -19 204 123 Q153 229 153 465 L153 1103 Z M418 1513 Q477 1513 519 1469 Q554 1432 554 1381 Q554 1321 508 1282 Q468 1248 415 1248 Q353 1248 312 1292 Q276 1329 276 1382 Q276 1439 322 1479 Q361 1513 418 1513 Z M804 1513 Q864 1513 906 1469 Q941 1432 941 1381 Q941 1321 895 1282 Q855 1248 802 1248 Q741 1248 699 1292 Q663 1330 663 1382 Q663 1439 709 1479 Q748 1513 804 1513 Z " />
<glyph glyph-name="dagger" unicode="&#x2020;" horiz-adv-x="1181" d="M482 919 L150 919 L150 1112 L482 1112 L482 1516 L698 1516 L698 1112 L1031 1112 L1031 919 L698 919 L698 -201 L482 -201 L482 919 Z " />
<glyph glyph-name="degree" unicode="&#xb0;" horiz-adv-x="789" d="M394 1542 Q561 1542 657 1441 Q741 1352 741 1215 Q741 1078 657 989 Q562 888 395 888 Q226 888 131 989 Q47 1078 47 1219 Q47 1354 131 1441 Q229 1542 394 1542 Z M394 1401 Q295 1401 246 1345 Q203 1296 203 1218 Q203 1134 246 1085 Q295 1029 392 1029 Q493 1029 542 1085 Q585 1134 585 1215 Q585 1297 542 1345 Q492 1401 394 1401 Z " />
<glyph glyph-name="cent" unicode="&#xa2;" horiz-adv-x="1303" d="M623 -29 L623 296 Q483 309 380 370 Q168 496 168 805 Q168 996 250 1128 Q350 1287 527 1327 Q567 1336 623 1340 L623 1617 L779 1617 L779 1339 Q942 1322 1033 1244 Q1154 1140 1154 956 L932 956 Q923 1094 779 1133 L779 505 Q862 515 919 539 Q977 564 1044 623 L1170 459 Q1020 312 779 294 L779 -29 L623 -29 Z M623 520 L623 1128 Q536 1098 502 1065 Q415 979 415 820 Q415 650 526 566 Q553 544 623 520 Z " />
<glyph glyph-name="sterling" unicode="&#xa3;" horiz-adv-x="1303" d="M65 637 L65 820 L265 820 Q211 983 211 1088 Q211 1293 354 1401 Q491 1504 708 1504 Q1007 1504 1136 1304 Q1208 1193 1209 1026 L976 1026 Q971 1131 925 1194 Q854 1291 708 1291 Q605 1291 535 1246 Q457 1194 457 1086 Q457 987 510 820 L832 820 L832 637 L544 637 Q546 623 547 616 Q564 524 564 477 Q564 402 543 344 Q539 335 526 304 Q521 293 511 271 Q670 196 826 196 Q1055 196 1079 407 L1313 407 Q1293 244 1207 133 Q1082 -28 833 -28 Q691 -28 540 28 Q465 55 406 91 Q339 35 271 7 Q195 -23 65 -26 L65 215 Q125 224 156 234 Q317 289 317 507 Q317 551 297 637 L65 637 Z " />
<glyph glyph-name="section" unicode="&#xa7;" horiz-adv-x="1183" d="M295 933 Q198 1016 198 1154 Q198 1315 309 1412 Q412 1503 597 1503 Q850 1503 952 1352 Q1004 1273 1005 1153 L785 1153 Q779 1219 750 1251 Q699 1307 593 1307 Q523 1307 484 1276 Q438 1240 438 1178 Q438 1114 487 1082 Q530 1053 679 1017 Q821 982 881 952 Q983 903 1022 811 Q1046 755 1046 696 Q1046 549 917 448 Q1011 366 1011 216 Q1011 34 889 -66 Q779 -157 576 -157 Q120 -157 119 218 L337 218 Q345 140 378 103 Q435 39 570 39 Q663 39 715 77 Q772 119 772 195 Q772 264 724 302 Q689 330 639 344 Q593 358 501 381 Q300 433 224 501 Q145 573 145 695 Q145 841 295 933 Z M451 856 Q442 850 437 847 Q401 823 388 804 Q369 775 369 736 Q369 672 416 639 Q450 614 593 573 L760 526 Q822 574 822 650 Q822 718 771 754 Q742 774 722 780 L586 818 L451 856 Z " />
<glyph glyph-name="bullet" unicode="&#x2022;" horiz-adv-x="1171" d="M591 1040 Q729 1040 823 940 Q904 853 904 730 Q904 589 800 498 Q710 420 585 420 Q440 420 347 520 Q266 608 266 733 Q266 869 371 962 Q459 1040 591 1040 Z " />
<glyph glyph-name="paragraph" unicode="&#xb6;" horiz-adv-x="1378" d="M685 1268 L685 -422 L471 -422 L471 623 Q307 638 211 710 Q53 825 53 1048 Q53 1249 180 1365 Q256 1434 364 1460 Q437 1478 562 1478 L1109 1478 L1109 -422 L895 -422 L895 1268 L685 1268 Z " />
<glyph glyph-name="germandbls" unicode="&#xdf;" horiz-adv-x="1336" d="M158 0 L158 1058 Q158 1211 203 1306 Q319 1548 648 1548 Q864 1548 994 1442 Q1109 1350 1109 1190 Q1109 1060 1021 974 Q980 934 898 895 Q1027 860 1102 786 Q1231 660 1231 443 Q1231 223 1119 97 Q1004 -32 770 -32 Q689 -32 603 -17 L630 195 Q692 179 748 179 Q877 179 936 269 Q984 342 984 462 Q984 653 853 729 Q796 763 697 770 Q667 772 600 773 L600 967 Q702 969 765 999 Q825 1026 856 1083 Q874 1117 874 1164 Q874 1256 814 1302 Q751 1351 646 1351 Q513 1351 450 1265 Q401 1197 401 1056 L401 0 L158 0 Z " />
<glyph glyph-name="registered" unicode="&#xae;" horiz-adv-x="1442" d="M519 927 L519 1475 L730 1475 Q838 1475 888 1448 Q967 1406 967 1309 Q967 1223 889 1181 Q911 1158 927 1112 L992 927 L839 927 L805 1030 Q790 1086 772 1109 Q754 1133 693 1133 L659 1133 L659 927 L519 927 Z M659 1237 L709 1237 Q772 1237 797 1252 Q824 1267 824 1305 Q824 1339 798 1352 Q775 1363 719 1363 L659 1363 L659 1237 Z M721 1783 Q982 1783 1162 1610 Q1339 1440 1339 1196 Q1339 953 1162 783 Q982 609 722 609 Q459 609 279 783 Q102 953 102 1203 Q102 1360 186 1496 Q275 1640 435 1719 Q566 1783 721 1783 Z M720 1643 Q517 1643 380 1509 Q252 1385 252 1202 Q252 1008 380 883 Q517 749 722 749 Q925 749 1062 883 Q1189 1008 1189 1196 Q1189 1388 1062 1509 Q921 1643 720 1643 Z " />
<glyph glyph-name="copyright" unicode="&#xa9;" horiz-adv-x="1923" d="M1301 849 L1141 849 Q1130 975 980 975 Q873 975 820 904 Q769 834 769 730 Q769 618 831 552 Q890 491 987 491 Q1114 491 1225 572 L1315 459 Q1255 413 1202 387 Q1109 343 987 343 Q802 343 694 454 Q592 559 592 729 Q592 906 700 1017 Q801 1121 974 1121 Q1179 1121 1258 1003 Q1297 946 1301 849 Z M962 1535 Q1317 1535 1562 1299 Q1801 1069 1801 737 Q1801 406 1562 175 Q1318 -61 964 -61 Q607 -61 362 175 Q123 406 123 747 Q123 960 237 1145 Q357 1341 575 1448 Q752 1535 962 1535 Z M962 1351 Q685 1351 497 1167 Q323 996 323 745 Q323 479 497 307 Q684 123 964 123 Q1241 123 1427 307 Q1601 479 1601 737 Q1601 1000 1427 1167 Q1235 1351 962 1351 Z " />
<glyph glyph-name="trademark" unicode="&#x2122;" horiz-adv-x="1644" d="M437 1341 L437 769 L271 769 L271 1341 L45 1341 L45 1475 L663 1475 L663 1341 L437 1341 Z M904 1234 L869 769 L705 769 L768 1475 L968 1475 L1117 1045 L1266 1475 L1465 1475 L1527 769 L1364 769 L1329 1234 L1171 769 L1062 769 L904 1234 Z " />
<glyph glyph-name="acute" unicode="&#xb4;" horiz-adv-x="1024" d="M360 1225 L556 1566 L808 1566 L524 1225 L360 1225 Z " />
<glyph glyph-name="dieresis" unicode="&#xa8;" horiz-adv-x="1024" d="M322 1513 Q381 1513 423 1469 Q458 1432 458 1381 Q458 1321 412 1282 Q372 1248 319 1248 Q257 1248 216 1292 Q180 1329 180 1382 Q180 1439 226 1479 Q265 1513 322 1513 Z M708 1513 Q768 1513 810 1469 Q845 1432 845 1381 Q845 1321 799 1282 Q759 1248 706 1248 Q645 1248 603 1292 Q567 1330 567 1382 Q567 1439 613 1479 Q652 1513 708 1513 Z " />
<glyph glyph-name="notequal" unicode="&#x2260;" horiz-adv-x="1303" d="M159 460 L159 664 L501 664 L573 808 L159 808 L159 1012 L669 1012 L794 1269 L978 1175 L897 1012 L1144 1012 L1144 808 L801 808 L729 664 L1144 664 L1144 460 L633 460 L509 204 L325 297 L405 460 L159 460 Z " />
<glyph glyph-name="AE" unicode="&#xc6;" horiz-adv-x="2021" d="M967 452 L437 452 L156 0 L-127 0 L824 1475 L1912 1475 L1912 1265 L1220 1265 L1220 875 L1780 875 L1780 665 L1220 665 L1220 210 L1928 210 L1928 0 L967 0 L967 452 Z M967 653 L967 1305 L559 653 L967 653 Z " />
<glyph glyph-name="Oslash" unicode="&#xd8;" horiz-adv-x="1581" d="M273 185 Q107 386 107 735 Q107 1043 235 1237 Q411 1503 792 1503 Q1023 1503 1178 1405 L1256 1510 L1486 1510 L1315 1281 Q1474 1082 1474 740 Q1474 432 1346 238 Q1170 -29 790 -29 Q565 -29 413 64 L325 -55 L95 -55 L273 185 Z M429 396 L1038 1217 Q942 1283 790 1283 Q364 1283 364 738 Q364 523 429 396 Z M1157 1067 L552 252 Q642 191 791 191 Q1217 191 1217 738 Q1217 937 1157 1067 Z " />
<glyph glyph-name="infinity" unicode="&#x221e;" horiz-adv-x="1664" d="M832 578 Q678 377 464 377 Q296 377 200 477 Q113 569 113 714 Q113 861 201 952 Q296 1052 466 1052 Q677 1052 832 851 Q892 928 945 968 Q1058 1052 1199 1052 Q1367 1052 1463 952 Q1551 861 1551 714 Q1551 569 1464 477 Q1368 377 1200 377 Q987 377 832 578 Z M743 714 L727 734 Q601 887 480 887 Q400 887 348 839 Q298 792 298 715 Q298 637 349 590 Q400 542 480 542 Q559 542 633 599 Q666 625 726 694 L743 714 Z M920 714 L938 694 Q996 626 1036 596 Q1108 542 1184 542 Q1264 542 1316 590 Q1367 637 1367 714 Q1367 791 1317 839 Q1265 887 1184 887 Q1063 887 937 734 L920 714 Z " />
<glyph glyph-name="plusminus" unicode="&#xb1;" horiz-adv-x="1303" d="M159 666 L159 870 L543 870 L543 1223 L761 1223 L761 870 L1144 870 L1144 666 L761 666 L761 314 L543 314 L543 666 L159 666 Z M166 0 L166 204 L1137 204 L1137 0 L166 0 Z " />
<glyph glyph-name="lessequal" unicode="&#x2264;" horiz-adv-x="1303" d="M444 827 L1098 523 L1098 291 L198 749 L198 904 L1098 1363 L1098 1130 L444 827 Z M204 0 L204 213 L1098 213 L1098 0 L204 0 Z " />
<glyph glyph-name="greaterequal" unicode="&#x2265;" horiz-adv-x="1303" d="M858 827 L204 1130 L204 1363 L1104 904 L1104 749 L204 291 L204 523 L858 827 Z M204 0 L204 213 L1098 213 L1098 0 L204 0 Z " />
<glyph glyph-name="yen" unicode="&#xa5;" horiz-adv-x="1303" d="M525 0 L525 305 L160 305 L160 460 L525 460 L525 581 L160 581 L160 736 L437 736 L-2 1475 L273 1475 L652 813 L1029 1475 L1304 1475 L866 736 L1142 736 L1142 581 L778 581 L778 460 L1142 460 L1142 305 L778 305 L778 0 L525 0 Z " />
<glyph glyph-name="mu" unicode="&#xb5;" horiz-adv-x="1303" d="M198 1103 L441 1103 L441 450 Q441 326 458 277 Q484 201 583 201 Q665 201 754 263 Q797 292 862 356 L862 1103 L1104 1103 L1104 0 L862 0 L862 132 Q789 67 742 38 Q652 -17 545 -17 Q493 -17 441 3 L441 -439 L198 -439 L198 1103 Z " />
<glyph glyph-name="partialdiff" unicode="&#x2202;" horiz-adv-x="1303" d="M765 1038 Q636 1213 376 1422 L507 1553 Q744 1384 905 1199 Q1053 1030 1124 866 Q1191 709 1191 531 Q1191 266 1041 117 Q893 -31 652 -31 Q410 -31 263 117 Q112 267 112 515 Q112 763 262 918 Q404 1063 619 1063 Q691 1063 765 1038 Z M651 862 Q511 862 430 761 Q359 674 359 520 Q359 368 430 280 Q511 179 652 179 Q793 179 874 280 Q945 368 945 516 Q945 673 874 761 Q794 862 651 862 Z " />
<glyph glyph-name="summation" unicode="&#x2211;" horiz-adv-x="1307" d="M1222 1572 L1222 1374 L390 1374 L872 646 L353 -158 L1244 -158 L1244 -356 L72 -356 L72 -160 L588 644 L103 1380 L103 1572 L1222 1572 Z " />
<glyph glyph-name="product" unicode="&#x220f;" horiz-adv-x="1476" d="M1053 1374 L422 1374 L422 -356 L181 -356 L181 1572 L1294 1572 L1294 -356 L1053 -356 L1053 1374 Z " />
<glyph glyph-name="integral" unicode="&#x222b;" horiz-adv-x="858" d="M61 -335 L105 -140 Q154 -163 193 -163 Q274 -163 298 -102 Q312 -68 312 105 L312 1053 Q312 1197 316 1268 Q334 1577 617 1577 Q691 1577 795 1550 L751 1356 Q702 1380 660 1380 Q581 1380 557 1318 Q544 1284 544 1136 L544 164 Q544 -18 534 -94 Q500 -360 220 -360 Q143 -360 61 -335 Z " />
<glyph glyph-name="ordfeminine" unicode="&#xaa;" horiz-adv-x="818" d="M523 824 L523 888 Q437 807 297 807 Q54 807 54 1014 Q54 1137 146 1187 Q210 1221 343 1221 Q350 1221 491 1217 L491 1248 Q491 1305 457 1327 Q425 1349 346 1349 Q256 1349 160 1315 L108 1468 Q236 1506 360 1506 Q579 1506 649 1397 Q688 1335 688 1208 L688 824 L523 824 Z M491 1085 Q411 1090 370 1090 Q301 1090 278 1075 Q251 1057 251 1018 Q251 948 345 948 Q428 948 471 992 Q491 1012 491 1046 L491 1085 Z " />
<glyph glyph-name="ordmasculine" unicode="&#xba;" horiz-adv-x="823" d="M412 1506 Q583 1506 683 1416 Q788 1320 788 1158 Q788 995 683 899 Q583 809 413 809 Q240 809 141 899 Q36 995 36 1162 Q36 1321 141 1416 Q242 1506 412 1506 Z M412 1345 Q323 1345 277 1288 Q235 1237 235 1160 Q235 1078 277 1027 Q323 970 413 970 Q501 970 547 1027 Q589 1078 589 1158 Q589 1238 547 1288 Q501 1345 412 1345 Z " />
<glyph glyph-name="uni2126" unicode="&#x2126;" horiz-adv-x="1612" d="M88 0 L88 177 L365 177 Q255 258 203 328 Q84 489 84 751 Q84 1041 225 1239 Q413 1504 802 1504 Q1190 1504 1379 1239 Q1520 1041 1520 750 Q1520 481 1393 315 Q1338 243 1239 177 L1516 177 L1516 0 L894 0 L894 209 Q1040 243 1132 336 Q1263 468 1263 749 Q1263 1007 1143 1151 Q1032 1284 802 1284 Q572 1284 461 1151 Q341 1007 341 746 Q341 467 485 331 Q584 238 710 209 L710 0 L88 0 Z " />
<glyph glyph-name="ae" unicode="&#xe6;" horiz-adv-x="1918" d="M798 659 L798 721 Q798 836 767 877 Q721 937 577 937 Q475 937 433 889 Q413 865 392 791 L168 791 Q186 930 246 1008 Q344 1134 581 1134 Q769 1134 865 1075 Q920 1041 956 971 Q1087 1135 1325 1135 Q1535 1135 1669 1000 Q1787 880 1818 675 Q1830 593 1832 475 L1040 475 Q1057 362 1089 308 Q1168 178 1335 178 Q1468 178 1588 238 Q1628 258 1699 305 L1806 121 Q1580 -32 1343 -32 Q1084 -32 935 156 Q888 99 803 50 Q659 -33 473 -33 Q290 -33 190 47 Q80 135 80 316 Q80 519 217 609 Q311 671 530 671 Q597 671 798 659 Z M804 478 Q681 491 552 491 Q419 491 374 456 Q323 416 323 327 Q323 243 368 206 Q411 171 514 171 Q689 171 763 255 Q793 288 800 330 Q804 351 804 396 L804 478 Z M1586 657 Q1566 771 1529 824 Q1453 935 1315 935 Q1097 935 1043 657 L1586 657 Z " />
<glyph glyph-name="oslash" unicode="&#xf8;" horiz-adv-x="1269" d="M225 147 Q94 311 94 552 Q94 816 245 977 Q394 1135 637 1135 Q778 1135 888 1077 Q904 1069 925 1056 L991 1140 L1188 1140 L1045 954 Q1176 800 1176 550 Q1176 287 1025 126 Q876 -32 633 -32 Q476 -32 345 46 L279 -39 L81 -39 L225 147 Z M380 350 L790 879 Q717 926 637 926 Q492 926 412 815 Q341 716 341 553 Q341 446 370 374 Q379 350 380 350 Z M891 752 L480 223 Q554 177 632 177 Q777 177 858 288 Q929 387 929 551 Q929 656 911 701 Q893 745 891 752 Z " />
<glyph glyph-name="questiondown" unicode="&#xbf;" horiz-adv-x="1090" d="M678 958 L678 908 Q678 760 627 683 Q599 640 549 604 Q525 587 436 535 Q348 484 317 442 Q276 386 276 306 Q276 212 338 162 Q404 107 511 107 Q655 107 722 209 Q755 258 768 364 L996 364 Q987 264 969 205 Q925 62 813 -19 Q693 -107 503 -107 Q287 -107 157 8 Q29 123 29 313 Q29 483 129 581 Q183 633 330 720 Q411 768 432 811 Q449 845 449 908 L449 958 L678 958 Z M565 1441 Q637 1441 686 1389 Q728 1344 728 1281 Q728 1211 674 1163 Q628 1123 562 1123 Q492 1123 444 1175 Q402 1221 402 1282 Q402 1352 456 1400 Q502 1441 565 1441 Z " />
<glyph glyph-name="exclamdown" unicode="&#xa1;" horiz-adv-x="773" d="M497 958 L529 -74 L245 -74 L277 958 L497 958 Z M387 1441 Q459 1441 508 1389 Q550 1344 550 1281 Q550 1211 496 1163 Q450 1123 384 1123 Q314 1123 266 1175 Q224 1220 224 1282 Q224 1353 278 1400 Q324 1441 387 1441 Z " />
<glyph glyph-name="logicalnot" unicode="&#xac;" horiz-adv-x="1303" d="M205 638 L205 842 L1043 842 L1043 281 L829 281 L829 638 L205 638 Z " />
<glyph glyph-name="radical" unicode="&#x221a;" horiz-adv-x="1303" d="M436 0 L238 582 L89 582 L89 779 L421 779 L571 273 L1018 1825 L1599 1825 L1599 1626 L1201 1626 L712 0 L436 0 Z " />
<glyph glyph-name="florin" unicode="&#x192;" horiz-adv-x="1303" d="M295 701 L295 894 L539 894 L582 1108 Q609 1248 628 1295 Q678 1421 764 1468 Q832 1506 929 1506 Q1025 1506 1145 1456 L1100 1268 Q1002 1307 960 1307 Q894 1307 859 1242 Q840 1205 820 1108 L777 894 L971 894 L971 701 L745 701 L644 135 Q606 -77 554 -169 Q464 -327 277 -327 Q183 -327 66 -284 L109 -82 Q186 -116 239 -116 Q319 -116 362 -27 Q391 35 418 187 L508 701 L295 701 Z " />
<glyph glyph-name="approxequal" unicode="&#x2248;" horiz-adv-x="1303" d="M275 758 L131 886 Q208 974 255 1013 Q359 1100 472 1100 Q552 1100 637 1062 Q662 1051 781 984 Q815 965 864 965 Q954 965 1065 1094 L1209 968 Q1140 883 1081 835 Q977 750 871 750 Q792 750 700 790 Q681 799 563 860 Q520 882 473 882 Q411 882 341 822 Q314 799 275 758 Z M275 381 L131 509 Q209 599 255 637 Q360 724 472 724 Q576 724 685 662 Q776 611 781 608 Q818 589 864 589 Q954 589 1065 718 L1209 592 Q1137 504 1081 459 Q977 374 869 374 Q792 374 700 414 Q681 423 563 484 Q520 506 474 506 Q393 506 275 381 Z " />
<glyph glyph-name="Delta" unicode="&#x2206;" horiz-adv-x="1303" d="M1363 0 L-61 0 L541 1475 L762 1475 L1363 0 Z M1034 204 L651 1200 L269 204 L1034 204 Z " />
<glyph glyph-name="guillemotleft" unicode="&#xab;" horiz-adv-x="978" d="M714 575 L954 190 L746 190 L483 575 L746 959 L954 959 L714 575 Z M300 575 L540 190 L332 190 L69 575 L332 959 L540 959 L300 575 Z " />
<glyph glyph-name="guillemotright" unicode="&#xbb;" horiz-adv-x="978" d="M264 575 L24 959 L232 959 L495 575 L232 190 L24 190 L264 575 Z M678 575 L438 959 L646 959 L909 575 L646 190 L438 190 L678 575 Z " />
<glyph glyph-name="ellipsis" unicode="&#x2026;" horiz-adv-x="1955" d="M325 289 Q394 289 443 237 Q485 192 485 130 Q485 59 431 12 Q384 -29 322 -29 Q250 -29 201 23 Q159 68 159 131 Q159 201 213 248 Q259 289 325 289 Z M981 289 Q1050 289 1099 237 Q1141 192 1141 130 Q1141 59 1087 12 Q1041 -29 978 -29 Q906 -29 857 23 Q815 68 815 131 Q815 201 869 248 Q915 289 981 289 Z M1637 289 Q1706 289 1755 237 Q1797 192 1797 130 Q1797 59 1743 12 Q1696 -29 1634 -29 Q1562 -29 1513 23 Q1471 68 1471 131 Q1471 201 1525 248 Q1571 289 1637 289 Z " />
<glyph glyph-name="Agrave" unicode="&#xc0;" horiz-adv-x="1382" d="M987 379 L395 379 L258 0 L1 0 L580 1475 L803 1475 L1381 0 L1125 0 L987 379 Z M915 583 L691 1200 L467 583 L915 583 Z M669 1603 L385 1945 L637 1945 L833 1603 L669 1603 Z " />
<glyph glyph-name="Atilde" unicode="&#xc3;" horiz-adv-x="1382" d="M987 379 L395 379 L258 0 L1 0 L580 1475 L803 1475 L1381 0 L1125 0 L987 379 Z M915 583 L691 1200 L467 583 L915 583 Z M505 1648 L365 1648 Q402 1885 577 1885 Q621 1885 670 1864 Q691 1854 747 1826 Q784 1807 805 1807 Q851 1807 875 1884 L1017 1884 Q995 1779 958 1723 Q903 1642 796 1642 Q752 1642 710 1660 Q685 1671 626 1701 Q592 1719 574 1719 Q530 1719 505 1648 Z " />
<glyph glyph-name="Otilde" unicode="&#xd5;" horiz-adv-x="1571" d="M779 1504 Q1165 1504 1342 1238 Q1470 1044 1470 738 Q1470 432 1342 238 Q1166 -29 788 -29 Q406 -29 230 238 Q102 432 102 747 Q102 1044 230 1238 Q407 1504 779 1504 Z M786 1284 Q571 1284 469 1149 Q359 1005 359 746 Q359 472 469 326 Q570 191 791 191 Q1002 191 1103 326 Q1213 472 1213 738 Q1213 1284 786 1284 Z M600 1648 L460 1648 Q497 1885 672 1885 Q716 1885 765 1864 Q786 1854 842 1826 Q879 1807 900 1807 Q946 1807 970 1884 L1112 1884 Q1090 1779 1053 1723 Q998 1642 891 1642 Q847 1642 805 1660 Q780 1671 721 1701 Q687 1719 669 1719 Q625 1719 600 1648 Z " />
<glyph glyph-name="OE" unicode="&#x152;" horiz-adv-x="2114" d="M1313 210 L2022 210 L2022 0 L1300 0 Q1237 0 1115 -8 Q950 -18 874 -18 Q629 -18 469 64 Q280 160 184 349 Q97 519 97 738 Q97 1095 315 1302 Q423 1405 565 1451 Q695 1493 873 1493 Q953 1493 1115 1483 Q1238 1475 1303 1475 L2005 1475 L2005 1265 L1313 1265 L1313 875 L1873 875 L1873 665 L1313 665 L1313 210 Z M1060 210 L1060 1265 Q972 1280 867 1280 Q626 1280 488 1131 Q354 988 354 738 Q354 465 510 322 Q648 195 877 195 Q970 195 1060 210 Z " />
<glyph glyph-name="oe" unicode="&#x153;" horiz-adv-x="2075" d="M1052 194 Q1004 125 960 86 Q829 -32 629 -32 Q388 -32 239 127 Q88 288 88 551 Q88 816 239 976 Q389 1135 628 1135 Q902 1135 1054 906 Q1095 971 1132 1010 Q1254 1135 1466 1135 Q1674 1135 1808 1002 Q1926 884 1959 679 Q1972 592 1974 475 L1182 475 Q1199 360 1231 308 Q1310 178 1477 178 Q1607 178 1725 236 Q1768 257 1841 305 L1948 121 Q1872 70 1817 44 Q1659 -32 1480 -32 Q1266 -32 1138 88 Q1094 130 1052 194 Z M634 925 Q490 925 408 814 Q335 716 335 551 Q335 388 408 289 Q490 178 635 178 Q779 178 861 289 Q934 387 934 546 Q934 717 861 814 Q778 925 634 925 Z M1728 657 Q1708 771 1671 824 Q1595 936 1457 936 Q1308 936 1234 806 Q1204 755 1184 657 L1728 657 Z " />
<glyph glyph-name="endash" unicode="&#x2013;" horiz-adv-x="990" d="M69 510 L69 719 L922 719 L922 510 L69 510 Z " />
<glyph glyph-name="emdash" unicode="&#x2014;" horiz-adv-x="1303" d="M-90 510 L-90 719 L1392 719 L1392 510 L-90 510 Z " />
<glyph glyph-name="quotedblleft" unicode="&#x201c;" horiz-adv-x="956" d="M57 964 L291 1475 L481 1475 L336 964 L57 964 Z M451 964 L685 1475 L876 1475 L730 964 L451 964 Z " />
<glyph glyph-name="quotedblright" unicode="&#x201d;" horiz-adv-x="956" d="M84 964 L230 1475 L508 1475 L275 964 L84 964 Z M478 964 L624 1475 L903 1475 L669 964 L478 964 Z " />
<glyph glyph-name="quoteleft" unicode="&#x2018;" horiz-adv-x="561" d="M57 964 L291 1475 L481 1475 L336 964 L57 964 Z " />
<glyph glyph-name="quoteright" unicode="&#x2019;" horiz-adv-x="561" d="M84 964 L230 1475 L508 1475 L275 964 L84 964 Z " />
<glyph glyph-name="divide" unicode="&#xf7;" horiz-adv-x="1303" d="M159 634 L159 838 L1144 838 L1144 634 L159 634 Z M655 1273 Q721 1273 767 1224 Q807 1182 807 1125 Q807 1058 756 1014 Q711 976 652 976 Q583 976 537 1025 Q497 1067 497 1126 Q497 1191 549 1235 Q592 1273 655 1273 Z M655 496 Q720 496 767 447 Q807 405 807 348 Q807 281 756 237 Q711 199 652 199 Q583 199 537 248 Q497 290 497 349 Q497 413 549 458 Q593 496 655 496 Z " />
<glyph glyph-name="lozenge" unicode="&#x25ca;" horiz-adv-x="1192" d="M10 704 L596 1454 L1183 704 L596 -46 L10 704 Z M291 704 L596 315 L901 704 L596 1093 L291 704 Z " />
<glyph glyph-name="ydieresis" unicode="&#xff;" horiz-adv-x="1064" d="M412 27 L14 1103 L274 1103 L531 312 L789 1103 L1049 1103 L644 14 Q572 -181 527 -254 Q442 -395 315 -423 Q253 -437 140 -438 L140 -229 Q240 -228 277 -205 Q333 -170 378 -57 L412 27 Z M341 1513 Q400 1513 442 1469 Q477 1432 477 1381 Q477 1321 431 1282 Q391 1248 338 1248 Q276 1248 235 1292 Q199 1329 199 1382 Q199 1439 245 1479 Q284 1513 341 1513 Z M727 1513 Q787 1513 829 1469 Q864 1432 864 1381 Q864 1321 818 1282 Q778 1248 725 1248 Q664 1248 622 1292 Q586 1330 586 1382 Q586 1439 632 1479 Q671 1513 727 1513 Z " />
<glyph glyph-name="Ydieresis" unicode="&#x178;" horiz-adv-x="1223" d="M485 0 L485 565 L-23 1475 L252 1475 L611 800 L970 1475 L1245 1475 L738 565 L738 0 L485 0 Z M406 1879 Q466 1879 508 1835 Q543 1798 543 1747 Q543 1687 497 1648 Q458 1614 404 1614 Q342 1614 301 1658 Q265 1696 265 1748 Q265 1805 311 1845 Q350 1879 406 1879 Z M821 1879 Q880 1879 921 1835 Q957 1798 957 1747 Q957 1687 911 1648 Q871 1614 818 1614 Q756 1614 715 1658 Q679 1696 679 1748 Q679 1805 725 1845 Q764 1879 821 1879 Z " />
<glyph glyph-name="fraction" unicode="&#x2044;" horiz-adv-x="324" d="M-323 0 L449 1475 L646 1475 L-126 0 L-323 0 Z " />
<glyph glyph-name="Euro" unicode="&#x20ac;" horiz-adv-x="1303" d="M-38 495 L17 650 L141 650 Q139 713 139 730 Q139 745 140 770 L-38 770 L17 925 L154 925 Q186 1119 274 1253 Q439 1506 781 1506 Q1096 1506 1236 1311 Q1313 1201 1314 1038 L1078 1038 Q1071 1139 1020 1198 Q940 1290 783 1290 Q486 1290 413 925 L1045 925 L990 770 L397 770 Q396 740 396 727 Q396 714 399 650 L942 650 L887 495 L426 495 Q458 389 511 322 Q613 191 804 191 Q948 191 1067 271 Q1120 307 1189 385 L1341 210 Q1247 102 1146 48 Q996 -31 792 -31 Q479 -31 312 165 Q201 294 160 495 L-38 495 Z " />
<glyph glyph-name="guilsinglleft" unicode="&#x2039;" horiz-adv-x="564" d="M300 575 L540 190 L332 190 L69 575 L332 959 L540 959 L300 575 Z " />
<glyph glyph-name="guilsinglright" unicode="&#x203a;" horiz-adv-x="564" d="M264 575 L24 959 L232 959 L495 575 L232 190 L24 190 L264 575 Z " />
<glyph glyph-name="fi" unicode="&#xfb01;" horiz-adv-x="1334" d="M230 0 L230 893 L74 893 L74 1103 L230 1103 L230 1138 Q230 1333 314 1429 Q405 1533 611 1533 Q704 1533 798 1516 L784 1316 Q696 1331 635 1331 Q529 1331 495 1261 Q473 1215 473 1131 L473 1103 L755 1103 L755 893 L473 893 L473 0 L230 0 Z M928 0 L928 1103 L1171 1103 L1171 0 L928 0 Z M1052 1522 Q1116 1522 1160 1475 Q1198 1435 1198 1380 Q1198 1316 1149 1274 Q1106 1238 1050 1238 Q984 1238 939 1285 Q901 1325 901 1381 Q901 1443 950 1486 Q992 1522 1052 1522 Z " />
<glyph glyph-name="fl" unicode="&#xfb02;" horiz-adv-x="1325" d="M230 0 L230 893 L74 893 L74 1103 L230 1103 L230 1138 Q230 1333 314 1429 Q405 1533 611 1533 Q704 1533 798 1516 L784 1316 Q696 1331 635 1331 Q529 1331 495 1261 Q473 1215 473 1131 L473 1103 L755 1103 L755 893 L473 893 L473 0 L230 0 Z M924 0 L924 1516 L1167 1516 L1167 0 L924 0 Z " />
<glyph glyph-name="daggerdbl" unicode="&#x2021;" horiz-adv-x="1181" d="M482 921 L150 921 L150 1114 L482 1114 L482 1516 L698 1516 L698 1113 L1031 1113 L1031 920 L698 920 L698 425 L1031 425 L1031 224 L698 224 L698 -171 L482 -171 L482 225 L150 225 L150 426 L482 426 L482 921 Z " />
<glyph glyph-name="periodcentered" unicode="&#xb7;" horiz-adv-x="643" d="M325 774 Q394 774 443 722 Q485 677 485 615 Q485 544 431 497 Q384 456 322 456 Q250 456 201 508 Q159 553 159 616 Q159 686 213 733 Q259 774 325 774 Z " />
<glyph glyph-name="quotesinglbase" unicode="&#x201a;" horiz-adv-x="561" d="M60 -231 L206 280 L484 280 L251 -231 L60 -231 Z " />
<glyph glyph-name="quotedblbase" unicode="&#x201e;" horiz-adv-x="956" d="M58 -229 L204 282 L482 282 L249 -229 L58 -229 Z M452 -229 L598 282 L877 282 L643 -229 L452 -229 Z " />
<glyph glyph-name="perthousand" unicode="&#x2030;" horiz-adv-x="2750" d="M454 1506 Q659 1506 759 1387 Q853 1276 853 1098 Q853 921 759 809 Q660 690 456 690 Q255 690 156 809 Q62 921 62 1103 Q62 1276 156 1387 Q256 1506 454 1506 Z M458 1322 Q281 1322 281 1101 Q281 874 458 874 Q634 874 634 1098 Q634 1322 458 1322 Z M1411 787 Q1616 787 1716 668 Q1810 557 1810 379 Q1810 202 1716 90 Q1617 -29 1413 -29 Q1212 -29 1113 90 Q1019 202 1019 384 Q1019 557 1113 668 Q1213 787 1411 787 Z M1415 603 Q1238 603 1238 382 Q1238 155 1415 155 Q1591 155 1591 379 Q1591 603 1415 603 Z M2288 787 Q2492 787 2593 668 Q2687 557 2687 379 Q2687 202 2593 90 Q2493 -29 2290 -29 Q2089 -29 1990 90 Q1896 202 1896 384 Q1896 557 1990 668 Q2090 787 2288 787 Z M2292 603 Q2115 603 2115 382 Q2115 155 2292 155 Q2468 155 2468 379 Q2468 603 2292 603 Z M378 0 L1273 1475 L1490 1475 L595 0 L378 0 Z " />
<glyph glyph-name="Acircumflex" unicode="&#xc2;" horiz-adv-x="1382" d="M987 379 L395 379 L258 0 L1 0 L580 1475 L803 1475 L1381 0 L1125 0 L987 379 Z M915 583 L691 1200 L467 583 L915 583 Z M688 1794 L532 1603 L305 1603 L613 1945 L763 1945 L1071 1603 L844 1603 L688 1794 Z " />
<glyph glyph-name="Ecircumflex" unicode="&#xca;" horiz-adv-x="1227" d="M169 0 L169 1475 L1133 1475 L1133 1265 L422 1265 L422 875 L1001 875 L1001 665 L422 665 L422 210 L1150 210 L1150 0 L169 0 Z M650 1794 L494 1603 L267 1603 L575 1945 L725 1945 L1033 1603 L806 1603 L650 1794 Z " />
<glyph glyph-name="Aacute" unicode="&#xc1;" horiz-adv-x="1382" d="M987 379 L395 379 L258 0 L1 0 L580 1475 L803 1475 L1381 0 L1125 0 L987 379 Z M915 583 L691 1200 L467 583 L915 583 Z M545 1603 L741 1945 L993 1945 L709 1603 L545 1603 Z " />
<glyph glyph-name="Edieresis" unicode="&#xcb;" horiz-adv-x="1227" d="M169 0 L169 1475 L1133 1475 L1133 1265 L422 1265 L422 875 L1001 875 L1001 665 L422 665 L422 210 L1150 210 L1150 0 L169 0 Z M448 1879 Q508 1879 550 1835 Q585 1798 585 1747 Q585 1687 539 1648 Q500 1614 446 1614 Q384 1614 343 1658 Q307 1696 307 1748 Q307 1805 353 1845 Q392 1879 448 1879 Z M863 1879 Q922 1879 963 1835 Q999 1798 999 1747 Q999 1687 953 1648 Q913 1614 860 1614 Q798 1614 757 1658 Q721 1696 721 1748 Q721 1805 767 1845 Q806 1879 863 1879 Z " />
<glyph glyph-name="Egrave" unicode="&#xc8;" horiz-adv-x="1227" d="M169 0 L169 1475 L1133 1475 L1133 1265 L422 1265 L422 875 L1001 875 L1001 665 L422 665 L422 210 L1150 210 L1150 0 L169 0 Z M666 1603 L382 1945 L634 1945 L830 1603 L666 1603 Z " />
<glyph glyph-name="Iacute" unicode="&#xcd;" horiz-adv-x="591" d="M156 0 L156 1475 L409 1475 L409 0 L156 0 Z M150 1603 L346 1945 L598 1945 L314 1603 L150 1603 Z " />
<glyph glyph-name="Icircumflex" unicode="&#xce;" horiz-adv-x="591" d="M169 0 L169 1475 L422 1475 L422 0 L169 0 Z M293 1794 L137 1603 L-90 1603 L218 1945 L368 1945 L676 1603 L449 1603 L293 1794 Z " />
<glyph glyph-name="Idieresis" unicode="&#xcf;" horiz-adv-x="591" d="M169 0 L169 1475 L422 1475 L422 0 L169 0 Z M90 1879 Q150 1879 192 1835 Q227 1798 227 1747 Q227 1687 181 1648 Q142 1614 88 1614 Q26 1614 -15 1658 Q-51 1696 -51 1748 Q-51 1805 -5 1845 Q34 1879 90 1879 Z M505 1879 Q564 1879 605 1835 Q641 1798 641 1747 Q641 1687 595 1648 Q555 1614 502 1614 Q440 1614 399 1658 Q363 1696 363 1748 Q363 1805 409 1845 Q448 1879 505 1879 Z " />
<glyph glyph-name="Igrave" unicode="&#xcc;" horiz-adv-x="591" d="M169 0 L169 1475 L422 1475 L422 0 L169 0 Z M273 1603 L-11 1945 L241 1945 L437 1603 L273 1603 Z " />
<glyph glyph-name="Oacute" unicode="&#xd3;" horiz-adv-x="1571" d="M779 1504 Q1165 1504 1342 1238 Q1470 1044 1470 738 Q1470 432 1342 238 Q1166 -29 788 -29 Q406 -29 230 238 Q102 432 102 747 Q102 1044 230 1238 Q407 1504 779 1504 Z M786 1284 Q571 1284 469 1149 Q359 1005 359 746 Q359 472 469 326 Q570 191 791 191 Q1002 191 1103 326 Q1213 472 1213 738 Q1213 1284 786 1284 Z M634 1603 L830 1945 L1082 1945 L798 1603 L634 1603 Z " />
<glyph glyph-name="Ocircumflex" unicode="&#xd4;" horiz-adv-x="1571" d="M779 1504 Q1165 1504 1342 1238 Q1470 1044 1470 738 Q1470 432 1342 238 Q1166 -29 788 -29 Q406 -29 230 238 Q102 432 102 747 Q102 1044 230 1238 Q407 1504 779 1504 Z M786 1284 Q571 1284 469 1149 Q359 1005 359 746 Q359 472 469 326 Q570 191 791 191 Q1002 191 1103 326 Q1213 472 1213 738 Q1213 1284 786 1284 Z M783 1794 L627 1603 L400 1603 L708 1945 L858 1945 L1166 1603 L939 1603 L783 1794 Z " />
<glyph glyph-name="Ograve" unicode="&#xd2;" horiz-adv-x="1571" d="M779 1504 Q1165 1504 1342 1238 Q1470 1044 1470 738 Q1470 432 1342 238 Q1166 -29 788 -29 Q406 -29 230 238 Q102 432 102 747 Q102 1044 230 1238 Q407 1504 779 1504 Z M786 1284 Q571 1284 469 1149 Q359 1005 359 746 Q359 472 469 326 Q570 191 791 191 Q1002 191 1103 326 Q1213 472 1213 738 Q1213 1284 786 1284 Z M774 1603 L490 1945 L742 1945 L938 1603 L774 1603 Z " />
<glyph glyph-name="Uacute" unicode="&#xda;" horiz-adv-x="1417" d="M160 1475 L413 1475 L413 577 Q413 383 463 302 Q531 190 708 190 Q887 190 954 302 Q984 353 996 429 Q1003 477 1003 577 L1003 1475 L1256 1475 L1256 622 Q1256 413 1231 309 Q1192 144 1061 59 Q925 -30 708 -30 Q380 -30 247 165 Q185 257 168 406 Q160 476 160 622 L160 1475 Z M570 1603 L766 1945 L1018 1945 L734 1603 L570 1603 Z " />
<glyph glyph-name="Ucircumflex" unicode="&#xdb;" horiz-adv-x="1417" d="M160 1475 L413 1475 L413 577 Q413 383 463 302 Q531 190 708 190 Q887 190 954 302 Q984 353 996 429 Q1003 477 1003 577 L1003 1475 L1256 1475 L1256 622 Q1256 413 1231 309 Q1192 144 1061 59 Q925 -30 708 -30 Q380 -30 247 165 Q185 257 168 406 Q160 476 160 622 L160 1475 Z M706 1794 L550 1603 L323 1603 L631 1945 L781 1945 L1089 1603 L862 1603 L706 1794 Z " />
<glyph glyph-name="Ugrave" unicode="&#xd9;" horiz-adv-x="1417" d="M160 1475 L413 1475 L413 577 Q413 383 463 302 Q531 190 708 190 Q887 190 954 302 Q984 353 996 429 Q1003 477 1003 577 L1003 1475 L1256 1475 L1256 622 Q1256 413 1231 309 Q1192 144 1061 59 Q925 -30 708 -30 Q380 -30 247 165 Q185 257 168 406 Q160 476 160 622 L160 1475 Z M696 1603 L412 1945 L664 1945 L860 1603 L696 1603 Z " />
<glyph glyph-name="dotlessi" unicode="&#x131;" horiz-adv-x="566" d="M162 0 L162 1103 L405 1103 L405 0 L162 0 Z " />
<glyph glyph-name="circumflex" unicode="&#x2c6;" horiz-adv-x="1024" d="M510 1416 L354 1225 L127 1225 L435 1566 L585 1566 L893 1225 L666 1225 L510 1416 Z " />
<glyph glyph-name="tilde" unicode="&#x2dc;" horiz-adv-x="1024" d="M326 1270 L186 1270 Q223 1507 397 1507 Q442 1507 491 1486 Q513 1476 568 1448 Q605 1429 626 1429 Q671 1429 696 1506 L838 1506 Q816 1400 779 1345 Q724 1264 617 1264 Q573 1264 531 1282 Q508 1292 447 1323 Q413 1341 395 1341 Q352 1341 326 1270 Z " />
<glyph glyph-name="macron" unicode="&#xaf;" horiz-adv-x="1024" d="M229 1303 L229 1472 L794 1472 L794 1303 L229 1303 Z " />
<glyph glyph-name="breve" unicode="&#x2d8;" horiz-adv-x="1024" d="M205 1548 L345 1548 Q351 1480 376 1452 Q418 1405 510 1405 Q611 1405 651 1460 Q669 1486 675 1548 L815 1548 Q803 1412 759 1344 Q689 1238 509 1238 Q315 1238 249 1365 Q214 1431 205 1548 Z " />
<glyph glyph-name="dotaccent" unicode="&#x2d9;" horiz-adv-x="1024" d="M515 1522 Q579 1522 623 1475 Q661 1435 661 1380 Q661 1316 612 1274 Q569 1238 513 1238 Q447 1238 402 1285 Q364 1325 364 1381 Q364 1443 413 1486 Q455 1522 515 1522 Z " />
<glyph glyph-name="ring" unicode="&#x2da;" horiz-adv-x="1024" d="M513 1688 Q636 1688 704 1614 Q765 1548 765 1445 Q765 1342 704 1276 Q636 1202 514 1202 Q390 1202 321 1276 Q261 1342 261 1448 Q261 1549 321 1614 Q391 1688 513 1688 Z M513 1561 Q453 1561 424 1521 Q404 1493 404 1446 Q404 1329 513 1329 Q622 1329 622 1445 Q622 1561 513 1561 Z " />
<glyph glyph-name="cedilla" unicode="&#xb8;" horiz-adv-x="1024" d="M450 0 L630 0 L584 -86 Q662 -94 702 -116 Q793 -164 793 -277 Q793 -396 703 -452 Q634 -495 518 -495 Q380 -495 254 -455 L303 -302 Q427 -339 505 -339 Q603 -339 603 -277 Q603 -218 501 -218 Q476 -218 416 -223 L389 -108 L450 0 Z " />
<glyph glyph-name="hungarumlaut" unicode="&#x2dd;" horiz-adv-x="1024" d="M280 1225 L419 1566 L639 1566 L416 1225 L280 1225 Z M576 1225 L738 1566 L967 1566 L714 1225 L576 1225 Z " />
<glyph glyph-name="ogonek" unicode="&#x2db;" horiz-adv-x="1024" d="M545 0 L705 0 Q610 -75 578 -115 Q531 -172 531 -225 Q531 -299 613 -299 L727 -299 L727 -455 L603 -455 Q470 -455 408 -413 Q341 -368 341 -271 Q341 -174 437 -83 Q471 -51 545 0 Z " />
<glyph glyph-name="caron" unicode="&#x2c7;" horiz-adv-x="1024" d="M514 1375 L670 1566 L897 1566 L589 1225 L439 1225 L131 1566 L358 1566 L514 1375 Z " />
<glyph glyph-name="uni00A0" unicode="&#xa0;" horiz-adv-x="451" d="" />
<glyph glyph-name="currency" unicode="&#xa4;" horiz-adv-x="1303" d="M221 277 L100 402 L294 585 Q222 682 222 810 Q222 932 293 1032 L100 1214 L221 1339 L415 1154 Q523 1222 651 1222 Q780 1222 888 1154 L1080 1338 L1204 1214 L1011 1032 Q1081 927 1081 810 Q1081 687 1010 585 L1204 402 L1080 278 L887 463 Q776 396 652 396 Q528 396 416 464 L221 277 Z M651 1037 Q549 1037 477 967 Q408 901 408 812 Q408 717 477 650 Q548 581 652 581 Q755 581 826 650 Q895 717 895 809 Q895 902 826 967 Q754 1037 651 1037 Z " />
<glyph glyph-name="brokenbar" unicode="&#xa6;" horiz-adv-x="691" d="M233 855 L233 1475 L457 1475 L457 855 L233 855 Z M233 0 L233 620 L457 620 L457 0 L233 0 Z " />
<glyph glyph-name="uni00AD" unicode="&#xad;" horiz-adv-x="813" d="M123 510 L123 720 L690 720 L690 510 L123 510 Z " />
<glyph glyph-name="twosuperior" unicode="&#xb2;" horiz-adv-x="835" d="M36 819 Q42 883 52 913 Q77 985 154 1060 Q185 1091 354 1233 Q465 1326 494 1359 Q530 1400 530 1440 Q530 1485 497 1509 Q462 1535 402 1535 Q254 1535 230 1376 L38 1376 Q61 1530 121 1595 Q212 1695 401 1695 Q553 1695 641 1634 Q732 1571 732 1444 Q732 1359 688 1294 Q646 1232 541 1153 Q515 1134 428 1071 Q376 1034 322 980 L754 980 L754 819 L36 819 Z " />
<glyph glyph-name="threesuperior" unicode="&#xb3;" horiz-adv-x="835" d="M270 1191 L270 1337 Q312 1337 331 1337 Q430 1337 469 1351 Q533 1374 533 1443 Q533 1535 404 1535 Q281 1535 253 1436 L65 1436 Q79 1551 138 1612 Q220 1695 401 1695 Q575 1695 660 1620 Q730 1558 730 1449 Q730 1377 700 1330 Q684 1305 650 1277 Q768 1212 768 1080 Q768 933 663 865 Q568 804 406 804 Q188 804 102 901 Q53 957 42 1087 L234 1087 Q245 1028 278 1002 Q324 965 412 965 Q568 965 568 1072 Q568 1174 454 1186 Q407 1191 270 1191 Z " />
<glyph glyph-name="onesuperior" unicode="&#xb9;" horiz-adv-x="576" d="M239 819 L239 1489 L13 1417 L13 1582 L299 1679 L436 1679 L436 819 L239 819 Z " />
<glyph glyph-name="onequarter" unicode="&#xbc;" horiz-adv-x="1972" d="M375 614 L375 1285 L149 1213 L149 1378 L435 1475 L572 1475 L572 614 L375 614 Z M1501 0 L1501 168 L1066 168 L1066 306 L1337 860 L1555 860 L1289 330 L1501 330 L1501 614 L1690 614 L1690 330 L1822 330 L1822 168 L1690 168 L1690 0 L1501 0 Z M402 0 L1175 1475 L1372 1475 L599 0 L402 0 Z " />
<glyph glyph-name="onehalf" unicode="&#xbd;" horiz-adv-x="1970" d="M365 614 L365 1285 L139 1213 L139 1378 L425 1475 L562 1475 L562 614 L365 614 Z M1094 0 Q1100 64 1110 94 Q1135 166 1212 241 Q1242 271 1412 414 Q1523 508 1551 540 Q1588 581 1588 621 Q1588 665 1555 690 Q1520 716 1460 716 Q1314 716 1288 557 L1096 557 Q1119 710 1179 776 Q1270 876 1459 876 Q1611 876 1699 815 Q1790 752 1790 625 Q1790 520 1719 440 Q1668 384 1547 296 Q1434 215 1380 161 L1812 161 L1812 0 L1094 0 Z M384 0 L1157 1475 L1354 1475 L581 0 L384 0 Z " />
<glyph glyph-name="threequarters" unicode="&#xbe;" horiz-adv-x="1975" d="M283 986 L283 1133 Q319 1133 344 1133 Q443 1133 482 1147 Q546 1170 546 1240 Q546 1331 417 1331 Q293 1331 266 1232 L78 1232 Q92 1347 151 1408 Q233 1491 414 1491 Q588 1491 673 1416 Q743 1354 743 1245 Q743 1138 663 1072 Q781 1008 781 875 Q781 728 676 661 Q581 599 419 599 Q202 599 115 696 Q66 752 55 882 L247 882 Q258 823 291 797 Q337 760 425 760 Q581 760 581 867 Q581 959 491 978 Q450 987 341 987 Q325 987 283 986 Z M1560 0 L1560 168 L1124 168 L1124 306 L1396 860 L1614 860 L1347 330 L1560 330 L1560 614 L1749 614 L1749 330 L1880 330 L1880 168 L1749 168 L1749 0 L1560 0 Z M512 0 L1284 1475 L1481 1475 L709 0 L512 0 Z " />
<glyph glyph-name="Eth" unicode="&#xd0;" horiz-adv-x="1488" d="M172 874 L172 1475 L586 1475 Q815 1475 966 1416 Q1182 1331 1292 1136 Q1386 971 1386 738 Q1386 373 1158 176 Q1026 61 841 23 Q730 0 585 0 L172 0 L172 691 L2 691 L2 874 L172 874 Z M425 874 L819 874 L819 691 L425 691 L425 210 L575 210 Q818 210 962 329 Q1129 467 1129 738 Q1129 1008 962 1146 Q819 1265 574 1265 L425 1265 L425 874 Z " />
<glyph glyph-name="multiply" unicode="&#xd7;" horiz-adv-x="1303" d="M501 736 L220 1002 L370 1153 L651 886 L932 1153 L1082 1002 L801 736 L1082 469 L932 319 L651 585 L370 319 L220 469 L501 736 Z " />
<glyph glyph-name="Yacute" unicode="&#xdd;" horiz-adv-x="1223" d="M485 0 L485 565 L-23 1475 L252 1475 L611 800 L970 1475 L1245 1475 L738 565 L738 0 L485 0 Z M491 1603 L687 1945 L939 1945 L655 1603 L491 1603 Z " />
<glyph glyph-name="Thorn" unicode="&#xde;" horiz-adv-x="1300" d="M169 0 L169 1475 L422 1475 L422 1229 L617 1229 Q792 1229 894 1206 Q1059 1168 1150 1038 Q1230 923 1230 760 Q1230 300 619 300 L422 300 L422 0 L169 0 Z M422 504 L608 504 Q973 504 973 766 Q973 1019 619 1019 L422 1019 L422 504 Z " />
<glyph glyph-name="eth" unicode="&#xf0;" horiz-adv-x="1265" d="M746 1076 Q663 1191 582 1274 L380 1134 L300 1243 L484 1370 Q410 1437 357 1482 L488 1614 Q585 1540 652 1483 L832 1606 L913 1498 L754 1388 Q891 1253 991 1105 Q1083 969 1128 835 Q1172 705 1172 552 Q1172 278 1022 123 Q873 -32 633 -32 Q392 -32 244 122 Q93 279 93 535 Q93 793 244 953 Q387 1105 596 1105 Q666 1105 746 1076 Z M632 904 Q491 904 411 796 Q340 701 340 541 Q340 382 411 286 Q490 178 633 178 Q776 178 855 286 Q926 382 926 536 Q926 701 855 796 Q775 904 632 904 Z " />
<glyph glyph-name="yacute" unicode="&#xfd;" horiz-adv-x="1064" d="M412 27 L14 1103 L274 1103 L531 312 L789 1103 L1049 1103 L644 14 Q572 -181 527 -254 Q442 -395 315 -423 Q253 -437 140 -438 L140 -229 Q240 -228 277 -205 Q333 -170 378 -57 L412 27 Z M422 1225 L618 1566 L870 1566 L586 1225 L422 1225 Z " />
<glyph glyph-name="thorn" unicode="&#xfe;" horiz-adv-x="1297" d="M158 -465 L158 1516 L401 1516 L401 996 Q516 1136 720 1136 Q940 1136 1070 978 Q1204 815 1204 552 Q1204 288 1070 126 Q940 -32 721 -32 Q524 -32 401 108 L401 -465 L158 -465 Z M684 926 Q552 926 473 815 Q401 713 401 557 Q401 391 473 289 Q552 178 685 178 Q811 178 885 282 Q957 383 957 552 Q957 723 885 822 Q809 926 684 926 Z " />
<glyph glyph-name="Amacron" unicode="&#x100;" horiz-adv-x="1382" d="M987 379 L395 379 L258 0 L1 0 L580 1475 L803 1475 L1381 0 L1125 0 L987 379 Z M915 583 L691 1200 L467 583 L915 583 Z M408 1681 L408 1850 L973 1850 L973 1681 L408 1681 Z " />
<glyph glyph-name="amacron" unicode="&#x101;" horiz-adv-x="1266" d="M886 0 L886 128 Q755 -32 560 -32 Q347 -32 222 126 Q93 290 93 552 Q93 815 222 977 Q349 1135 559 1135 Q746 1135 864 995 L864 1103 L1108 1103 L1108 0 L886 0 Z M596 925 Q478 925 408 821 Q340 720 340 552 Q340 383 408 282 Q477 178 596 178 Q722 178 796 289 Q864 392 864 547 Q864 713 796 813 Q720 925 596 925 Z M358 1303 L358 1472 L923 1472 L923 1303 L358 1303 Z " />
<glyph glyph-name="Abreve" unicode="&#x102;" horiz-adv-x="1382" d="M987 379 L395 379 L258 0 L1 0 L580 1475 L803 1475 L1381 0 L1125 0 L987 379 Z M915 583 L691 1200 L467 583 L915 583 Z M384 1927 L524 1927 Q530 1859 555 1831 Q597 1784 689 1784 Q790 1784 830 1839 Q848 1865 854 1927 L994 1927 Q982 1791 938 1723 Q868 1617 687 1617 Q495 1617 428 1744 Q393 1810 384 1927 Z " />
<glyph glyph-name="abreve" unicode="&#x103;" horiz-adv-x="1266" d="M886 0 L886 128 Q755 -32 560 -32 Q347 -32 222 126 Q93 290 93 552 Q93 815 222 977 Q349 1135 559 1135 Q746 1135 864 995 L864 1103 L1108 1103 L1108 0 L886 0 Z M596 925 Q478 925 408 821 Q340 720 340 552 Q340 383 408 282 Q477 178 596 178 Q722 178 796 289 Q864 392 864 547 Q864 713 796 813 Q720 925 596 925 Z M320 1548 L460 1548 Q466 1480 491 1452 Q533 1405 625 1405 Q726 1405 766 1460 Q784 1486 790 1548 L930 1548 Q918 1412 874 1344 Q804 1238 624 1238 Q430 1238 364 1365 Q329 1431 320 1548 Z " />
<glyph glyph-name="Aogonek" unicode="&#x104;" horiz-adv-x="1382" d="M987 379 L395 379 L258 0 L1 0 L579 1475 L802 1475 L1381 0 Q1312 -54 1279 -86 Q1207 -158 1207 -225 Q1207 -299 1289 -299 L1403 -299 L1403 -455 L1279 -455 Q1146 -455 1083 -413 Q1017 -368 1017 -271 Q1017 -171 1117 -78 Q1145 -53 1221 0 L1124 0 L987 379 Z M915 583 L691 1200 L467 583 L915 583 Z " />
<glyph glyph-name="aogonek" unicode="&#x105;" horiz-adv-x="1266" d="M886 0 L886 128 Q755 -32 560 -32 Q347 -32 222 126 Q93 290 93 552 Q93 815 222 977 Q349 1135 559 1135 Q746 1135 864 995 L864 1103 L1108 1103 L1108 0 Q1047 -47 1007 -86 Q934 -157 934 -225 Q934 -299 1016 -299 L1130 -299 L1130 -455 L1006 -455 Q872 -455 810 -413 Q744 -369 744 -271 Q744 -168 847 -77 Q878 -49 948 0 L886 0 Z M596 925 Q478 925 408 821 Q340 720 340 552 Q340 383 408 282 Q478 178 596 178 Q723 178 796 289 Q865 394 865 547 Q865 712 796 813 Q721 925 596 925 Z " />
<glyph glyph-name="Cacute" unicode="&#x106;" horiz-adv-x="1410" d="M1172 384 L1324 210 Q1230 101 1126 48 Q973 -29 770 -29 Q431 -29 261 187 Q102 387 102 726 Q102 1089 276 1300 Q444 1504 759 1504 Q1081 1504 1221 1303 Q1295 1195 1297 1026 L1052 1026 Q1046 1130 996 1191 Q918 1287 760 1287 Q560 1287 458 1132 Q359 982 359 729 Q359 481 472 330 Q576 191 777 191 Q928 191 1047 269 Q1096 301 1172 384 Z M598 1603 L794 1945 L1046 1945 L762 1603 L598 1603 Z " />
<glyph glyph-name="cacute" unicode="&#x107;" horiz-adv-x="1111" d="M937 316 L1057 146 Q999 89 950 57 Q810 -32 607 -32 Q367 -32 237 105 Q93 257 93 536 Q93 800 215 967 Q338 1136 591 1136 Q863 1136 972 952 Q1028 855 1029 721 L807 721 Q802 797 770 845 Q716 926 601 926 Q472 926 405 819 Q340 717 340 548 Q340 372 418 272 Q492 178 623 178 Q746 178 842 237 Q881 262 937 316 Z M450 1225 L646 1566 L898 1566 L614 1225 L450 1225 Z " />
<glyph glyph-name="Ccircumflex" unicode="&#x108;" horiz-adv-x="1410" d="M1172 384 L1324 210 Q1230 101 1126 48 Q973 -29 770 -29 Q431 -29 261 187 Q102 387 102 726 Q102 1089 276 1300 Q444 1504 759 1504 Q1081 1504 1221 1303 Q1295 1195 1297 1026 L1052 1026 Q1046 1130 996 1191 Q918 1287 760 1287 Q560 1287 458 1132 Q359 982 359 729 Q359 481 472 330 Q576 191 777 191 Q928 191 1047 269 Q1096 301 1172 384 Z M763 1794 L607 1603 L380 1603 L688 1945 L838 1945 L1146 1603 L919 1603 L763 1794 Z " />
<glyph glyph-name="ccircumflex" unicode="&#x109;" horiz-adv-x="1111" d="M937 316 L1057 146 Q999 89 950 57 Q810 -32 607 -32 Q367 -32 237 105 Q93 257 93 536 Q93 800 215 967 Q338 1136 591 1136 Q863 1136 972 952 Q1028 855 1029 721 L807 721 Q802 797 770 845 Q716 926 601 926 Q472 926 405 819 Q340 717 340 548 Q340 372 418 272 Q492 178 623 178 Q746 178 842 237 Q881 262 937 316 Z M595 1416 L439 1225 L212 1225 L520 1566 L670 1566 L978 1225 L751 1225 L595 1416 Z " />
<glyph glyph-name="Cdotaccent" unicode="&#x10a;" horiz-adv-x="1410" d="M1172 384 L1324 210 Q1230 101 1126 48 Q973 -29 770 -29 Q431 -29 261 187 Q102 387 102 726 Q102 1089 276 1300 Q444 1504 759 1504 Q1081 1504 1221 1303 Q1295 1195 1297 1026 L1052 1026 Q1046 1130 996 1191 Q918 1287 760 1287 Q560 1287 458 1132 Q359 982 359 729 Q359 481 472 330 Q576 191 777 191 Q928 191 1047 269 Q1096 301 1172 384 Z M763 1889 Q827 1889 871 1842 Q909 1802 909 1747 Q909 1683 860 1641 Q817 1605 761 1605 Q695 1605 650 1652 Q612 1692 612 1748 Q612 1810 661 1853 Q703 1889 763 1889 Z " />
<glyph glyph-name="cdotaccent" unicode="&#x10b;" horiz-adv-x="1111" d="M937 316 L1057 146 Q999 89 950 57 Q810 -32 607 -32 Q367 -32 237 105 Q93 257 93 536 Q93 800 215 967 Q338 1136 591 1136 Q863 1136 972 952 Q1028 855 1029 721 L807 721 Q802 797 770 845 Q716 926 601 926 Q472 926 405 819 Q340 717 340 548 Q340 372 418 272 Q492 178 623 178 Q746 178 842 237 Q881 262 937 316 Z M590 1522 Q654 1522 698 1475 Q736 1435 736 1380 Q736 1316 687 1274 Q644 1238 588 1238 Q522 1238 477 1285 Q439 1325 439 1381 Q439 1443 488 1486 Q530 1522 590 1522 Z " />
<glyph glyph-name="Ccaron" unicode="&#x10c;" horiz-adv-x="1410" d="M1172 384 L1324 210 Q1230 101 1126 48 Q973 -29 770 -29 Q431 -29 261 187 Q102 387 102 726 Q102 1089 276 1300 Q444 1504 759 1504 Q1081 1504 1221 1303 Q1295 1195 1297 1026 L1052 1026 Q1046 1130 996 1191 Q918 1287 760 1287 Q560 1287 458 1132 Q359 982 359 729 Q359 481 472 330 Q576 191 777 191 Q928 191 1047 269 Q1096 301 1172 384 Z M752 1753 L908 1945 L1135 1945 L827 1603 L677 1603 L369 1945 L596 1945 L752 1753 Z " />
<glyph glyph-name="ccaron" unicode="&#x10d;" horiz-adv-x="1111" d="M937 316 L1057 146 Q999 89 950 57 Q810 -32 607 -32 Q367 -32 237 105 Q93 257 93 536 Q93 800 215 967 Q338 1136 591 1136 Q863 1136 972 952 Q1028 855 1029 721 L807 721 Q802 797 770 845 Q716 926 601 926 Q472 926 405 819 Q340 717 340 548 Q340 372 418 272 Q492 178 623 178 Q746 178 842 237 Q881 262 937 316 Z M587 1375 L743 1566 L970 1566 L662 1225 L512 1225 L204 1566 L431 1566 L587 1375 Z " />
<glyph glyph-name="Dcaron" unicode="&#x10e;" horiz-adv-x="1485" d="M169 0 L169 1475 L583 1475 Q812 1475 963 1416 Q1180 1331 1290 1136 Q1383 970 1383 738 Q1383 373 1156 176 Q1024 61 838 23 Q727 0 582 0 L169 0 Z M422 210 L572 210 Q815 210 959 329 Q1126 467 1126 738 Q1126 1007 960 1146 Q816 1265 572 1265 L422 1265 L422 210 Z M629 1753 L785 1945 L1012 1945 L704 1603 L554 1603 L246 1945 L473 1945 L629 1753 Z " />
<glyph glyph-name="dcaron" unicode="&#x10f;" horiz-adv-x="1582" d="M898 0 L898 128 Q767 -32 566 -32 Q352 -32 224 126 Q93 289 93 552 Q93 815 224 978 Q352 1136 565 1136 Q757 1136 876 995 L876 1516 L1119 1516 L1119 0 L898 0 Z M602 926 Q481 926 409 822 Q340 721 340 552 Q340 383 409 282 Q481 178 602 178 Q731 178 806 289 Q876 392 876 547 Q876 714 806 815 Q729 926 602 926 Z M1236 1043 L1360 1546 L1623 1546 L1418 1043 L1236 1043 Z " />
<glyph glyph-name="Dcroat" unicode="&#x110;" horiz-adv-x="1488" d="M172 874 L172 1475 L586 1475 Q815 1475 966 1416 Q1182 1331 1292 1136 Q1386 971 1386 738 Q1386 373 1158 176 Q1026 61 841 23 Q730 0 585 0 L172 0 L172 691 L2 691 L2 874 L172 874 Z M425 874 L819 874 L819 691 L425 691 L425 210 L575 210 Q818 210 962 329 Q1129 467 1129 738 Q1129 1008 962 1146 Q819 1265 574 1265 L425 1265 L425 874 Z " />
<glyph glyph-name="dcroat" unicode="&#x111;" horiz-adv-x="1297" d="M912 0 L912 128 Q865 73 826 45 Q722 -32 573 -32 Q356 -32 226 126 Q93 288 93 552 Q93 815 226 977 Q356 1135 573 1135 Q769 1135 890 995 L890 1237 L553 1237 L553 1378 L890 1378 L890 1516 L1133 1516 L1133 1378 L1297 1378 L1297 1237 L1133 1237 L1133 0 L912 0 Z M609 925 Q485 925 411 821 Q340 721 340 552 Q340 383 411 282 Q485 178 609 178 Q741 178 819 289 Q890 391 890 546 Q890 714 819 814 Q739 925 609 925 Z " />
<glyph glyph-name="Emacron" unicode="&#x112;" horiz-adv-x="1227" d="M169 0 L169 1475 L1133 1475 L1133 1265 L422 1265 L422 875 L1001 875 L1001 665 L422 665 L422 210 L1150 210 L1150 0 L169 0 Z M370 1681 L370 1850 L935 1850 L935 1681 L370 1681 Z " />
<glyph glyph-name="emacron" unicode="&#x113;" horiz-adv-x="1213" d="M1125 475 L341 475 Q346 449 348 436 Q362 360 378 327 Q452 178 630 178 Q759 178 876 236 Q917 257 989 305 L1096 121 Q1022 72 969 46 Q810 -32 629 -32 Q372 -32 229 128 Q93 280 93 538 Q93 818 239 979 Q380 1135 616 1135 Q827 1135 960 1003 Q1079 884 1110 677 Q1123 593 1125 475 Z M884 655 Q864 770 827 824 Q751 936 615 936 Q399 936 343 655 L884 655 Z M324 1303 L324 1472 L889 1472 L889 1303 L324 1303 Z " />
<glyph glyph-name="Ebreve" unicode="&#x114;" horiz-adv-x="1227" d="M169 0 L169 1475 L1133 1475 L1133 1265 L422 1265 L422 875 L1001 875 L1001 665 L422 665 L422 210 L1150 210 L1150 0 L169 0 Z M346 1927 L486 1927 Q492 1859 517 1831 Q559 1784 651 1784 Q752 1784 792 1839 Q810 1865 816 1927 L956 1927 Q944 1791 900 1723 Q830 1617 649 1617 Q457 1617 390 1744 Q355 1810 346 1927 Z " />
<glyph glyph-name="ebreve" unicode="&#x115;" horiz-adv-x="1213" d="M1125 475 L341 475 Q346 449 348 436 Q362 360 378 327 Q452 178 630 178 Q759 178 876 236 Q917 257 989 305 L1096 121 Q1022 72 969 46 Q810 -32 629 -32 Q372 -32 229 128 Q93 280 93 538 Q93 818 239 979 Q380 1135 616 1135 Q827 1135 960 1003 Q1079 884 1110 677 Q1123 593 1125 475 Z M884 655 Q864 770 827 824 Q751 936 615 936 Q399 936 343 655 L884 655 Z M310 1548 L450 1548 Q456 1480 481 1452 Q523 1405 615 1405 Q716 1405 756 1460 Q774 1486 780 1548 L920 1548 Q908 1412 864 1344 Q794 1238 614 1238 Q420 1238 354 1365 Q319 1431 310 1548 Z " />
<glyph glyph-name="Edotaccent" unicode="&#x116;" horiz-adv-x="1227" d="M169 0 L169 1475 L1133 1475 L1133 1265 L422 1265 L422 875 L1001 875 L1001 665 L422 665 L422 210 L1150 210 L1150 0 L169 0 Z M655 1889 Q719 1889 763 1842 Q801 1802 801 1747 Q801 1683 752 1641 Q709 1605 653 1605 Q587 1605 542 1652 Q504 1692 504 1748 Q504 1810 553 1853 Q595 1889 655 1889 Z " />
<glyph glyph-name="edotaccent" unicode="&#x117;" horiz-adv-x="1213" d="M1125 475 L341 475 Q346 449 348 436 Q362 360 378 327 Q452 178 630 178 Q759 178 876 236 Q917 257 989 305 L1096 121 Q1022 72 969 46 Q810 -32 629 -32 Q372 -32 229 128 Q93 280 93 538 Q93 818 239 979 Q380 1135 616 1135 Q827 1135 960 1003 Q1079 884 1110 677 Q1123 593 1125 475 Z M884 655 Q864 770 827 824 Q751 936 615 936 Q399 936 343 655 L884 655 Z M615 1522 Q679 1522 723 1475 Q761 1435 761 1380 Q761 1316 712 1274 Q669 1238 613 1238 Q547 1238 502 1285 Q464 1325 464 1381 Q464 1443 513 1486 Q555 1522 615 1522 Z " />
<glyph glyph-name="Eogonek" unicode="&#x118;" horiz-adv-x="1227" d="M1150 0 Q976 -130 976 -225 Q976 -299 1057 -299 L1172 -299 L1172 -455 L1048 -455 Q914 -455 852 -413 Q786 -368 786 -271 Q786 -191 847 -119 Q892 -66 989 0 L169 0 L169 1475 L1133 1475 L1133 1265 L422 1265 L422 875 L1001 875 L1001 665 L422 665 L422 210 L1150 210 L1150 0 Z " />
<glyph glyph-name="eogonek" unicode="&#x119;" horiz-adv-x="1213" d="M1125 475 L341 475 Q346 449 348 436 Q362 360 378 327 Q452 178 630 178 Q759 178 876 236 Q917 257 989 305 L1096 121 Q799 -71 799 -225 Q799 -299 881 -299 L995 -299 L995 -455 L871 -455 Q738 -455 675 -413 Q609 -369 609 -269 Q609 -144 736 -24 Q669 -32 621 -32 Q374 -32 229 128 Q93 277 93 538 Q93 818 239 979 Q380 1135 616 1135 Q827 1135 960 1003 Q1079 884 1110 677 Q1123 593 1125 475 Z M884 655 Q864 770 827 824 Q751 936 615 936 Q399 936 343 655 L884 655 Z " />
<glyph glyph-name="Ecaron" unicode="&#x11a;" horiz-adv-x="1227" d="M169 0 L169 1475 L1133 1475 L1133 1265 L422 1265 L422 875 L1001 875 L1001 665 L422 665 L422 210 L1150 210 L1150 0 L169 0 Z M655 1753 L811 1945 L1038 1945 L730 1603 L580 1603 L272 1945 L499 1945 L655 1753 Z " />
<glyph glyph-name="ecaron" unicode="&#x11b;" horiz-adv-x="1213" d="M1125 475 L341 475 Q346 449 348 436 Q362 360 378 327 Q452 178 630 178 Q759 178 876 236 Q917 257 989 305 L1096 121 Q1022 72 969 46 Q810 -32 629 -32 Q372 -32 229 128 Q93 280 93 538 Q93 818 239 979 Q380 1135 616 1135 Q827 1135 960 1003 Q1079 884 1110 677 Q1123 593 1125 475 Z M884 655 Q864 770 827 824 Q751 936 615 936 Q399 936 343 655 L884 655 Z M615 1375 L771 1566 L998 1566 L690 1225 L540 1225 L232 1566 L459 1566 L615 1375 Z " />
<glyph glyph-name="Gcircumflex" unicode="&#x11c;" horiz-adv-x="1523" d="M850 558 L850 756 L1382 756 L1382 62 Q1121 -29 802 -29 Q575 -29 442 39 Q259 133 168 349 Q102 506 102 725 Q102 1084 287 1298 Q465 1504 790 1504 Q1132 1504 1277 1303 Q1340 1216 1352 1110 Q1356 1081 1356 1026 L1111 1026 Q1105 1130 1051 1191 Q965 1287 790 1287 Q575 1287 467 1132 Q359 978 359 729 Q359 478 476 327 Q537 250 623 217 Q700 188 816 188 Q976 188 1140 242 L1140 558 L850 558 Z M786 1794 L630 1603 L403 1603 L711 1945 L861 1945 L1169 1603 L942 1603 L786 1794 Z " />
<glyph glyph-name="gcircumflex" unicode="&#x11d;" horiz-adv-x="1277" d="M876 126 Q759 -11 567 -11 Q352 -11 224 142 Q93 298 93 553 Q93 807 219 969 Q348 1135 571 1135 Q770 1135 898 975 L898 1103 L1119 1103 L1119 174 Q1119 -20 1094 -125 Q1015 -468 609 -468 Q337 -468 135 -334 L242 -149 Q312 -195 364 -219 Q474 -268 599 -268 Q726 -268 787 -212 Q849 -156 866 -50 Q876 7 876 103 L876 126 Z M602 925 Q481 925 409 821 Q340 720 340 554 Q340 392 409 297 Q480 199 602 199 Q731 199 806 304 Q876 400 876 549 Q876 713 806 813 Q729 925 602 925 Z M646 1416 L490 1225 L263 1225 L571 1566 L721 1566 L1029 1225 L802 1225 L646 1416 Z " />
<glyph glyph-name="Gbreve" unicode="&#x11e;" horiz-adv-x="1523" d="M850 558 L850 756 L1382 756 L1382 62 Q1121 -29 802 -29 Q575 -29 442 39 Q259 133 168 349 Q102 506 102 725 Q102 1084 287 1298 Q465 1504 790 1504 Q1132 1504 1277 1303 Q1340 1216 1352 1110 Q1356 1081 1356 1026 L1111 1026 Q1105 1130 1051 1191 Q965 1287 790 1287 Q575 1287 467 1132 Q359 978 359 729 Q359 478 476 327 Q537 250 623 217 Q700 188 816 188 Q976 188 1140 242 L1140 558 L850 558 Z M475 1927 L615 1927 Q621 1859 646 1831 Q688 1784 780 1784 Q881 1784 921 1839 Q939 1865 945 1927 L1085 1927 Q1073 1791 1029 1723 Q959 1617 778 1617 Q586 1617 519 1744 Q484 1810 475 1927 Z " />
<glyph glyph-name="gbreve" unicode="&#x11f;" horiz-adv-x="1277" d="M876 126 Q759 -11 567 -11 Q352 -11 224 142 Q93 298 93 553 Q93 807 219 969 Q348 1135 571 1135 Q770 1135 898 975 L898 1103 L1119 1103 L1119 174 Q1119 -20 1094 -125 Q1015 -468 609 -468 Q337 -468 135 -334 L242 -149 Q312 -195 364 -219 Q474 -268 599 -268 Q726 -268 787 -212 Q849 -156 866 -50 Q876 7 876 103 L876 126 Z M602 925 Q481 925 409 821 Q340 720 340 554 Q340 392 409 297 Q480 199 602 199 Q731 199 806 304 Q876 400 876 549 Q876 713 806 813 Q729 925 602 925 Z M332 1548 L472 1548 Q478 1480 503 1452 Q545 1405 637 1405 Q738 1405 778 1460 Q796 1486 802 1548 L942 1548 Q930 1412 886 1344 Q816 1238 636 1238 Q442 1238 376 1365 Q341 1431 332 1548 Z " />
<glyph glyph-name="Gdotaccent" unicode="&#x120;" horiz-adv-x="1523" d="M850 558 L850 756 L1382 756 L1382 62 Q1121 -29 802 -29 Q575 -29 442 39 Q259 133 168 349 Q102 506 102 725 Q102 1084 287 1298 Q465 1504 790 1504 Q1132 1504 1277 1303 Q1340 1216 1352 1110 Q1356 1081 1356 1026 L1111 1026 Q1105 1130 1051 1191 Q965 1287 790 1287 Q575 1287 467 1132 Q359 978 359 729 Q359 478 476 327 Q537 250 623 217 Q700 188 816 188 Q976 188 1140 242 L1140 558 L850 558 Z M784 1889 Q848 1889 892 1842 Q930 1802 930 1747 Q930 1683 881 1641 Q838 1605 782 1605 Q716 1605 671 1652 Q633 1692 633 1748 Q633 1810 682 1853 Q724 1889 784 1889 Z " />
<glyph glyph-name="gdotaccent" unicode="&#x121;" horiz-adv-x="1277" d="M876 126 Q759 -11 567 -11 Q352 -11 224 142 Q93 298 93 553 Q93 807 219 969 Q348 1135 571 1135 Q770 1135 898 975 L898 1103 L1119 1103 L1119 174 Q1119 -20 1094 -125 Q1015 -468 609 -468 Q337 -468 135 -334 L242 -149 Q312 -195 364 -219 Q474 -268 599 -268 Q726 -268 787 -212 Q849 -156 866 -50 Q876 7 876 103 L876 126 Z M602 925 Q481 925 409 821 Q340 720 340 554 Q340 392 409 297 Q480 199 602 199 Q731 199 806 304 Q876 400 876 549 Q876 713 806 813 Q729 925 602 925 Z M626 1522 Q690 1522 734 1475 Q772 1435 772 1380 Q772 1316 723 1274 Q680 1238 624 1238 Q558 1238 513 1285 Q475 1325 475 1381 Q475 1443 524 1486 Q566 1522 626 1522 Z " />
<glyph glyph-name="Gcommaaccent" unicode="&#x122;" horiz-adv-x="1523" d="M850 558 L850 756 L1382 756 L1382 62 Q1121 -29 802 -29 Q575 -29 442 39 Q259 133 168 349 Q102 506 102 725 Q102 1084 287 1298 Q465 1504 790 1504 Q1132 1504 1277 1303 Q1340 1216 1352 1110 Q1356 1081 1356 1026 L1111 1026 Q1105 1130 1051 1191 Q965 1287 790 1287 Q575 1287 467 1132 Q359 978 359 729 Q359 478 476 327 Q537 250 623 217 Q700 188 816 188 Q976 188 1140 242 L1140 558 L850 558 Z M548 -490 L689 -149 L937 -149 L711 -490 L548 -490 Z " />
<glyph glyph-name="gcommaaccent" unicode="&#x123;" horiz-adv-x="1277" d="M876 126 Q759 -11 567 -11 Q352 -11 224 142 Q93 298 93 553 Q93 807 219 969 Q348 1135 571 1135 Q770 1135 898 975 L898 1103 L1119 1103 L1119 174 Q1119 -20 1094 -125 Q1015 -468 609 -468 Q337 -468 135 -334 L242 -149 Q312 -195 364 -219 Q474 -268 599 -268 Q726 -268 787 -212 Q849 -156 866 -50 Q876 7 876 103 L876 126 Z M602 925 Q481 925 409 821 Q340 720 340 554 Q340 392 409 297 Q480 199 602 199 Q731 199 806 304 Q876 400 876 549 Q876 713 806 813 Q729 925 602 925 Z M937 1566 L741 1225 L489 1225 L773 1566 L937 1566 Z " />
<glyph glyph-name="Hcircumflex" unicode="&#x124;" horiz-adv-x="1457" d="M169 0 L169 1475 L422 1475 L422 879 L1035 879 L1035 1475 L1288 1475 L1288 0 L1035 0 L1035 669 L422 669 L422 0 L169 0 Z M726 1794 L570 1603 L343 1603 L651 1945 L801 1945 L1109 1603 L882 1603 L726 1794 Z " />
<glyph glyph-name="hcircumflex" unicode="&#x125;" horiz-adv-x="1261" d="M158 0 L158 1516 L401 1516 L401 965 Q484 1037 538 1070 Q647 1136 772 1136 Q976 1136 1054 990 Q1111 883 1111 638 L1111 0 L868 0 L868 652 Q868 768 846 826 Q811 917 706 917 Q616 917 515 841 Q482 816 401 733 L401 0 L158 0 Z M360 1794 L204 1603 L-23 1603 L285 1945 L435 1945 L743 1603 L516 1603 L360 1794 Z " />
<glyph glyph-name="Hbar" unicode="&#x126;" horiz-adv-x="1457" d="M169 0 L169 1051 L7 1051 L7 1183 L169 1183 L169 1475 L422 1475 L422 1183 L1035 1183 L1035 1475 L1288 1475 L1288 1183 L1450 1183 L1450 1051 L1288 1051 L1288 0 L1035 0 L1035 669 L422 669 L422 0 L169 0 Z M422 879 L1035 879 L1035 1051 L422 1051 L422 879 Z " />
<glyph glyph-name="hbar" unicode="&#x127;" horiz-adv-x="1267" d="M164 0 L164 1237 L6 1237 L6 1378 L164 1378 L164 1516 L407 1516 L407 1378 L750 1378 L750 1237 L407 1237 L407 965 Q494 1039 544 1069 Q653 1135 778 1135 Q982 1135 1060 989 Q1117 883 1117 638 L1117 0 L874 0 L874 652 Q874 768 852 825 Q817 916 712 916 Q622 916 521 840 Q504 828 407 733 L407 0 L164 0 Z " />
<glyph glyph-name="Itilde" unicode="&#x128;" horiz-adv-x="591" d="M169 0 L169 1475 L422 1475 L422 0 L169 0 Z M109 1648 L-31 1648 Q6 1885 181 1885 Q225 1885 274 1864 Q295 1854 351 1826 Q388 1807 409 1807 Q455 1807 479 1884 L621 1884 Q599 1779 562 1723 Q507 1642 400 1642 Q356 1642 314 1660 Q289 1671 230 1701 Q196 1719 178 1719 Q134 1719 109 1648 Z " />
<glyph glyph-name="itilde" unicode="&#x129;" horiz-adv-x="566" d="M162 0 L162 1103 L405 1103 L405 0 L162 0 Z M97 1270 L-43 1270 Q-6 1507 168 1507 Q213 1507 262 1486 Q284 1476 339 1448 Q376 1429 397 1429 Q442 1429 467 1506 L609 1506 Q587 1400 550 1345 Q495 1264 388 1264 Q344 1264 302 1282 Q279 1292 218 1323 Q184 1341 166 1341 Q123 1341 97 1270 Z " />
<glyph glyph-name="Imacron" unicode="&#x12a;" horiz-adv-x="591" d="M169 0 L169 1475 L422 1475 L422 0 L169 0 Z M13 1681 L13 1850 L578 1850 L578 1681 L13 1681 Z " />
<glyph glyph-name="imacron" unicode="&#x12b;" horiz-adv-x="566" d="M161 0 L161 1103 L404 1103 L404 0 L161 0 Z M0 1303 L0 1472 L565 1472 L565 1303 L0 1303 Z " />
<glyph glyph-name="Ibreve" unicode="&#x12c;" horiz-adv-x="591" d="M169 0 L169 1475 L422 1475 L422 0 L169 0 Z M-11 1927 L129 1927 Q135 1859 160 1831 Q202 1784 294 1784 Q395 1784 435 1839 Q453 1865 459 1927 L599 1927 Q587 1791 543 1723 Q473 1617 292 1617 Q100 1617 33 1744 Q-2 1810 -11 1927 Z " />
<glyph glyph-name="ibreve" unicode="&#x12d;" horiz-adv-x="566" d="M161 0 L161 1103 L404 1103 L404 0 L161 0 Z M-24 1548 L116 1548 Q122 1480 147 1452 Q189 1405 281 1405 Q382 1405 422 1460 Q440 1486 446 1548 L586 1548 Q574 1412 530 1344 Q460 1238 280 1238 Q86 1238 20 1365 Q-15 1431 -24 1548 Z " />
<glyph glyph-name="Iogonek" unicode="&#x12e;" horiz-adv-x="591" d="M422 0 Q361 -47 321 -86 Q248 -157 248 -225 Q248 -299 330 -299 L444 -299 L444 -455 L320 -455 Q187 -455 124 -413 Q58 -369 58 -271 Q58 -191 119 -119 Q164 -67 262 0 L169 0 L169 1475 L422 1475 L422 0 Z " />
<glyph glyph-name="iogonek" unicode="&#x12f;" horiz-adv-x="568" d="M162 0 L162 1103 L406 1103 L406 0 Q345 -47 305 -86 Q232 -157 232 -225 Q232 -299 314 -299 L428 -299 L428 -455 L304 -455 Q171 -455 108 -413 Q42 -369 42 -271 Q42 -170 139 -81 Q170 -52 245 0 L162 0 Z M287 1522 Q351 1522 395 1475 Q433 1435 433 1380 Q433 1316 384 1274 Q341 1238 285 1238 Q219 1238 174 1285 Q136 1325 136 1381 Q136 1443 186 1486 Q227 1522 287 1522 Z " />
<glyph glyph-name="Idotaccent" unicode="&#x130;" horiz-adv-x="591" d="M169 0 L169 1475 L422 1475 L422 0 L169 0 Z M298 1889 Q362 1889 406 1842 Q444 1802 444 1747 Q444 1683 395 1641 Q352 1605 296 1605 Q230 1605 185 1652 Q147 1692 147 1748 Q147 1810 196 1853 Q238 1889 298 1889 Z " />
<glyph glyph-name="IJ" unicode="&#x132;" horiz-adv-x="1220" d="M169 0 L169 1475 L422 1475 L422 0 L169 0 Z M799 1475 L1052 1475 L1052 177 Q1052 -16 1022 -107 Q964 -279 781 -323 Q721 -337 607 -341 L607 -131 Q668 -128 698 -118 Q760 -98 782 -24 Q799 33 799 140 L799 1475 Z " />
<glyph glyph-name="ij" unicode="&#x133;" horiz-adv-x="1153" d="M163 0 L163 1103 L406 1103 L406 0 L163 0 Z M287 1522 Q351 1522 395 1475 Q433 1435 433 1380 Q433 1316 384 1274 Q341 1238 285 1238 Q219 1238 174 1285 Q136 1325 136 1381 Q136 1443 185 1486 Q227 1522 287 1522 Z M748 1103 L991 1103 L991 51 Q991 -132 962 -217 Q908 -375 735 -419 Q681 -433 579 -438 L579 -229 Q635 -224 660 -214 Q714 -193 734 -124 Q748 -74 748 25 L748 1103 Z M872 1522 Q936 1522 980 1475 Q1018 1435 1018 1380 Q1018 1316 969 1274 Q926 1238 870 1238 Q804 1238 759 1285 Q721 1325 721 1381 Q721 1443 770 1486 Q812 1522 872 1522 Z " />
<glyph glyph-name="Jcircumflex" unicode="&#x134;" horiz-adv-x="629" d="M208 1475 L461 1475 L461 177 Q461 -16 431 -107 Q373 -279 190 -323 Q130 -337 16 -341 L16 -131 Q77 -128 107 -118 Q169 -98 191 -24 Q208 33 208 140 L208 1475 Z M327 1794 L171 1603 L-56 1603 L252 1945 L402 1945 L710 1603 L483 1603 L327 1794 Z " />
<glyph glyph-name="jcircumflex" unicode="&#x135;" horiz-adv-x="584" d="M179 1103 L422 1103 L422 51 Q422 -132 393 -217 Q339 -375 166 -419 Q112 -433 10 -438 L10 -229 Q66 -224 91 -214 Q145 -193 165 -124 Q179 -74 179 25 L179 1103 Z M290 1416 L134 1225 L-93 1225 L215 1566 L365 1566 L673 1225 L446 1225 L290 1416 Z " />
<glyph glyph-name="Kcommaaccent" unicode="&#x136;" horiz-adv-x="1270" d="M169 0 L169 1475 L422 1475 L422 804 L978 1475 L1264 1475 L685 792 L1330 0 L1025 0 L422 758 L422 0 L169 0 Z M445 -490 L586 -149 L834 -149 L608 -490 L445 -490 Z " />
<glyph glyph-name="kcommaaccent" unicode="&#x137;" horiz-adv-x="1124" d="M158 0 L158 1516 L401 1516 L401 659 L807 1103 L1087 1103 L653 633 L1155 0 L869 0 L401 609 L401 0 L158 0 Z M351 -490 L492 -149 L740 -149 L514 -490 L351 -490 Z " />
<glyph glyph-name="kgreenlandic" unicode="&#x138;" horiz-adv-x="1097" d="M145 0 L145 1103 L388 1103 L388 653 L794 1103 L1074 1103 L640 627 L1142 0 L856 0 L388 603 L388 0 L145 0 Z " />
<glyph glyph-name="Lacute" unicode="&#x139;" horiz-adv-x="1109" d="M169 0 L169 1475 L422 1475 L422 210 L1068 210 L1068 0 L169 0 Z M227 1603 L423 1945 L675 1945 L391 1603 L227 1603 Z " />
<glyph glyph-name="lacute" unicode="&#x13a;" horiz-adv-x="559" d="M150 0 L150 1516 L393 1516 L393 0 L150 0 Z M165 1648 L361 1989 L613 1989 L329 1648 L165 1648 Z " />
<glyph glyph-name="Lcommaaccent" unicode="&#x13b;" horiz-adv-x="1109" d="M169 0 L169 1475 L422 1475 L422 210 L1068 210 L1068 0 L169 0 Z M344 -490 L485 -149 L733 -149 L507 -490 L344 -490 Z " />
<glyph glyph-name="lcommaaccent" unicode="&#x13c;" horiz-adv-x="559" d="M159 0 L159 1516 L402 1516 L402 0 L159 0 Z M18 -490 L159 -149 L407 -149 L181 -490 L18 -490 Z " />
<glyph glyph-name="Lcaron" unicode="&#x13d;" horiz-adv-x="1109" d="M169 0 L169 1475 L422 1475 L422 210 L1068 210 L1068 0 L169 0 Z M571 972 L694 1475 L958 1475 L753 972 L571 972 Z " />
<glyph glyph-name="lcaron" unicode="&#x13e;" horiz-adv-x="865" d="M158 0 L158 1516 L401 1516 L401 0 L158 0 Z M518 1043 L642 1546 L905 1546 L700 1043 L518 1043 Z " />
<glyph glyph-name="Ldot" unicode="&#x13f;" horiz-adv-x="1111" d="M155 0 L155 1475 L408 1475 L408 210 L1054 210 L1054 0 L155 0 Z M838 774 Q907 774 956 722 Q998 677 998 615 Q998 544 944 497 Q897 456 835 456 Q763 456 714 508 Q672 553 672 616 Q672 686 726 733 Q772 774 838 774 Z " />
<glyph glyph-name="ldot" unicode="&#x140;" horiz-adv-x="796" d="M144 0 L144 1516 L387 1516 L387 0 L144 0 Z M669 797 Q738 797 787 745 Q829 700 829 638 Q829 567 775 520 Q728 479 666 479 Q594 479 545 531 Q503 576 503 639 Q503 709 557 756 Q603 797 669 797 Z " />
<glyph glyph-name="Lslash" unicode="&#x141;" horiz-adv-x="1140" d="M200 0 L200 531 L5 408 L5 632 L200 755 L200 1475 L453 1475 L453 915 L727 1089 L727 865 L453 691 L453 210 L1099 210 L1099 0 L200 0 Z " />
<glyph glyph-name="lslash" unicode="&#x142;" horiz-adv-x="632" d="M194 0 L194 621 L-14 478 L-14 667 L194 810 L194 1516 L437 1516 L437 974 L646 1117 L646 928 L437 785 L437 0 L194 0 Z " />
<glyph glyph-name="Nacute" unicode="&#x143;" horiz-adv-x="1457" d="M169 0 L169 1475 L415 1475 L1042 521 L1042 1475 L1288 1475 L1288 -18 L1103 -18 L416 1047 L416 0 L169 0 Z M631 1603 L827 1945 L1079 1945 L795 1603 L631 1603 Z " />
<glyph glyph-name="nacute" unicode="&#x144;" horiz-adv-x="1261" d="M158 0 L158 1103 L401 1103 L401 960 Q488 1036 546 1071 Q653 1135 775 1135 Q977 1135 1054 989 Q1111 883 1111 638 L1111 0 L868 0 L868 652 Q868 767 846 825 Q811 916 706 916 Q617 916 519 843 Q480 814 401 732 L401 0 L158 0 Z M505 1225 L701 1566 L953 1566 L669 1225 L505 1225 Z " />
<glyph glyph-name="Ncommaaccent" unicode="&#x145;" horiz-adv-x="1457" d="M169 0 L169 1475 L415 1475 L1042 521 L1042 1475 L1288 1475 L1288 -18 L1103 -18 L416 1047 L416 0 L169 0 Z M509 -490 L650 -149 L898 -149 L672 -490 L509 -490 Z " />
<glyph glyph-name="ncommaaccent" unicode="&#x146;" horiz-adv-x="1261" d="M158 0 L158 1103 L401 1103 L401 960 Q488 1036 546 1071 Q653 1135 775 1135 Q977 1135 1054 989 Q1111 883 1111 638 L1111 0 L868 0 L868 652 Q868 767 846 825 Q811 916 706 916 Q617 916 519 843 Q480 814 401 732 L401 0 L158 0 Z M399 -490 L540 -149 L788 -149 L562 -490 L399 -490 Z " />
<glyph glyph-name="Ncaron" unicode="&#x147;" horiz-adv-x="1457" d="M169 0 L169 1475 L415 1475 L1042 521 L1042 1475 L1288 1475 L1288 -18 L1103 -18 L416 1047 L416 0 L169 0 Z M751 1753 L907 1945 L1134 1945 L826 1603 L676 1603 L368 1945 L595 1945 L751 1753 Z " />
<glyph glyph-name="ncaron" unicode="&#x148;" horiz-adv-x="1261" d="M158 0 L158 1103 L401 1103 L401 960 Q488 1036 546 1071 Q653 1135 775 1135 Q977 1135 1054 989 Q1111 883 1111 638 L1111 0 L868 0 L868 652 Q868 767 846 825 Q811 916 706 916 Q617 916 519 843 Q480 814 401 732 L401 0 L158 0 Z M623 1375 L779 1566 L1006 1566 L698 1225 L548 1225 L240 1566 L467 1566 L623 1375 Z " />
<glyph glyph-name="napostrophe" unicode="&#x149;" horiz-adv-x="1346" d="M257 0 L257 1103 L500 1103 L500 960 Q596 1041 645 1071 Q753 1135 874 1135 Q1077 1135 1153 989 Q1210 881 1210 638 L1210 0 L967 0 L967 652 Q967 767 945 825 Q911 916 806 916 Q716 916 618 843 Q577 812 500 732 L500 0 L257 0 Z M-52 1037 L73 1579 L331 1579 L127 1037 L-52 1037 Z " />
<glyph glyph-name="Eng" unicode="&#x14a;" horiz-adv-x="1467" d="M155 0 L155 1475 L401 1475 L1064 520 L1064 1475 L1311 1475 L1311 22 Q1311 -144 1282 -222 Q1227 -367 1055 -406 Q1001 -418 899 -422 L899 -212 Q992 -207 1025 -173 Q1068 -130 1068 -4 L1068 72 L402 1049 L402 0 L155 0 Z " />
<glyph glyph-name="eng" unicode="&#x14b;" horiz-adv-x="1233" d="M145 0 L145 1103 L388 1103 L388 960 Q483 1041 533 1071 Q641 1135 762 1135 Q964 1135 1041 989 Q1098 883 1098 638 L1098 24 Q1098 -159 1069 -244 Q1015 -401 842 -446 Q787 -460 686 -465 L686 -255 Q741 -251 767 -241 Q821 -220 841 -150 Q855 -101 855 -2 L855 652 Q855 767 833 825 Q798 916 693 916 Q605 916 506 843 Q468 814 388 732 L388 0 L145 0 Z " />
<glyph glyph-name="Omacron" unicode="&#x14c;" horiz-adv-x="1571" d="M779 1504 Q1165 1504 1342 1238 Q1470 1044 1470 738 Q1470 432 1342 238 Q1166 -29 788 -29 Q406 -29 230 238 Q102 432 102 747 Q102 1044 230 1238 Q407 1504 779 1504 Z M786 1284 Q571 1284 469 1149 Q359 1005 359 746 Q359 472 469 326 Q570 191 791 191 Q1002 191 1103 326 Q1213 472 1213 738 Q1213 1284 786 1284 Z M503 1681 L503 1850 L1068 1850 L1068 1681 L503 1681 Z " />
<glyph glyph-name="omacron" unicode="&#x14d;" horiz-adv-x="1268" d="M634 1135 Q874 1135 1024 976 Q1175 817 1175 551 Q1175 287 1024 127 Q875 -32 635 -32 Q393 -32 244 127 Q93 287 93 559 Q93 816 244 976 Q393 1135 634 1135 Z M634 925 Q492 925 411 814 Q340 716 340 557 Q340 387 411 289 Q491 178 634 178 Q777 178 857 289 Q928 388 928 551 Q928 717 857 814 Q776 925 634 925 Z M351 1303 L351 1472 L916 1472 L916 1303 L351 1303 Z " />
<glyph glyph-name="Obreve" unicode="&#x14e;" horiz-adv-x="1571" d="M779 1504 Q1165 1504 1342 1238 Q1470 1044 1470 738 Q1470 432 1342 238 Q1166 -29 788 -29 Q406 -29 230 238 Q102 432 102 747 Q102 1044 230 1238 Q407 1504 779 1504 Z M786 1284 Q571 1284 469 1149 Q359 1005 359 746 Q359 472 469 326 Q570 191 791 191 Q1002 191 1103 326 Q1213 472 1213 738 Q1213 1284 786 1284 Z M479 1927 L619 1927 Q625 1859 650 1831 Q692 1784 784 1784 Q885 1784 925 1839 Q943 1865 949 1927 L1089 1927 Q1077 1791 1033 1723 Q963 1617 782 1617 Q590 1617 523 1744 Q488 1810 479 1927 Z " />
<glyph glyph-name="obreve" unicode="&#x14f;" horiz-adv-x="1268" d="M634 1135 Q874 1135 1024 976 Q1175 817 1175 551 Q1175 287 1024 127 Q875 -32 635 -32 Q393 -32 244 127 Q93 287 93 559 Q93 816 244 976 Q393 1135 634 1135 Z M634 925 Q492 925 411 814 Q340 716 340 557 Q340 387 411 289 Q491 178 634 178 Q777 178 857 289 Q928 388 928 551 Q928 717 857 814 Q776 925 634 925 Z M328 1548 L468 1548 Q474 1480 499 1452 Q541 1405 633 1405 Q734 1405 774 1460 Q792 1486 798 1548 L938 1548 Q926 1412 882 1344 Q812 1238 632 1238 Q438 1238 372 1365 Q337 1431 328 1548 Z " />
<glyph glyph-name="Ohungarumlaut" unicode="&#x150;" horiz-adv-x="1571" d="M779 1504 Q1165 1504 1342 1238 Q1470 1044 1470 738 Q1470 432 1342 238 Q1166 -29 788 -29 Q406 -29 230 238 Q102 432 102 747 Q102 1044 230 1238 Q407 1504 779 1504 Z M786 1284 Q571 1284 469 1149 Q359 1005 359 746 Q359 472 469 326 Q570 191 791 191 Q1002 191 1103 326 Q1213 472 1213 738 Q1213 1284 786 1284 Z M554 1603 L693 1945 L913 1945 L690 1603 L554 1603 Z M850 1603 L1012 1945 L1241 1945 L988 1603 L850 1603 Z " />
<glyph glyph-name="ohungarumlaut" unicode="&#x151;" horiz-adv-x="1268" d="M634 1135 Q874 1135 1024 976 Q1175 817 1175 551 Q1175 287 1024 127 Q875 -32 635 -32 Q393 -32 244 127 Q93 287 93 559 Q93 816 244 976 Q393 1135 634 1135 Z M634 925 Q492 925 411 814 Q340 716 340 557 Q340 387 411 289 Q491 178 634 178 Q777 178 857 289 Q928 388 928 551 Q928 717 857 814 Q776 925 634 925 Z M403 1225 L542 1566 L762 1566 L539 1225 L403 1225 Z M699 1225 L861 1566 L1090 1566 L837 1225 L699 1225 Z " />
<glyph glyph-name="Racute" unicode="&#x154;" horiz-adv-x="1346" d="M164 0 L164 1475 L692 1475 Q841 1475 926 1458 Q1068 1430 1149 1314 Q1227 1202 1227 1046 Q1227 868 1120 764 Q1084 728 982 672 Q1042 639 1074 588 Q1105 538 1133 444 L1265 0 L988 0 L920 271 Q893 380 880 409 Q834 518 779 550 Q721 585 586 585 L417 585 L417 0 L164 0 Z M417 789 L639 789 Q811 789 881 837 Q970 898 970 1032 Q970 1167 879 1224 Q814 1265 664 1265 L417 1265 L417 789 Z M514 1603 L710 1945 L962 1945 L678 1603 L514 1603 Z " />
<glyph glyph-name="racute" unicode="&#x155;" horiz-adv-x="820" d="M158 0 L158 1103 L391 1103 L391 953 Q483 1041 545 1073 Q631 1117 741 1117 L778 1117 L778 882 L733 882 Q655 882 609 868 Q538 846 471 781 Q460 771 401 705 L401 0 L158 0 Z M343 1225 L539 1566 L791 1566 L507 1225 L343 1225 Z " />
<glyph glyph-name="Rcommaaccent" unicode="&#x156;" horiz-adv-x="1346" d="M164 0 L164 1475 L692 1475 Q841 1475 926 1458 Q1068 1430 1149 1314 Q1227 1202 1227 1046 Q1227 868 1120 764 Q1084 728 982 672 Q1042 639 1074 588 Q1105 538 1133 444 L1265 0 L988 0 L920 271 Q893 380 880 409 Q834 518 779 550 Q721 585 586 585 L417 585 L417 0 L164 0 Z M417 789 L639 789 Q811 789 881 837 Q970 898 970 1032 Q970 1167 879 1224 Q814 1265 664 1265 L417 1265 L417 789 Z M448 -490 L589 -149 L837 -149 L611 -490 L448 -490 Z " />
<glyph glyph-name="rcommaaccent" unicode="&#x157;" horiz-adv-x="820" d="M159 0 L159 1103 L392 1103 L392 953 Q484 1041 546 1073 Q632 1117 742 1117 L779 1117 L779 882 L734 882 Q656 882 610 868 Q539 846 472 781 Q461 771 402 705 L402 0 L159 0 Z M18 -490 L159 -149 L407 -149 L181 -490 L18 -490 Z " />
<glyph glyph-name="Rcaron" unicode="&#x158;" horiz-adv-x="1346" d="M164 0 L164 1475 L692 1475 Q841 1475 926 1458 Q1068 1430 1149 1314 Q1227 1202 1227 1046 Q1227 868 1120 764 Q1084 728 982 672 Q1042 639 1074 588 Q1105 538 1133 444 L1265 0 L988 0 L920 271 Q893 380 880 409 Q834 518 779 550 Q721 585 586 585 L417 585 L417 0 L164 0 Z M417 789 L639 789 Q811 789 881 837 Q970 898 970 1032 Q970 1167 879 1224 Q814 1265 664 1265 L417 1265 L417 789 Z M643 1753 L799 1945 L1026 1945 L718 1603 L568 1603 L260 1945 L487 1945 L643 1753 Z " />
<glyph glyph-name="rcaron" unicode="&#x159;" horiz-adv-x="820" d="M158 0 L158 1103 L391 1103 L391 953 Q483 1041 545 1073 Q631 1117 741 1117 L778 1117 L778 882 L733 882 Q655 882 609 868 Q538 846 471 781 Q460 771 401 705 L401 0 L158 0 Z M461 1375 L617 1566 L844 1566 L536 1225 L386 1225 L78 1566 L305 1566 L461 1375 Z " />
<glyph glyph-name="Sacute" unicode="&#x15a;" horiz-adv-x="1265" d="M82 449 L327 449 Q333 336 384 276 Q461 185 636 185 Q778 185 854 247 Q931 309 931 409 Q931 515 837 572 Q781 606 710 628 Q649 647 552 674 Q395 719 329 750 Q208 807 161 898 Q121 976 121 1084 Q121 1259 226 1372 Q299 1450 393 1478 Q481 1504 591 1504 Q1096 1504 1097 1041 L852 1041 Q846 1147 805 1203 Q740 1290 593 1290 Q491 1290 431 1243 Q368 1193 368 1109 Q368 1013 448 966 Q513 928 699 881 Q886 833 963 792 Q1179 675 1179 426 Q1179 220 1049 102 Q905 -29 635 -29 Q291 -29 157 164 Q86 267 82 449 Z M482 1603 L678 1945 L930 1945 L646 1603 L482 1603 Z " />
<glyph glyph-name="sacute" unicode="&#x15b;" horiz-adv-x="1077" d="M63 354 L285 354 Q293 274 329 234 Q394 162 543 162 Q771 162 771 307 Q771 381 708 411 Q673 428 626 437 L507 460 Q324 495 229 552 Q106 625 106 791 Q106 958 228 1054 Q332 1135 514 1135 Q784 1135 890 974 Q943 892 944 777 L722 777 Q715 845 686 880 Q633 941 512 941 Q344 941 344 813 Q344 747 400 719 Q443 698 595 666 Q730 638 789 615 Q913 567 961 484 Q1002 414 1002 320 Q1002 158 886 64 Q767 -32 542 -32 Q67 -32 63 354 Z M387 1225 L583 1566 L835 1566 L551 1225 L387 1225 Z " />
<glyph glyph-name="Scircumflex" unicode="&#x15c;" horiz-adv-x="1265" d="M82 449 L327 449 Q333 336 384 276 Q461 185 636 185 Q778 185 854 247 Q931 309 931 409 Q931 515 837 572 Q781 606 710 628 Q649 647 552 674 Q395 719 329 750 Q208 807 161 898 Q121 976 121 1084 Q121 1259 226 1372 Q299 1450 393 1478 Q481 1504 591 1504 Q1096 1504 1097 1041 L852 1041 Q846 1147 805 1203 Q740 1290 593 1290 Q491 1290 431 1243 Q368 1193 368 1109 Q368 1013 448 966 Q513 928 699 881 Q886 833 963 792 Q1179 675 1179 426 Q1179 220 1049 102 Q905 -29 635 -29 Q291 -29 157 164 Q86 267 82 449 Z M630 1794 L474 1603 L247 1603 L555 1945 L705 1945 L1013 1603 L786 1603 L630 1794 Z " />
<glyph glyph-name="scircumflex" unicode="&#x15d;" horiz-adv-x="1077" d="M63 354 L285 354 Q293 274 329 234 Q394 162 543 162 Q771 162 771 307 Q771 381 708 411 Q673 428 626 437 L507 460 Q324 495 229 552 Q106 625 106 791 Q106 958 228 1054 Q332 1135 514 1135 Q784 1135 890 974 Q943 892 944 777 L722 777 Q715 845 686 880 Q633 941 512 941 Q344 941 344 813 Q344 747 400 719 Q443 698 595 666 Q730 638 789 615 Q913 567 961 484 Q1002 414 1002 320 Q1002 158 886 64 Q767 -32 542 -32 Q67 -32 63 354 Z M511 1416 L355 1225 L128 1225 L436 1566 L586 1566 L894 1225 L667 1225 L511 1416 Z " />
<glyph glyph-name="Scedilla" unicode="&#x15e;" horiz-adv-x="1265" d="M713 -25 L680 -86 Q759 -95 799 -116 Q890 -164 890 -278 Q890 -396 799 -452 Q731 -495 614 -495 Q477 -495 350 -455 L400 -302 Q524 -339 602 -339 Q700 -339 700 -277 Q700 -219 597 -219 Q571 -219 512 -224 L485 -108 L534 -23 Q357 -3 249 72 Q121 162 91 331 Q84 374 82 449 L327 449 Q333 336 384 276 Q461 185 636 185 Q778 185 854 247 Q931 309 931 409 Q931 515 837 572 Q781 606 710 628 Q649 647 552 674 Q394 719 329 750 Q208 807 161 898 Q121 976 121 1084 Q121 1259 226 1372 Q299 1450 393 1478 Q481 1504 591 1504 Q1096 1504 1097 1041 L852 1041 Q846 1147 805 1203 Q740 1290 593 1290 Q491 1290 431 1243 Q368 1193 368 1109 Q368 1014 448 967 Q501 935 567 916 Q624 900 699 881 Q885 834 963 792 Q1179 675 1179 426 Q1179 147 947 33 Q857 -11 713 -25 Z " />
<glyph glyph-name="scedilla" unicode="&#x15f;" horiz-adv-x="1077" d="M622 -29 L591 -86 Q670 -95 710 -116 Q801 -164 801 -277 Q801 -396 710 -452 Q642 -495 526 -495 Q388 -495 261 -455 L311 -302 Q434 -339 513 -339 Q611 -339 611 -277 Q611 -219 508 -219 Q484 -219 423 -224 L397 -108 L443 -27 Q67 12 63 354 L285 354 Q293 273 329 233 Q394 161 543 161 Q771 161 771 307 Q771 381 708 410 Q673 427 626 436 L507 459 Q324 495 229 551 Q106 625 106 791 Q106 958 228 1054 Q332 1135 514 1135 Q784 1135 890 974 Q943 892 944 777 L722 777 Q715 845 686 880 Q633 941 512 941 Q344 941 344 813 Q344 747 400 719 Q443 698 595 666 Q730 637 789 615 Q913 567 961 484 Q1002 414 1002 319 Q1002 106 808 15 Q736 -18 622 -29 Z " />
<glyph glyph-name="Scaron" unicode="&#x160;" horiz-adv-x="1265" d="M82 449 L327 449 Q333 336 384 276 Q461 185 636 185 Q778 185 854 247 Q931 309 931 409 Q931 515 837 572 Q781 606 710 628 Q649 647 552 674 Q395 719 329 750 Q208 807 161 898 Q121 976 121 1084 Q121 1259 226 1372 Q299 1450 393 1478 Q481 1504 591 1504 Q1096 1504 1097 1041 L852 1041 Q846 1147 805 1203 Q740 1290 593 1290 Q491 1290 431 1243 Q368 1193 368 1109 Q368 1013 448 966 Q513 928 699 881 Q886 833 963 792 Q1179 675 1179 426 Q1179 220 1049 102 Q905 -29 635 -29 Q291 -29 157 164 Q86 267 82 449 Z M598 1753 L754 1945 L981 1945 L673 1603 L523 1603 L215 1945 L442 1945 L598 1753 Z " />
<glyph glyph-name="scaron" unicode="&#x161;" horiz-adv-x="1077" d="M63 354 L285 354 Q293 274 329 234 Q394 162 543 162 Q771 162 771 307 Q771 381 708 411 Q673 428 626 437 L507 460 Q324 495 229 552 Q106 625 106 791 Q106 958 228 1054 Q332 1135 514 1135 Q784 1135 890 974 Q943 892 944 777 L722 777 Q715 845 686 880 Q633 941 512 941 Q344 941 344 813 Q344 747 400 719 Q443 698 595 666 Q730 638 789 615 Q913 567 961 484 Q1002 414 1002 320 Q1002 158 886 64 Q767 -32 542 -32 Q67 -32 63 354 Z M527 1375 L683 1566 L910 1566 L602 1225 L452 1225 L144 1566 L371 1566 L527 1375 Z " />
<glyph glyph-name="Tcommaaccent" unicode="&#x162;" horiz-adv-x="1135" d="M441 0 L441 1265 L41 1265 L41 1475 L1094 1475 L1094 1265 L694 1265 L694 0 L441 0 Z M300 -490 L441 -149 L689 -149 L463 -490 L300 -490 Z " />
<glyph glyph-name="tcommaaccent" unicode="&#x163;" horiz-adv-x="814" d="M221 893 L65 893 L65 1103 L225 1103 L241 1419 L464 1419 L464 1103 L748 1103 L748 893 L464 893 L464 410 Q464 295 490 252 Q516 210 588 210 L776 210 L776 0 L585 0 Q418 0 329 71 Q221 158 221 362 L221 893 Z M193 -490 L334 -149 L582 -149 L356 -490 L193 -490 Z " />
<glyph glyph-name="Tcaron" unicode="&#x164;" horiz-adv-x="1135" d="M441 0 L441 1265 L41 1265 L41 1475 L1094 1475 L1094 1265 L694 1265 L694 0 L441 0 Z M570 1753 L726 1945 L953 1945 L645 1603 L495 1603 L187 1945 L414 1945 L570 1753 Z " />
<glyph glyph-name="tcaron" unicode="&#x165;" horiz-adv-x="1001" d="M221 893 L65 893 L65 1103 L225 1103 L241 1419 L464 1419 L464 1103 L748 1103 L748 893 L464 893 L464 410 Q464 295 490 252 Q516 210 588 210 L776 210 L776 0 L585 0 Q418 0 329 71 Q221 158 221 362 L221 893 Z M665 1212 L779 1695 L1043 1695 L847 1212 L665 1212 Z " />
<glyph glyph-name="Tbar" unicode="&#x166;" horiz-adv-x="1144" d="M445 0 L445 691 L182 691 L182 874 L445 874 L445 1265 L27 1265 L27 1475 L1117 1475 L1117 1265 L698 1265 L698 874 L962 874 L962 691 L698 691 L698 0 L445 0 Z " />
<glyph glyph-name="tbar" unicode="&#x167;" horiz-adv-x="799" d="M208 893 L52 893 L52 1103 L212 1103 L228 1419 L451 1419 L451 1103 L735 1103 L735 893 L451 893 L451 722 L735 722 L735 580 L451 580 L451 410 Q451 295 477 252 Q503 210 575 210 L763 210 L763 0 L572 0 Q405 0 316 71 Q208 158 208 362 L208 580 L31 580 L31 722 L208 722 L208 893 Z " />
<glyph glyph-name="Utilde" unicode="&#x168;" horiz-adv-x="1417" d="M160 1475 L413 1475 L413 577 Q413 383 463 302 Q531 190 708 190 Q887 190 954 302 Q984 353 996 429 Q1003 477 1003 577 L1003 1475 L1256 1475 L1256 622 Q1256 413 1231 309 Q1192 144 1061 59 Q925 -30 708 -30 Q380 -30 247 165 Q185 257 168 406 Q160 476 160 622 L160 1475 Z M522 1648 L382 1648 Q419 1885 594 1885 Q638 1885 687 1864 Q708 1854 764 1826 Q801 1807 822 1807 Q868 1807 892 1884 L1034 1884 Q1012 1779 975 1723 Q920 1642 813 1642 Q769 1642 727 1660 Q702 1671 643 1701 Q609 1719 591 1719 Q547 1719 522 1648 Z " />
<glyph glyph-name="utilde" unicode="&#x169;" horiz-adv-x="1217" d="M153 1103 L396 1103 L396 451 Q396 340 411 288 Q436 200 527 200 Q611 200 704 268 Q740 294 817 371 L817 1103 L1059 1103 L1059 0 L817 0 L817 143 Q717 63 677 40 Q574 -19 460 -19 Q273 -19 204 123 Q153 229 153 465 L153 1103 Z M422 1270 L282 1270 Q319 1507 493 1507 Q538 1507 587 1486 Q609 1476 664 1448 Q701 1429 722 1429 Q767 1429 792 1506 L934 1506 Q912 1400 875 1345 Q820 1264 713 1264 Q669 1264 627 1282 Q604 1292 543 1323 Q509 1341 491 1341 Q448 1341 422 1270 Z " />
<glyph glyph-name="Umacron" unicode="&#x16a;" horiz-adv-x="1417" d="M160 1475 L413 1475 L413 577 Q413 383 463 302 Q531 190 708 190 Q887 190 954 302 Q984 353 996 429 Q1003 477 1003 577 L1003 1475 L1256 1475 L1256 622 Q1256 413 1231 309 Q1192 144 1061 59 Q925 -30 708 -30 Q380 -30 247 165 Q185 257 168 406 Q160 476 160 622 L160 1475 Z M426 1681 L426 1850 L991 1850 L991 1681 L426 1681 Z " />
<glyph glyph-name="umacron" unicode="&#x16b;" horiz-adv-x="1217" d="M153 1103 L396 1103 L396 451 Q396 340 411 288 Q436 200 527 200 Q611 200 704 268 Q740 294 817 371 L817 1103 L1059 1103 L1059 0 L817 0 L817 143 Q717 63 677 40 Q574 -19 460 -19 Q273 -19 204 123 Q153 229 153 465 L153 1103 Z M326 1303 L326 1472 L891 1472 L891 1303 L326 1303 Z " />
<glyph glyph-name="Ubreve" unicode="&#x16c;" horiz-adv-x="1417" d="M160 1475 L413 1475 L413 577 Q413 383 463 302 Q531 190 708 190 Q887 190 954 302 Q984 353 996 429 Q1003 477 1003 577 L1003 1475 L1256 1475 L1256 622 Q1256 413 1231 309 Q1192 144 1061 59 Q925 -30 708 -30 Q380 -30 247 165 Q185 257 168 406 Q160 476 160 622 L160 1475 Z M402 1927 L542 1927 Q548 1859 573 1831 Q615 1784 707 1784 Q808 1784 848 1839 Q866 1865 872 1927 L1012 1927 Q1000 1791 956 1723 Q886 1617 705 1617 Q513 1617 446 1744 Q411 1810 402 1927 Z " />
<glyph glyph-name="ubreve" unicode="&#x16d;" horiz-adv-x="1217" d="M153 1103 L396 1103 L396 451 Q396 340 411 288 Q436 200 527 200 Q611 200 704 268 Q740 294 817 371 L817 1103 L1059 1103 L1059 0 L817 0 L817 143 Q717 63 677 40 Q574 -19 460 -19 Q273 -19 204 123 Q153 229 153 465 L153 1103 Z M302 1548 L442 1548 Q448 1480 473 1452 Q515 1405 607 1405 Q708 1405 748 1460 Q766 1486 772 1548 L912 1548 Q900 1412 856 1344 Q786 1238 606 1238 Q412 1238 346 1365 Q311 1431 302 1548 Z " />
<glyph glyph-name="Uring" unicode="&#x16e;" horiz-adv-x="1417" d="M160 1475 L413 1475 L413 577 Q413 383 463 302 Q531 190 708 190 Q887 190 954 302 Q984 353 996 429 Q1003 477 1003 577 L1003 1475 L1256 1475 L1256 622 Q1256 413 1231 309 Q1192 144 1061 59 Q925 -30 708 -30 Q380 -30 247 165 Q185 257 168 406 Q160 476 160 622 L160 1475 Z M709 2051 Q832 2051 900 1977 Q961 1911 961 1808 Q961 1705 900 1639 Q832 1565 710 1565 Q586 1565 517 1639 Q457 1705 457 1811 Q457 1912 517 1977 Q587 2051 709 2051 Z M709 1924 Q649 1924 620 1884 Q600 1856 600 1809 Q600 1692 709 1692 Q818 1692 818 1808 Q818 1924 709 1924 Z " />
<glyph glyph-name="uring" unicode="&#x16f;" horiz-adv-x="1217" d="M153 1103 L396 1103 L396 451 Q396 340 411 288 Q436 200 527 200 Q611 200 704 268 Q740 294 817 371 L817 1103 L1059 1103 L1059 0 L817 0 L817 143 Q717 63 677 40 Q574 -19 460 -19 Q273 -19 204 123 Q153 229 153 465 L153 1103 Z M609 1688 Q732 1688 800 1614 Q861 1548 861 1445 Q861 1342 800 1276 Q732 1202 610 1202 Q486 1202 417 1276 Q357 1342 357 1448 Q357 1549 417 1614 Q487 1688 609 1688 Z M609 1561 Q549 1561 520 1521 Q500 1493 500 1446 Q500 1329 609 1329 Q718 1329 718 1445 Q718 1561 609 1561 Z " />
<glyph glyph-name="Uhungarumlaut" unicode="&#x170;" horiz-adv-x="1417" d="M160 1475 L413 1475 L413 577 Q413 383 463 302 Q531 190 708 190 Q887 190 954 302 Q984 353 996 429 Q1003 477 1003 577 L1003 1475 L1256 1475 L1256 622 Q1256 413 1231 309 Q1192 144 1061 59 Q925 -30 708 -30 Q380 -30 247 165 Q185 257 168 406 Q160 476 160 622 L160 1475 Z M477 1603 L616 1945 L836 1945 L613 1603 L477 1603 Z M773 1603 L935 1945 L1164 1945 L911 1603 L773 1603 Z " />
<glyph glyph-name="uhungarumlaut" unicode="&#x171;" horiz-adv-x="1217" d="M153 1103 L396 1103 L396 451 Q396 340 411 288 Q436 200 527 200 Q611 200 704 268 Q740 294 817 371 L817 1103 L1059 1103 L1059 0 L817 0 L817 143 Q717 63 677 40 Q574 -19 460 -19 Q273 -19 204 123 Q153 229 153 465 L153 1103 Z M377 1225 L516 1566 L736 1566 L513 1225 L377 1225 Z M673 1225 L835 1566 L1064 1566 L811 1225 L673 1225 Z " />
<glyph glyph-name="Uogonek" unicode="&#x172;" horiz-adv-x="1417" d="M160 1475 L413 1475 L413 577 Q413 383 463 302 Q531 190 708 190 Q888 190 954 302 Q985 354 996 429 Q1003 477 1003 577 L1003 1475 L1256 1475 L1256 622 Q1256 412 1231 309 Q1169 49 885 -12 Q826 -61 800 -86 Q728 -158 728 -225 Q728 -299 809 -299 L923 -299 L923 -455 L799 -455 Q666 -455 604 -413 Q538 -369 538 -271 Q538 -143 698 -30 Q541 -24 452 10 Q254 83 193 278 Q160 384 160 622 L160 1475 Z " />
<glyph glyph-name="uogonek" unicode="&#x173;" horiz-adv-x="1217" d="M1059 0 Q994 -50 958 -86 Q885 -158 885 -225 Q885 -299 967 -299 L1081 -299 L1081 -455 L957 -455 Q824 -455 761 -413 Q695 -369 695 -271 Q695 -191 756 -119 Q789 -81 816 -61 L879 -14 Q890 -6 899 0 L817 0 L817 143 Q717 63 677 40 Q574 -19 460 -19 Q273 -19 204 123 Q153 229 153 465 L153 1103 L396 1103 L396 451 Q396 340 411 288 Q436 200 527 200 Q611 200 704 268 Q740 294 817 371 L817 1103 L1059 1103 L1059 0 Z " />
<glyph glyph-name="Wcircumflex" unicode="&#x174;" horiz-adv-x="1957" d="M452 -31 L88 1475 L347 1475 L574 443 L910 1478 L1048 1478 L1384 443 L1611 1475 L1870 1475 L1505 -31 L1311 -31 L979 994 L647 -31 L452 -31 Z M976 1794 L820 1603 L593 1603 L901 1945 L1051 1945 L1359 1603 L1132 1603 L976 1794 Z " />
<glyph glyph-name="wcircumflex" unicode="&#x175;" horiz-adv-x="1641" d="M352 -22 L39 1103 L285 1103 L480 351 L749 1103 L893 1103 L1162 351 L1356 1103 L1603 1103 L1290 -22 L1089 -22 L821 721 L553 -22 L352 -22 Z M818 1416 L662 1225 L435 1225 L743 1566 L893 1566 L1201 1225 L974 1225 L818 1416 Z " />
<glyph glyph-name="Ycircumflex" unicode="&#x176;" horiz-adv-x="1223" d="M485 0 L485 565 L-23 1475 L252 1475 L611 800 L970 1475 L1245 1475 L738 565 L738 0 L485 0 Z M608 1794 L452 1603 L225 1603 L533 1945 L683 1945 L991 1603 L764 1603 L608 1794 Z " />
<glyph glyph-name="ycircumflex" unicode="&#x177;" horiz-adv-x="1064" d="M412 27 L14 1103 L274 1103 L531 312 L789 1103 L1049 1103 L644 14 Q572 -181 527 -254 Q442 -395 315 -423 Q253 -437 140 -438 L140 -229 Q240 -228 277 -205 Q333 -170 378 -57 L412 27 Z M534 1416 L378 1225 L151 1225 L459 1566 L609 1566 L917 1225 L690 1225 L534 1416 Z " />
<glyph glyph-name="Zacute" unicode="&#x179;" horiz-adv-x="1131" d="M27 0 L27 192 L739 1265 L89 1265 L89 1475 L1046 1475 L1046 1311 L320 210 L1090 210 L1090 0 L27 0 Z M457 1603 L653 1945 L905 1945 L621 1603 L457 1603 Z " />
<glyph glyph-name="zacute" unicode="&#x17a;" horiz-adv-x="970" d="M36 0 L36 195 L595 893 L86 893 L86 1103 L886 1103 L886 921 L321 210 L904 210 L904 0 L36 0 Z M382 1225 L578 1566 L830 1566 L546 1225 L382 1225 Z " />
<glyph glyph-name="Zdotaccent" unicode="&#x17b;" horiz-adv-x="1131" d="M27 0 L27 192 L739 1265 L89 1265 L89 1475 L1046 1475 L1046 1311 L320 210 L1090 210 L1090 0 L27 0 Z M593 1889 Q657 1889 701 1842 Q739 1802 739 1747 Q739 1683 690 1641 Q647 1605 591 1605 Q525 1605 480 1652 Q442 1692 442 1748 Q442 1810 491 1853 Q533 1889 593 1889 Z " />
<glyph glyph-name="zdotaccent" unicode="&#x17c;" horiz-adv-x="970" d="M36 0 L36 195 L595 893 L86 893 L86 1103 L886 1103 L886 921 L321 210 L904 210 L904 0 L36 0 Z M521 1522 Q585 1522 629 1475 Q667 1435 667 1380 Q667 1316 618 1274 Q575 1238 519 1238 Q453 1238 408 1285 Q370 1325 370 1381 Q370 1443 419 1486 Q461 1522 521 1522 Z " />
<glyph glyph-name="Zcaron" unicode="&#x17d;" horiz-adv-x="1131" d="M27 0 L27 192 L739 1265 L89 1265 L89 1475 L1046 1475 L1046 1311 L320 210 L1090 210 L1090 0 L27 0 Z M598 1753 L754 1945 L981 1945 L673 1603 L523 1603 L215 1945 L442 1945 L598 1753 Z " />
<glyph glyph-name="zcaron" unicode="&#x17e;" horiz-adv-x="970" d="M36 0 L36 195 L595 893 L86 893 L86 1103 L886 1103 L886 921 L321 210 L904 210 L904 0 L36 0 Z M521 1375 L677 1566 L904 1566 L596 1225 L446 1225 L138 1566 L365 1566 L521 1375 Z " />
<glyph glyph-name="uni018F" unicode="&#x18f;" horiz-adv-x="1579" d="M101 862 L1213 862 Q1202 984 1155 1077 Q1051 1284 792 1284 Q629 1284 529 1209 Q481 1174 433 1101 L222 1223 Q293 1327 365 1381 Q528 1504 794 1504 Q1172 1504 1348 1237 Q1478 1042 1478 737 Q1478 433 1348 237 Q1172 -29 790 -29 Q495 -29 323 131 Q147 294 113 585 Q102 680 101 862 Z M364 663 Q373 555 384 504.5 Q395 454 421 402 Q528 191 793 191 Q1078 191 1175 444 Q1212 538 1217 663 L364 663 Z " />
<glyph glyph-name="uni01CD" unicode="&#x1cd;" horiz-adv-x="1382" d="M987 379 L395 379 L258 0 L1 0 L580 1475 L803 1475 L1381 0 L1125 0 L987 379 Z M915 583 L691 1200 L467 583 L915 583 Z M693 1753 L849 1945 L1076 1945 L768 1603 L618 1603 L310 1945 L537 1945 L693 1753 Z " />
<glyph glyph-name="uni01CE" unicode="&#x1ce;" horiz-adv-x="1266" d="M886 0 L886 128 Q755 -32 560 -32 Q347 -32 222 126 Q93 290 93 552 Q93 815 222 977 Q349 1135 559 1135 Q746 1135 864 995 L864 1103 L1108 1103 L1108 0 L886 0 Z M596 925 Q478 925 408 821 Q340 720 340 552 Q340 383 408 282 Q477 178 596 178 Q722 178 796 289 Q864 392 864 547 Q864 713 796 813 Q720 925 596 925 Z M629 1375 L785 1566 L1012 1566 L704 1225 L554 1225 L246 1566 L473 1566 L629 1375 Z " />
<glyph glyph-name="uni01D3" unicode="&#x1d3;" horiz-adv-x="1417" d="M160 1475 L413 1475 L413 577 Q413 383 463 302 Q531 190 708 190 Q887 190 954 302 Q984 353 996 429 Q1003 477 1003 577 L1003 1475 L1256 1475 L1256 622 Q1256 413 1231 309 Q1192 144 1061 59 Q925 -30 708 -30 Q380 -30 247 165 Q185 257 168 406 Q160 476 160 622 L160 1475 Z M711 1753 L867 1945 L1094 1945 L786 1603 L636 1603 L328 1945 L555 1945 L711 1753 Z " />
<glyph glyph-name="uni01D4" unicode="&#x1d4;" horiz-adv-x="1217" d="M153 1103 L396 1103 L396 451 Q396 340 411 288 Q436 200 527 200 Q611 200 704 268 Q740 294 817 371 L817 1103 L1059 1103 L1059 0 L817 0 L817 143 Q717 63 677 40 Q574 -19 460 -19 Q273 -19 204 123 Q153 229 153 465 L153 1103 Z M611 1375 L767 1566 L994 1566 L686 1225 L536 1225 L228 1566 L455 1566 L611 1375 Z " />
<glyph glyph-name="uni01DD" unicode="&#x1dd;" horiz-adv-x="1262" d="M96 647 L914 647 Q893 752 856 806 Q773 925 616 925 Q496 925 379 876 Q324 853 243 802 L127 981 Q217 1039 283 1067 Q438 1135 616 1135 Q870 1135 1017 976 Q1169 813 1169 551 Q1169 288 1017 127 Q869 -32 630 -32 Q393 -32 244 127 Q92 288 92 544 Q92 581 96 647 Z M345 481 Q365 360 402 305 Q487 178 630 178 Q796 178 875 331 Q902 381 917 481 L345 481 Z " />
<glyph glyph-name="Gcaron" unicode="&#x1e6;" horiz-adv-x="1523" d="M850 558 L850 756 L1382 756 L1382 62 Q1121 -29 802 -29 Q575 -29 442 39 Q259 133 168 349 Q102 506 102 725 Q102 1084 287 1298 Q465 1504 790 1504 Q1132 1504 1277 1303 Q1340 1216 1352 1110 Q1356 1081 1356 1026 L1111 1026 Q1105 1130 1051 1191 Q965 1287 790 1287 Q575 1287 467 1132 Q359 978 359 729 Q359 478 476 327 Q537 250 623 217 Q700 188 816 188 Q976 188 1140 242 L1140 558 L850 558 Z M779 1753 L935 1945 L1162 1945 L854 1603 L704 1603 L396 1945 L623 1945 L779 1753 Z " />
<glyph glyph-name="gcaron" unicode="&#x1e7;" horiz-adv-x="1277" d="M876 126 Q759 -11 567 -11 Q352 -11 224 142 Q93 298 93 553 Q93 807 219 969 Q348 1135 571 1135 Q770 1135 898 975 L898 1103 L1119 1103 L1119 174 Q1119 -20 1094 -125 Q1015 -468 609 -468 Q337 -468 135 -334 L242 -149 Q312 -195 364 -219 Q474 -268 599 -268 Q726 -268 787 -212 Q849 -156 866 -50 Q876 7 876 103 L876 126 Z M602 925 Q481 925 409 821 Q340 720 340 554 Q340 392 409 297 Q480 199 602 199 Q731 199 806 304 Q876 400 876 549 Q876 713 806 813 Q729 925 602 925 Z M626 1375 L782 1566 L1009 1566 L701 1225 L551 1225 L243 1566 L470 1566 L626 1375 Z " />
<glyph glyph-name="uni01F4" unicode="&#x1f4;" horiz-adv-x="1523" d="M850 558 L850 756 L1382 756 L1382 62 Q1121 -29 802 -29 Q575 -29 442 39 Q259 133 168 349 Q102 506 102 725 Q102 1084 287 1298 Q465 1504 790 1504 Q1132 1504 1277 1303 Q1340 1216 1352 1110 Q1356 1081 1356 1026 L1111 1026 Q1105 1130 1051 1191 Q965 1287 790 1287 Q575 1287 467 1132 Q359 978 359 729 Q359 478 476 327 Q537 250 623 217 Q700 188 816 188 Q976 188 1140 242 L1140 558 L850 558 Z M640 1603 L836 1945 L1088 1945 L804 1603 L640 1603 Z " />
<glyph glyph-name="uni01F5" unicode="&#x1f5;" horiz-adv-x="1277" d="M876 126 Q759 -11 567 -11 Q352 -11 224 142 Q93 298 93 553 Q93 807 219 969 Q348 1135 571 1135 Q770 1135 898 975 L898 1103 L1119 1103 L1119 174 Q1119 -20 1094 -125 Q1015 -468 609 -468 Q337 -468 135 -334 L242 -149 Q312 -195 364 -219 Q474 -268 599 -268 Q726 -268 787 -212 Q849 -156 866 -50 Q876 7 876 103 L876 126 Z M602 925 Q481 925 409 821 Q340 720 340 554 Q340 392 409 297 Q480 199 602 199 Q731 199 806 304 Q876 400 876 549 Q876 713 806 813 Q729 925 602 925 Z M500 1225 L696 1566 L948 1566 L664 1225 L500 1225 Z " />
<glyph glyph-name="Scommaaccent" unicode="&#x218;" horiz-adv-x="1265" d="M82 449 L327 449 Q333 336 384 276 Q461 185 636 185 Q778 185 854 247 Q931 309 931 409 Q931 515 837 572 Q781 606 710 628 Q649 647 552 674 Q395 719 329 750 Q208 807 161 898 Q121 976 121 1084 Q121 1259 226 1372 Q299 1450 393 1478 Q481 1504 591 1504 Q1096 1504 1097 1041 L852 1041 Q846 1147 805 1203 Q740 1290 593 1290 Q491 1290 431 1243 Q368 1193 368 1109 Q368 1013 448 966 Q513 928 699 881 Q886 833 963 792 Q1179 675 1179 426 Q1179 220 1049 102 Q905 -29 635 -29 Q291 -29 157 164 Q86 267 82 449 Z M390 -490 L531 -149 L779 -149 L553 -490 L390 -490 Z " />
<glyph glyph-name="scommaaccent" unicode="&#x219;" horiz-adv-x="1077" d="M63 354 L285 354 Q293 274 329 234 Q394 162 543 162 Q771 162 771 307 Q771 381 708 411 Q673 428 626 437 L507 460 Q324 495 229 552 Q106 625 106 791 Q106 958 228 1054 Q332 1135 514 1135 Q784 1135 890 974 Q943 892 944 777 L722 777 Q715 845 686 880 Q633 941 512 941 Q344 941 344 813 Q344 747 400 719 Q443 698 595 666 Q730 638 789 615 Q913 567 961 484 Q1002 414 1002 320 Q1002 158 886 64 Q767 -32 542 -32 Q67 -32 63 354 Z M302 -490 L443 -149 L691 -149 L465 -490 L302 -490 Z " />
<glyph glyph-name="uni021A" unicode="&#x21a;" horiz-adv-x="1135" d="M441 0 L441 1265 L41 1265 L41 1475 L1094 1475 L1094 1265 L694 1265 L694 0 L441 0 Z M300 -490 L441 -149 L689 -149 L463 -490 L300 -490 Z " />
<glyph glyph-name="uni021B" unicode="&#x21b;" horiz-adv-x="814" d="M221 893 L65 893 L65 1103 L225 1103 L241 1419 L464 1419 L464 1103 L748 1103 L748 893 L464 893 L464 410 Q464 295 490 252 Q516 210 588 210 L776 210 L776 0 L585 0 Q418 0 329 71 Q221 158 221 362 L221 893 Z M193 -490 L334 -149 L582 -149 L356 -490 L193 -490 Z " />
<glyph glyph-name="uni0226" unicode="&#x226;" horiz-adv-x="1382" d="M987 379 L395 379 L258 0 L1 0 L580 1475 L803 1475 L1381 0 L1125 0 L987 379 Z M915 583 L691 1200 L467 583 L915 583 Z M693 1889 Q757 1889 801 1842 Q839 1802 839 1747 Q839 1683 790 1641 Q747 1605 691 1605 Q625 1605 580 1652 Q542 1692 542 1748 Q542 1810 591 1853 Q633 1889 693 1889 Z " />
<glyph glyph-name="uni0227" unicode="&#x227;" horiz-adv-x="1266" d="M886 0 L886 128 Q755 -32 560 -32 Q347 -32 222 126 Q93 290 93 552 Q93 815 222 977 Q349 1135 559 1135 Q746 1135 864 995 L864 1103 L1108 1103 L1108 0 L886 0 Z M596 925 Q478 925 408 821 Q340 720 340 552 Q340 383 408 282 Q477 178 596 178 Q722 178 796 289 Q864 392 864 547 Q864 713 796 813 Q720 925 596 925 Z M650 1522 Q714 1522 758 1475 Q796 1435 796 1380 Q796 1316 747 1274 Q704 1238 648 1238 Q582 1238 537 1285 Q499 1325 499 1381 Q499 1443 548 1486 Q590 1522 650 1522 Z " />
<glyph glyph-name="uni0237" unicode="&#x237;" horiz-adv-x="585" d="M179 1103 L422 1103 L422 51 Q422 -132 393 -217 Q339 -375 166 -419 Q112 -433 10 -438 L10 -229 Q66 -224 91 -214 Q145 -193 165 -124 Q179 -74 179 25 L179 1103 Z " />
<glyph glyph-name="uni0259" unicode="&#x259;" horiz-adv-x="1262" d="M96 647 L914 647 Q893 752 856 806 Q773 925 616 925 Q496 925 379 876 Q324 853 243 802 L127 981 Q217 1039 283 1067 Q438 1135 616 1135 Q870 1135 1017 976 Q1169 813 1169 551 Q1169 288 1017 127 Q869 -32 630 -32 Q393 -32 244 127 Q92 288 92 544 Q92 581 96 647 Z M345 481 Q365 360 402 305 Q487 178 630 178 Q796 178 875 331 Q902 381 917 481 L345 481 Z " />
<glyph glyph-name="uni02C9" unicode="&#x2c9;" horiz-adv-x="1024" d="M229 1303 L229 1472 L794 1472 L794 1303 L229 1303 Z " />
<glyph glyph-name="uni0312" unicode="&#x312;" horiz-adv-x="1024" d="M791 1566 L595 1225 L343 1225 L627 1566 L791 1566 Z " />
<glyph glyph-name="uni0313" unicode="&#x313;" horiz-adv-x="305" d="M-41 1043 L83 1546 L346 1546 L141 1043 L-41 1043 Z " />
<glyph glyph-name="uni031B" unicode="&#x31b;" horiz-adv-x="305" d="M-41 1043 L83 1546 L346 1546 L141 1043 L-41 1043 Z " />
<glyph glyph-name="commaaccent" unicode="&#x326;" horiz-adv-x="1024" d="M298 -490 L439 -149 L687 -149 L461 -490 L298 -490 Z " />
<glyph glyph-name="uni037E" unicode="&#x37e;" horiz-adv-x="649" d="M130 -289 L293 282 L583 282 L332 -289 L130 -289 Z M437 960 Q507 960 555 908 Q597 863 597 801 Q597 730 543 683 Q497 642 434 642 Q362 642 313 694 Q271 739 271 802 Q271 872 325 919 Q371 960 437 960 Z " />
<glyph glyph-name="uni0387" unicode="&#x387;" horiz-adv-x="643" d="M325 774 Q394 774 443 722 Q485 677 485 615 Q485 544 431 497 Q384 456 322 456 Q250 456 201 508 Q159 553 159 616 Q159 686 213 733 Q259 774 325 774 Z " />
<glyph glyph-name="uni0400" unicode="&#x400;" horiz-adv-x="1227" d="M169 0 L169 1475 L1133 1475 L1133 1265 L422 1265 L422 875 L1001 875 L1001 665 L422 665 L422 210 L1150 210 L1150 0 L169 0 Z M663 1603 L379 1945 L631 1945 L827 1603 L663 1603 Z " />
<glyph glyph-name="afii10023" unicode="&#x401;" horiz-adv-x="1227" d="M169 0 L169 1475 L1133 1475 L1133 1265 L422 1265 L422 875 L1001 875 L1001 665 L422 665 L422 210 L1150 210 L1150 0 L169 0 Z M446 1879 Q506 1879 548 1835 Q583 1798 583 1747 Q583 1687 537 1648 Q498 1614 444 1614 Q382 1614 341 1658 Q305 1696 305 1748 Q305 1805 351 1845 Q390 1879 446 1879 Z M861 1879 Q920 1879 961 1835 Q997 1798 997 1747 Q997 1687 951 1648 Q911 1614 858 1614 Q796 1614 755 1658 Q719 1696 719 1748 Q719 1805 765 1845 Q804 1879 861 1879 Z " />
<glyph glyph-name="afii10051" unicode="&#x402;" horiz-adv-x="1541" d="M416 0 L416 1265 L30 1265 L30 1475 L1157 1475 L1157 1265 L669 1265 L669 866 Q752 923 795 945 Q905 1001 1030 1001 Q1230 1001 1308 869 Q1365 773 1365 553 L1365 -11 Q1365 -172 1337 -248 Q1284 -390 1113 -427 Q1063 -438 961 -443 L961 -233 Q1049 -228 1081 -197 Q1122 -157 1122 -37 L1122 565 Q1122 662 1102 709 Q1070 783 963 783 Q876 783 776 719 Q742 697 669 638 L669 0 L416 0 Z " />
<glyph glyph-name="afii10052" unicode="&#x403;" horiz-adv-x="1132" d="M169 0 L169 1475 L1083 1475 L1083 1265 L422 1265 L422 0 L169 0 Z M534 1603 L730 1945 L982 1945 L698 1603 L534 1603 Z " />
<glyph glyph-name="afii10053" unicode="&#x404;" horiz-adv-x="1391" d="M935 674 L361 674 Q369 494 416 384 Q465 269 548 221 Q618 180 722 180 Q1039 180 1055 449 L1299 449 Q1297 357 1283 300 Q1236 116 1049 32 Q911 -29 724 -29 Q359 -29 211 237 Q102 434 102 736 Q102 1038 219 1237 Q375 1504 737 1504 Q1059 1504 1193 1321 Q1269 1218 1270 1058 L1025 1058 Q1010 1294 739 1294 Q579 1294 495 1211 Q390 1107 366 873 L935 873 L935 674 Z " />
<glyph glyph-name="afii10054" unicode="&#x405;" horiz-adv-x="1265" d="M82 449 L327 449 Q333 336 384 276 Q461 185 636 185 Q778 185 854 247 Q931 309 931 409 Q931 515 837 572 Q781 606 710 628 Q649 647 552 674 Q395 719 329 750 Q208 807 161 898 Q121 976 121 1084 Q121 1259 226 1372 Q299 1450 393 1478 Q481 1504 591 1504 Q1096 1504 1097 1041 L852 1041 Q846 1147 805 1203 Q740 1290 593 1290 Q491 1290 431 1243 Q368 1193 368 1109 Q368 1013 448 966 Q513 928 699 881 Q886 833 963 792 Q1179 675 1179 426 Q1179 220 1049 102 Q905 -29 635 -29 Q291 -29 157 164 Q86 267 82 449 Z " />
<glyph glyph-name="afii10055" unicode="&#x406;" horiz-adv-x="591" d="M169 0 L169 1475 L422 1475 L422 0 L169 0 Z " />
<glyph glyph-name="afii10056" unicode="&#x407;" horiz-adv-x="596" d="M171 0 L171 1475 L424 1475 L424 0 L171 0 Z M92 1879 Q152 1879 193 1835 Q229 1798 229 1747 Q229 1687 183 1648 Q143 1614 90 1614 Q28 1614 -14 1658 Q-50 1696 -50 1748 Q-50 1805 -4 1845 Q35 1879 92 1879 Z M509 1879 Q569 1879 610 1835 Q646 1798 646 1747 Q646 1687 600 1648 Q560 1614 507 1614 Q445 1614 403 1658 Q367 1696 367 1748 Q367 1805 413 1845 Q452 1879 509 1879 Z " />
<glyph glyph-name="afii10057" unicode="&#x408;" horiz-adv-x="629" d="M208 1475 L461 1475 L461 177 Q461 -16 431 -107 Q373 -279 190 -323 Q130 -337 16 -341 L16 -131 Q77 -128 107 -118 Q169 -98 191 -24 Q208 33 208 140 L208 1475 Z " />
<glyph glyph-name="afii10058" unicode="&#x409;" horiz-adv-x="2147" d="M1014 0 L1014 1265 L604 1265 Q597 1193 583 1040 Q555 723 487 446 Q414 149 284 60 Q196 0 12 0 L-18 0 L-18 210 L8 210 Q91 210 132 255 Q240 373 302 775 Q339 1017 354 1254 Q357 1300 366 1475 L1267 1475 L1267 894 L1530 894 Q1761 894 1891 808 Q2068 693 2068 447 Q2068 201 1891 86 Q1761 0 1530 0 L1014 0 Z M1267 210 L1475 210 Q1640 210 1713 256 Q1811 317 1811 452 Q1811 598 1697 656 Q1625 693 1475 693 L1267 693 L1267 210 Z " />
<glyph glyph-name="afii10059" unicode="&#x40a;" horiz-adv-x="2140" d="M169 0 L169 1475 L422 1475 L422 879 L1009 879 L1009 1475 L1253 1475 L1253 882 L1521 882 Q1753 882 1883 798 Q2060 684 2060 441 Q2060 198 1883 84 Q1753 0 1521 0 L1009 0 L1009 669 L422 669 L422 0 L169 0 Z M1253 210 L1466 210 Q1632 210 1705 255 Q1803 314 1803 445 Q1803 588 1689 645 Q1617 681 1466 681 L1253 681 L1253 210 Z " />
<glyph glyph-name="afii10060" unicode="&#x40b;" horiz-adv-x="1570" d="M416 0 L416 1265 L30 1265 L30 1475 L1157 1475 L1157 1265 L669 1265 L669 866 Q752 923 795 945 Q905 1001 1030 1001 Q1230 1001 1308 869 Q1365 773 1365 553 L1365 0 L1122 0 L1122 565 Q1122 662 1102 709 Q1070 783 963 783 Q876 783 776 719 Q743 698 669 638 L669 0 L416 0 Z " />
<glyph glyph-name="afii10061" unicode="&#x40c;" horiz-adv-x="1330" d="M169 0 L169 1475 L422 1475 L422 866 L625 866 L1024 1475 L1292 1475 L836 787 Q897 744 932 695 Q967 647 1020 543 L1293 0 L986 0 L809 407 Q743 557 689 610 Q630 667 524 667 L422 667 L422 0 L169 0 Z M585 1603 L781 1945 L1033 1945 L749 1603 L585 1603 Z " />
<glyph glyph-name="uni040D" unicode="&#x40d;" horiz-adv-x="1456" d="M169 0 L169 1475 L422 1475 L422 492 L1034 1313 L1034 1475 L1287 1475 L1287 0 L1034 0 L1034 982 L422 162 L422 0 L169 0 Z M706 1603 L422 1945 L674 1945 L870 1603 L706 1603 Z " />
<glyph glyph-name="afii10062" unicode="&#x40e;" horiz-adv-x="1190" d="M483 464 L-12 1475 L261 1475 L607 732 L950 1475 L1214 1475 L533 0 L269 0 L483 464 Z M288 1927 L428 1927 Q434 1859 459 1831 Q501 1784 593 1784 Q694 1784 734 1839 Q752 1865 758 1927 L898 1927 Q886 1791 842 1723 Q772 1617 591 1617 Q399 1617 332 1744 Q297 1810 288 1927 Z " />
<glyph glyph-name="afii10145" unicode="&#x40f;" horiz-adv-x="1412" d="M169 0 L169 1475 L422 1475 L422 210 L990 210 L990 1475 L1243 1475 L1243 0 L833 0 L800 -360 L612 -360 L579 0 L169 0 Z " />
<glyph glyph-name="afii10017" unicode="&#x410;" horiz-adv-x="1382" d="M987 379 L395 379 L258 0 L1 0 L580 1475 L803 1475 L1381 0 L1125 0 L987 379 Z M915 583 L691 1200 L467 583 L915 583 Z " />
<glyph glyph-name="afii10018" unicode="&#x411;" horiz-adv-x="1310" d="M169 0 L169 1475 L1112 1475 L1112 1265 L413 1265 L413 894 L675 894 Q906 894 1037 808 Q1214 693 1214 447 Q1214 201 1037 86 Q906 0 675 0 L169 0 Z M413 210 L620 210 Q785 210 859 256 Q957 317 957 452 Q957 598 843 656 Q771 693 620 693 L413 693 L413 210 Z " />
<glyph glyph-name="afii10019" unicode="&#x412;" horiz-adv-x="1367" d="M169 0 L169 1475 L712 1475 Q1200 1475 1200 1107 Q1200 894 1013 796 Q1121 763 1185 688 Q1271 589 1271 437 Q1271 199 1080 85 Q937 0 691 0 L169 0 Z M413 887 L674 887 Q809 887 873 926 Q952 974 952 1075 Q952 1184 864 1234 Q801 1270 695 1270 L413 1270 L413 887 Z M413 205 L637 205 Q821 205 904 251 Q1014 312 1014 446 Q1014 581 903 643 Q824 686 691 686 L413 686 L413 205 Z " />
<glyph glyph-name="afii10020" unicode="&#x413;" horiz-adv-x="1132" d="M169 0 L169 1475 L1083 1475 L1083 1265 L422 1265 L422 0 L169 0 Z " />
<glyph glyph-name="afii10021" unicode="&#x414;" horiz-adv-x="1431" d="M1160 0 L207 0 L163 -360 L-29 -360 L-33 210 L92 210 Q223 427 286 767 Q331 1013 354 1475 L1256 1475 L1256 210 L1396 210 L1396 -360 L1204 -360 L1160 0 Z M1003 210 L1003 1265 L593 1265 Q558 884 528 724 Q476 444 361 210 L1003 210 Z " />
<glyph glyph-name="afii10022" unicode="&#x415;" horiz-adv-x="1227" d="M169 0 L169 1475 L1133 1475 L1133 1265 L422 1265 L422 875 L1001 875 L1001 665 L422 665 L422 210 L1150 210 L1150 0 L169 0 Z " />
<glyph glyph-name="afii10024" unicode="&#x416;" horiz-adv-x="1944" d="M847 0 L847 667 L796 667 Q681 667 619 596 Q571 543 512 407 L334 0 L28 0 L301 543 Q359 658 398 708 Q429 749 485 787 L28 1475 L297 1475 L695 866 L847 866 L847 1475 L1086 1475 L1086 866 L1238 866 L1636 1475 L1905 1475 L1448 787 Q1509 746 1545 695 Q1580 645 1632 543 L1905 0 L1599 0 L1421 407 Q1356 557 1301 610 Q1243 667 1137 667 L1086 667 L1086 0 L847 0 Z " />
<glyph glyph-name="afii10025" unicode="&#x417;" horiz-adv-x="1329" d="M416 672 L416 871 L592 871 Q751 871 828 917 Q922 974 922 1097 Q922 1197 851 1245 Q779 1294 655 1294 Q473 1294 406 1195 Q371 1143 365 1058 L120 1058 Q121 1142 135 1193 Q217 1504 669 1504 Q914 1504 1047 1407 Q1177 1312 1177 1120 Q1177 987 1116 899 Q1084 852 1016 807 Q1233 718 1233 439 Q1233 194 1072 73 Q936 -29 689 -29 Q306 -29 169 162 Q95 266 91 449 L336 449 Q342 334 398 272 Q480 180 668 180 Q823 180 902 247 Q978 313 978 434 Q978 579 869 634 Q794 672 629 672 L416 672 Z " />
<glyph glyph-name="afii10026" unicode="&#x418;" horiz-adv-x="1456" d="M169 0 L169 1475 L422 1475 L422 492 L1034 1313 L1034 1475 L1287 1475 L1287 0 L1034 0 L1034 982 L422 162 L422 0 L169 0 Z " />
<glyph glyph-name="afii10027" unicode="&#x419;" horiz-adv-x="1456" d="M169 0 L169 1475 L422 1475 L422 492 L1034 1313 L1034 1475 L1287 1475 L1287 0 L1034 0 L1034 982 L422 162 L422 0 L169 0 Z M412 1927 L552 1927 Q558 1859 583 1831 Q625 1784 717 1784 Q818 1784 858 1839 Q876 1865 882 1927 L1022 1927 Q1010 1791 966 1723 Q896 1617 715 1617 Q523 1617 456 1744 Q421 1810 412 1927 Z " />
<glyph glyph-name="afii10028" unicode="&#x41a;" horiz-adv-x="1330" d="M169 0 L169 1475 L422 1475 L422 866 L625 866 L1024 1475 L1292 1475 L836 787 Q897 744 932 695 Q967 647 1020 543 L1293 0 L986 0 L809 407 Q743 557 689 610 Q630 667 524 667 L422 667 L422 0 L169 0 Z " />
<glyph glyph-name="afii10029" unicode="&#x41b;" horiz-adv-x="1454" d="M1013 0 L1013 1265 L603 1265 Q596 1193 582 1040 Q554 723 486 446 Q414 149 284 60 Q196 0 12 0 L-18 0 L-18 210 L8 210 Q91 210 132 255 Q240 373 301 775 Q338 1017 354 1254 Q357 1300 366 1475 L1266 1475 L1266 0 L1013 0 Z " />
<glyph glyph-name="afii10030" unicode="&#x41c;" horiz-adv-x="1754" d="M106 0 L237 1475 L482 1475 L877 424 L1272 1475 L1518 1475 L1648 0 L1405 0 L1323 1012 L946 0 L808 0 L431 1012 L349 0 L106 0 Z " />
<glyph glyph-name="afii10031" unicode="&#x41d;" horiz-adv-x="1457" d="M169 0 L169 1475 L422 1475 L422 879 L1035 879 L1035 1475 L1288 1475 L1288 0 L1035 0 L1035 669 L422 669 L422 0 L169 0 Z " />
<glyph glyph-name="afii10032" unicode="&#x41e;" horiz-adv-x="1571" d="M779 1504 Q1165 1504 1342 1238 Q1470 1044 1470 738 Q1470 432 1342 238 Q1166 -29 788 -29 Q406 -29 230 238 Q102 432 102 747 Q102 1044 230 1238 Q407 1504 779 1504 Z M786 1284 Q571 1284 469 1149 Q359 1005 359 746 Q359 472 469 326 Q570 191 791 191 Q1002 191 1103 326 Q1213 472 1213 738 Q1213 1284 786 1284 Z " />
<glyph glyph-name="afii10033" unicode="&#x41f;" horiz-adv-x="1445" d="M169 0 L169 1475 L1275 1475 L1275 0 L1023 0 L1023 1265 L422 1265 L422 0 L169 0 Z " />
<glyph glyph-name="afii10034" unicode="&#x420;" horiz-adv-x="1300" d="M169 0 L169 1475 L617 1475 Q792 1475 894 1452 Q1059 1414 1150 1284 Q1230 1169 1230 1006 Q1230 545 619 545 L422 545 L422 0 L169 0 Z M422 749 L608 749 Q973 749 973 1011 Q973 1265 619 1265 L422 1265 L422 749 Z " />
<glyph glyph-name="afii10035" unicode="&#x421;" horiz-adv-x="1410" d="M1172 384 L1324 210 Q1230 101 1126 48 Q973 -29 770 -29 Q431 -29 261 187 Q102 387 102 726 Q102 1089 276 1300 Q444 1504 759 1504 Q1081 1504 1221 1303 Q1295 1195 1297 1026 L1052 1026 Q1046 1130 996 1191 Q918 1287 760 1287 Q560 1287 458 1132 Q359 982 359 729 Q359 481 472 330 Q576 191 777 191 Q928 191 1047 269 Q1096 301 1172 384 Z " />
<glyph glyph-name="afii10036" unicode="&#x422;" horiz-adv-x="1135" d="M441 0 L441 1265 L41 1265 L41 1475 L1094 1475 L1094 1265 L694 1265 L694 0 L441 0 Z " />
<glyph glyph-name="afii10037" unicode="&#x423;" horiz-adv-x="1190" d="M483 464 L-12 1475 L261 1475 L607 732 L950 1475 L1214 1475 L533 0 L269 0 L483 464 Z " />
<glyph glyph-name="afii10038" unicode="&#x424;" horiz-adv-x="1843" d="M803 -41 L803 167 Q542 185 392 259 Q93 405 93 738 Q93 1098 439 1238 Q571 1291 803 1309 L803 1516 L1032 1516 L1032 1309 Q1298 1291 1452 1216 Q1751 1071 1751 738 Q1751 377 1405 238 Q1271 184 1032 167 L1032 -41 L803 -41 Z M803 366 L803 1109 Q350 1085 350 738 Q350 394 803 366 Z M1032 365 Q1217 376 1316 428 Q1494 522 1494 738 Q1494 971 1286 1061 Q1192 1101 1032 1110 L1032 365 Z " />
<glyph glyph-name="afii10039" unicode="&#x425;" horiz-adv-x="1266" d="M485 760 L43 1475 L335 1475 L658 957 L936 1475 L1218 1475 L778 759 L1248 0 L956 0 L604 564 L290 0 L7 0 L485 760 Z " />
<glyph glyph-name="afii10040" unicode="&#x426;" horiz-adv-x="1437" d="M169 0 L169 1475 L422 1475 L422 210 L1005 210 L1005 1475 L1258 1475 L1258 210 L1398 210 L1398 -360 L1207 -360 L1162 0 L169 0 Z " />
<glyph glyph-name="afii10041" unicode="&#x427;" horiz-adv-x="1368" d="M947 0 L947 578 Q920 564 907 556 Q813 502 756 483 Q656 451 538 451 Q276 451 186 611 Q130 710 130 911 L130 1475 L383 1475 L383 948 Q383 801 417 747 Q466 668 613 668 Q739 668 849 736 Q894 764 947 806 L947 1475 L1200 1475 L1200 0 L947 0 Z " />
<glyph glyph-name="afii10042" unicode="&#x428;" horiz-adv-x="2023" d="M169 0 L169 1475 L422 1475 L422 210 L885 210 L885 1475 L1138 1475 L1138 210 L1601 210 L1601 1475 L1854 1475 L1854 0 L169 0 Z " />
<glyph glyph-name="afii10043" unicode="&#x429;" horiz-adv-x="2029" d="M169 0 L169 1475 L422 1475 L422 210 L885 210 L885 1475 L1138 1475 L1138 210 L1601 210 L1601 1475 L1854 1475 L1854 210 L1993 210 L1993 -360 L1803 -360 L1758 0 L169 0 Z " />
<glyph glyph-name="afii10044" unicode="&#x42a;" horiz-adv-x="1602" d="M478 0 L478 1265 L14 1265 L14 1475 L722 1475 L722 894 L985 894 Q1216 894 1346 808 Q1523 693 1523 447 Q1523 201 1346 86 Q1216 0 985 0 L478 0 Z M722 210 L930 210 Q1095 210 1169 256 Q1266 317 1266 452 Q1266 597 1152 656 Q1081 693 930 693 L722 693 L722 210 Z " />
<glyph glyph-name="afii10045" unicode="&#x42b;" horiz-adv-x="1816" d="M169 0 L169 1475 L413 1475 L413 894 L676 894 Q906 894 1037 808 Q1214 693 1214 447 Q1214 201 1037 86 Q906 0 676 0 L169 0 Z M413 210 L620 210 Q785 210 859 256 Q957 317 957 452 Q957 598 843 656 Q771 693 620 693 L413 693 L413 210 Z M1394 0 L1394 1475 L1647 1475 L1647 0 L1394 0 Z " />
<glyph glyph-name="afii10046" unicode="&#x42c;" horiz-adv-x="1294" d="M169 0 L169 1475 L413 1475 L413 894 L676 894 Q906 894 1037 808 Q1214 693 1214 447 Q1214 201 1037 86 Q906 0 676 0 L169 0 Z M413 210 L620 210 Q785 210 859 256 Q957 317 957 452 Q957 598 843 656 Q771 693 620 693 L413 693 L413 210 Z " />
<glyph glyph-name="afii10047" unicode="&#x42d;" horiz-adv-x="1391" d="M455 674 L455 873 L1024 873 Q1010 1013 970 1102 Q922 1207 844 1253 Q773 1294 657 1294 Q381 1294 365 1058 L120 1058 Q121 1142 135 1194 Q184 1367 357 1447 Q481 1504 659 1504 Q1018 1504 1173 1237 Q1288 1039 1288 739 Q1288 436 1170 237 Q1013 -29 658 -29 Q474 -29 338 32 Q154 116 107 300 Q92 357 91 449 L335 449 Q351 180 662 180 Q809 180 894 263 Q1016 381 1029 674 L455 674 Z " />
<glyph glyph-name="afii10048" unicode="&#x42e;" horiz-adv-x="2201" d="M169 0 L169 1475 L422 1475 L422 879 L732 879 Q755 1056 815 1174 Q984 1504 1412 1504 Q1792 1504 1970 1238 Q2099 1043 2099 738 Q2099 432 1970 238 Q1793 -29 1411 -29 Q1116 -29 944 131 Q784 280 741 532 Q731 590 726 669 L422 669 L422 0 L169 0 Z M1411 1284 Q1195 1284 1091 1149 Q980 1005 980 746 Q980 471 1091 326 Q1194 191 1415 191 Q1628 191 1731 326 Q1842 471 1842 738 Q1842 1284 1411 1284 Z " />
<glyph glyph-name="afii10049" unicode="&#x42f;" horiz-adv-x="1306" d="M884 597 L770 597 Q650 597 588 570 Q529 544 487 450 Q466 404 460 379 L438 288 L365 0 L86 0 L224 456 Q255 561 290 611 Q319 654 375 684 Q270 726 220 779 Q130 875 130 1037 Q130 1299 303 1403 Q392 1455 538 1469 Q606 1475 693 1475 L1137 1475 L1137 0 L884 0 L884 597 Z M884 801 L884 1265 L694 1265 Q528 1265 464 1216 Q387 1158 387 1039 Q387 894 493 838 Q562 801 719 801 L884 801 Z " />
<glyph glyph-name="afii10065" unicode="&#x430;" horiz-adv-x="1266" d="M886 0 L886 128 Q755 -32 560 -32 Q347 -32 222 126 Q93 290 93 552 Q93 815 222 977 Q349 1135 559 1135 Q746 1135 864 995 L864 1103 L1108 1103 L1108 0 L886 0 Z M596 925 Q478 925 408 821 Q340 720 340 552 Q340 383 408 282 Q477 178 596 178 Q722 178 796 289 Q864 392 864 547 Q864 713 796 813 Q720 925 596 925 Z " />
<glyph glyph-name="afii10066" unicode="&#x431;" horiz-adv-x="1257" d="M367 989 Q375 995 380 999 Q463 1063 512 1080 Q586 1106 677 1106 Q892 1106 1026 958 Q1164 803 1164 551 Q1164 288 1015 126 Q870 -32 635 -32 Q473 -32 351 42 Q200 133 138 330 Q100 449 100 610 Q100 899 148 1093 Q207 1334 387 1411 Q482 1451 691 1475 Q789 1486 812 1513 Q823 1527 823 1555 L823 1562 L1035 1562 L1035 1533 Q1035 1395 986 1342 Q950 1304 877 1287 Q848 1281 713 1268 Q554 1254 493 1225 Q423 1191 391 1096 Q382 1067 370 1004 L367 989 Z M640 896 Q501 896 420 793 Q349 703 349 553 Q349 390 420 289 Q499 178 640 178 Q774 178 849 289 Q917 389 917 549 Q917 704 849 794 Q771 896 640 896 Z " />
<glyph glyph-name="afii10067" unicode="&#x432;" horiz-adv-x="1236" d="M158 0 L158 1103 L693 1103 Q913 1103 1004 1046 Q1112 979 1112 825 Q1112 714 1048 646 Q1021 616 956 581 Q1045 548 1082 511 Q1148 445 1148 321 Q1148 130 1006 53 Q909 0 693 0 L158 0 Z M401 654 L605 654 Q745 654 793 675 Q865 706 865 793 Q865 868 809 894 Q765 915 646 915 L401 915 L401 654 Z M401 191 L629 191 Q768 191 827 217 Q898 249 898 335 Q898 430 814 461 Q758 482 591 482 L401 482 L401 191 Z " />
<glyph glyph-name="afii10068" unicode="&#x433;" horiz-adv-x="971" d="M158 0 L158 1103 L935 1103 L935 893 L401 893 L401 0 L158 0 Z " />
<glyph glyph-name="afii10069" unicode="&#x434;" horiz-adv-x="1250" d="M988 0 L204 0 L155 -364 L-23 -364 L-23 210 L83 210 Q194 412 248 629 Q301 842 324 1103 L1081 1103 L1081 210 L1215 210 L1215 -364 L1036 -364 L988 0 Z M838 210 L838 893 L539 893 Q516 715 473 553 Q428 381 341 210 L838 210 Z " />
<glyph glyph-name="afii10070" unicode="&#x435;" horiz-adv-x="1213" d="M1125 475 L341 475 Q346 449 348 436 Q362 360 378 327 Q452 178 630 178 Q759 178 876 236 Q917 257 989 305 L1096 121 Q1022 72 969 46 Q810 -32 629 -32 Q372 -32 229 128 Q93 280 93 538 Q93 818 239 979 Q380 1135 616 1135 Q827 1135 960 1003 Q1079 884 1110 677 Q1123 593 1125 475 Z M884 655 Q864 770 827 824 Q751 936 615 936 Q399 936 343 655 L884 655 Z " />
<glyph glyph-name="afii10072" unicode="&#x436;" horiz-adv-x="1789" d="M780 0 L780 476 L748 476 Q656 476 602 422 Q572 393 510 281 L347 0 L57 0 L355 447 Q399 516 420 538 Q442 563 472 586 L81 1103 L349 1103 L667 659 L780 659 L780 1103 L1009 1103 L1009 659 L1122 659 L1440 1103 L1708 1103 L1317 586 Q1346 564 1369 538 Q1391 515 1435 447 L1732 0 L1442 0 L1279 281 Q1212 402 1176 432 Q1126 476 1041 476 L1009 476 L1009 0 L780 0 Z " />
<glyph glyph-name="afii10073" unicode="&#x437;" horiz-adv-x="1108" d="M356 468 L356 647 L545 647 Q730 647 730 789 Q730 938 527 938 Q328 938 311 785 L88 785 Q93 925 167 1009 Q276 1135 550 1135 Q977 1135 977 824 Q977 731 935 670 Q907 629 848 595 Q920 566 953 532 Q1024 461 1024 321 Q1024 110 875 31 Q758 -32 556 -32 Q239 -32 134 118 Q77 198 78 323 L300 323 Q309 251 345 218 Q406 162 551 162 Q670 162 727 204 Q777 241 777 325 Q777 423 708 451 Q667 468 553 468 L356 468 Z " />
<glyph glyph-name="afii10074" unicode="&#x438;" horiz-adv-x="1266" d="M158 0 L158 1103 L394 1103 L394 418 L872 975 L872 1103 L1108 1103 L1108 0 L872 0 L872 685 L394 128 L394 0 L158 0 Z " />
<glyph glyph-name="afii10075" unicode="&#x439;" horiz-adv-x="1266" d="M158 0 L158 1103 L394 1103 L394 418 L872 975 L872 1103 L1108 1103 L1108 0 L872 0 L872 685 L394 128 L394 0 L158 0 Z M317 1585 L457 1585 Q463 1514 491 1483 Q535 1434 631 1434 Q737 1434 779 1491 Q800 1520 805 1585 L946 1585 Q934 1445 886 1373 Q814 1266 632 1266 Q433 1266 364 1394 Q326 1464 317 1585 Z " />
<glyph glyph-name="afii10076" unicode="&#x43a;" horiz-adv-x="1225" d="M158 0 L158 1103 L401 1103 L401 659 L558 659 L876 1103 L1144 1103 L753 586 Q785 561 808 535 Q828 512 871 447 L1168 0 L867 0 L704 281 Q636 403 601 432 Q550 476 466 476 L401 476 L401 0 L158 0 Z " />
<glyph glyph-name="afii10077" unicode="&#x43b;" horiz-adv-x="1258" d="M856 0 L856 893 L552 893 Q502 506 422 283 Q359 104 251 41 Q180 0 67 0 L10 0 L10 210 L38 210 Q96 210 124 232 Q212 303 274 630 Q319 866 337 1103 L1099 1103 L1099 0 L856 0 Z " />
<glyph glyph-name="afii10078" unicode="&#x43c;" horiz-adv-x="1522" d="M85 0 L210 1103 L446 1103 L762 378 L1077 1103 L1313 1103 L1438 0 L1201 0 L1125 724 L819 0 L704 0 L398 723 L322 0 L85 0 Z " />
<glyph glyph-name="afii10079" unicode="&#x43d;" horiz-adv-x="1266" d="M158 0 L158 1103 L401 1103 L401 671 L865 671 L865 1103 L1108 1103 L1108 0 L865 0 L865 467 L401 467 L401 0 L158 0 Z " />
<glyph glyph-name="afii10080" unicode="&#x43e;" horiz-adv-x="1268" d="M634 1135 Q874 1135 1024 976 Q1175 817 1175 551 Q1175 287 1024 127 Q875 -32 635 -32 Q393 -32 244 127 Q93 287 93 559 Q93 816 244 976 Q393 1135 634 1135 Z M634 925 Q492 925 411 814 Q340 716 340 557 Q340 387 411 289 Q491 178 634 178 Q777 178 857 289 Q928 388 928 551 Q928 717 857 814 Q776 925 634 925 Z " />
<glyph glyph-name="afii10081" unicode="&#x43f;" horiz-adv-x="1242" d="M158 0 L158 1103 L1084 1103 L1084 0 L841 0 L841 893 L401 893 L401 0 L158 0 Z " />
<glyph glyph-name="afii10082" unicode="&#x440;" horiz-adv-x="1277" d="M158 -439 L158 1103 L378 1103 L378 974 Q503 1135 710 1135 Q926 1135 1053 977 Q1184 815 1184 551 Q1184 288 1053 126 Q926 -32 711 -32 Q519 -32 401 108 L401 -439 L158 -439 Z M675 925 Q547 925 471 814 Q401 712 401 557 Q401 391 471 289 Q547 178 675 178 Q797 178 868 282 Q937 383 937 551 Q937 722 868 821 Q794 925 675 925 Z " />
<glyph glyph-name="afii10083" unicode="&#x441;" horiz-adv-x="1111" d="M937 316 L1057 146 Q999 89 950 57 Q810 -32 607 -32 Q367 -32 237 105 Q93 257 93 536 Q93 800 215 967 Q338 1136 591 1136 Q863 1136 972 952 Q1028 855 1029 721 L807 721 Q802 797 770 845 Q716 926 601 926 Q472 926 405 819 Q340 717 340 548 Q340 372 418 272 Q492 178 623 178 Q746 178 842 237 Q881 262 937 316 Z " />
<glyph glyph-name="afii10084" unicode="&#x442;" horiz-adv-x="1076" d="M416 0 L416 900 L41 900 L41 1103 L1035 1103 L1035 900 L659 900 L659 0 L416 0 Z " />
<glyph glyph-name="afii10085" unicode="&#x443;" horiz-adv-x="1064" d="M412 27 L14 1103 L274 1103 L531 312 L789 1103 L1049 1103 L644 14 Q572 -181 527 -254 Q442 -395 315 -423 Q253 -437 140 -438 L140 -229 Q240 -228 277 -205 Q333 -170 378 -57 L412 27 Z " />
<glyph glyph-name="afii10086" unicode="&#x444;" horiz-adv-x="1620" d="M706 -439 L706 88 Q670 45 639 22 Q568 -32 472 -32 Q285 -32 188 123 Q93 275 93 548 Q93 817 185 973 Q281 1136 473 1136 Q571 1136 644 1078 Q674 1054 706 1015 L706 1516 L915 1516 L915 1014 Q1009 1136 1149 1136 Q1340 1136 1435 973 Q1527 816 1527 548 Q1527 276 1432 123 Q1336 -32 1149 -32 Q1053 -32 983 21 Q951 45 915 88 L915 -439 L706 -439 Z M706 492 L706 606 Q706 752 665 834 Q609 944 517 944 Q416 944 370 836 Q324 728 324 552 Q324 376 370 268 Q416 160 517 160 Q618 160 673 287 Q706 365 706 492 Z M916 606 L916 492 Q916 354 957 271 Q1011 160 1104 160 Q1204 160 1250 268 Q1296 377 1296 552 Q1296 727 1250 836 Q1204 944 1104 944 Q1005 944 949 818 Q916 742 916 606 Z " />
<glyph glyph-name="afii10087" unicode="&#x445;" horiz-adv-x="1063" d="M387 581 L28 1103 L300 1103 L554 737 L775 1103 L1029 1103 L662 579 L1062 0 L789 0 L498 419 L254 0 L-1 0 L387 581 Z " />
<glyph glyph-name="afii10088" unicode="&#x446;" horiz-adv-x="1259" d="M158 0 L158 1103 L401 1103 L401 210 L847 210 L847 1103 L1090 1103 L1090 210 L1224 210 L1224 -364 L1045 -364 L997 0 L158 0 Z " />
<glyph glyph-name="afii10089" unicode="&#x447;" horiz-adv-x="1188" d="M787 0 L787 431 Q660 356 479 356 Q217 356 138 526 Q100 609 100 816 L100 1103 L343 1103 L343 772 Q343 666 380 621 Q425 566 544 566 Q685 566 787 647 L787 1103 L1030 1103 L1030 0 L787 0 Z " />
<glyph glyph-name="afii10090" unicode="&#x448;" horiz-adv-x="1821" d="M158 0 L158 1103 L401 1103 L401 210 L789 210 L789 1103 L1032 1103 L1032 210 L1419 210 L1419 1103 L1662 1103 L1662 0 L158 0 Z " />
<glyph glyph-name="afii10091" unicode="&#x449;" horiz-adv-x="1842" d="M158 0 L158 1103 L401 1103 L401 210 L789 210 L789 1103 L1032 1103 L1032 210 L1419 210 L1419 1103 L1662 1103 L1662 210 L1807 210 L1807 -364 L1628 -364 L1580 0 L158 0 Z " />
<glyph glyph-name="afii10092" unicode="&#x44a;" horiz-adv-x="1389" d="M371 0 L371 893 L14 893 L14 1103 L614 1103 L614 716 L872 716 Q1115 716 1212 644 Q1333 554 1333 359 Q1333 144 1190 59 Q1092 0 872 0 L371 0 Z M614 194 L850 194 Q972 194 1025 224 Q1086 258 1086 362 Q1086 474 1015 507 Q962 531 850 531 L614 531 L614 194 Z " />
<glyph glyph-name="afii10093" unicode="&#x44b;" horiz-adv-x="1708" d="M158 0 L158 1103 L401 1103 L401 716 L659 716 Q901 716 999 644 Q1120 555 1120 359 Q1120 144 977 59 Q879 0 659 0 L158 0 Z M401 194 L638 194 Q759 194 812 224 Q873 258 873 362 Q873 474 802 507 Q749 531 638 531 L401 531 L401 194 Z M1307 0 L1307 1103 L1550 1103 L1550 0 L1307 0 Z " />
<glyph glyph-name="afii10094" unicode="&#x44c;" horiz-adv-x="1176" d="M158 0 L158 1103 L401 1103 L401 716 L659 716 Q901 716 999 644 Q1120 555 1120 359 Q1120 144 977 59 Q879 0 659 0 L158 0 Z M401 194 L638 194 Q759 194 812 224 Q873 258 873 362 Q873 474 802 507 Q749 531 638 531 L401 531 L401 194 Z " />
<glyph glyph-name="afii10095" unicode="&#x44d;" horiz-adv-x="1120" d="M351 468 L351 647 L775 647 Q757 751 733 800 Q665 938 516 938 Q394 938 343 870 Q315 831 309 785 L87 785 Q94 924 170 1011 Q278 1136 519 1136 Q755 1136 886 983 Q1027 818 1027 548 Q1027 276 885 112 Q760 -32 525 -32 Q80 -32 76 323 L298 323 Q307 252 345 218 Q405 165 524 165 Q671 165 737 304 Q757 347 775 468 L351 468 Z " />
<glyph glyph-name="afii10096" unicode="&#x44e;" horiz-adv-x="1829" d="M158 0 L158 1103 L401 1103 L401 663 L662 663 Q686 813 759 919 Q831 1025 948 1082 Q1058 1135 1195 1135 Q1436 1135 1585 976 Q1736 816 1736 551 Q1736 287 1585 126 Q1436 -32 1195 -32 Q1007 -32 872 67 Q689 200 659 475 L401 475 L401 0 L158 0 Z M1195 925 Q1052 925 971 814 Q900 716 900 556 Q900 387 971 288 Q1052 177 1195 177 Q1338 177 1418 288 Q1489 386 1489 551 Q1489 717 1418 814 Q1336 925 1195 925 Z " />
<glyph glyph-name="afii10097" unicode="&#x44f;" horiz-adv-x="1233" d="M833 416 L686 416 Q635 416 605 403 Q573 388 531 324 Q509 291 460 194 L360 0 L61 0 L283 338 Q323 400 336 414 Q344 424 371 449 Q253 481 200 531 Q107 619 107 761 Q107 958 240 1043 Q333 1103 539 1103 L1076 1103 L1076 0 L833 0 L833 416 Z M833 594 L833 912 L572 912 Q446 912 402 875 Q354 835 354 755 Q354 664 413 625 Q460 594 562 594 L833 594 Z " />
<glyph glyph-name="uni0450" unicode="&#x450;" horiz-adv-x="1213" d="M1125 475 L341 475 Q346 449 348 436 Q362 360 378 327 Q452 178 630 178 Q759 178 876 236 Q917 257 989 305 L1096 121 Q1022 72 969 46 Q810 -32 629 -32 Q372 -32 229 128 Q93 280 93 538 Q93 818 239 979 Q380 1135 616 1135 Q827 1135 960 1003 Q1079 884 1110 677 Q1123 593 1125 475 Z M884 655 Q864 770 827 824 Q751 936 615 936 Q399 936 343 655 L884 655 Z M599 1224 L315 1565 L567 1565 L763 1224 L599 1224 Z " />
<glyph glyph-name="afii10071" unicode="&#x451;" horiz-adv-x="1213" d="M1125 475 L341 475 Q346 449 348 436 Q362 360 378 327 Q452 178 630 178 Q759 178 876 236 Q917 257 989 305 L1096 121 Q1022 72 969 46 Q810 -32 629 -32 Q372 -32 229 128 Q93 280 93 538 Q93 818 239 979 Q380 1135 616 1135 Q827 1135 960 1003 Q1079 884 1110 677 Q1123 593 1125 475 Z M884 655 Q864 770 827 824 Q751 936 615 936 Q399 936 343 655 L884 655 Z M420 1513 Q479 1513 521 1469 Q556 1432 556 1381 Q556 1321 510 1282 Q470 1248 417 1248 Q355 1248 314 1292 Q278 1329 278 1382 Q278 1439 324 1479 Q363 1513 420 1513 Z M806 1513 Q866 1513 908 1469 Q943 1432 943 1381 Q943 1321 897 1282 Q857 1248 804 1248 Q743 1248 701 1292 Q665 1330 665 1382 Q665 1439 711 1479 Q750 1513 806 1513 Z " />
<glyph glyph-name="afii10099" unicode="&#x452;" horiz-adv-x="1267" d="M164 0 L164 1237 L6 1237 L6 1378 L164 1378 L164 1516 L407 1516 L407 1378 L750 1378 L750 1237 L407 1237 L407 965 Q495 1040 544 1069 Q654 1135 778 1135 Q982 1135 1060 989 Q1117 883 1117 638 L1117 53 Q1117 -130 1088 -217 Q1034 -375 861 -420 Q808 -433 705 -439 L705 -229 Q760 -225 786 -214 Q840 -193 860 -123 Q874 -72 874 28 L874 652 Q874 768 852 825 Q817 916 712 916 Q622 916 521 840 Q504 828 407 733 L407 0 L164 0 Z " />
<glyph glyph-name="afii10100" unicode="&#x453;" horiz-adv-x="971" d="M158 0 L158 1103 L935 1103 L935 893 L401 893 L401 0 L158 0 Z M431 1251 L635 1604 L889 1604 L596 1251 L431 1251 Z " />
<glyph glyph-name="afii10101" unicode="&#x454;" horiz-adv-x="1120" d="M769 468 L344 468 Q365 334 394 283 Q462 165 596 165 Q803 165 821 323 L1044 323 Q1042 -32 594 -32 Q359 -32 235 112 Q93 277 93 548 Q93 818 234 983 Q365 1136 602 1136 Q865 1136 971 985 Q1027 904 1033 785 L811 785 Q791 938 604 938 Q444 938 379 783 Q362 742 345 647 L769 647 L769 468 Z " />
<glyph glyph-name="afii10102" unicode="&#x455;" horiz-adv-x="1077" d="M63 354 L285 354 Q293 274 329 234 Q394 162 543 162 Q771 162 771 307 Q771 381 708 411 Q673 428 626 437 L507 460 Q324 495 229 552 Q106 625 106 791 Q106 958 228 1054 Q332 1135 514 1135 Q784 1135 890 974 Q943 892 944 777 L722 777 Q715 845 686 880 Q633 941 512 941 Q344 941 344 813 Q344 747 400 719 Q443 698 595 666 Q730 638 789 615 Q913 567 961 484 Q1002 414 1002 320 Q1002 158 886 64 Q767 -32 542 -32 Q67 -32 63 354 Z " />
<glyph glyph-name="afii10103" unicode="&#x456;" horiz-adv-x="568" d="M163 0 L163 1103 L406 1103 L406 0 L163 0 Z M287 1555 Q351 1555 396 1508 Q434 1467 434 1412 Q434 1347 384 1305 Q341 1268 284 1268 Q218 1268 173 1315 Q134 1356 134 1413 Q134 1475 184 1519 Q226 1555 287 1555 Z " />
<glyph glyph-name="afii10104" unicode="&#x457;" horiz-adv-x="583" d="M170 0 L170 1103 L413 1103 L413 0 L170 0 Z M95 1546 Q155 1546 197 1502 Q233 1464 233 1412 Q233 1352 187 1312 Q147 1278 93 1278 Q30 1278 -12 1322 Q-48 1360 -48 1413 Q-48 1471 -1 1512 Q38 1546 95 1546 Z M493 1546 Q553 1546 595 1502 Q631 1464 631 1412 Q631 1352 585 1312 Q545 1278 491 1278 Q428 1278 386 1322 Q350 1360 350 1413 Q350 1471 397 1512 Q436 1546 493 1546 Z " />
<glyph glyph-name="afii10105" unicode="&#x458;" horiz-adv-x="585" d="M179 1103 L422 1103 L422 51 Q422 -132 393 -217 Q339 -375 166 -419 Q112 -433 10 -438 L10 -229 Q66 -224 91 -214 Q145 -193 165 -124 Q179 -74 179 25 L179 1103 Z M304 1555 Q368 1555 413 1508 Q451 1467 451 1412 Q451 1347 401 1305 Q358 1268 301 1268 Q235 1268 190 1315 Q151 1356 151 1413 Q151 1475 201 1519 Q243 1555 304 1555 Z " />
<glyph glyph-name="afii10106" unicode="&#x459;" horiz-adv-x="1873" d="M855 0 L855 893 L551 893 Q501 505 422 283 Q358 104 250 41 Q180 0 67 0 L10 0 L10 210 L38 210 Q96 210 124 232 Q212 303 274 630 Q319 866 336 1103 L1098 1103 L1098 716 L1355 716 Q1598 716 1696 644 Q1816 554 1816 360 Q1816 144 1674 59 Q1576 0 1355 0 L855 0 Z M1098 194 L1334 194 Q1455 194 1508 224 Q1569 258 1569 362 Q1569 474 1498 507 Q1445 531 1334 531 L1098 531 L1098 194 Z " />
<glyph glyph-name="afii10107" unicode="&#x45a;" horiz-adv-x="1878" d="M158 0 L158 1103 L401 1103 L401 672 L861 672 L861 1103 L1104 1103 L1104 689 L1362 689 Q1604 689 1701 621 Q1822 538 1822 354 Q1822 143 1680 58 Q1582 0 1362 0 L861 0 L861 484 L401 484 L401 0 L158 0 Z M1104 194 L1340 194 Q1461 194 1514 223 Q1575 256 1575 356 Q1575 458 1503 486 Q1451 507 1340 507 L1104 507 L1104 194 Z " />
<glyph glyph-name="afii10108" unicode="&#x45b;" horiz-adv-x="1267" d="M164 0 L164 1237 L6 1237 L6 1378 L164 1378 L164 1516 L407 1516 L407 1378 L750 1378 L750 1237 L407 1237 L407 965 Q496 1040 544 1069 Q654 1135 778 1135 Q982 1135 1060 989 Q1117 883 1117 638 L1117 0 L874 0 L874 652 Q874 768 852 825 Q817 916 712 916 Q622 916 521 840 Q504 828 407 733 L407 0 L164 0 Z " />
<glyph glyph-name="afii10109" unicode="&#x45c;" horiz-adv-x="1225" d="M158 0 L158 1103 L401 1103 L401 659 L558 659 L876 1103 L1144 1103 L753 586 Q785 561 808 535 Q828 512 871 447 L1168 0 L867 0 L704 281 Q636 403 601 432 Q550 476 466 476 L401 476 L401 0 L158 0 Z M512 1251 L716 1604 L970 1604 L676 1251 L512 1251 Z " />
<glyph glyph-name="uni045D" unicode="&#x45d;" horiz-adv-x="1266" d="M158 0 L158 1103 L394 1103 L394 418 L872 975 L872 1103 L1108 1103 L1108 0 L872 0 L872 685 L394 128 L394 0 L158 0 Z M620 1251 L327 1604 L581 1604 L785 1251 L620 1251 Z " />
<glyph glyph-name="afii10110" unicode="&#x45e;" horiz-adv-x="1064" d="M412 27 L14 1103 L274 1103 L531 312 L789 1103 L1049 1103 L644 14 Q572 -181 527 -254 Q442 -395 315 -423 Q253 -437 140 -438 L140 -229 Q240 -228 277 -205 Q333 -170 378 -57 L412 27 Z M212 1585 L352 1585 Q358 1514 385 1483 Q429 1434 526 1434 Q632 1434 674 1491 Q694 1519 700 1585 L841 1585 Q829 1445 780 1373 Q709 1266 527 1266 Q328 1266 259 1394 Q221 1463 212 1585 Z " />
<glyph glyph-name="afii10193" unicode="&#x45f;" horiz-adv-x="1249" d="M158 0 L158 1103 L401 1103 L401 210 L847 210 L847 1103 L1090 1103 L1090 0 L747 0 L709 -364 L539 -364 L501 0 L158 0 Z " />
<glyph glyph-name="uni0462" unicode="&#x462;" horiz-adv-x="1552" d="M417 0 L417 1265 L30 1265 L30 1475 L1157 1475 L1157 1265 L670 1265 L670 894 L933 894 Q1164 894 1294 808 Q1471 693 1471 447 Q1471 201 1294 86 Q1164 0 933 0 L417 0 Z M670 210 L877 210 Q1043 210 1116 256 Q1214 317 1214 452 Q1214 597 1100 656 Q1028 693 877 693 L670 693 L670 210 Z " />
<glyph glyph-name="uni0463" unicode="&#x463;" horiz-adv-x="1283" d="M164 0 L164 1237 L6 1237 L6 1378 L164 1378 L164 1516 L407 1516 L407 1378 L750 1378 L750 1237 L407 1237 L407 995 Q451 1043 488 1069 Q584 1135 717 1135 Q932 1135 1059 977 Q1190 814 1190 552 Q1190 289 1059 126 Q932 -32 717 -32 Q568 -32 463 49 Q426 78 383 130 L380 0 L164 0 Z M681 925 Q553 925 477 814 Q407 712 407 557 Q407 392 477 289 Q553 178 681 178 Q803 178 874 282 Q943 384 943 551 Q943 722 874 821 Q800 925 681 925 Z " />
<glyph glyph-name="afii10050" unicode="&#x490;" horiz-adv-x="1132" d="M169 0 L169 1475 L830 1475 L872 1835 L1083 1835 L1083 1265 L422 1265 L422 0 L169 0 Z " />
<glyph glyph-name="afii10098" unicode="&#x491;" horiz-adv-x="971" d="M158 0 L158 1103 L693 1103 L735 1463 L935 1463 L935 894 L401 893 L401 0 L158 0 Z " />
<glyph glyph-name="uni0492" unicode="&#x492;" horiz-adv-x="1198" d="M235 0 L235 691 L24 691 L24 874 L235 874 L235 1475 L1148 1475 L1148 1265 L488 1265 L488 874 L804 874 L804 691 L488 691 L488 0 L235 0 Z " />
<glyph glyph-name="uni0493" unicode="&#x493;" horiz-adv-x="1025" d="M212 0 L212 449 L27 449 L27 599 L212 599 L212 1103 L989 1103 L989 893 L455 893 L455 599 L715 599 L715 449 L455 449 L455 0 L212 0 Z " />
<glyph glyph-name="uni0496" unicode="&#x496;" horiz-adv-x="1943" d="M847 0 L847 667 L796 667 Q681 667 619 597 Q571 543 512 407 L334 0 L28 0 L301 543 Q358 657 398 709 Q430 750 485 787 L28 1475 L297 1475 L695 866 L847 866 L847 1475 L1086 1475 L1086 866 L1238 866 L1637 1475 L1906 1475 L1448 787 Q1509 746 1545 695 Q1581 645 1633 543 L1800 210 L1923 210 L1923 -360 L1732 -360 L1693 0 L1599 0 L1422 407 Q1357 557 1302 610 Q1243 667 1137 667 L1086 667 L1086 0 L847 0 Z " />
<glyph glyph-name="uni0497" unicode="&#x497;" horiz-adv-x="1790" d="M780 0 L780 476 L748 476 Q655 476 602 422 Q572 393 510 281 L347 0 L57 0 L355 447 Q399 516 420 539 Q442 563 472 586 L81 1103 L349 1103 L667 659 L780 659 L780 1103 L1009 1103 L1009 659 L1122 659 L1440 1103 L1707 1103 L1317 586 Q1346 564 1369 538 Q1390 516 1434 447 L1605 210 L1768 210 L1768 -364 L1590 -364 L1548 0 L1442 0 L1279 281 Q1211 403 1176 433 Q1126 476 1041 476 L1009 476 L1009 0 L780 0 Z " />
<glyph glyph-name="uni0498" unicode="&#x498;" horiz-adv-x="1329" d="M769 -26 L735 -86 Q818 -95 859 -116 Q954 -165 954 -277 Q954 -396 860 -452 Q789 -495 670 -495 Q526 -495 398 -455 L448 -302 Q574 -339 659 -339 Q763 -339 763 -277 Q763 -218 653 -218 Q624 -218 566 -224 L540 -108 L589 -24 Q385 -10 264 71 Q131 159 100 330 Q93 374 91 449 L336 449 Q342 335 398 273 Q480 181 668 181 Q823 181 902 248 Q978 314 978 435 Q978 579 869 634 Q794 672 629 672 L416 672 L416 871 L592 871 Q751 871 828 917 Q922 974 922 1097 Q922 1197 851 1245 Q779 1294 655 1294 Q473 1294 406 1195 Q371 1143 365 1058 L120 1058 Q121 1142 135 1193 Q217 1504 669 1504 Q914 1504 1047 1407 Q1177 1312 1177 1120 Q1177 987 1116 899 Q1084 852 1016 807 Q1233 718 1233 439 Q1233 113 955 10 Q879 -18 769 -26 Z " />
<glyph glyph-name="uni0499" unicode="&#x499;" horiz-adv-x="1108" d="M651 -29 L620 -88 Q701 -96 740 -117 Q832 -166 832 -280 Q832 -400 741 -457 Q671 -500 555 -500 Q417 -500 288 -459 L337 -306 Q464 -343 542 -343 Q642 -343 642 -280 Q642 -220 537 -220 Q514 -220 452 -225 L425 -109 L471 -29 Q303 -17 206 47 Q77 131 78 323 L300 323 Q309 251 345 218 Q406 162 551 162 Q670 162 727 204 Q777 241 777 325 Q777 423 708 451 Q667 468 553 468 L356 468 L356 647 L545 647 Q730 647 730 789 Q730 938 527 938 Q328 938 311 785 L88 785 Q93 925 167 1009 Q276 1135 550 1135 Q977 1135 977 824 Q977 731 935 670 Q907 629 848 595 Q920 566 953 532 Q1024 461 1024 321 Q1024 153 928 67 Q836 -15 651 -29 Z " />
<glyph glyph-name="uni049A" unicode="&#x49a;" horiz-adv-x="1330" d="M169 0 L169 1475 L422 1475 L422 866 L625 866 L1023 1475 L1292 1475 L835 787 Q897 744 932 695 Q968 646 1019 543 L1186 210 L1342 210 L1342 -360 L1151 -360 L1113 0 L977 0 L800 407 Q734 558 680 610 Q621 667 515 667 L422 667 L422 0 L169 0 Z " />
<glyph glyph-name="uni049B" unicode="&#x49b;" horiz-adv-x="1227" d="M158 0 L158 1103 L401 1103 L401 659 L558 659 L877 1103 L1144 1103 L753 586 Q785 562 808 535 Q828 513 871 447 L1042 210 L1206 210 L1206 -364 L1028 -364 L979 0 L867 0 L704 281 Q636 403 601 433 Q550 476 466 476 L401 476 L401 0 L158 0 Z " />
<glyph glyph-name="uni049C" unicode="&#x49c;" horiz-adv-x="1330" d="M169 0 L169 1475 L422 1475 L422 866 L528 866 L528 1091 L675 1091 L675 945 L1023 1475 L1292 1475 L835 787 Q897 744 932 695 Q967 646 1019 543 L1292 0 L977 0 L807 389 Q759 498 730 542 Q706 579 675 603 L675 409 L528 409 L528 667 L422 667 L422 0 L169 0 Z " />
<glyph glyph-name="uni049D" unicode="&#x49d;" horiz-adv-x="1225" d="M158 0 L158 1103 L401 1103 L401 659 L489 659 L489 843 L612 843 L612 702 L876 1103 L1143 1103 L753 586 Q785 561 808 535 Q828 513 870 447 L1168 0 L874 0 L711 280 Q656 380 612 427 L612 230 L489 230 L489 476 L401 476 L401 0 L158 0 Z " />
<glyph glyph-name="uni04A2" unicode="&#x4a2;" horiz-adv-x="1463" d="M169 0 L169 1475 L422 1475 L422 879 L1034 879 L1034 1475 L1287 1475 L1287 210 L1419 210 L1419 -360 L1228 -360 L1189 0 L1034 0 L1034 669 L422 669 L422 0 L169 0 Z " />
<glyph glyph-name="uni04A3" unicode="&#x4a3;" horiz-adv-x="1274" d="M158 0 L158 1103 L401 1103 L401 663 L865 663 L865 1103 L1108 1103 L1108 210 L1230 210 L1230 -364 L1051 -364 L1003 0 L865 0 L865 475 L401 475 L401 0 L158 0 Z " />
<glyph glyph-name="uni04AA" unicode="&#x4aa;" horiz-adv-x="1410" d="M1172 384 L1324 210 Q1211 79 1070 24 Q950 -23 808 -27 L776 -86 Q855 -94 895 -116 Q986 -164 986 -278 Q986 -396 896 -452 Q827 -495 711 -495 Q572 -495 447 -455 L496 -302 Q619 -339 699 -339 Q796 -339 796 -277 Q796 -219 693 -219 Q669 -219 609 -224 L582 -108 L633 -18 Q454 4 327 116 Q209 220 150 398 Q102 541 102 726 Q102 1089 276 1300 Q444 1504 759 1504 Q1081 1504 1221 1303 Q1295 1195 1297 1026 L1052 1026 Q1046 1130 996 1191 Q918 1287 760 1287 Q560 1287 458 1132 Q359 982 359 729 Q359 481 472 330 Q576 191 777 191 Q928 191 1047 270 Q1096 302 1172 384 Z " />
<glyph glyph-name="uni04AB" unicode="&#x4ab;" horiz-adv-x="1111" d="M657 -31 L626 -88 Q708 -96 747 -117 Q839 -166 839 -280 Q839 -400 748 -457 Q678 -500 562 -500 Q423 -500 295 -459 L344 -306 Q470 -343 549 -343 Q649 -343 649 -280 Q649 -220 544 -220 Q521 -220 459 -225 L432 -109 L482 -21 Q382 -4 304 48 Q93 189 93 536 Q93 800 215 967 Q339 1136 591 1136 Q863 1136 972 952 Q1028 855 1029 721 L807 721 Q802 797 770 845 Q716 926 601 926 Q472 926 405 819 Q340 717 340 547 Q340 371 418 271 Q492 177 623 177 Q746 177 842 237 Q882 262 937 316 L1057 146 Q964 52 861 12 Q778 -21 657 -31 Z " />
<glyph glyph-name="uni04AE" unicode="&#x4ae;" horiz-adv-x="1223" d="M485 0 L485 565 L-23 1475 L252 1475 L611 800 L970 1475 L1245 1475 L738 565 L738 0 L485 0 Z " />
<glyph glyph-name="uni04AF" unicode="&#x4af;" horiz-adv-x="1064" d="M410 -4 L14 1103 L274 1103 L532 278 L789 1103 L1049 1103 L653 -4 L653 -439 L410 -439 L410 -4 Z " />
<glyph glyph-name="uni04B0" unicode="&#x4b0;" horiz-adv-x="1221" d="M484 0 L484 487 L243 487 L243 673 L424 673 L-23 1475 L252 1475 L611 800 L968 1475 L1243 1475 L797 673 L977 673 L977 487 L737 487 L737 0 L484 0 Z " />
<glyph glyph-name="uni04B1" unicode="&#x4b1;" horiz-adv-x="1064" d="M357 146 L14 1103 L274 1103 L532 278 L789 1103 L1049 1103 L706 146 L905 146 L905 0 L653 0 L653 -439 L410 -439 L410 0 L158 0 L158 146 L357 146 Z " />
<glyph glyph-name="uni04B2" unicode="&#x4b2;" horiz-adv-x="1263" d="M484 761 L43 1475 L335 1475 L657 957 L934 1475 L1217 1475 L778 760 L1118 210 L1288 210 L1288 -360 L1098 -360 L1058 0 L954 0 L604 565 L290 0 L7 0 L484 761 Z " />
<glyph glyph-name="uni04B3" unicode="&#x4b3;" horiz-adv-x="1065" d="M387 581 L28 1103 L300 1103 L554 738 L775 1103 L1029 1103 L662 580 L918 210 L1102 210 L1102 -364 L924 -364 L875 0 L789 0 L498 420 L254 0 L-1 0 L387 581 Z " />
<glyph glyph-name="uni04B6" unicode="&#x4b6;" horiz-adv-x="1375" d="M947 0 L947 579 Q920 564 907 556 Q813 502 756 484 Q656 451 538 451 Q276 451 186 611 Q130 710 130 912 L130 1475 L383 1475 L383 948 Q383 801 417 747 Q466 668 613 668 Q739 668 849 736 Q894 764 947 806 L947 1475 L1200 1475 L1200 210 L1332 210 L1332 -360 L1142 -360 L1103 0 L947 0 Z " />
<glyph glyph-name="uni04B7" unicode="&#x4b7;" horiz-adv-x="1195" d="M787 0 L787 431 Q661 357 479 357 Q217 357 138 526 Q100 609 100 816 L100 1103 L343 1103 L343 772 Q343 666 380 622 Q425 567 544 567 Q685 567 787 647 L787 1103 L1030 1103 L1030 210 L1152 210 L1152 -364 L973 -364 L925 0 L787 0 Z " />
<glyph glyph-name="uni04B8" unicode="&#x4b8;" horiz-adv-x="1368" d="M947 0 L947 578 Q920 563 907 556 Q824 508 785 494 Q764 487 738 480 L738 284 L591 284 L591 453 Q552 451 531 451 Q276 451 186 611 Q130 709 130 911 L130 1475 L383 1475 L383 947 Q383 847 396 795 Q422 697 528 676 Q553 671 591 668 L591 922 L738 922 L738 686 Q837 717 947 805 L947 1475 L1200 1475 L1200 0 L947 0 Z " />
<glyph glyph-name="uni04B9" unicode="&#x4b9;" horiz-adv-x="1188" d="M787 0 L787 431 Q712 387 627 370 L627 165 L504 165 L504 357 Q483 356 479 356 Q217 356 138 526 Q100 608 100 816 L100 1103 L343 1103 L343 772 Q343 647 397 604 Q428 580 504 569 L504 754 L627 754 L627 573 Q714 589 787 646 L787 1103 L1030 1103 L1030 0 L787 0 Z " />
<glyph glyph-name="uni04BA" unicode="&#x4ba;" horiz-adv-x="1254" d="M162 0 L162 1475 L406 1475 L406 883 Q486 939 548 968 Q660 1022 789 1022 Q1005 1022 1091 890 Q1153 795 1153 573 L1153 0 L910 0 L910 586 Q910 684 884 730 Q842 804 725 804 Q629 804 524 743 Q480 718 406 658 L406 0 L162 0 Z " />
<glyph glyph-name="uni04BB" unicode="&#x4bb;" horiz-adv-x="1261" d="M158 0 L158 1579 L401 1579 L401 965 Q484 1037 538 1069 Q647 1135 772 1135 Q976 1135 1054 989 Q1111 883 1111 638 L1111 0 L868 0 L868 652 Q868 768 846 825 Q811 916 706 916 Q616 916 515 840 Q485 817 401 733 L401 0 L158 0 Z " />
<glyph glyph-name="uni04C0" unicode="&#x4c0;" horiz-adv-x="591" d="M169 0 L169 1475 L422 1475 L422 0 L169 0 Z " />
<glyph glyph-name="uni04C1" unicode="&#x4c1;" horiz-adv-x="1944" d="M847 0 L847 667 L796 667 Q681 667 619 596 Q571 543 512 407 L334 0 L28 0 L301 543 Q359 658 398 708 Q429 749 485 787 L28 1475 L297 1475 L695 866 L847 866 L847 1475 L1086 1475 L1086 866 L1238 866 L1636 1475 L1905 1475 L1448 787 Q1509 746 1545 695 Q1580 645 1632 543 L1905 0 L1599 0 L1421 407 Q1356 557 1301 610 Q1243 667 1137 667 L1086 667 L1086 0 L847 0 Z M651 1927 L791 1927 Q797 1859 822 1831 Q864 1784 956 1784 Q1057 1784 1097 1839 Q1115 1865 1121 1927 L1261 1927 Q1249 1791 1205 1723 Q1135 1617 954 1617 Q762 1617 695 1744 Q660 1810 651 1927 Z " />
<glyph glyph-name="uni04C2" unicode="&#x4c2;" horiz-adv-x="1789" d="M780 0 L780 476 L748 476 Q656 476 602 422 Q572 393 510 281 L347 0 L57 0 L355 447 Q399 516 420 538 Q442 563 472 586 L81 1103 L349 1103 L667 659 L780 659 L780 1103 L1009 1103 L1009 659 L1122 659 L1440 1103 L1708 1103 L1317 586 Q1346 564 1369 538 Q1391 515 1435 447 L1732 0 L1442 0 L1279 281 Q1212 402 1176 432 Q1126 476 1041 476 L1009 476 L1009 0 L780 0 Z M578 1585 L719 1585 Q725 1514 752 1483 Q796 1434 892 1434 Q999 1434 1041 1491 Q1061 1520 1067 1585 L1208 1585 Q1196 1445 1147 1373 Q1075 1266 893 1266 Q695 1266 626 1394 Q588 1464 578 1585 Z " />
<glyph glyph-name="uni04CF" unicode="&#x4cf;" horiz-adv-x="591" d="M169 0 L169 1475 L422 1475 L422 0 L169 0 Z " />
<glyph glyph-name="uni04D4" unicode="&#x4d4;" horiz-adv-x="2021" d="M967 452 L437 452 L156 0 L-127 0 L824 1475 L1912 1475 L1912 1265 L1220 1265 L1220 875 L1780 875 L1780 665 L1220 665 L1220 210 L1928 210 L1928 0 L967 0 L967 452 Z M967 653 L967 1305 L559 653 L967 653 Z " />
<glyph glyph-name="uni04D5" unicode="&#x4d5;" horiz-adv-x="1918" d="M798 659 L798 721 Q798 836 767 877 Q721 937 577 937 Q475 937 433 889 Q413 865 392 791 L168 791 Q186 930 246 1008 Q344 1134 581 1134 Q769 1134 865 1075 Q920 1041 956 971 Q1087 1135 1325 1135 Q1535 1135 1669 1000 Q1787 880 1818 675 Q1830 593 1832 475 L1040 475 Q1057 362 1089 308 Q1168 178 1335 178 Q1468 178 1588 238 Q1628 258 1699 305 L1806 121 Q1580 -32 1343 -32 Q1084 -32 935 156 Q888 99 803 50 Q659 -33 473 -33 Q290 -33 190 47 Q80 135 80 316 Q80 519 217 609 Q311 671 530 671 Q597 671 798 659 Z M804 478 Q681 491 552 491 Q419 491 374 456 Q323 416 323 327 Q323 243 368 206 Q411 171 514 171 Q689 171 763 255 Q793 288 800 330 Q804 351 804 396 L804 478 Z M1586 657 Q1566 771 1529 824 Q1453 935 1315 935 Q1097 935 1043 657 L1586 657 Z " />
<glyph glyph-name="uni04D8" unicode="&#x4d8;" horiz-adv-x="1579" d="M101 862 L1213 862 Q1202 984 1155 1077 Q1051 1284 792 1284 Q629 1284 529 1209 Q481 1174 433 1101 L222 1223 Q293 1327 365 1381 Q528 1504 794 1504 Q1172 1504 1348 1237 Q1478 1042 1478 737 Q1478 433 1348 237 Q1172 -29 790 -29 Q495 -29 323 131 Q147 294 113 585 Q102 680 101 862 Z M364 663 Q373 555 384 504.5 Q395 454 421 402 Q528 191 793 191 Q1078 191 1175 444 Q1212 538 1217 663 L364 663 Z " />
<glyph glyph-name="afii10846" unicode="&#x4d9;" horiz-adv-x="1262" d="M96 647 L914 647 Q893 752 856 806 Q773 925 616 925 Q496 925 379 876 Q324 853 243 802 L127 981 Q217 1039 283 1067 Q438 1135 616 1135 Q870 1135 1017 976 Q1169 813 1169 551 Q1169 288 1017 127 Q869 -32 630 -32 Q393 -32 244 127 Q92 288 92 544 Q92 581 96 647 Z M345 481 Q365 360 402 305 Q487 178 630 178 Q796 178 875 331 Q902 381 917 481 L345 481 Z " />
<glyph glyph-name="uni04E2" unicode="&#x4e2;" horiz-adv-x="1456" d="M169 0 L169 1475 L422 1475 L422 492 L1034 1313 L1034 1475 L1287 1475 L1287 0 L1034 0 L1034 982 L422 162 L422 0 L169 0 Z M436 1681 L436 1850 L1001 1850 L1001 1681 L436 1681 Z " />
<glyph glyph-name="uni04E3" unicode="&#x4e3;" horiz-adv-x="1266" d="M158 0 L158 1103 L394 1103 L394 418 L872 975 L872 1103 L1108 1103 L1108 0 L872 0 L872 685 L394 128 L394 0 L158 0 Z M342 1333 L342 1502 L907 1502 L907 1333 L342 1333 Z " />
<glyph glyph-name="uni04E8" unicode="&#x4e8;" horiz-adv-x="1579" d="M783 1504 Q1170 1504 1348 1237 Q1477 1043 1477 737 Q1477 432 1348 237 Q1171 -29 792 -29 Q408 -29 232 237 Q102 433 102 747 Q102 1043 232 1237 Q409 1504 783 1504 Z M367 862 L1213 862 Q1164 1284 790 1284 Q411 1284 367 862 Z M1217 663 L362 663 Q371 502 427 393 Q532 191 790 191 Q1072 191 1171 431 Q1205 514 1217 663 Z " />
<glyph glyph-name="uni04E9" unicode="&#x4e9;" horiz-adv-x="1268" d="M634 1135 Q874 1135 1024 976 Q1175 817 1175 551 Q1175 287 1024 127 Q875 -32 635 -32 Q393 -32 244 127 Q93 287 93 559 Q93 816 244 976 Q393 1135 634 1135 Z M924 481 L344 481 Q367 359 397 311 Q479 178 634 178 Q739 178 814 242 Q885 303 910 410 Q917 437 924 481 Z M347 647 L922 647 Q901 744 874 790 Q790 925 634 925 Q473 925 392 784 Q364 736 347 647 Z " />
<glyph glyph-name="uni04EE" unicode="&#x4ee;" horiz-adv-x="1190" d="M483 464 L-12 1475 L261 1475 L607 732 L950 1475 L1214 1475 L533 0 L269 0 L483 464 Z M307 1681 L307 1850 L872 1850 L872 1681 L307 1681 Z " />
<glyph glyph-name="uni04EF" unicode="&#x4ef;" horiz-adv-x="1064" d="M412 27 L14 1103 L274 1103 L531 312 L789 1103 L1049 1103 L644 14 Q572 -181 527 -254 Q442 -395 315 -423 Q253 -437 140 -438 L140 -229 Q240 -228 277 -205 Q333 -170 378 -57 L412 27 Z M238 1333 L238 1502 L803 1502 L803 1333 L238 1333 Z " />
<glyph glyph-name="uni1E1E" unicode="&#x1e1e;" horiz-adv-x="1181" d="M169 0 L169 1475 L1132 1475 L1132 1265 L422 1265 L422 854 L1001 854 L1001 644 L422 644 L422 0 L169 0 Z M666 1889 Q730 1889 774 1842 Q812 1802 812 1747 Q812 1683 763 1641 Q720 1605 664 1605 Q598 1605 553 1652 Q515 1692 515 1748 Q515 1810 564 1853 Q606 1889 666 1889 Z " />
<glyph glyph-name="Wdieresis" unicode="&#x1e84;" horiz-adv-x="1957" d="M452 -31 L88 1475 L347 1475 L574 443 L910 1478 L1048 1478 L1384 443 L1611 1475 L1870 1475 L1505 -31 L1311 -31 L979 994 L647 -31 L452 -31 Z M774 1879 Q834 1879 876 1835 Q911 1798 911 1747 Q911 1687 865 1648 Q826 1614 772 1614 Q710 1614 669 1658 Q633 1696 633 1748 Q633 1805 679 1845 Q718 1879 774 1879 Z M1189 1879 Q1248 1879 1289 1835 Q1325 1798 1325 1747 Q1325 1687 1279 1648 Q1239 1614 1186 1614 Q1124 1614 1083 1658 Q1047 1696 1047 1748 Q1047 1805 1093 1845 Q1132 1879 1189 1879 Z " />
<glyph glyph-name="wdieresis" unicode="&#x1e85;" horiz-adv-x="1641" d="M352 -22 L39 1103 L285 1103 L480 351 L749 1103 L893 1103 L1162 351 L1356 1103 L1603 1103 L1290 -22 L1089 -22 L821 721 L553 -22 L352 -22 Z M630 1513 Q689 1513 731 1469 Q766 1432 766 1381 Q766 1321 720 1282 Q680 1248 627 1248 Q566 1248 524 1292 Q488 1329 488 1382 Q488 1439 534 1479 Q573 1513 630 1513 Z M1016 1513 Q1076 1513 1117 1469 Q1153 1432 1153 1381 Q1153 1321 1107 1282 Q1067 1248 1014 1248 Q952 1248 911 1292 Q875 1329 875 1382 Q875 1439 921 1479 Q960 1513 1016 1513 Z " />
<glyph glyph-name="uni2007" unicode="&#x2007;" horiz-adv-x="1303" d="" />
<glyph glyph-name="uni2011" unicode="&#x2011;" horiz-adv-x="813" d="M123 510 L123 720 L690 720 L690 510 L123 510 Z " />
<glyph glyph-name="figuredash" unicode="&#x2012;" horiz-adv-x="990" d="M69 510 L69 719 L922 719 L922 510 L69 510 Z " />
<glyph glyph-name="afii00208" unicode="&#x2015;" horiz-adv-x="1303" d="M-90 510 L-90 719 L1392 719 L1392 510 L-90 510 Z " />
<glyph glyph-name="zerosuperior" unicode="&#x2070;" horiz-adv-x="835" d="M417 1695 Q782 1695 782 1249 Q782 803 417 803 Q53 803 53 1252 Q53 1448 127 1558 Q218 1695 417 1695 Z M418 1532 Q313 1532 276 1433 Q252 1369 252 1251 Q252 1116 282 1051 Q320 966 417 966 Q522 966 559 1065 Q583 1128 583 1249 Q583 1383 554 1447 Q515 1532 418 1532 Z " />
<glyph glyph-name="foursuperior" unicode="&#x2074;" horiz-adv-x="836" d="M490 819 L490 987 L55 987 L55 1125 L326 1679 L544 1679 L278 1149 L490 1149 L490 1433 L680 1433 L680 1149 L811 1149 L811 987 L680 987 L680 819 L490 819 Z " />
<glyph glyph-name="fivesuperior" unicode="&#x2075;" horiz-adv-x="836" d="M90 1228 L128 1679 L714 1679 L714 1518 L308 1518 L292 1360 Q363 1381 434 1381 Q574 1381 660 1325 Q772 1252 772 1095 Q772 949 674 876 Q576 804 401 804 Q177 804 93 910 Q51 964 37 1087 L230 1087 Q241 1029 270 1003 Q312 965 403 965 Q572 965 572 1096 Q572 1232 413 1232 Q320 1232 220 1167 L90 1228 Z " />
<glyph glyph-name="sixsuperior" unicode="&#x2076;" horiz-adv-x="834" d="M269 1316 Q350 1373 457 1373 Q590 1373 677 1306 Q764 1238 764 1107 Q764 972 677 895 Q584 812 426 812 Q238 812 152 925 Q84 1014 84 1192 Q84 1429 167 1556 Q252 1686 448 1686 Q622 1686 696 1586 Q731 1539 742 1443 L566 1443 Q557 1488 542 1506 Q513 1543 440 1543 Q334 1543 300 1465 Q281 1419 269 1316 Z M425 1238 Q267 1238 267 1099 Q267 956 424 956 Q582 956 582 1097 Q582 1238 425 1238 Z " />
<glyph glyph-name="sevensuperior" unicode="&#x2077;" horiz-adv-x="670" d="M442 1518 L9 1518 L9 1679 L631 1679 L631 1544 L297 819 L71 819 L442 1518 Z " />
<glyph glyph-name="eightsuperior" unicode="&#x2078;" horiz-adv-x="836" d="M168 1278 Q133 1308 121 1321 Q85 1366 85 1447 Q85 1565 177 1632 Q265 1695 417 1695 Q583 1695 672 1621 Q750 1555 750 1447 Q750 1368 713 1321 Q700 1304 667 1278 Q716 1246 739 1220 Q788 1163 788 1075 Q788 945 684 873 Q583 803 413 803 Q234 803 135 883 Q47 954 47 1075 Q47 1166 96 1220 Q118 1244 168 1278 Z M418 1546 Q353 1546 311 1523 Q265 1497 265 1444 Q265 1339 418 1339 Q483 1339 524 1362 Q570 1388 570 1442 Q570 1497 524 1523 Q483 1546 418 1546 Z M418 1199 Q237 1199 237 1080 Q237 956 419 956 Q598 956 598 1078 Q598 1199 418 1199 Z " />
<glyph glyph-name="ninesuperior" unicode="&#x2079;" horiz-adv-x="833" d="M556 1189 Q476 1133 374 1133 Q245 1133 165 1199 Q82 1267 82 1395 Q82 1528 166 1604 Q257 1687 409 1687 Q591 1687 675 1573 Q741 1484 741 1306 Q741 1066 663 942 Q580 812 383 812 Q205 812 129 915 Q93 964 83 1062 L259 1062 Q270 1010 286 991 Q317 955 391 955 Q497 955 529 1036 Q546 1081 556 1189 Z M412 1543 Q264 1543 264 1405 Q264 1268 407 1268 Q558 1268 558 1404 Q558 1543 412 1543 Z " />
<glyph glyph-name="zeroinferior" unicode="&#x2080;" horiz-adv-x="835" d="M417 671 Q782 671 782 225 Q782 -221 417 -221 Q53 -221 53 228 Q53 424 127 534 Q218 671 417 671 Z M418 508 Q313 508 276 409 Q252 345 252 227 Q252 92 282 27 Q320 -58 417 -58 Q522 -58 559 41 Q583 104 583 225 Q583 359 554 423 Q515 508 418 508 Z " />
<glyph glyph-name="oneinferior" unicode="&#x2081;" horiz-adv-x="576" d="M239 -205 L239 465 L13 393 L13 558 L299 655 L436 655 L436 -205 L239 -205 Z " />
<glyph glyph-name="twoinferior" unicode="&#x2082;" horiz-adv-x="835" d="M36 -205 Q42 -141 52 -111 Q77 -39 154 36 Q185 67 354 209 Q465 302 494 335 Q530 376 530 416 Q530 461 497 485 Q462 511 402 511 Q254 511 230 352 L38 352 Q61 506 121 571 Q212 671 401 671 Q553 671 641 610 Q732 547 732 420 Q732 335 688 270 Q646 208 541 129 Q515 110 428 47 Q376 10 322 -44 L754 -44 L754 -205 L36 -205 Z " />
<glyph glyph-name="threeinferior" unicode="&#x2083;" horiz-adv-x="835" d="M270 167 L270 313 Q312 313 331 313 Q430 313 469 327 Q533 350 533 419 Q533 511 404 511 Q281 511 253 412 L65 412 Q79 527 138 588 Q220 671 401 671 Q575 671 660 596 Q730 534 730 425 Q730 353 700 306 Q684 281 650 253 Q768 188 768 56 Q768 -91 663 -159 Q568 -220 406 -220 Q188 -220 102 -123 Q53 -67 42 63 L234 63 Q245 4 278 -22 Q324 -59 412 -59 Q568 -59 568 48 Q568 150 454 162 Q407 167 270 167 Z " />
<glyph glyph-name="fourinferior" unicode="&#x2084;" horiz-adv-x="836" d="M490 -205 L490 -36 L55 -36 L55 102 L326 655 L544 655 L278 126 L490 126 L490 409 L680 409 L680 126 L811 126 L811 -36 L680 -36 L680 -205 L490 -205 Z " />
<glyph glyph-name="fiveinferior" unicode="&#x2085;" horiz-adv-x="836" d="M90 204 L128 655 L714 655 L714 494 L308 494 L292 336 Q363 357 434 357 Q574 357 660 301 Q772 228 772 71 Q772 -75 674 -148 Q576 -220 401 -220 Q177 -220 93 -114 Q51 -60 37 63 L230 63 Q241 5 270 -21 Q312 -59 403 -59 Q572 -59 572 72 Q572 208 413 208 Q320 208 220 143 L90 204 Z " />
<glyph glyph-name="sixinferior" unicode="&#x2086;" horiz-adv-x="834" d="M269 292 Q350 349 457 349 Q590 349 677 282 Q764 214 764 83 Q764 -52 677 -129 Q584 -212 426 -212 Q238 -212 152 -99 Q84 -10 84 168 Q84 405 167 532 Q252 662 448 662 Q622 662 696 562 Q731 515 742 419 L566 419 Q557 464 542 482 Q513 519 440 519 Q334 519 300 441 Q281 395 269 292 Z M425 214 Q267 214 267 75 Q267 -68 424 -68 Q582 -68 582 73 Q582 214 425 214 Z " />
<glyph glyph-name="seveninferior" unicode="&#x2087;" horiz-adv-x="670" d="M442 494 L9 494 L9 655 L631 655 L631 520 L297 -205 L71 -205 L442 494 Z " />
<glyph glyph-name="eightinferior" unicode="&#x2088;" horiz-adv-x="836" d="M168 254 Q133 284 121 297 Q85 342 85 423 Q85 541 177 608 Q265 671 417 671 Q583 671 672 597 Q750 531 750 423 Q750 344 713 297 Q700 280 667 254 Q716 222 739 196 Q788 139 788 51 Q788 -79 684 -151 Q583 -221 413 -221 Q234 -221 135 -141 Q47 -70 47 51 Q47 142 96 196 Q118 220 168 254 Z M418 522 Q353 522 311 499 Q265 473 265 420 Q265 315 418 315 Q483 315 524 338 Q570 364 570 418 Q570 473 524 499 Q483 522 418 522 Z M418 175 Q237 175 237 56 Q237 -68 419 -68 Q598 -68 598 54 Q598 175 418 175 Z " />
<glyph glyph-name="nineinferior" unicode="&#x2089;" horiz-adv-x="833" d="M556 165 Q476 108 374 108 Q245 108 165 175 Q82 243 82 370 Q82 504 166 580 Q257 663 409 663 Q592 663 675 549 Q741 460 741 282 Q741 42 663 -82 Q580 -212 383 -212 Q205 -212 129 -109 Q93 -60 83 38 L259 38 Q270 -14 286 -33 Q317 -69 391 -69 Q497 -69 529 12 Q546 57 556 165 Z M412 519 Q264 519 264 381 Q264 243 407 243 Q558 243 558 379 Q558 519 412 519 Z " />
<glyph glyph-name="afii61289" unicode="&#x2113;" horiz-adv-x="983" d="M465 592 Q452 521 438 432 Q400 189 400 133 Q400 79 438 79 Q480 79 520 147 Q546 191 559 234 L629 203 Q544 -40 395 -40 Q312 -40 268 27 Q236 75 236 159 Q236 230 255 433 Q217 392 188 370 Q147 339 133 325 L96 386 Q105 392 148 437 Q223 514 272 570 Q351 992 450 1240 Q559 1510 715 1510 Q788 1510 826 1455 Q863 1402 863 1328 Q863 1132 720 903 Q643 778 465 592 Z M485 718 Q587 830 646 931 Q717 1051 751 1185 Q773 1272 773 1326 Q773 1367 753 1391 Q738 1408 717 1408 Q657 1408 618 1306 Q577 1196 533 983 Q521 923 485 718 Z " />
<glyph glyph-name="afii61352" unicode="&#x2116;" horiz-adv-x="2470" d="M169 0 L169 1475 L415 1475 L1040 520 L1040 1475 L1287 1475 L1287 -18 L1102 -18 L416 1049 L416 0 L169 0 Z M1907 1262 Q2109 1262 2228 1132 Q2339 1011 2339 795 Q2339 581 2228 457 Q2111 327 1900 327 Q1689 327 1571 458 Q1460 581 1460 794 Q1460 1013 1571 1132 Q1691 1262 1907 1262 Z M1902 1075 Q1798 1075 1748 989 Q1703 912 1703 795 Q1703 679 1747 601 Q1796 514 1899 514 Q2002 514 2051 601 Q2095 679 2095 795 Q2095 913 2051 989 Q2001 1075 1902 1075 Z M1502 0 L1502 199 L2326 199 L2326 0 L1502 0 Z " />
<glyph glyph-name="estimated" unicode="&#x212e;" horiz-adv-x="1501" d="M1336 607 L393 607 L393 356 Q419 268 447 229 Q537 100 748 100 Q952 100 1063 215 Q1112 265 1151 357 L1287 357 Q1181 -24 746 -24 Q467 -24 314 154 Q164 327 164 625 Q164 942 329 1120 Q489 1292 755 1292 Q975 1292 1127 1179 Q1313 1040 1332 758 Q1334 728 1336 607 Z M1114 709 L1114 928 Q1094 985 1060 1025 Q993 1103 916 1137 Q845 1168 744 1168 Q580 1168 487 1069 Q444 1023 399 928 L399 709 L1114 709 Z " />
<glyph glyph-name="onethird" unicode="&#x2153;" horiz-adv-x="1970" d="M356 614 L356 1285 L130 1213 L130 1378 L416 1475 L553 1475 L553 614 L356 614 Z M1318 371 L1318 518 Q1445 518 1484 524 Q1581 538 1581 625 Q1581 716 1452 716 Q1327 716 1301 617 L1112 617 Q1129 734 1186 793 Q1268 876 1449 876 Q1623 876 1708 801 Q1778 739 1778 629 Q1778 558 1748 511 Q1732 486 1698 458 Q1816 393 1816 259 Q1816 113 1711 45 Q1616 -16 1454 -16 Q1237 -16 1150 81 Q1101 136 1090 267 L1282 267 Q1294 208 1326 182 Q1372 145 1460 145 Q1616 145 1616 252 Q1616 328 1560 352 Q1514 372 1374 372 Q1359 372 1318 371 Z M375 0 L1148 1475 L1345 1475 L572 0 L375 0 Z " />
<glyph glyph-name="twothirds" unicode="&#x2154;" horiz-adv-x="1973" d="M44 614 Q50 678 60 708 Q85 780 162 856 Q192 886 362 1029 Q473 1122 502 1154 Q538 1196 538 1235 Q538 1281 505 1305 Q470 1331 410 1331 Q263 1331 238 1171 L46 1171 Q69 1326 129 1391 Q220 1491 409 1491 Q561 1491 649 1430 Q740 1367 740 1239 Q740 1134 669 1055 Q617 996 497 911 Q385 830 330 775 L762 775 L762 614 L44 614 Z M1399 371 L1399 518 Q1525 518 1565 524 Q1662 538 1662 625 Q1662 716 1533 716 Q1408 716 1382 617 L1193 617 Q1210 734 1267 793 Q1349 876 1529 876 Q1704 876 1789 801 Q1859 739 1859 629 Q1859 558 1829 511 Q1813 486 1779 458 Q1897 392 1897 259 Q1897 113 1792 45 Q1697 -16 1535 -16 Q1318 -16 1231 81 Q1183 136 1171 267 L1363 267 Q1374 209 1407 182 Q1453 145 1541 145 Q1697 145 1697 252 Q1697 328 1641 352 Q1595 372 1455 372 Q1440 372 1399 371 Z M505 0 L1277 1475 L1474 1475 L702 0 L505 0 Z " />
<glyph glyph-name="uni2155" unicode="&#x2155;" horiz-adv-x="1970" d="M361 614 L361 1285 L135 1213 L135 1378 L421 1475 L558 1475 L558 614 L361 614 Z M1144 408 L1182 860 L1767 860 L1767 699 L1361 699 L1345 541 Q1415 562 1487 562 Q1627 562 1713 506 Q1825 433 1825 275 Q1825 129 1727 56 Q1629 -16 1455 -16 Q1230 -16 1146 90 Q1103 146 1090 267 L1283 267 Q1294 210 1323 183 Q1365 145 1456 145 Q1625 145 1625 276 Q1625 412 1466 412 Q1372 412 1273 347 L1144 408 Z M380 0 L1153 1475 L1350 1475 L577 0 L380 0 Z " />
<glyph glyph-name="uni2156" unicode="&#x2156;" horiz-adv-x="1973" d="M64 614 Q70 680 80 708 Q105 780 183 856 Q212 885 383 1029 Q494 1122 522 1154 Q559 1196 559 1235 Q559 1281 526 1305 Q490 1331 431 1331 Q283 1331 258 1171 L66 1171 Q90 1326 149 1391 Q241 1491 430 1491 Q582 1491 670 1430 Q761 1367 761 1239 Q761 1134 690 1055 Q637 997 518 911 Q405 830 351 775 L753 775 L753 614 L64 614 Z M1219 408 L1258 860 L1843 860 L1843 699 L1437 699 L1421 541 Q1491 562 1563 562 Q1703 562 1789 506 Q1901 433 1901 275 Q1901 129 1802 56 Q1704 -16 1530 -16 Q1306 -16 1222 90 Q1179 146 1166 267 L1359 267 Q1370 209 1399 183 Q1441 145 1532 145 Q1701 145 1701 276 Q1701 412 1542 412 Q1448 412 1349 347 L1219 408 Z M502 0 L1274 1475 L1471 1475 L699 0 L502 0 Z " />
</font>
</svg>
